<?xml version="1.0" encoding="utf-8" standalone="no"?>
<!DOCTYPE svg PUBLIC "-//W3C//DTD SVG 1.1//EN"
  "http://www.w3.org/Graphics/SVG/1.1/DTD/svg11.dtd">
<svg xmlns:xlink="http://www.w3.org/1999/xlink" width="432pt" height="288pt" viewBox="0 0 432 288" xmlns="http://www.w3.org/2000/svg" version="1.1">
 <metadata>
  <rdf:RDF xmlns:dc="http://purl.org/dc/elements/1.1/" xmlns:cc="http://creativecommons.org/ns#" xmlns:rdf="http://www.w3.org/1999/02/22-rdf-syntax-ns#">
   <cc:Work>
    <dc:type rdf:resource="http://purl.org/dc/dcmitype/StillImage"/>
    <dc:date>2023-05-11T13:48:33.639810</dc:date>
    <dc:format>image/svg+xml</dc:format>
    <dc:creator>
     <cc:Agent>
      <dc:title>Matplotlib v3.5.1, https://matplotlib.org/</dc:title>
     </cc:Agent>
    </dc:creator>
   </cc:Work>
  </rdf:RDF>
 </metadata>
 <defs>
  <style type="text/css">*{stroke-linejoin: round; stroke-linecap: butt}</style>
 </defs>
 <g id="figure_1">
  <g id="patch_1">
   <path d="M 0 288 
L 432 288 
L 432 0 
L 0 0 
L 0 288 
z
" style="fill: none"/>
  </g>
  <g id="axes_1">
   <g id="patch_2">
    <path d="M 54 252 
L 388.8 252 
L 388.8 34.56 
L 54 34.56 
z
" style="fill: #ffffff"/>
   </g>
   <g id="PolyCollection_1">
    <defs>
     <path id="m08441cf386" d="M 69.218182 -206.423928 
L 69.218182 -205.476542 
L 72.292562 -205.509188 
L 75.366942 -205.539504 
L 78.441322 -205.567479 
L 81.515702 -205.593102 
L 84.590083 -205.616365 
L 87.664463 -205.637258 
L 90.738843 -205.655772 
L 93.813223 -205.6719 
L 96.887603 -205.685636 
L 99.961983 -205.696972 
L 103.036364 -205.705904 
L 106.110744 -205.712427 
L 109.185124 -205.716537 
L 112.259504 -205.71823 
L 115.333884 -205.717504 
L 118.408264 -205.714358 
L 121.482645 -205.70879 
L 124.557025 -205.7008 
L 127.631405 -205.690388 
L 130.705785 -205.677557 
L 133.780165 -205.662306 
L 136.854545 -205.64464 
L 139.928926 -205.624562 
L 143.003306 -205.602076 
L 146.077686 -205.577187 
L 149.152066 -205.5499 
L 152.226446 -205.520223 
L 155.300826 -205.488162 
L 158.375207 -205.453725 
L 161.449587 -205.416921 
L 164.523967 -205.37776 
L 167.598347 -205.336251 
L 170.672727 -205.292405 
L 173.747107 -205.246235 
L 176.821488 -205.197752 
L 179.895868 -205.146969 
L 182.970248 -205.093901 
L 186.044628 -205.038561 
L 189.119008 -204.980966 
L 192.193388 -204.92113 
L 195.267769 -204.859072 
L 198.342149 -204.794806 
L 201.416529 -204.728353 
L 204.490909 -204.65973 
L 207.565289 -204.588957 
L 210.639669 -204.516053 
L 213.71405 -204.44104 
L 216.78843 -204.363938 
L 219.86281 -204.28477 
L 222.93719 -204.203557 
L 226.01157 -204.120323 
L 229.08595 -204.035091 
L 232.160331 -203.947887 
L 235.234711 -203.858734 
L 238.309091 -203.767657 
L 241.383471 -203.674684 
L 244.457851 -203.57984 
L 247.532231 -203.483152 
L 250.606612 -203.384647 
L 253.680992 -203.284355 
L 256.755372 -203.182302 
L 259.829752 -203.078518 
L 262.904132 -202.973032 
L 265.978512 -202.865874 
L 269.052893 -202.757074 
L 272.127273 -202.646663 
L 275.201653 -202.534672 
L 278.276033 -202.421131 
L 281.350413 -202.306073 
L 284.424793 -202.18953 
L 287.499174 -202.071534 
L 290.573554 -201.952117 
L 293.647934 -201.831313 
L 296.722314 -201.709155 
L 299.796694 -201.585676 
L 302.871074 -201.46091 
L 305.945455 -201.334891 
L 309.019835 -201.207653 
L 312.094215 -201.07923 
L 315.168595 -200.949658 
L 318.242975 -200.81897 
L 321.317355 -200.687201 
L 324.391736 -200.554387 
L 327.466116 -200.420563 
L 330.540496 -200.285763 
L 333.614876 -200.150022 
L 336.689256 -200.013378 
L 339.763636 -199.875863 
L 342.838017 -199.737515 
L 345.912397 -199.598368 
L 348.986777 -199.458457 
L 352.061157 -199.317819 
L 355.135537 -199.176489 
L 358.209917 -199.034501 
L 361.284298 -198.891892 
L 364.358678 -198.748696 
L 367.433058 -198.604948 
L 370.507438 -198.460685 
L 373.581818 -198.315939 
L 373.581818 -199.276593 
L 373.581818 -199.276593 
L 370.507438 -199.416594 
L 367.433058 -199.556156 
L 364.358678 -199.695248 
L 361.284298 -199.833836 
L 358.209917 -199.971887 
L 355.135537 -200.109368 
L 352.061157 -200.246246 
L 348.986777 -200.382487 
L 345.912397 -200.51806 
L 342.838017 -200.652929 
L 339.763636 -200.787063 
L 336.689256 -200.920429 
L 333.614876 -201.052992 
L 330.540496 -201.18472 
L 327.466116 -201.315579 
L 324.391736 -201.445538 
L 321.317355 -201.574562 
L 318.242975 -201.702619 
L 315.168595 -201.829677 
L 312.094215 -201.955702 
L 309.019835 -202.080662 
L 305.945455 -202.204525 
L 302.871074 -202.327259 
L 299.796694 -202.448831 
L 296.722314 -202.56921 
L 293.647934 -202.688364 
L 290.573554 -202.806262 
L 287.499174 -202.922872 
L 284.424793 -203.038164 
L 281.350413 -203.152107 
L 278.276033 -203.26467 
L 275.201653 -203.375823 
L 272.127273 -203.485537 
L 269.052893 -203.593781 
L 265.978512 -203.700526 
L 262.904132 -203.805744 
L 259.829752 -203.909405 
L 256.755372 -204.011482 
L 253.680992 -204.111946 
L 250.606612 -204.21077 
L 247.532231 -204.307927 
L 244.457851 -204.40339 
L 241.383471 -204.497132 
L 238.309091 -204.589127 
L 235.234711 -204.67935 
L 232.160331 -204.767776 
L 229.08595 -204.85438 
L 226.01157 -204.939138 
L 222.93719 -205.022026 
L 219.86281 -205.103021 
L 216.78843 -205.182099 
L 213.71405 -205.25924 
L 210.639669 -205.33442 
L 207.565289 -205.407619 
L 204.490909 -205.478816 
L 201.416529 -205.547991 
L 198.342149 -205.615124 
L 195.267769 -205.680196 
L 192.193388 -205.743189 
L 189.119008 -205.804085 
L 186.044628 -205.862865 
L 182.970248 -205.919515 
L 179.895868 -205.974016 
L 176.821488 -206.026355 
L 173.747107 -206.076516 
L 170.672727 -206.124485 
L 167.598347 -206.170247 
L 164.523967 -206.213791 
L 161.449587 -206.255104 
L 158.375207 -206.294174 
L 155.300826 -206.33099 
L 152.226446 -206.365542 
L 149.152066 -206.39782 
L 146.077686 -206.427815 
L 143.003306 -206.455519 
L 139.928926 -206.480924 
L 136.854545 -206.504024 
L 133.780165 -206.524812 
L 130.705785 -206.543282 
L 127.631405 -206.559431 
L 124.557025 -206.573253 
L 121.482645 -206.584746 
L 118.408264 -206.593906 
L 115.333884 -206.600733 
L 112.259504 -206.605224 
L 109.185124 -206.607379 
L 106.110744 -206.607199 
L 103.036364 -206.604684 
L 99.961983 -206.599836 
L 96.887603 -206.592658 
L 93.813223 -206.583152 
L 90.738843 -206.571322 
L 87.664463 -206.557174 
L 84.590083 -206.540712 
L 81.515702 -206.521942 
L 78.441322 -206.500871 
L 75.366942 -206.477506 
L 72.292562 -206.451855 
L 69.218182 -206.423928 
z
" style="stroke: #ff0000; stroke-opacity: 0.5"/>
    </defs>
    <g clip-path="url(#pefa6609d85)">
     <use xlink:href="#m08441cf386" x="0" y="288" style="fill: #ff0000; fill-opacity: 0.5; stroke: #ff0000; stroke-opacity: 0.5"/>
    </g>
   </g>
   <g id="PolyCollection_2">
    <defs>
     <path id="m8762efb317" d="M 69.218182 -206.897621 
L 69.218182 -205.002849 
L 72.292562 -205.037854 
L 75.366942 -205.070502 
L 78.441322 -205.100783 
L 81.515702 -205.128683 
L 84.590083 -205.154192 
L 87.664463 -205.1773 
L 90.738843 -205.197997 
L 93.813223 -205.216274 
L 96.887603 -205.232125 
L 99.961983 -205.24554 
L 103.036364 -205.256514 
L 106.110744 -205.265041 
L 109.185124 -205.271115 
L 112.259504 -205.274733 
L 115.333884 -205.27589 
L 118.408264 -205.274584 
L 121.482645 -205.270812 
L 124.557025 -205.264573 
L 127.631405 -205.255867 
L 130.705785 -205.244694 
L 133.780165 -205.231054 
L 136.854545 -205.214949 
L 139.928926 -205.196381 
L 143.003306 -205.175355 
L 146.077686 -205.151873 
L 149.152066 -205.125941 
L 152.226446 -205.097564 
L 155.300826 -205.066748 
L 158.375207 -205.033501 
L 161.449587 -204.99783 
L 164.523967 -204.959744 
L 167.598347 -204.919252 
L 170.672727 -204.876365 
L 173.747107 -204.831094 
L 176.821488 -204.78345 
L 179.895868 -204.733445 
L 182.970248 -204.681094 
L 186.044628 -204.626409 
L 189.119008 -204.569407 
L 192.193388 -204.510101 
L 195.267769 -204.448509 
L 198.342149 -204.384647 
L 201.416529 -204.318534 
L 204.490909 -204.250187 
L 207.565289 -204.179626 
L 210.639669 -204.10687 
L 213.71405 -204.03194 
L 216.78843 -203.954857 
L 219.86281 -203.875644 
L 222.93719 -203.794322 
L 226.01157 -203.710915 
L 229.08595 -203.625447 
L 232.160331 -203.537942 
L 235.234711 -203.448425 
L 238.309091 -203.356923 
L 241.383471 -203.26346 
L 244.457851 -203.168065 
L 247.532231 -203.070764 
L 250.606612 -202.971586 
L 253.680992 -202.870559 
L 256.755372 -202.767711 
L 259.829752 -202.663074 
L 262.904132 -202.556676 
L 265.978512 -202.448548 
L 269.052893 -202.338721 
L 272.127273 -202.227226 
L 275.201653 -202.114096 
L 278.276033 -201.999362 
L 281.350413 -201.883056 
L 284.424793 -201.765213 
L 287.499174 -201.645864 
L 290.573554 -201.525045 
L 293.647934 -201.402788 
L 296.722314 -201.279127 
L 299.796694 -201.154098 
L 302.871074 -201.027736 
L 305.945455 -200.900074 
L 309.019835 -200.771148 
L 312.094215 -200.640995 
L 315.168595 -200.509648 
L 318.242975 -200.377145 
L 321.317355 -200.243521 
L 324.391736 -200.108812 
L 327.466116 -199.973054 
L 330.540496 -199.836284 
L 333.614876 -199.698538 
L 336.689256 -199.559852 
L 339.763636 -199.420263 
L 342.838017 -199.279807 
L 345.912397 -199.138522 
L 348.986777 -198.996443 
L 352.061157 -198.853606 
L 355.135537 -198.71005 
L 358.209917 -198.565809 
L 361.284298 -198.42092 
L 364.358678 -198.27542 
L 367.433058 -198.129344 
L 370.507438 -197.98273 
L 373.581818 -197.835612 
L 373.581818 -199.75692 
L 373.581818 -199.75692 
L 370.507438 -199.894548 
L 367.433058 -200.03176 
L 364.358678 -200.168524 
L 361.284298 -200.304808 
L 358.209917 -200.440579 
L 355.135537 -200.575807 
L 352.061157 -200.710459 
L 348.986777 -200.844502 
L 345.912397 -200.977906 
L 342.838017 -201.110637 
L 339.763636 -201.242664 
L 336.689256 -201.373954 
L 333.614876 -201.504476 
L 330.540496 -201.634198 
L 327.466116 -201.763088 
L 324.391736 -201.891113 
L 321.317355 -202.018242 
L 318.242975 -202.144444 
L 315.168595 -202.269686 
L 312.094215 -202.393937 
L 309.019835 -202.517166 
L 305.945455 -202.639342 
L 302.871074 -202.760433 
L 299.796694 -202.880408 
L 296.722314 -202.999237 
L 293.647934 -203.11689 
L 290.573554 -203.233334 
L 287.499174 -203.348542 
L 284.424793 -203.462481 
L 281.350413 -203.575124 
L 278.276033 -203.68644 
L 275.201653 -203.796399 
L 272.127273 -203.904974 
L 269.052893 -204.012134 
L 265.978512 -204.117852 
L 262.904132 -204.2221 
L 259.829752 -204.324849 
L 256.755372 -204.426072 
L 253.680992 -204.525742 
L 250.606612 -204.623832 
L 247.532231 -204.720315 
L 244.457851 -204.815165 
L 241.383471 -204.908355 
L 238.309091 -204.999862 
L 235.234711 -205.089659 
L 232.160331 -205.177721 
L 229.08595 -205.264025 
L 226.01157 -205.348546 
L 222.93719 -205.431261 
L 219.86281 -205.512146 
L 216.78843 -205.59118 
L 213.71405 -205.66834 
L 210.639669 -205.743604 
L 207.565289 -205.816951 
L 204.490909 -205.88836 
L 201.416529 -205.95781 
L 198.342149 -206.025283 
L 195.267769 -206.090759 
L 192.193388 -206.154219 
L 189.119008 -206.215644 
L 186.044628 -206.275017 
L 182.970248 -206.332322 
L 179.895868 -206.38754 
L 176.821488 -206.440657 
L 173.747107 -206.491657 
L 170.672727 -206.540524 
L 167.598347 -206.587246 
L 164.523967 -206.631807 
L 161.449587 -206.674195 
L 158.375207 -206.714398 
L 155.300826 -206.752404 
L 152.226446 -206.788201 
L 149.152066 -206.821779 
L 146.077686 -206.853129 
L 143.003306 -206.88224 
L 139.928926 -206.909105 
L 136.854545 -206.933716 
L 133.780165 -206.956065 
L 130.705785 -206.976145 
L 127.631405 -206.993952 
L 124.557025 -207.00948 
L 121.482645 -207.022724 
L 118.408264 -207.033681 
L 115.333884 -207.042347 
L 112.259504 -207.048721 
L 109.185124 -207.0528 
L 106.110744 -207.054585 
L 103.036364 -207.054074 
L 99.961983 -207.051268 
L 96.887603 -207.046169 
L 93.813223 -207.038778 
L 90.738843 -207.029098 
L 87.664463 -207.017132 
L 84.590083 -207.002885 
L 81.515702 -206.986361 
L 78.441322 -206.967566 
L 75.366942 -206.946507 
L 72.292562 -206.923189 
L 69.218182 -206.897621 
z
" style="stroke: #ff0000; stroke-opacity: 0.3"/>
    </defs>
    <g clip-path="url(#pefa6609d85)">
     <use xlink:href="#m8762efb317" x="0" y="288" style="fill: #ff0000; fill-opacity: 0.3; stroke: #ff0000; stroke-opacity: 0.3"/>
    </g>
   </g>
   <g id="matplotlib.axis_1">
    <g id="xtick_1">
     <g id="line2d_1">
      <defs>
       <path id="m4f1cc87637" d="M 0 0 
L 0 3.5 
" style="stroke: #000000; stroke-width: 0.8"/>
      </defs>
      <g>
       <use xlink:href="#m4f1cc87637" x="64.241805" y="252" style="stroke: #000000; stroke-width: 0.8"/>
      </g>
     </g>
     <g id="text_1">
      <!-- 70 -->
      <g transform="translate(57.879305 266.598437)scale(0.1 -0.1)">
       <defs>
        <path id="DejaVuSans-37" d="M 525 4666 
L 3525 4666 
L 3525 4397 
L 1831 0 
L 1172 0 
L 2766 4134 
L 525 4134 
L 525 4666 
z
" transform="scale(0.015625)"/>
        <path id="DejaVuSans-30" d="M 2034 4250 
Q 1547 4250 1301 3770 
Q 1056 3291 1056 2328 
Q 1056 1369 1301 889 
Q 1547 409 2034 409 
Q 2525 409 2770 889 
Q 3016 1369 3016 2328 
Q 3016 3291 2770 3770 
Q 2525 4250 2034 4250 
z
M 2034 4750 
Q 2819 4750 3233 4129 
Q 3647 3509 3647 2328 
Q 3647 1150 3233 529 
Q 2819 -91 2034 -91 
Q 1250 -91 836 529 
Q 422 1150 422 2328 
Q 422 3509 836 4129 
Q 1250 4750 2034 4750 
z
" transform="scale(0.015625)"/>
       </defs>
       <use xlink:href="#DejaVuSans-37"/>
       <use xlink:href="#DejaVuSans-30" x="63.623047"/>
      </g>
     </g>
    </g>
    <g id="xtick_2">
     <g id="line2d_2">
      <g>
       <use xlink:href="#m4f1cc87637" x="111.802838" y="252" style="stroke: #000000; stroke-width: 0.8"/>
      </g>
     </g>
     <g id="text_2">
      <!-- 80 -->
      <g transform="translate(105.440338 266.598437)scale(0.1 -0.1)">
       <defs>
        <path id="DejaVuSans-38" d="M 2034 2216 
Q 1584 2216 1326 1975 
Q 1069 1734 1069 1313 
Q 1069 891 1326 650 
Q 1584 409 2034 409 
Q 2484 409 2743 651 
Q 3003 894 3003 1313 
Q 3003 1734 2745 1975 
Q 2488 2216 2034 2216 
z
M 1403 2484 
Q 997 2584 770 2862 
Q 544 3141 544 3541 
Q 544 4100 942 4425 
Q 1341 4750 2034 4750 
Q 2731 4750 3128 4425 
Q 3525 4100 3525 3541 
Q 3525 3141 3298 2862 
Q 3072 2584 2669 2484 
Q 3125 2378 3379 2068 
Q 3634 1759 3634 1313 
Q 3634 634 3220 271 
Q 2806 -91 2034 -91 
Q 1263 -91 848 271 
Q 434 634 434 1313 
Q 434 1759 690 2068 
Q 947 2378 1403 2484 
z
M 1172 3481 
Q 1172 3119 1398 2916 
Q 1625 2713 2034 2713 
Q 2441 2713 2670 2916 
Q 2900 3119 2900 3481 
Q 2900 3844 2670 4047 
Q 2441 4250 2034 4250 
Q 1625 4250 1398 4047 
Q 1172 3844 1172 3481 
z
" transform="scale(0.015625)"/>
       </defs>
       <use xlink:href="#DejaVuSans-38"/>
       <use xlink:href="#DejaVuSans-30" x="63.623047"/>
      </g>
     </g>
    </g>
    <g id="xtick_3">
     <g id="line2d_3">
      <g>
       <use xlink:href="#m4f1cc87637" x="159.36387" y="252" style="stroke: #000000; stroke-width: 0.8"/>
      </g>
     </g>
     <g id="text_3">
      <!-- 90 -->
      <g transform="translate(153.00137 266.598437)scale(0.1 -0.1)">
       <defs>
        <path id="DejaVuSans-39" d="M 703 97 
L 703 672 
Q 941 559 1184 500 
Q 1428 441 1663 441 
Q 2288 441 2617 861 
Q 2947 1281 2994 2138 
Q 2813 1869 2534 1725 
Q 2256 1581 1919 1581 
Q 1219 1581 811 2004 
Q 403 2428 403 3163 
Q 403 3881 828 4315 
Q 1253 4750 1959 4750 
Q 2769 4750 3195 4129 
Q 3622 3509 3622 2328 
Q 3622 1225 3098 567 
Q 2575 -91 1691 -91 
Q 1453 -91 1209 -44 
Q 966 3 703 97 
z
M 1959 2075 
Q 2384 2075 2632 2365 
Q 2881 2656 2881 3163 
Q 2881 3666 2632 3958 
Q 2384 4250 1959 4250 
Q 1534 4250 1286 3958 
Q 1038 3666 1038 3163 
Q 1038 2656 1286 2365 
Q 1534 2075 1959 2075 
z
" transform="scale(0.015625)"/>
       </defs>
       <use xlink:href="#DejaVuSans-39"/>
       <use xlink:href="#DejaVuSans-30" x="63.623047"/>
      </g>
     </g>
    </g>
    <g id="xtick_4">
     <g id="line2d_4">
      <g>
       <use xlink:href="#m4f1cc87637" x="206.924903" y="252" style="stroke: #000000; stroke-width: 0.8"/>
      </g>
     </g>
     <g id="text_4">
      <!-- 100 -->
      <g transform="translate(197.381153 266.598437)scale(0.1 -0.1)">
       <defs>
        <path id="DejaVuSans-31" d="M 794 531 
L 1825 531 
L 1825 4091 
L 703 3866 
L 703 4441 
L 1819 4666 
L 2450 4666 
L 2450 531 
L 3481 531 
L 3481 0 
L 794 0 
L 794 531 
z
" transform="scale(0.015625)"/>
       </defs>
       <use xlink:href="#DejaVuSans-31"/>
       <use xlink:href="#DejaVuSans-30" x="63.623047"/>
       <use xlink:href="#DejaVuSans-30" x="127.246094"/>
      </g>
     </g>
    </g>
    <g id="xtick_5">
     <g id="line2d_5">
      <g>
       <use xlink:href="#m4f1cc87637" x="254.485936" y="252" style="stroke: #000000; stroke-width: 0.8"/>
      </g>
     </g>
     <g id="text_5">
      <!-- 110 -->
      <g transform="translate(244.942186 266.598437)scale(0.1 -0.1)">
       <use xlink:href="#DejaVuSans-31"/>
       <use xlink:href="#DejaVuSans-31" x="63.623047"/>
       <use xlink:href="#DejaVuSans-30" x="127.246094"/>
      </g>
     </g>
    </g>
    <g id="xtick_6">
     <g id="line2d_6">
      <g>
       <use xlink:href="#m4f1cc87637" x="302.046969" y="252" style="stroke: #000000; stroke-width: 0.8"/>
      </g>
     </g>
     <g id="text_6">
      <!-- 120 -->
      <g transform="translate(292.503219 266.598437)scale(0.1 -0.1)">
       <defs>
        <path id="DejaVuSans-32" d="M 1228 531 
L 3431 531 
L 3431 0 
L 469 0 
L 469 531 
Q 828 903 1448 1529 
Q 2069 2156 2228 2338 
Q 2531 2678 2651 2914 
Q 2772 3150 2772 3378 
Q 2772 3750 2511 3984 
Q 2250 4219 1831 4219 
Q 1534 4219 1204 4116 
Q 875 4013 500 3803 
L 500 4441 
Q 881 4594 1212 4672 
Q 1544 4750 1819 4750 
Q 2544 4750 2975 4387 
Q 3406 4025 3406 3419 
Q 3406 3131 3298 2873 
Q 3191 2616 2906 2266 
Q 2828 2175 2409 1742 
Q 1991 1309 1228 531 
z
" transform="scale(0.015625)"/>
       </defs>
       <use xlink:href="#DejaVuSans-31"/>
       <use xlink:href="#DejaVuSans-32" x="63.623047"/>
       <use xlink:href="#DejaVuSans-30" x="127.246094"/>
      </g>
     </g>
    </g>
    <g id="xtick_7">
     <g id="line2d_7">
      <g>
       <use xlink:href="#m4f1cc87637" x="349.608001" y="252" style="stroke: #000000; stroke-width: 0.8"/>
      </g>
     </g>
     <g id="text_7">
      <!-- 130 -->
      <g transform="translate(340.064251 266.598437)scale(0.1 -0.1)">
       <defs>
        <path id="DejaVuSans-33" d="M 2597 2516 
Q 3050 2419 3304 2112 
Q 3559 1806 3559 1356 
Q 3559 666 3084 287 
Q 2609 -91 1734 -91 
Q 1441 -91 1130 -33 
Q 819 25 488 141 
L 488 750 
Q 750 597 1062 519 
Q 1375 441 1716 441 
Q 2309 441 2620 675 
Q 2931 909 2931 1356 
Q 2931 1769 2642 2001 
Q 2353 2234 1838 2234 
L 1294 2234 
L 1294 2753 
L 1863 2753 
Q 2328 2753 2575 2939 
Q 2822 3125 2822 3475 
Q 2822 3834 2567 4026 
Q 2313 4219 1838 4219 
Q 1578 4219 1281 4162 
Q 984 4106 628 3988 
L 628 4550 
Q 988 4650 1302 4700 
Q 1616 4750 1894 4750 
Q 2613 4750 3031 4423 
Q 3450 4097 3450 3541 
Q 3450 3153 3228 2886 
Q 3006 2619 2597 2516 
z
" transform="scale(0.015625)"/>
       </defs>
       <use xlink:href="#DejaVuSans-31"/>
       <use xlink:href="#DejaVuSans-33" x="63.623047"/>
       <use xlink:href="#DejaVuSans-30" x="127.246094"/>
      </g>
     </g>
    </g>
    <g id="text_8">
     <!-- Screw Speed (RPM) -->
     <g transform="translate(172.809375 280.276563)scale(0.1 -0.1)">
      <defs>
       <path id="DejaVuSans-53" d="M 3425 4513 
L 3425 3897 
Q 3066 4069 2747 4153 
Q 2428 4238 2131 4238 
Q 1616 4238 1336 4038 
Q 1056 3838 1056 3469 
Q 1056 3159 1242 3001 
Q 1428 2844 1947 2747 
L 2328 2669 
Q 3034 2534 3370 2195 
Q 3706 1856 3706 1288 
Q 3706 609 3251 259 
Q 2797 -91 1919 -91 
Q 1588 -91 1214 -16 
Q 841 59 441 206 
L 441 856 
Q 825 641 1194 531 
Q 1563 422 1919 422 
Q 2459 422 2753 634 
Q 3047 847 3047 1241 
Q 3047 1584 2836 1778 
Q 2625 1972 2144 2069 
L 1759 2144 
Q 1053 2284 737 2584 
Q 422 2884 422 3419 
Q 422 4038 858 4394 
Q 1294 4750 2059 4750 
Q 2388 4750 2728 4690 
Q 3069 4631 3425 4513 
z
" transform="scale(0.015625)"/>
       <path id="DejaVuSans-63" d="M 3122 3366 
L 3122 2828 
Q 2878 2963 2633 3030 
Q 2388 3097 2138 3097 
Q 1578 3097 1268 2742 
Q 959 2388 959 1747 
Q 959 1106 1268 751 
Q 1578 397 2138 397 
Q 2388 397 2633 464 
Q 2878 531 3122 666 
L 3122 134 
Q 2881 22 2623 -34 
Q 2366 -91 2075 -91 
Q 1284 -91 818 406 
Q 353 903 353 1747 
Q 353 2603 823 3093 
Q 1294 3584 2113 3584 
Q 2378 3584 2631 3529 
Q 2884 3475 3122 3366 
z
" transform="scale(0.015625)"/>
       <path id="DejaVuSans-72" d="M 2631 2963 
Q 2534 3019 2420 3045 
Q 2306 3072 2169 3072 
Q 1681 3072 1420 2755 
Q 1159 2438 1159 1844 
L 1159 0 
L 581 0 
L 581 3500 
L 1159 3500 
L 1159 2956 
Q 1341 3275 1631 3429 
Q 1922 3584 2338 3584 
Q 2397 3584 2469 3576 
Q 2541 3569 2628 3553 
L 2631 2963 
z
" transform="scale(0.015625)"/>
       <path id="DejaVuSans-65" d="M 3597 1894 
L 3597 1613 
L 953 1613 
Q 991 1019 1311 708 
Q 1631 397 2203 397 
Q 2534 397 2845 478 
Q 3156 559 3463 722 
L 3463 178 
Q 3153 47 2828 -22 
Q 2503 -91 2169 -91 
Q 1331 -91 842 396 
Q 353 884 353 1716 
Q 353 2575 817 3079 
Q 1281 3584 2069 3584 
Q 2775 3584 3186 3129 
Q 3597 2675 3597 1894 
z
M 3022 2063 
Q 3016 2534 2758 2815 
Q 2500 3097 2075 3097 
Q 1594 3097 1305 2825 
Q 1016 2553 972 2059 
L 3022 2063 
z
" transform="scale(0.015625)"/>
       <path id="DejaVuSans-77" d="M 269 3500 
L 844 3500 
L 1563 769 
L 2278 3500 
L 2956 3500 
L 3675 769 
L 4391 3500 
L 4966 3500 
L 4050 0 
L 3372 0 
L 2619 2869 
L 1863 0 
L 1184 0 
L 269 3500 
z
" transform="scale(0.015625)"/>
       <path id="DejaVuSans-20" transform="scale(0.015625)"/>
       <path id="DejaVuSans-70" d="M 1159 525 
L 1159 -1331 
L 581 -1331 
L 581 3500 
L 1159 3500 
L 1159 2969 
Q 1341 3281 1617 3432 
Q 1894 3584 2278 3584 
Q 2916 3584 3314 3078 
Q 3713 2572 3713 1747 
Q 3713 922 3314 415 
Q 2916 -91 2278 -91 
Q 1894 -91 1617 61 
Q 1341 213 1159 525 
z
M 3116 1747 
Q 3116 2381 2855 2742 
Q 2594 3103 2138 3103 
Q 1681 3103 1420 2742 
Q 1159 2381 1159 1747 
Q 1159 1113 1420 752 
Q 1681 391 2138 391 
Q 2594 391 2855 752 
Q 3116 1113 3116 1747 
z
" transform="scale(0.015625)"/>
       <path id="DejaVuSans-64" d="M 2906 2969 
L 2906 4863 
L 3481 4863 
L 3481 0 
L 2906 0 
L 2906 525 
Q 2725 213 2448 61 
Q 2172 -91 1784 -91 
Q 1150 -91 751 415 
Q 353 922 353 1747 
Q 353 2572 751 3078 
Q 1150 3584 1784 3584 
Q 2172 3584 2448 3432 
Q 2725 3281 2906 2969 
z
M 947 1747 
Q 947 1113 1208 752 
Q 1469 391 1925 391 
Q 2381 391 2643 752 
Q 2906 1113 2906 1747 
Q 2906 2381 2643 2742 
Q 2381 3103 1925 3103 
Q 1469 3103 1208 2742 
Q 947 2381 947 1747 
z
" transform="scale(0.015625)"/>
       <path id="DejaVuSans-28" d="M 1984 4856 
Q 1566 4138 1362 3434 
Q 1159 2731 1159 2009 
Q 1159 1288 1364 580 
Q 1569 -128 1984 -844 
L 1484 -844 
Q 1016 -109 783 600 
Q 550 1309 550 2009 
Q 550 2706 781 3412 
Q 1013 4119 1484 4856 
L 1984 4856 
z
" transform="scale(0.015625)"/>
       <path id="DejaVuSans-52" d="M 2841 2188 
Q 3044 2119 3236 1894 
Q 3428 1669 3622 1275 
L 4263 0 
L 3584 0 
L 2988 1197 
Q 2756 1666 2539 1819 
Q 2322 1972 1947 1972 
L 1259 1972 
L 1259 0 
L 628 0 
L 628 4666 
L 2053 4666 
Q 2853 4666 3247 4331 
Q 3641 3997 3641 3322 
Q 3641 2881 3436 2590 
Q 3231 2300 2841 2188 
z
M 1259 4147 
L 1259 2491 
L 2053 2491 
Q 2509 2491 2742 2702 
Q 2975 2913 2975 3322 
Q 2975 3731 2742 3939 
Q 2509 4147 2053 4147 
L 1259 4147 
z
" transform="scale(0.015625)"/>
       <path id="DejaVuSans-50" d="M 1259 4147 
L 1259 2394 
L 2053 2394 
Q 2494 2394 2734 2622 
Q 2975 2850 2975 3272 
Q 2975 3691 2734 3919 
Q 2494 4147 2053 4147 
L 1259 4147 
z
M 628 4666 
L 2053 4666 
Q 2838 4666 3239 4311 
Q 3641 3956 3641 3272 
Q 3641 2581 3239 2228 
Q 2838 1875 2053 1875 
L 1259 1875 
L 1259 0 
L 628 0 
L 628 4666 
z
" transform="scale(0.015625)"/>
       <path id="DejaVuSans-4d" d="M 628 4666 
L 1569 4666 
L 2759 1491 
L 3956 4666 
L 4897 4666 
L 4897 0 
L 4281 0 
L 4281 4097 
L 3078 897 
L 2444 897 
L 1241 4097 
L 1241 0 
L 628 0 
L 628 4666 
z
" transform="scale(0.015625)"/>
       <path id="DejaVuSans-29" d="M 513 4856 
L 1013 4856 
Q 1481 4119 1714 3412 
Q 1947 2706 1947 2009 
Q 1947 1309 1714 600 
Q 1481 -109 1013 -844 
L 513 -844 
Q 928 -128 1133 580 
Q 1338 1288 1338 2009 
Q 1338 2731 1133 3434 
Q 928 4138 513 4856 
z
" transform="scale(0.015625)"/>
      </defs>
      <use xlink:href="#DejaVuSans-53"/>
      <use xlink:href="#DejaVuSans-63" x="63.476562"/>
      <use xlink:href="#DejaVuSans-72" x="118.457031"/>
      <use xlink:href="#DejaVuSans-65" x="157.320312"/>
      <use xlink:href="#DejaVuSans-77" x="218.84375"/>
      <use xlink:href="#DejaVuSans-20" x="300.630859"/>
      <use xlink:href="#DejaVuSans-53" x="332.417969"/>
      <use xlink:href="#DejaVuSans-70" x="395.894531"/>
      <use xlink:href="#DejaVuSans-65" x="459.371094"/>
      <use xlink:href="#DejaVuSans-65" x="520.894531"/>
      <use xlink:href="#DejaVuSans-64" x="582.417969"/>
      <use xlink:href="#DejaVuSans-20" x="645.894531"/>
      <use xlink:href="#DejaVuSans-28" x="677.681641"/>
      <use xlink:href="#DejaVuSans-52" x="716.695312"/>
      <use xlink:href="#DejaVuSans-50" x="786.177734"/>
      <use xlink:href="#DejaVuSans-4d" x="846.480469"/>
      <use xlink:href="#DejaVuSans-29" x="932.759766"/>
     </g>
    </g>
   </g>
   <g id="matplotlib.axis_2">
    <g id="ytick_1">
     <g id="line2d_8">
      <defs>
       <path id="m6d2cbb6cb9" d="M 0 0 
L -3.5 0 
" style="stroke: #000000; stroke-width: 0.8"/>
      </defs>
      <g>
       <use xlink:href="#m6d2cbb6cb9" x="54" y="252" style="stroke: #000000; stroke-width: 0.8"/>
      </g>
     </g>
     <g id="text_9">
      <!-- 400 -->
      <g transform="translate(27.9125 255.799219)scale(0.1 -0.1)">
       <defs>
        <path id="DejaVuSans-34" d="M 2419 4116 
L 825 1625 
L 2419 1625 
L 2419 4116 
z
M 2253 4666 
L 3047 4666 
L 3047 1625 
L 3713 1625 
L 3713 1100 
L 3047 1100 
L 3047 0 
L 2419 0 
L 2419 1100 
L 313 1100 
L 313 1709 
L 2253 4666 
z
" transform="scale(0.015625)"/>
       </defs>
       <use xlink:href="#DejaVuSans-34"/>
       <use xlink:href="#DejaVuSans-30" x="63.623047"/>
       <use xlink:href="#DejaVuSans-30" x="127.246094"/>
      </g>
     </g>
    </g>
    <g id="ytick_2">
     <g id="line2d_9">
      <g>
       <use xlink:href="#m6d2cbb6cb9" x="54" y="215.76" style="stroke: #000000; stroke-width: 0.8"/>
      </g>
     </g>
     <g id="text_10">
      <!-- 450 -->
      <g transform="translate(27.9125 219.559219)scale(0.1 -0.1)">
       <defs>
        <path id="DejaVuSans-35" d="M 691 4666 
L 3169 4666 
L 3169 4134 
L 1269 4134 
L 1269 2991 
Q 1406 3038 1543 3061 
Q 1681 3084 1819 3084 
Q 2600 3084 3056 2656 
Q 3513 2228 3513 1497 
Q 3513 744 3044 326 
Q 2575 -91 1722 -91 
Q 1428 -91 1123 -41 
Q 819 9 494 109 
L 494 744 
Q 775 591 1075 516 
Q 1375 441 1709 441 
Q 2250 441 2565 725 
Q 2881 1009 2881 1497 
Q 2881 1984 2565 2268 
Q 2250 2553 1709 2553 
Q 1456 2553 1204 2497 
Q 953 2441 691 2322 
L 691 4666 
z
" transform="scale(0.015625)"/>
       </defs>
       <use xlink:href="#DejaVuSans-34"/>
       <use xlink:href="#DejaVuSans-35" x="63.623047"/>
       <use xlink:href="#DejaVuSans-30" x="127.246094"/>
      </g>
     </g>
    </g>
    <g id="ytick_3">
     <g id="line2d_10">
      <g>
       <use xlink:href="#m6d2cbb6cb9" x="54" y="179.52" style="stroke: #000000; stroke-width: 0.8"/>
      </g>
     </g>
     <g id="text_11">
      <!-- 500 -->
      <g transform="translate(27.9125 183.319219)scale(0.1 -0.1)">
       <use xlink:href="#DejaVuSans-35"/>
       <use xlink:href="#DejaVuSans-30" x="63.623047"/>
       <use xlink:href="#DejaVuSans-30" x="127.246094"/>
      </g>
     </g>
    </g>
    <g id="ytick_4">
     <g id="line2d_11">
      <g>
       <use xlink:href="#m6d2cbb6cb9" x="54" y="143.28" style="stroke: #000000; stroke-width: 0.8"/>
      </g>
     </g>
     <g id="text_12">
      <!-- 550 -->
      <g transform="translate(27.9125 147.079219)scale(0.1 -0.1)">
       <use xlink:href="#DejaVuSans-35"/>
       <use xlink:href="#DejaVuSans-35" x="63.623047"/>
       <use xlink:href="#DejaVuSans-30" x="127.246094"/>
      </g>
     </g>
    </g>
    <g id="ytick_5">
     <g id="line2d_12">
      <g>
       <use xlink:href="#m6d2cbb6cb9" x="54" y="107.04" style="stroke: #000000; stroke-width: 0.8"/>
      </g>
     </g>
     <g id="text_13">
      <!-- 600 -->
      <g transform="translate(27.9125 110.839219)scale(0.1 -0.1)">
       <defs>
        <path id="DejaVuSans-36" d="M 2113 2584 
Q 1688 2584 1439 2293 
Q 1191 2003 1191 1497 
Q 1191 994 1439 701 
Q 1688 409 2113 409 
Q 2538 409 2786 701 
Q 3034 994 3034 1497 
Q 3034 2003 2786 2293 
Q 2538 2584 2113 2584 
z
M 3366 4563 
L 3366 3988 
Q 3128 4100 2886 4159 
Q 2644 4219 2406 4219 
Q 1781 4219 1451 3797 
Q 1122 3375 1075 2522 
Q 1259 2794 1537 2939 
Q 1816 3084 2150 3084 
Q 2853 3084 3261 2657 
Q 3669 2231 3669 1497 
Q 3669 778 3244 343 
Q 2819 -91 2113 -91 
Q 1303 -91 875 529 
Q 447 1150 447 2328 
Q 447 3434 972 4092 
Q 1497 4750 2381 4750 
Q 2619 4750 2861 4703 
Q 3103 4656 3366 4563 
z
" transform="scale(0.015625)"/>
       </defs>
       <use xlink:href="#DejaVuSans-36"/>
       <use xlink:href="#DejaVuSans-30" x="63.623047"/>
       <use xlink:href="#DejaVuSans-30" x="127.246094"/>
      </g>
     </g>
    </g>
    <g id="ytick_6">
     <g id="line2d_13">
      <g>
       <use xlink:href="#m6d2cbb6cb9" x="54" y="70.8" style="stroke: #000000; stroke-width: 0.8"/>
      </g>
     </g>
     <g id="text_14">
      <!-- 650 -->
      <g transform="translate(27.9125 74.599219)scale(0.1 -0.1)">
       <use xlink:href="#DejaVuSans-36"/>
       <use xlink:href="#DejaVuSans-35" x="63.623047"/>
       <use xlink:href="#DejaVuSans-30" x="127.246094"/>
      </g>
     </g>
    </g>
    <g id="ytick_7">
     <g id="line2d_14">
      <g>
       <use xlink:href="#m6d2cbb6cb9" x="54" y="34.56" style="stroke: #000000; stroke-width: 0.8"/>
      </g>
     </g>
     <g id="text_15">
      <!-- 700 -->
      <g transform="translate(27.9125 38.359219)scale(0.1 -0.1)">
       <use xlink:href="#DejaVuSans-37"/>
       <use xlink:href="#DejaVuSans-30" x="63.623047"/>
       <use xlink:href="#DejaVuSans-30" x="127.246094"/>
      </g>
     </g>
    </g>
    <g id="text_16">
     <!-- Toughness (J/m2) -->
     <g style="fill: #ff0000" transform="translate(21.832812 186.21125)rotate(-90)scale(0.1 -0.1)">
      <defs>
       <path id="DejaVuSans-54" d="M -19 4666 
L 3928 4666 
L 3928 4134 
L 2272 4134 
L 2272 0 
L 1638 0 
L 1638 4134 
L -19 4134 
L -19 4666 
z
" transform="scale(0.015625)"/>
       <path id="DejaVuSans-6f" d="M 1959 3097 
Q 1497 3097 1228 2736 
Q 959 2375 959 1747 
Q 959 1119 1226 758 
Q 1494 397 1959 397 
Q 2419 397 2687 759 
Q 2956 1122 2956 1747 
Q 2956 2369 2687 2733 
Q 2419 3097 1959 3097 
z
M 1959 3584 
Q 2709 3584 3137 3096 
Q 3566 2609 3566 1747 
Q 3566 888 3137 398 
Q 2709 -91 1959 -91 
Q 1206 -91 779 398 
Q 353 888 353 1747 
Q 353 2609 779 3096 
Q 1206 3584 1959 3584 
z
" transform="scale(0.015625)"/>
       <path id="DejaVuSans-75" d="M 544 1381 
L 544 3500 
L 1119 3500 
L 1119 1403 
Q 1119 906 1312 657 
Q 1506 409 1894 409 
Q 2359 409 2629 706 
Q 2900 1003 2900 1516 
L 2900 3500 
L 3475 3500 
L 3475 0 
L 2900 0 
L 2900 538 
Q 2691 219 2414 64 
Q 2138 -91 1772 -91 
Q 1169 -91 856 284 
Q 544 659 544 1381 
z
M 1991 3584 
L 1991 3584 
z
" transform="scale(0.015625)"/>
       <path id="DejaVuSans-67" d="M 2906 1791 
Q 2906 2416 2648 2759 
Q 2391 3103 1925 3103 
Q 1463 3103 1205 2759 
Q 947 2416 947 1791 
Q 947 1169 1205 825 
Q 1463 481 1925 481 
Q 2391 481 2648 825 
Q 2906 1169 2906 1791 
z
M 3481 434 
Q 3481 -459 3084 -895 
Q 2688 -1331 1869 -1331 
Q 1566 -1331 1297 -1286 
Q 1028 -1241 775 -1147 
L 775 -588 
Q 1028 -725 1275 -790 
Q 1522 -856 1778 -856 
Q 2344 -856 2625 -561 
Q 2906 -266 2906 331 
L 2906 616 
Q 2728 306 2450 153 
Q 2172 0 1784 0 
Q 1141 0 747 490 
Q 353 981 353 1791 
Q 353 2603 747 3093 
Q 1141 3584 1784 3584 
Q 2172 3584 2450 3431 
Q 2728 3278 2906 2969 
L 2906 3500 
L 3481 3500 
L 3481 434 
z
" transform="scale(0.015625)"/>
       <path id="DejaVuSans-68" d="M 3513 2113 
L 3513 0 
L 2938 0 
L 2938 2094 
Q 2938 2591 2744 2837 
Q 2550 3084 2163 3084 
Q 1697 3084 1428 2787 
Q 1159 2491 1159 1978 
L 1159 0 
L 581 0 
L 581 4863 
L 1159 4863 
L 1159 2956 
Q 1366 3272 1645 3428 
Q 1925 3584 2291 3584 
Q 2894 3584 3203 3211 
Q 3513 2838 3513 2113 
z
" transform="scale(0.015625)"/>
       <path id="DejaVuSans-6e" d="M 3513 2113 
L 3513 0 
L 2938 0 
L 2938 2094 
Q 2938 2591 2744 2837 
Q 2550 3084 2163 3084 
Q 1697 3084 1428 2787 
Q 1159 2491 1159 1978 
L 1159 0 
L 581 0 
L 581 3500 
L 1159 3500 
L 1159 2956 
Q 1366 3272 1645 3428 
Q 1925 3584 2291 3584 
Q 2894 3584 3203 3211 
Q 3513 2838 3513 2113 
z
" transform="scale(0.015625)"/>
       <path id="DejaVuSans-73" d="M 2834 3397 
L 2834 2853 
Q 2591 2978 2328 3040 
Q 2066 3103 1784 3103 
Q 1356 3103 1142 2972 
Q 928 2841 928 2578 
Q 928 2378 1081 2264 
Q 1234 2150 1697 2047 
L 1894 2003 
Q 2506 1872 2764 1633 
Q 3022 1394 3022 966 
Q 3022 478 2636 193 
Q 2250 -91 1575 -91 
Q 1294 -91 989 -36 
Q 684 19 347 128 
L 347 722 
Q 666 556 975 473 
Q 1284 391 1588 391 
Q 1994 391 2212 530 
Q 2431 669 2431 922 
Q 2431 1156 2273 1281 
Q 2116 1406 1581 1522 
L 1381 1569 
Q 847 1681 609 1914 
Q 372 2147 372 2553 
Q 372 3047 722 3315 
Q 1072 3584 1716 3584 
Q 2034 3584 2315 3537 
Q 2597 3491 2834 3397 
z
" transform="scale(0.015625)"/>
       <path id="DejaVuSans-4a" d="M 628 4666 
L 1259 4666 
L 1259 325 
Q 1259 -519 939 -900 
Q 619 -1281 -91 -1281 
L -331 -1281 
L -331 -750 
L -134 -750 
Q 284 -750 456 -515 
Q 628 -281 628 325 
L 628 4666 
z
" transform="scale(0.015625)"/>
       <path id="DejaVuSans-2f" d="M 1625 4666 
L 2156 4666 
L 531 -594 
L 0 -594 
L 1625 4666 
z
" transform="scale(0.015625)"/>
       <path id="DejaVuSans-6d" d="M 3328 2828 
Q 3544 3216 3844 3400 
Q 4144 3584 4550 3584 
Q 5097 3584 5394 3201 
Q 5691 2819 5691 2113 
L 5691 0 
L 5113 0 
L 5113 2094 
Q 5113 2597 4934 2840 
Q 4756 3084 4391 3084 
Q 3944 3084 3684 2787 
Q 3425 2491 3425 1978 
L 3425 0 
L 2847 0 
L 2847 2094 
Q 2847 2600 2669 2842 
Q 2491 3084 2119 3084 
Q 1678 3084 1418 2786 
Q 1159 2488 1159 1978 
L 1159 0 
L 581 0 
L 581 3500 
L 1159 3500 
L 1159 2956 
Q 1356 3278 1631 3431 
Q 1906 3584 2284 3584 
Q 2666 3584 2933 3390 
Q 3200 3197 3328 2828 
z
" transform="scale(0.015625)"/>
      </defs>
      <use xlink:href="#DejaVuSans-54"/>
      <use xlink:href="#DejaVuSans-6f" x="44.083984"/>
      <use xlink:href="#DejaVuSans-75" x="105.265625"/>
      <use xlink:href="#DejaVuSans-67" x="168.644531"/>
      <use xlink:href="#DejaVuSans-68" x="232.121094"/>
      <use xlink:href="#DejaVuSans-6e" x="295.5"/>
      <use xlink:href="#DejaVuSans-65" x="358.878906"/>
      <use xlink:href="#DejaVuSans-73" x="420.402344"/>
      <use xlink:href="#DejaVuSans-73" x="472.501953"/>
      <use xlink:href="#DejaVuSans-20" x="524.601562"/>
      <use xlink:href="#DejaVuSans-28" x="556.388672"/>
      <use xlink:href="#DejaVuSans-4a" x="595.402344"/>
      <use xlink:href="#DejaVuSans-2f" x="624.894531"/>
      <use xlink:href="#DejaVuSans-6d" x="658.585938"/>
      <use xlink:href="#DejaVuSans-32" x="755.998047"/>
      <use xlink:href="#DejaVuSans-29" x="819.621094"/>
     </g>
    </g>
   </g>
   <g id="line2d_15">
    <path d="M 69.218182 82.049765 
L 72.292562 82.019479 
L 75.366942 81.991495 
L 78.441322 81.965825 
L 81.515702 81.942478 
L 84.590083 81.921462 
L 87.664463 81.902784 
L 90.738843 81.886453 
L 93.813223 81.872474 
L 96.887603 81.860853 
L 99.961983 81.851596 
L 103.036364 81.844706 
L 106.110744 81.840187 
L 109.185124 81.838042 
L 112.259504 81.838273 
L 115.333884 81.840881 
L 118.408264 81.845868 
L 121.482645 81.853232 
L 124.557025 81.862973 
L 127.631405 81.87509 
L 130.705785 81.889581 
L 133.780165 81.906441 
L 136.854545 81.925668 
L 139.928926 81.947257 
L 143.003306 81.971202 
L 146.077686 81.997499 
L 149.152066 82.02614 
L 152.226446 82.057118 
L 155.300826 82.090424 
L 158.375207 82.126051 
L 161.449587 82.163988 
L 164.523967 82.204225 
L 167.598347 82.246751 
L 170.672727 82.291555 
L 173.747107 82.338625 
L 176.821488 82.387947 
L 179.895868 82.439507 
L 182.970248 82.493292 
L 186.044628 82.549287 
L 189.119008 82.607475 
L 192.193388 82.66784 
L 195.267769 82.730366 
L 198.342149 82.795035 
L 201.416529 82.861828 
L 204.490909 82.930727 
L 207.565289 83.001712 
L 210.639669 83.074763 
L 213.71405 83.14986 
L 216.78843 83.226981 
L 219.86281 83.306105 
L 222.93719 83.387209 
L 226.01157 83.470269 
L 229.08595 83.555264 
L 232.160331 83.642168 
L 235.234711 83.730958 
L 238.309091 83.821608 
L 241.383471 83.914092 
L 244.457851 84.008385 
L 247.532231 84.104461 
L 250.606612 84.202291 
L 253.680992 84.30185 
L 256.755372 84.403108 
L 259.829752 84.506038 
L 262.904132 84.610612 
L 265.978512 84.7168 
L 269.052893 84.824572 
L 272.127273 84.9339 
L 275.201653 85.044753 
L 278.276033 85.157099 
L 281.350413 85.27091 
L 284.424793 85.386153 
L 287.499174 85.502797 
L 290.573554 85.620811 
L 293.647934 85.740161 
L 296.722314 85.860818 
L 299.796694 85.982747 
L 302.871074 86.105916 
L 305.945455 86.230292 
L 309.019835 86.355843 
L 312.094215 86.482534 
L 315.168595 86.610333 
L 318.242975 86.739206 
L 321.317355 86.869118 
L 324.391736 87.000038 
L 327.466116 87.131929 
L 330.540496 87.264759 
L 333.614876 87.398493 
L 336.689256 87.533097 
L 339.763636 87.668537 
L 342.838017 87.804778 
L 345.912397 87.941786 
L 348.986777 88.079528 
L 352.061157 88.217968 
L 355.135537 88.357072 
L 358.209917 88.496806 
L 361.284298 88.637136 
L 364.358678 88.778028 
L 367.433058 88.919448 
L 370.507438 89.061361 
L 373.581818 89.203734 
" clip-path="url(#pefa6609d85)" style="fill: none; stroke: #ff0000; stroke-width: 0.5; stroke-linecap: square"/>
   </g>
   <g id="line2d_16">
    <path d="M 302.046969 252 
L 302.046969 34.56 
" clip-path="url(#pefa6609d85)" style="fill: none; stroke-dasharray: 5.55,2.4; stroke-dashoffset: 0; stroke: #808080; stroke-opacity: 0.7; stroke-width: 1.5"/>
   </g>
   <g id="patch_3">
    <path d="M 54 252 
L 54 34.56 
" style="fill: none; stroke: #000000; stroke-width: 0.8; stroke-linejoin: miter; stroke-linecap: square"/>
   </g>
   <g id="patch_4">
    <path d="M 388.8 252 
L 388.8 34.56 
" style="fill: none; stroke: #000000; stroke-width: 0.8; stroke-linejoin: miter; stroke-linecap: square"/>
   </g>
   <g id="patch_5">
    <path d="M 54 252 
L 388.8 252 
" style="fill: none; stroke: #000000; stroke-width: 0.8; stroke-linejoin: miter; stroke-linecap: square"/>
   </g>
   <g id="patch_6">
    <path d="M 54 34.56 
L 388.8 34.56 
" style="fill: none; stroke: #000000; stroke-width: 0.8; stroke-linejoin: miter; stroke-linecap: square"/>
   </g>
  </g>
  <g id="axes_2">
   <g id="PolyCollection_3">
    <defs>
     <path id="md24bd4e40d" d="M 69.218182 -181.651241 
L 69.218182 -158.181772 
L 72.292562 -158.098963 
L 75.366942 -158.006426 
L 78.441322 -157.904048 
L 81.515702 -157.791716 
L 84.590083 -157.669322 
L 87.664463 -157.536759 
L 90.738843 -157.393921 
L 93.813223 -157.240709 
L 96.887603 -157.077026 
L 99.961983 -156.902781 
L 103.036364 -156.71789 
L 106.110744 -156.522275 
L 109.185124 -156.315866 
L 112.259504 -156.098603 
L 115.333884 -155.870434 
L 118.408264 -155.631318 
L 121.482645 -155.381228 
L 124.557025 -155.120146 
L 127.631405 -154.84807 
L 130.705785 -154.565011 
L 133.780165 -154.270994 
L 136.854545 -153.966059 
L 139.928926 -153.650264 
L 143.003306 -153.323678 
L 146.077686 -152.986392 
L 149.152066 -152.638507 
L 152.226446 -152.280143 
L 155.300826 -151.911435 
L 158.375207 -151.532531 
L 161.449587 -151.143597 
L 164.523967 -150.744808 
L 167.598347 -150.336355 
L 170.672727 -149.91844 
L 173.747107 -149.491276 
L 176.821488 -149.055085 
L 179.895868 -148.610098 
L 182.970248 -148.156556 
L 186.044628 -147.694704 
L 189.119008 -147.224793 
L 192.193388 -146.747079 
L 195.267769 -146.261822 
L 198.342149 -145.769284 
L 201.416529 -145.269728 
L 204.490909 -144.76342 
L 207.565289 -144.250624 
L 210.639669 -143.731604 
L 213.71405 -143.206623 
L 216.78843 -142.675942 
L 219.86281 -142.13982 
L 222.93719 -141.598511 
L 226.01157 -141.05227 
L 229.08595 -140.501345 
L 232.160331 -139.945982 
L 235.234711 -139.386422 
L 238.309091 -138.822904 
L 241.383471 -138.255659 
L 244.457851 -137.684918 
L 247.532231 -137.110903 
L 250.606612 -136.533837 
L 253.680992 -135.953934 
L 256.755372 -135.371405 
L 259.829752 -134.786457 
L 262.904132 -134.199293 
L 265.978512 -133.610111 
L 269.052893 -133.019104 
L 272.127273 -132.426463 
L 275.201653 -131.832373 
L 278.276033 -131.237016 
L 281.350413 -130.64057 
L 284.424793 -130.043208 
L 287.499174 -129.445101 
L 290.573554 -128.846416 
L 293.647934 -128.247316 
L 296.722314 -127.647961 
L 299.796694 -127.048507 
L 302.871074 -126.449108 
L 305.945455 -125.849912 
L 309.019835 -125.251069 
L 312.094215 -124.65272 
L 315.168595 -124.055008 
L 318.242975 -123.458071 
L 321.317355 -122.862044 
L 324.391736 -122.267059 
L 327.466116 -121.673248 
L 330.540496 -121.080737 
L 333.614876 -120.489652 
L 336.689256 -119.900116 
L 339.763636 -119.312247 
L 342.838017 -118.726165 
L 345.912397 -118.141985 
L 348.986777 -117.559819 
L 352.061157 -116.97978 
L 355.135537 -116.401976 
L 358.209917 -115.826514 
L 361.284298 -115.253498 
L 364.358678 -114.68303 
L 367.433058 -114.115213 
L 370.507438 -113.550143 
L 373.581818 -112.987917 
L 373.581818 -150.537303 
L 373.581818 -150.537303 
L 370.507438 -150.762202 
L 367.433058 -150.990018 
L 364.358678 -151.220692 
L 361.284298 -151.454164 
L 358.209917 -151.690373 
L 355.135537 -151.92926 
L 352.061157 -152.170762 
L 348.986777 -152.414818 
L 345.912397 -152.661366 
L 342.838017 -152.910345 
L 339.763636 -153.161692 
L 336.689256 -153.415345 
L 333.614876 -153.671243 
L 330.540496 -153.929324 
L 327.466116 -154.189526 
L 324.391736 -154.45179 
L 321.317355 -154.716055 
L 318.242975 -154.982262 
L 315.168595 -155.250353 
L 312.094215 -155.52027 
L 309.019835 -155.791957 
L 305.945455 -156.06536 
L 302.871074 -156.340424 
L 299.796694 -156.617098 
L 296.722314 -156.895333 
L 293.647934 -157.175079 
L 290.573554 -157.456291 
L 287.499174 -157.738925 
L 284.424793 -158.02294 
L 281.350413 -158.308297 
L 278.276033 -158.59496 
L 275.201653 -158.882896 
L 272.127273 -159.172074 
L 269.052893 -159.462469 
L 265.978512 -159.754058 
L 262.904132 -160.04682 
L 259.829752 -160.340739 
L 256.755372 -160.635805 
L 253.680992 -160.93201 
L 250.606612 -161.229349 
L 247.532231 -161.527824 
L 244.457851 -161.82744 
L 241.383471 -162.128208 
L 238.309091 -162.430142 
L 235.234711 -162.733262 
L 232.160331 -163.037591 
L 229.08595 -163.343159 
L 226.01157 -163.649998 
L 222.93719 -163.958148 
L 219.86281 -164.267651 
L 216.78843 -164.578554 
L 213.71405 -164.890907 
L 210.639669 -165.204766 
L 207.565289 -165.520189 
L 204.490909 -165.837236 
L 201.416529 -166.155971 
L 198.342149 -166.47646 
L 195.267769 -166.79877 
L 192.193388 -167.122968 
L 189.119008 -167.449121 
L 186.044628 -167.777296 
L 182.970248 -168.107558 
L 179.895868 -168.439968 
L 176.821488 -168.774585 
L 173.747107 -169.111461 
L 170.672727 -169.450644 
L 167.598347 -169.792176 
L 164.523967 -170.136089 
L 161.449587 -170.482408 
L 158.375207 -170.831149 
L 155.300826 -171.182314 
L 152.226446 -171.535899 
L 149.152066 -171.891884 
L 146.077686 -172.250238 
L 143.003306 -172.610919 
L 139.928926 -172.97387 
L 136.854545 -173.339021 
L 133.780165 -173.70629 
L 130.705785 -174.075581 
L 127.631405 -174.446787 
L 124.557025 -174.819786 
L 121.482645 -175.194448 
L 118.408264 -175.570631 
L 115.333884 -175.94818 
L 112.259504 -176.326934 
L 109.185124 -176.706724 
L 106.110744 -177.08737 
L 103.036364 -177.468689 
L 99.961983 -177.850491 
L 96.887603 -178.232581 
L 93.813223 -178.614762 
L 90.738843 -178.996834 
L 87.664463 -179.378593 
L 84.590083 -179.759837 
L 81.515702 -180.140362 
L 78.441322 -180.519965 
L 75.366942 -180.898445 
L 72.292562 -181.275603 
L 69.218182 -181.651241 
z
" style="stroke: #0000ff; stroke-opacity: 0.5"/>
    </defs>
    <g clip-path="url(#pefa6609d85)">
     <use xlink:href="#md24bd4e40d" x="0" y="288" style="fill: #0000ff; fill-opacity: 0.5; stroke: #0000ff; stroke-opacity: 0.5"/>
    </g>
   </g>
   <g id="PolyCollection_4">
    <defs>
     <path id="md537219b37" d="M 69.218182 -193.385975 
L 69.218182 -146.447038 
L 72.292562 -146.510643 
L 75.366942 -146.560416 
L 78.441322 -146.596089 
L 81.515702 -146.617394 
L 84.590083 -146.624065 
L 87.664463 -146.615842 
L 90.738843 -146.592465 
L 93.813223 -146.553682 
L 96.887603 -146.499248 
L 99.961983 -146.428926 
L 103.036364 -146.342491 
L 106.110744 -146.239728 
L 109.185124 -146.120438 
L 112.259504 -145.984437 
L 115.333884 -145.83156 
L 118.408264 -145.661662 
L 121.482645 -145.474618 
L 124.557025 -145.270326 
L 127.631405 -145.048712 
L 130.705785 -144.809726 
L 133.780165 -144.553346 
L 136.854545 -144.279578 
L 139.928926 -143.98846 
L 143.003306 -143.680058 
L 146.077686 -143.354468 
L 149.152066 -143.011818 
L 152.226446 -142.652265 
L 155.300826 -142.275995 
L 158.375207 -141.883223 
L 161.449587 -141.474191 
L 164.523967 -141.049167 
L 167.598347 -140.608445 
L 170.672727 -140.152338 
L 173.747107 -139.681183 
L 176.821488 -139.195335 
L 179.895868 -138.695164 
L 182.970248 -138.181055 
L 186.044628 -137.653407 
L 189.119008 -137.112628 
L 192.193388 -136.559134 
L 195.267769 -135.993348 
L 198.342149 -135.415696 
L 201.416529 -134.826607 
L 204.490909 -134.226513 
L 207.565289 -133.615842 
L 210.639669 -132.995023 
L 213.71405 -132.364481 
L 216.78843 -131.724636 
L 219.86281 -131.075904 
L 222.93719 -130.418693 
L 226.01157 -129.753406 
L 229.08595 -129.080438 
L 232.160331 -128.400178 
L 235.234711 -127.713003 
L 238.309091 -127.019284 
L 241.383471 -126.319384 
L 244.457851 -125.613656 
L 247.532231 -124.902443 
L 250.606612 -124.186081 
L 253.680992 -123.464896 
L 256.755372 -122.739205 
L 259.829752 -122.009316 
L 262.904132 -121.27553 
L 265.978512 -120.538137 
L 269.052893 -119.797422 
L 272.127273 -119.053657 
L 275.201653 -118.307112 
L 278.276033 -117.558044 
L 281.350413 -116.806706 
L 284.424793 -116.053342 
L 287.499174 -115.298189 
L 290.573554 -114.541479 
L 293.647934 -113.783435 
L 296.722314 -113.024275 
L 299.796694 -112.264212 
L 302.871074 -111.503449 
L 305.945455 -110.742189 
L 309.019835 -109.980624 
L 312.094215 -109.218945 
L 315.168595 -108.457336 
L 318.242975 -107.695975 
L 321.317355 -106.935038 
L 324.391736 -106.174694 
L 327.466116 -105.415109 
L 330.540496 -104.656444 
L 333.614876 -103.898857 
L 336.689256 -103.142501 
L 339.763636 -102.387525 
L 342.838017 -101.634075 
L 345.912397 -100.882294 
L 348.986777 -100.13232 
L 352.061157 -99.384289 
L 355.135537 -98.638334 
L 358.209917 -97.894584 
L 361.284298 -97.153165 
L 364.358678 -96.4142 
L 367.433058 -95.67781 
L 370.507438 -94.944113 
L 373.581818 -94.213225 
L 373.581818 -169.311996 
L 373.581818 -169.311996 
L 370.507438 -169.368232 
L 367.433058 -169.427421 
L 364.358678 -169.489523 
L 361.284298 -169.554497 
L 358.209917 -169.622303 
L 355.135537 -169.692902 
L 352.061157 -169.766253 
L 348.986777 -169.842317 
L 345.912397 -169.921057 
L 342.838017 -170.002435 
L 339.763636 -170.086414 
L 336.689256 -170.17296 
L 333.614876 -170.262038 
L 330.540496 -170.353617 
L 327.466116 -170.447666 
L 324.391736 -170.544156 
L 321.317355 -170.643061 
L 318.242975 -170.744358 
L 315.168595 -170.848026 
L 312.094215 -170.954045 
L 309.019835 -171.062402 
L 305.945455 -171.173083 
L 302.871074 -171.286082 
L 299.796694 -171.401394 
L 296.722314 -171.519018 
L 293.647934 -171.63896 
L 290.573554 -171.761228 
L 287.499174 -171.885837 
L 284.424793 -172.012806 
L 281.350413 -172.142161 
L 278.276033 -172.273932 
L 275.201653 -172.408157 
L 272.127273 -172.54488 
L 269.052893 -172.684152 
L 265.978512 -172.826031 
L 262.904132 -172.970583 
L 259.829752 -173.117881 
L 256.755372 -173.268005 
L 253.680992 -173.421047 
L 250.606612 -173.577105 
L 247.532231 -173.736284 
L 244.457851 -173.898702 
L 241.383471 -174.064483 
L 238.309091 -174.233762 
L 235.234711 -174.406681 
L 232.160331 -174.583395 
L 229.08595 -174.764065 
L 226.01157 -174.948863 
L 222.93719 -175.137967 
L 219.86281 -175.331567 
L 216.78843 -175.52986 
L 213.71405 -175.73305 
L 210.639669 -175.941347 
L 207.565289 -176.154971 
L 204.490909 -176.374144 
L 201.416529 -176.599092 
L 198.342149 -176.830048 
L 195.267769 -177.067244 
L 192.193388 -177.310912 
L 189.119008 -177.561285 
L 186.044628 -177.818593 
L 182.970248 -178.083059 
L 179.895868 -178.354903 
L 176.821488 -178.634334 
L 173.747107 -178.921553 
L 170.672727 -179.216746 
L 167.598347 -179.520086 
L 164.523967 -179.83173 
L 161.449587 -180.151814 
L 158.375207 -180.480457 
L 155.300826 -180.817754 
L 152.226446 -181.163777 
L 149.152066 -181.518572 
L 146.077686 -181.882162 
L 143.003306 -182.25454 
L 139.928926 -182.635673 
L 136.854545 -183.025502 
L 133.780165 -183.423938 
L 130.705785 -183.830866 
L 127.631405 -184.246145 
L 124.557025 -184.669606 
L 121.482645 -185.101059 
L 118.408264 -185.540287 
L 115.333884 -185.987053 
L 112.259504 -186.4411 
L 109.185124 -186.902152 
L 106.110744 -187.369917 
L 103.036364 -187.844088 
L 99.961983 -188.324346 
L 96.887603 -188.810359 
L 93.813223 -189.301789 
L 90.738843 -189.79829 
L 87.664463 -190.29951 
L 84.590083 -190.805094 
L 81.515702 -191.314684 
L 78.441322 -191.827924 
L 75.366942 -192.344455 
L 72.292562 -192.863923 
L 69.218182 -193.385975 
z
" style="stroke: #0000ff; stroke-opacity: 0.3"/>
    </defs>
    <g clip-path="url(#pefa6609d85)">
     <use xlink:href="#md537219b37" x="0" y="288" style="fill: #0000ff; fill-opacity: 0.3; stroke: #0000ff; stroke-opacity: 0.3"/>
    </g>
   </g>
   <g id="matplotlib.axis_3">
    <g id="ytick_8">
     <g id="line2d_17">
      <defs>
       <path id="mf7224c7787" d="M 0 0 
L 3.5 0 
" style="stroke: #000000; stroke-width: 0.8"/>
      </defs>
      <g>
       <use xlink:href="#mf7224c7787" x="388.8" y="233.88" style="stroke: #000000; stroke-width: 0.8"/>
      </g>
     </g>
     <g id="text_17">
      <!-- 3 -->
      <g transform="translate(395.8 237.679219)scale(0.1 -0.1)">
       <use xlink:href="#DejaVuSans-33"/>
      </g>
     </g>
    </g>
    <g id="ytick_9">
     <g id="line2d_18">
      <g>
       <use xlink:href="#mf7224c7787" x="388.8" y="197.64" style="stroke: #000000; stroke-width: 0.8"/>
      </g>
     </g>
     <g id="text_18">
      <!-- 4 -->
      <g transform="translate(395.8 201.439219)scale(0.1 -0.1)">
       <use xlink:href="#DejaVuSans-34"/>
      </g>
     </g>
    </g>
    <g id="ytick_10">
     <g id="line2d_19">
      <g>
       <use xlink:href="#mf7224c7787" x="388.8" y="161.4" style="stroke: #000000; stroke-width: 0.8"/>
      </g>
     </g>
     <g id="text_19">
      <!-- 5 -->
      <g transform="translate(395.8 165.199219)scale(0.1 -0.1)">
       <use xlink:href="#DejaVuSans-35"/>
      </g>
     </g>
    </g>
    <g id="ytick_11">
     <g id="line2d_20">
      <g>
       <use xlink:href="#mf7224c7787" x="388.8" y="125.16" style="stroke: #000000; stroke-width: 0.8"/>
      </g>
     </g>
     <g id="text_20">
      <!-- 6 -->
      <g transform="translate(395.8 128.959219)scale(0.1 -0.1)">
       <use xlink:href="#DejaVuSans-36"/>
      </g>
     </g>
    </g>
    <g id="ytick_12">
     <g id="line2d_21">
      <g>
       <use xlink:href="#mf7224c7787" x="388.8" y="88.92" style="stroke: #000000; stroke-width: 0.8"/>
      </g>
     </g>
     <g id="text_21">
      <!-- 7 -->
      <g transform="translate(395.8 92.719219)scale(0.1 -0.1)">
       <use xlink:href="#DejaVuSans-37"/>
      </g>
     </g>
    </g>
    <g id="ytick_13">
     <g id="line2d_22">
      <g>
       <use xlink:href="#mf7224c7787" x="388.8" y="52.68" style="stroke: #000000; stroke-width: 0.8"/>
      </g>
     </g>
     <g id="text_22">
      <!-- 8 -->
      <g transform="translate(395.8 56.479219)scale(0.1 -0.1)">
       <use xlink:href="#DejaVuSans-38"/>
      </g>
     </g>
    </g>
    <g id="text_23">
     <!-- Modulus (GPa) -->
     <g style="fill: #0000ff" transform="translate(413.760938 179.377656)rotate(-90)scale(0.1 -0.1)">
      <defs>
       <path id="DejaVuSans-6c" d="M 603 4863 
L 1178 4863 
L 1178 0 
L 603 0 
L 603 4863 
z
" transform="scale(0.015625)"/>
       <path id="DejaVuSans-47" d="M 3809 666 
L 3809 1919 
L 2778 1919 
L 2778 2438 
L 4434 2438 
L 4434 434 
Q 4069 175 3628 42 
Q 3188 -91 2688 -91 
Q 1594 -91 976 548 
Q 359 1188 359 2328 
Q 359 3472 976 4111 
Q 1594 4750 2688 4750 
Q 3144 4750 3555 4637 
Q 3966 4525 4313 4306 
L 4313 3634 
Q 3963 3931 3569 4081 
Q 3175 4231 2741 4231 
Q 1884 4231 1454 3753 
Q 1025 3275 1025 2328 
Q 1025 1384 1454 906 
Q 1884 428 2741 428 
Q 3075 428 3337 486 
Q 3600 544 3809 666 
z
" transform="scale(0.015625)"/>
       <path id="DejaVuSans-61" d="M 2194 1759 
Q 1497 1759 1228 1600 
Q 959 1441 959 1056 
Q 959 750 1161 570 
Q 1363 391 1709 391 
Q 2188 391 2477 730 
Q 2766 1069 2766 1631 
L 2766 1759 
L 2194 1759 
z
M 3341 1997 
L 3341 0 
L 2766 0 
L 2766 531 
Q 2569 213 2275 61 
Q 1981 -91 1556 -91 
Q 1019 -91 701 211 
Q 384 513 384 1019 
Q 384 1609 779 1909 
Q 1175 2209 1959 2209 
L 2766 2209 
L 2766 2266 
Q 2766 2663 2505 2880 
Q 2244 3097 1772 3097 
Q 1472 3097 1187 3025 
Q 903 2953 641 2809 
L 641 3341 
Q 956 3463 1253 3523 
Q 1550 3584 1831 3584 
Q 2591 3584 2966 3190 
Q 3341 2797 3341 1997 
z
" transform="scale(0.015625)"/>
      </defs>
      <use xlink:href="#DejaVuSans-4d"/>
      <use xlink:href="#DejaVuSans-6f" x="86.279297"/>
      <use xlink:href="#DejaVuSans-64" x="147.460938"/>
      <use xlink:href="#DejaVuSans-75" x="210.9375"/>
      <use xlink:href="#DejaVuSans-6c" x="274.316406"/>
      <use xlink:href="#DejaVuSans-75" x="302.099609"/>
      <use xlink:href="#DejaVuSans-73" x="365.478516"/>
      <use xlink:href="#DejaVuSans-20" x="417.578125"/>
      <use xlink:href="#DejaVuSans-28" x="449.365234"/>
      <use xlink:href="#DejaVuSans-47" x="488.378906"/>
      <use xlink:href="#DejaVuSans-50" x="565.869141"/>
      <use xlink:href="#DejaVuSans-61" x="621.671875"/>
      <use xlink:href="#DejaVuSans-29" x="682.951172"/>
     </g>
    </g>
   </g>
   <g id="line2d_23">
    <path d="M 69.218182 118.083494 
L 72.292562 118.312717 
L 75.366942 118.547564 
L 78.441322 118.787994 
L 81.515702 119.033961 
L 84.590083 119.28542 
L 87.664463 119.542324 
L 90.738843 119.804623 
L 93.813223 120.072264 
L 96.887603 120.345196 
L 99.961983 120.623364 
L 103.036364 120.906711 
L 106.110744 121.195178 
L 109.185124 121.488705 
L 112.259504 121.787231 
L 115.333884 122.090693 
L 118.408264 122.399026 
L 121.482645 122.712162 
L 124.557025 123.030034 
L 127.631405 123.352572 
L 130.705785 123.679704 
L 133.780165 124.011358 
L 136.854545 124.34746 
L 139.928926 124.687933 
L 143.003306 125.032701 
L 146.077686 125.381685 
L 149.152066 125.734805 
L 152.226446 126.091979 
L 155.300826 126.453126 
L 158.375207 126.81816 
L 161.449587 127.186997 
L 164.523967 127.559551 
L 167.598347 127.935734 
L 170.672727 128.315458 
L 173.747107 128.698632 
L 176.821488 129.085165 
L 179.895868 129.474967 
L 182.970248 129.867943 
L 186.044628 130.264 
L 189.119008 130.663043 
L 192.193388 131.064977 
L 195.267769 131.469704 
L 198.342149 131.877128 
L 201.416529 132.28715 
L 204.490909 132.699672 
L 207.565289 133.114593 
L 210.639669 133.531815 
L 213.71405 133.951235 
L 216.78843 134.372752 
L 219.86281 134.796265 
L 222.93719 135.22167 
L 226.01157 135.648866 
L 229.08595 136.077748 
L 232.160331 136.508214 
L 235.234711 136.940158 
L 238.309091 137.373477 
L 241.383471 137.808066 
L 244.457851 138.243821 
L 247.532231 138.680636 
L 250.606612 139.118407 
L 253.680992 139.557028 
L 256.755372 139.996395 
L 259.829752 140.436402 
L 262.904132 140.876944 
L 265.978512 141.317916 
L 269.052893 141.759213 
L 272.127273 142.200731 
L 275.201653 142.642366 
L 278.276033 143.084012 
L 281.350413 143.525567 
L 284.424793 143.966926 
L 287.499174 144.407987 
L 290.573554 144.848646 
L 293.647934 145.288802 
L 296.722314 145.728353 
L 299.796694 146.167197 
L 302.871074 146.605234 
L 305.945455 147.042364 
L 309.019835 147.478487 
L 312.094215 147.913505 
L 315.168595 148.347319 
L 318.242975 148.779833 
L 321.317355 149.210951 
L 324.391736 149.640575 
L 327.466116 150.068613 
L 330.540496 150.494969 
L 333.614876 150.919552 
L 336.689256 151.34227 
L 339.763636 151.76303 
L 342.838017 152.181745 
L 345.912397 152.598324 
L 348.986777 153.012681 
L 352.061157 153.424729 
L 355.135537 153.834382 
L 358.209917 154.241556 
L 361.284298 154.646169 
L 364.358678 155.048139 
L 367.433058 155.447385 
L 370.507438 155.843827 
L 373.581818 156.23739 
" clip-path="url(#pefa6609d85)" style="fill: none; stroke: #0000ff; stroke-width: 0.5; stroke-linecap: square"/>
   </g>
   <g id="patch_7">
    <path d="M 54 252 
L 54 34.56 
" style="fill: none; stroke: #000000; stroke-width: 0.8; stroke-linejoin: miter; stroke-linecap: square"/>
   </g>
   <g id="patch_8">
    <path d="M 388.8 252 
L 388.8 34.56 
" style="fill: none; stroke: #000000; stroke-width: 0.8; stroke-linejoin: miter; stroke-linecap: square"/>
   </g>
   <g id="patch_9">
    <path d="M 54 252 
L 388.8 252 
" style="fill: none; stroke: #000000; stroke-width: 0.8; stroke-linejoin: miter; stroke-linecap: square"/>
   </g>
   <g id="patch_10">
    <path d="M 54 34.56 
L 388.8 34.56 
" style="fill: none; stroke: #000000; stroke-width: 0.8; stroke-linejoin: miter; stroke-linecap: square"/>
   </g>
  </g>
 </g>
 <defs>
  <clipPath id="pefa6609d85">
   <rect x="54" y="34.56" width="334.8" height="217.44"/>
  </clipPath>
 </defs>
</svg>
