<?xml version="1.0" encoding="utf-8" standalone="no"?>
<!DOCTYPE svg PUBLIC "-//W3C//DTD SVG 1.1//EN"
  "http://www.w3.org/Graphics/SVG/1.1/DTD/svg11.dtd">
<svg xmlns:xlink="http://www.w3.org/1999/xlink" width="432pt" height="288pt" viewBox="0 0 432 288" xmlns="http://www.w3.org/2000/svg" version="1.1">
 <metadata>
  <rdf:RDF xmlns:dc="http://purl.org/dc/elements/1.1/" xmlns:cc="http://creativecommons.org/ns#" xmlns:rdf="http://www.w3.org/1999/02/22-rdf-syntax-ns#">
   <cc:Work>
    <dc:type rdf:resource="http://purl.org/dc/dcmitype/StillImage"/>
    <dc:date>2023-05-11T13:48:32.941630</dc:date>
    <dc:format>image/svg+xml</dc:format>
    <dc:creator>
     <cc:Agent>
      <dc:title>Matplotlib v3.5.1, https://matplotlib.org/</dc:title>
     </cc:Agent>
    </dc:creator>
   </cc:Work>
  </rdf:RDF>
 </metadata>
 <defs>
  <style type="text/css">*{stroke-linejoin: round; stroke-linecap: butt}</style>
 </defs>
 <g id="figure_1">
  <g id="patch_1">
   <path d="M 0 288 
L 432 288 
L 432 0 
L 0 0 
L 0 288 
z
" style="fill: none"/>
  </g>
  <g id="axes_1">
   <g id="patch_2">
    <path d="M 54 252 
L 388.8 252 
L 388.8 34.56 
L 54 34.56 
z
" style="fill: #ffffff"/>
   </g>
   <g id="PolyCollection_1">
    <defs>
     <path id="me512dacd1e" d="M 373.581818 -181.886519 
L 373.581818 -180.331867 
L 370.507438 -179.0726 
L 367.433058 -177.257935 
L 364.358678 -174.720464 
L 361.284298 -171.279568 
L 358.209917 -166.757999 
L 355.135537 -161.005495 
L 352.061157 -153.928115 
L 348.986777 -145.520258 
L 345.912397 -135.894548 
L 342.838017 -125.303619 
L 339.763636 -114.147535 
L 336.689256 -102.961796 
L 333.614876 -92.383413 
L 330.540496 -83.096391 
L 327.466116 -75.762295 
L 324.391736 -70.945881 
L 321.317355 -69.048768 
L 318.242975 -70.262406 
L 315.168595 -74.543958 
L 312.094215 -81.617098 
L 309.019835 -91.003138 
L 305.945455 -102.079799 
L 302.871074 -114.155718 
L 299.796694 -126.547252 
L 296.722314 -138.645757 
L 293.647934 -149.965557 
L 290.573554 -160.166565 
L 287.499174 -169.052699 
L 284.424793 -176.553237 
L 281.350413 -182.695515 
L 278.276033 -187.576016 
L 275.201653 -191.33505 
L 272.127273 -194.137906 
L 269.052893 -196.162851 
L 265.978512 -197.594145 
L 262.904132 -198.616738 
L 259.829752 -199.409545 
L 256.755372 -200.136347 
L 253.680992 -200.935526 
L 250.606612 -201.910468 
L 247.532231 -203.122334 
L 244.457851 -204.586553 
L 241.383471 -206.273968 
L 238.309091 -208.116663 
L 235.234711 -210.017614 
L 232.160331 -211.862526 
L 229.08595 -213.531995 
L 226.01157 -214.912379 
L 222.93719 -215.904432 
L 219.86281 -216.429513 
L 216.78843 -216.433734 
L 213.71405 -215.890585 
L 210.639669 -214.802393 
L 207.565289 -213.200581 
L 204.490909 -211.14438 
L 201.416529 -208.71755 
L 198.342149 -206.022845 
L 195.267769 -203.174413 
L 192.193388 -200.288818 
L 189.119008 -197.475792 
L 186.044628 -194.829949 
L 182.970248 -192.424596 
L 179.895868 -190.308368 
L 176.821488 -188.504867 
L 173.747107 -187.014998 
L 170.672727 -185.821285 
L 167.598347 -184.893235 
L 164.523967 -184.192862 
L 161.449587 -183.679627 
L 158.375207 -183.314321 
L 155.300826 -183.061705 
L 152.226446 -182.891948 
L 149.152066 -182.781071 
L 146.077686 -182.710668 
L 143.003306 -182.667204 
L 139.928926 -182.64111 
L 136.854545 -182.625873 
L 133.780165 -182.61722 
L 130.705785 -182.612439 
L 127.631405 -182.609868 
L 124.557025 -182.608524 
L 121.482645 -182.60784 
L 118.408264 -182.607501 
L 115.333884 -182.607337 
L 112.259504 -182.607261 
L 109.185124 -182.607226 
L 106.110744 -182.60721 
L 103.036364 -182.607203 
L 99.961983 -182.607201 
L 96.887603 -182.607199 
L 93.813223 -182.607199 
L 90.738843 -182.607199 
L 87.664463 -182.607199 
L 84.590083 -182.607199 
L 81.515702 -182.607199 
L 78.441322 -182.607199 
L 75.366942 -182.607199 
L 72.292562 -182.607199 
L 69.218182 -182.607199 
L 69.218182 -184.164461 
L 69.218182 -184.164461 
L 72.292562 -184.164461 
L 75.366942 -184.164461 
L 78.441322 -184.164461 
L 81.515702 -184.164461 
L 84.590083 -184.164461 
L 87.664463 -184.164461 
L 90.738843 -184.164461 
L 93.813223 -184.164461 
L 96.887603 -184.164461 
L 99.961983 -184.164462 
L 103.036364 -184.164465 
L 106.110744 -184.164472 
L 109.185124 -184.164488 
L 112.259504 -184.164523 
L 115.333884 -184.164599 
L 118.408264 -184.164763 
L 121.482645 -184.165101 
L 124.557025 -184.165785 
L 127.631405 -184.167129 
L 130.705785 -184.169698 
L 133.780165 -184.174477 
L 136.854545 -184.183125 
L 139.928926 -184.198353 
L 143.003306 -184.224432 
L 146.077686 -184.267871 
L 149.152066 -184.338229 
L 152.226446 -184.449034 
L 155.300826 -184.618674 
L 158.375207 -184.871104 
L 161.449587 -185.236119 
L 164.523967 -185.748906 
L 167.598347 -186.448598 
L 170.672727 -187.375632 
L 173.747107 -188.56786 
L 176.821488 -190.055606 
L 179.895868 -191.856158 
L 182.970248 -193.96841 
L 186.044628 -196.368577 
L 189.119008 -199.00788 
L 192.193388 -201.812914 
L 195.267769 -204.688997 
L 198.342149 -207.526304 
L 201.416529 -210.208069 
L 204.490909 -212.619766 
L 207.565289 -214.658062 
L 210.639669 -216.238495 
L 213.71405 -217.301183 
L 216.78843 -217.814342 
L 219.86281 -217.775764 
L 222.93719 -217.2126 
L 226.01157 -216.179737 
L 229.08595 -214.756815 
L 232.160331 -213.043701 
L 235.234711 -211.154071 
L 238.309091 -209.206879 
L 241.383471 -207.315881 
L 244.457851 -205.577931 
L 247.532231 -204.061449 
L 250.606612 -202.796811 
L 253.680992 -201.770427 
L 256.755372 -200.92362 
L 259.829752 -200.156366 
L 262.904132 -199.334624 
L 265.978512 -198.299061 
L 269.052893 -196.873051 
L 272.127273 -194.86928 
L 275.201653 -192.096006 
L 278.276033 -188.364633 
L 281.350413 -183.500105 
L 284.424793 -177.35579 
L 287.499174 -169.834119 
L 290.573554 -160.912504 
L 293.647934 -150.671314 
L 296.722314 -139.318054 
L 299.796694 -127.200647 
L 302.871074 -114.804319 
L 305.945455 -102.72947 
L 309.019835 -91.649519 
L 312.094215 -82.250118 
L 315.168595 -75.156524 
L 318.242975 -70.860385 
L 321.317355 -69.657373 
L 324.391736 -71.605074 
L 327.466116 -76.511506 
L 330.540496 -83.961585 
L 333.614876 -93.374058 
L 336.689256 -104.073947 
L 339.763636 -115.368422 
L 342.838017 -126.615851 
L 345.912397 -137.279436 
L 348.986777 -146.960151 
L 352.061157 -155.407802 
L 355.135537 -162.512801 
L 358.209917 -168.283779 
L 361.284298 -172.817321 
L 364.358678 -176.265784 
L 367.433058 -178.807952 
L 370.507438 -180.625498 
L 373.581818 -181.886519 
z
" style="stroke: #ff0000; stroke-opacity: 0.5"/>
    </defs>
    <g clip-path="url(#pf28ff9b5f7)">
     <use xlink:href="#me512dacd1e" x="0" y="288" style="fill: #ff0000; fill-opacity: 0.5; stroke: #ff0000; stroke-opacity: 0.5"/>
    </g>
   </g>
   <g id="PolyCollection_2">
    <defs>
     <path id="m43d4749291" d="M 373.581818 -182.663846 
L 373.581818 -179.554541 
L 370.507438 -178.296152 
L 367.433058 -176.482927 
L 364.358678 -173.947804 
L 361.284298 -170.510692 
L 358.209917 -165.99511 
L 355.135537 -160.251841 
L 352.061157 -153.188272 
L 348.986777 -144.800311 
L 345.912397 -135.202104 
L 342.838017 -124.647502 
L 339.763636 -113.537092 
L 336.689256 -102.40572 
L 333.614876 -91.88809 
L 330.540496 -82.663794 
L 327.466116 -75.38769 
L 324.391736 -70.616285 
L 321.317355 -68.744466 
L 318.242975 -69.963417 
L 315.168595 -74.237675 
L 312.094215 -81.300587 
L 309.019835 -90.679947 
L 305.945455 -101.754964 
L 302.871074 -113.831418 
L 299.796694 -126.220555 
L 296.722314 -138.309609 
L 293.647934 -149.612678 
L 290.573554 -159.793596 
L 287.499174 -168.661989 
L 284.424793 -176.151961 
L 281.350413 -182.29322 
L 278.276033 -187.181708 
L 275.201653 -190.954573 
L 272.127273 -193.772219 
L 269.052893 -195.807751 
L 265.978512 -197.241688 
L 262.904132 -198.257796 
L 259.829752 -199.036135 
L 256.755372 -199.742711 
L 253.680992 -200.518075 
L 250.606612 -201.467297 
L 247.532231 -202.652776 
L 244.457851 -204.090864 
L 241.383471 -205.753011 
L 238.309091 -207.571555 
L 235.234711 -209.449386 
L 232.160331 -211.271939 
L 229.08595 -212.919586 
L 226.01157 -214.2787 
L 222.93719 -215.250347 
L 219.86281 -215.756387 
L 216.78843 -215.743429 
L 213.71405 -215.185286 
L 210.639669 -214.084342 
L 207.565289 -212.47184 
L 204.490909 -210.406687 
L 201.416529 -207.972291 
L 198.342149 -205.271116 
L 195.267769 -202.41712 
L 192.193388 -199.52677 
L 189.119008 -196.709749 
L 186.044628 -194.060635 
L 182.970248 -191.652689 
L 179.895868 -189.534473 
L 176.821488 -187.729497 
L 173.747107 -186.238568 
L 170.672727 -185.044112 
L 167.598347 -184.115554 
L 164.523967 -183.41484 
L 161.449587 -182.901381 
L 158.375207 -182.535929 
L 155.300826 -182.28322 
L 152.226446 -182.113405 
L 149.152066 -182.002491 
L 146.077686 -181.932067 
L 143.003306 -181.88859 
L 139.928926 -181.862488 
L 136.854545 -181.847248 
L 133.780165 -181.838592 
L 130.705785 -181.833809 
L 127.631405 -181.831238 
L 124.557025 -181.829893 
L 121.482645 -181.829209 
L 118.408264 -181.82887 
L 115.333884 -181.828706 
L 112.259504 -181.82863 
L 109.185124 -181.828595 
L 106.110744 -181.828579 
L 103.036364 -181.828572 
L 99.961983 -181.82857 
L 96.887603 -181.828568 
L 93.813223 -181.828568 
L 90.738843 -181.828568 
L 87.664463 -181.828568 
L 84.590083 -181.828568 
L 81.515702 -181.828568 
L 78.441322 -181.828568 
L 75.366942 -181.828568 
L 72.292562 -181.828568 
L 69.218182 -181.828568 
L 69.218182 -184.943091 
L 69.218182 -184.943091 
L 72.292562 -184.943091 
L 75.366942 -184.943091 
L 78.441322 -184.943091 
L 81.515702 -184.943091 
L 84.590083 -184.943091 
L 87.664463 -184.943092 
L 90.738843 -184.943092 
L 93.813223 -184.943092 
L 96.887603 -184.943092 
L 99.961983 -184.943093 
L 103.036364 -184.943096 
L 106.110744 -184.943103 
L 109.185124 -184.943119 
L 112.259504 -184.943153 
L 115.333884 -184.94323 
L 118.408264 -184.943393 
L 121.482645 -184.943732 
L 124.557025 -184.944416 
L 127.631405 -184.945759 
L 130.705785 -184.948327 
L 133.780165 -184.953105 
L 136.854545 -184.961751 
L 139.928926 -184.976975 
L 143.003306 -185.003047 
L 146.077686 -185.046472 
L 149.152066 -185.116808 
L 152.226446 -185.227577 
L 155.300826 -185.397159 
L 158.375207 -185.649496 
L 161.449587 -186.014365 
L 164.523967 -186.526927 
L 167.598347 -187.226279 
L 170.672727 -188.152805 
L 173.747107 -189.34429 
L 176.821488 -190.830976 
L 179.895868 -192.630053 
L 182.970248 -194.740317 
L 186.044628 -197.137891 
L 189.119008 -199.773924 
L 192.193388 -202.574962 
L 195.267769 -205.446289 
L 198.342149 -208.278033 
L 201.416529 -210.953329 
L 204.490909 -213.357459 
L 207.565289 -215.386802 
L 210.639669 -216.956546 
L 213.71405 -218.006482 
L 216.78843 -218.504647 
L 219.86281 -218.448889 
L 222.93719 -217.866684 
L 226.01157 -216.813415 
L 229.08595 -215.369224 
L 232.160331 -213.634288 
L 235.234711 -211.722299 
L 238.309091 -209.751987 
L 241.383471 -207.836837 
L 244.457851 -206.07362 
L 247.532231 -204.531006 
L 250.606612 -203.239982 
L 253.680992 -202.187877 
L 256.755372 -201.317256 
L 259.829752 -200.529776 
L 262.904132 -199.693567 
L 265.978512 -198.651518 
L 269.052893 -197.228151 
L 272.127273 -195.234967 
L 275.201653 -192.476483 
L 278.276033 -188.758941 
L 281.350413 -183.9024 
L 284.424793 -177.757066 
L 287.499174 -170.224829 
L 290.573554 -161.285473 
L 293.647934 -151.024193 
L 296.722314 -139.654202 
L 299.796694 -127.527344 
L 302.871074 -115.12862 
L 305.945455 -103.054305 
L 309.019835 -91.97271 
L 312.094215 -82.566629 
L 315.168595 -75.462807 
L 318.242975 -71.159374 
L 321.317355 -69.961676 
L 324.391736 -71.93467 
L 327.466116 -76.886111 
L 330.540496 -84.394182 
L 333.614876 -93.86938 
L 336.689256 -104.630022 
L 339.763636 -115.978866 
L 342.838017 -127.271968 
L 345.912397 -137.971881 
L 348.986777 -147.680097 
L 352.061157 -156.147646 
L 355.135537 -163.266454 
L 358.209917 -169.046669 
L 361.284298 -173.586197 
L 364.358678 -177.038444 
L 367.433058 -179.582961 
L 370.507438 -181.401947 
L 373.581818 -182.663846 
z
" style="stroke: #ff0000; stroke-opacity: 0.3"/>
    </defs>
    <g clip-path="url(#pf28ff9b5f7)">
     <use xlink:href="#m43d4749291" x="0" y="288" style="fill: #ff0000; fill-opacity: 0.3; stroke: #ff0000; stroke-opacity: 0.3"/>
    </g>
   </g>
   <g id="matplotlib.axis_1">
    <g id="xtick_1">
     <g id="line2d_1">
      <defs>
       <path id="m8d628c43d1" d="M 0 0 
L 0 3.5 
" style="stroke: #000000; stroke-width: 0.8"/>
      </defs>
      <g>
       <use xlink:href="#m8d628c43d1" x="69.218182" y="252" style="stroke: #000000; stroke-width: 0.8"/>
      </g>
     </g>
     <g id="text_1">
      <!-- 0.0 -->
      <g transform="translate(61.266619 266.598437)scale(0.1 -0.1)">
       <defs>
        <path id="DejaVuSans-30" d="M 2034 4250 
Q 1547 4250 1301 3770 
Q 1056 3291 1056 2328 
Q 1056 1369 1301 889 
Q 1547 409 2034 409 
Q 2525 409 2770 889 
Q 3016 1369 3016 2328 
Q 3016 3291 2770 3770 
Q 2525 4250 2034 4250 
z
M 2034 4750 
Q 2819 4750 3233 4129 
Q 3647 3509 3647 2328 
Q 3647 1150 3233 529 
Q 2819 -91 2034 -91 
Q 1250 -91 836 529 
Q 422 1150 422 2328 
Q 422 3509 836 4129 
Q 1250 4750 2034 4750 
z
" transform="scale(0.015625)"/>
        <path id="DejaVuSans-2e" d="M 684 794 
L 1344 794 
L 1344 0 
L 684 0 
L 684 794 
z
" transform="scale(0.015625)"/>
       </defs>
       <use xlink:href="#DejaVuSans-30"/>
       <use xlink:href="#DejaVuSans-2e" x="63.623047"/>
       <use xlink:href="#DejaVuSans-30" x="95.410156"/>
      </g>
     </g>
    </g>
    <g id="xtick_2">
     <g id="line2d_2">
      <g>
       <use xlink:href="#m8d628c43d1" x="130.090909" y="252" style="stroke: #000000; stroke-width: 0.8"/>
      </g>
     </g>
     <g id="text_2">
      <!-- 0.2 -->
      <g transform="translate(122.139347 266.598437)scale(0.1 -0.1)">
       <defs>
        <path id="DejaVuSans-32" d="M 1228 531 
L 3431 531 
L 3431 0 
L 469 0 
L 469 531 
Q 828 903 1448 1529 
Q 2069 2156 2228 2338 
Q 2531 2678 2651 2914 
Q 2772 3150 2772 3378 
Q 2772 3750 2511 3984 
Q 2250 4219 1831 4219 
Q 1534 4219 1204 4116 
Q 875 4013 500 3803 
L 500 4441 
Q 881 4594 1212 4672 
Q 1544 4750 1819 4750 
Q 2544 4750 2975 4387 
Q 3406 4025 3406 3419 
Q 3406 3131 3298 2873 
Q 3191 2616 2906 2266 
Q 2828 2175 2409 1742 
Q 1991 1309 1228 531 
z
" transform="scale(0.015625)"/>
       </defs>
       <use xlink:href="#DejaVuSans-30"/>
       <use xlink:href="#DejaVuSans-2e" x="63.623047"/>
       <use xlink:href="#DejaVuSans-32" x="95.410156"/>
      </g>
     </g>
    </g>
    <g id="xtick_3">
     <g id="line2d_3">
      <g>
       <use xlink:href="#m8d628c43d1" x="190.963636" y="252" style="stroke: #000000; stroke-width: 0.8"/>
      </g>
     </g>
     <g id="text_3">
      <!-- 0.4 -->
      <g transform="translate(183.012074 266.598437)scale(0.1 -0.1)">
       <defs>
        <path id="DejaVuSans-34" d="M 2419 4116 
L 825 1625 
L 2419 1625 
L 2419 4116 
z
M 2253 4666 
L 3047 4666 
L 3047 1625 
L 3713 1625 
L 3713 1100 
L 3047 1100 
L 3047 0 
L 2419 0 
L 2419 1100 
L 313 1100 
L 313 1709 
L 2253 4666 
z
" transform="scale(0.015625)"/>
       </defs>
       <use xlink:href="#DejaVuSans-30"/>
       <use xlink:href="#DejaVuSans-2e" x="63.623047"/>
       <use xlink:href="#DejaVuSans-34" x="95.410156"/>
      </g>
     </g>
    </g>
    <g id="xtick_4">
     <g id="line2d_4">
      <g>
       <use xlink:href="#m8d628c43d1" x="251.836364" y="252" style="stroke: #000000; stroke-width: 0.8"/>
      </g>
     </g>
     <g id="text_4">
      <!-- 0.6 -->
      <g transform="translate(243.884801 266.598437)scale(0.1 -0.1)">
       <defs>
        <path id="DejaVuSans-36" d="M 2113 2584 
Q 1688 2584 1439 2293 
Q 1191 2003 1191 1497 
Q 1191 994 1439 701 
Q 1688 409 2113 409 
Q 2538 409 2786 701 
Q 3034 994 3034 1497 
Q 3034 2003 2786 2293 
Q 2538 2584 2113 2584 
z
M 3366 4563 
L 3366 3988 
Q 3128 4100 2886 4159 
Q 2644 4219 2406 4219 
Q 1781 4219 1451 3797 
Q 1122 3375 1075 2522 
Q 1259 2794 1537 2939 
Q 1816 3084 2150 3084 
Q 2853 3084 3261 2657 
Q 3669 2231 3669 1497 
Q 3669 778 3244 343 
Q 2819 -91 2113 -91 
Q 1303 -91 875 529 
Q 447 1150 447 2328 
Q 447 3434 972 4092 
Q 1497 4750 2381 4750 
Q 2619 4750 2861 4703 
Q 3103 4656 3366 4563 
z
" transform="scale(0.015625)"/>
       </defs>
       <use xlink:href="#DejaVuSans-30"/>
       <use xlink:href="#DejaVuSans-2e" x="63.623047"/>
       <use xlink:href="#DejaVuSans-36" x="95.410156"/>
      </g>
     </g>
    </g>
    <g id="xtick_5">
     <g id="line2d_5">
      <g>
       <use xlink:href="#m8d628c43d1" x="312.709091" y="252" style="stroke: #000000; stroke-width: 0.8"/>
      </g>
     </g>
     <g id="text_5">
      <!-- 0.8 -->
      <g transform="translate(304.757528 266.598437)scale(0.1 -0.1)">
       <defs>
        <path id="DejaVuSans-38" d="M 2034 2216 
Q 1584 2216 1326 1975 
Q 1069 1734 1069 1313 
Q 1069 891 1326 650 
Q 1584 409 2034 409 
Q 2484 409 2743 651 
Q 3003 894 3003 1313 
Q 3003 1734 2745 1975 
Q 2488 2216 2034 2216 
z
M 1403 2484 
Q 997 2584 770 2862 
Q 544 3141 544 3541 
Q 544 4100 942 4425 
Q 1341 4750 2034 4750 
Q 2731 4750 3128 4425 
Q 3525 4100 3525 3541 
Q 3525 3141 3298 2862 
Q 3072 2584 2669 2484 
Q 3125 2378 3379 2068 
Q 3634 1759 3634 1313 
Q 3634 634 3220 271 
Q 2806 -91 2034 -91 
Q 1263 -91 848 271 
Q 434 634 434 1313 
Q 434 1759 690 2068 
Q 947 2378 1403 2484 
z
M 1172 3481 
Q 1172 3119 1398 2916 
Q 1625 2713 2034 2713 
Q 2441 2713 2670 2916 
Q 2900 3119 2900 3481 
Q 2900 3844 2670 4047 
Q 2441 4250 2034 4250 
Q 1625 4250 1398 4047 
Q 1172 3844 1172 3481 
z
" transform="scale(0.015625)"/>
       </defs>
       <use xlink:href="#DejaVuSans-30"/>
       <use xlink:href="#DejaVuSans-2e" x="63.623047"/>
       <use xlink:href="#DejaVuSans-38" x="95.410156"/>
      </g>
     </g>
    </g>
    <g id="xtick_6">
     <g id="line2d_6">
      <g>
       <use xlink:href="#m8d628c43d1" x="373.581818" y="252" style="stroke: #000000; stroke-width: 0.8"/>
      </g>
     </g>
     <g id="text_6">
      <!-- 1.0 -->
      <g transform="translate(365.630256 266.598437)scale(0.1 -0.1)">
       <defs>
        <path id="DejaVuSans-31" d="M 794 531 
L 1825 531 
L 1825 4091 
L 703 3866 
L 703 4441 
L 1819 4666 
L 2450 4666 
L 2450 531 
L 3481 531 
L 3481 0 
L 794 0 
L 794 531 
z
" transform="scale(0.015625)"/>
       </defs>
       <use xlink:href="#DejaVuSans-31"/>
       <use xlink:href="#DejaVuSans-2e" x="63.623047"/>
       <use xlink:href="#DejaVuSans-30" x="95.410156"/>
      </g>
     </g>
    </g>
    <g id="text_7">
     <!-- Base Resin A -->
     <g transform="translate(189.1375 280.276563)scale(0.1 -0.1)">
      <defs>
       <path id="DejaVuSans-42" d="M 1259 2228 
L 1259 519 
L 2272 519 
Q 2781 519 3026 730 
Q 3272 941 3272 1375 
Q 3272 1813 3026 2020 
Q 2781 2228 2272 2228 
L 1259 2228 
z
M 1259 4147 
L 1259 2741 
L 2194 2741 
Q 2656 2741 2882 2914 
Q 3109 3088 3109 3444 
Q 3109 3797 2882 3972 
Q 2656 4147 2194 4147 
L 1259 4147 
z
M 628 4666 
L 2241 4666 
Q 2963 4666 3353 4366 
Q 3744 4066 3744 3513 
Q 3744 3084 3544 2831 
Q 3344 2578 2956 2516 
Q 3422 2416 3680 2098 
Q 3938 1781 3938 1306 
Q 3938 681 3513 340 
Q 3088 0 2303 0 
L 628 0 
L 628 4666 
z
" transform="scale(0.015625)"/>
       <path id="DejaVuSans-61" d="M 2194 1759 
Q 1497 1759 1228 1600 
Q 959 1441 959 1056 
Q 959 750 1161 570 
Q 1363 391 1709 391 
Q 2188 391 2477 730 
Q 2766 1069 2766 1631 
L 2766 1759 
L 2194 1759 
z
M 3341 1997 
L 3341 0 
L 2766 0 
L 2766 531 
Q 2569 213 2275 61 
Q 1981 -91 1556 -91 
Q 1019 -91 701 211 
Q 384 513 384 1019 
Q 384 1609 779 1909 
Q 1175 2209 1959 2209 
L 2766 2209 
L 2766 2266 
Q 2766 2663 2505 2880 
Q 2244 3097 1772 3097 
Q 1472 3097 1187 3025 
Q 903 2953 641 2809 
L 641 3341 
Q 956 3463 1253 3523 
Q 1550 3584 1831 3584 
Q 2591 3584 2966 3190 
Q 3341 2797 3341 1997 
z
" transform="scale(0.015625)"/>
       <path id="DejaVuSans-73" d="M 2834 3397 
L 2834 2853 
Q 2591 2978 2328 3040 
Q 2066 3103 1784 3103 
Q 1356 3103 1142 2972 
Q 928 2841 928 2578 
Q 928 2378 1081 2264 
Q 1234 2150 1697 2047 
L 1894 2003 
Q 2506 1872 2764 1633 
Q 3022 1394 3022 966 
Q 3022 478 2636 193 
Q 2250 -91 1575 -91 
Q 1294 -91 989 -36 
Q 684 19 347 128 
L 347 722 
Q 666 556 975 473 
Q 1284 391 1588 391 
Q 1994 391 2212 530 
Q 2431 669 2431 922 
Q 2431 1156 2273 1281 
Q 2116 1406 1581 1522 
L 1381 1569 
Q 847 1681 609 1914 
Q 372 2147 372 2553 
Q 372 3047 722 3315 
Q 1072 3584 1716 3584 
Q 2034 3584 2315 3537 
Q 2597 3491 2834 3397 
z
" transform="scale(0.015625)"/>
       <path id="DejaVuSans-65" d="M 3597 1894 
L 3597 1613 
L 953 1613 
Q 991 1019 1311 708 
Q 1631 397 2203 397 
Q 2534 397 2845 478 
Q 3156 559 3463 722 
L 3463 178 
Q 3153 47 2828 -22 
Q 2503 -91 2169 -91 
Q 1331 -91 842 396 
Q 353 884 353 1716 
Q 353 2575 817 3079 
Q 1281 3584 2069 3584 
Q 2775 3584 3186 3129 
Q 3597 2675 3597 1894 
z
M 3022 2063 
Q 3016 2534 2758 2815 
Q 2500 3097 2075 3097 
Q 1594 3097 1305 2825 
Q 1016 2553 972 2059 
L 3022 2063 
z
" transform="scale(0.015625)"/>
       <path id="DejaVuSans-20" transform="scale(0.015625)"/>
       <path id="DejaVuSans-52" d="M 2841 2188 
Q 3044 2119 3236 1894 
Q 3428 1669 3622 1275 
L 4263 0 
L 3584 0 
L 2988 1197 
Q 2756 1666 2539 1819 
Q 2322 1972 1947 1972 
L 1259 1972 
L 1259 0 
L 628 0 
L 628 4666 
L 2053 4666 
Q 2853 4666 3247 4331 
Q 3641 3997 3641 3322 
Q 3641 2881 3436 2590 
Q 3231 2300 2841 2188 
z
M 1259 4147 
L 1259 2491 
L 2053 2491 
Q 2509 2491 2742 2702 
Q 2975 2913 2975 3322 
Q 2975 3731 2742 3939 
Q 2509 4147 2053 4147 
L 1259 4147 
z
" transform="scale(0.015625)"/>
       <path id="DejaVuSans-69" d="M 603 3500 
L 1178 3500 
L 1178 0 
L 603 0 
L 603 3500 
z
M 603 4863 
L 1178 4863 
L 1178 4134 
L 603 4134 
L 603 4863 
z
" transform="scale(0.015625)"/>
       <path id="DejaVuSans-6e" d="M 3513 2113 
L 3513 0 
L 2938 0 
L 2938 2094 
Q 2938 2591 2744 2837 
Q 2550 3084 2163 3084 
Q 1697 3084 1428 2787 
Q 1159 2491 1159 1978 
L 1159 0 
L 581 0 
L 581 3500 
L 1159 3500 
L 1159 2956 
Q 1366 3272 1645 3428 
Q 1925 3584 2291 3584 
Q 2894 3584 3203 3211 
Q 3513 2838 3513 2113 
z
" transform="scale(0.015625)"/>
       <path id="DejaVuSans-41" d="M 2188 4044 
L 1331 1722 
L 3047 1722 
L 2188 4044 
z
M 1831 4666 
L 2547 4666 
L 4325 0 
L 3669 0 
L 3244 1197 
L 1141 1197 
L 716 0 
L 50 0 
L 1831 4666 
z
" transform="scale(0.015625)"/>
      </defs>
      <use xlink:href="#DejaVuSans-42"/>
      <use xlink:href="#DejaVuSans-61" x="68.603516"/>
      <use xlink:href="#DejaVuSans-73" x="129.882812"/>
      <use xlink:href="#DejaVuSans-65" x="181.982422"/>
      <use xlink:href="#DejaVuSans-20" x="243.505859"/>
      <use xlink:href="#DejaVuSans-52" x="275.292969"/>
      <use xlink:href="#DejaVuSans-65" x="340.275391"/>
      <use xlink:href="#DejaVuSans-73" x="401.798828"/>
      <use xlink:href="#DejaVuSans-69" x="453.898438"/>
      <use xlink:href="#DejaVuSans-6e" x="481.681641"/>
      <use xlink:href="#DejaVuSans-20" x="545.060547"/>
      <use xlink:href="#DejaVuSans-41" x="576.847656"/>
     </g>
    </g>
   </g>
   <g id="matplotlib.axis_2">
    <g id="ytick_1">
     <g id="line2d_7">
      <defs>
       <path id="m4c5bac53a6" d="M 0 0 
L -3.5 0 
" style="stroke: #000000; stroke-width: 0.8"/>
      </defs>
      <g>
       <use xlink:href="#m4c5bac53a6" x="54" y="252" style="stroke: #000000; stroke-width: 0.8"/>
      </g>
     </g>
     <g id="text_8">
      <!-- 400 -->
      <g transform="translate(27.9125 255.799219)scale(0.1 -0.1)">
       <use xlink:href="#DejaVuSans-34"/>
       <use xlink:href="#DejaVuSans-30" x="63.623047"/>
       <use xlink:href="#DejaVuSans-30" x="127.246094"/>
      </g>
     </g>
    </g>
    <g id="ytick_2">
     <g id="line2d_8">
      <g>
       <use xlink:href="#m4c5bac53a6" x="54" y="215.76" style="stroke: #000000; stroke-width: 0.8"/>
      </g>
     </g>
     <g id="text_9">
      <!-- 450 -->
      <g transform="translate(27.9125 219.559219)scale(0.1 -0.1)">
       <defs>
        <path id="DejaVuSans-35" d="M 691 4666 
L 3169 4666 
L 3169 4134 
L 1269 4134 
L 1269 2991 
Q 1406 3038 1543 3061 
Q 1681 3084 1819 3084 
Q 2600 3084 3056 2656 
Q 3513 2228 3513 1497 
Q 3513 744 3044 326 
Q 2575 -91 1722 -91 
Q 1428 -91 1123 -41 
Q 819 9 494 109 
L 494 744 
Q 775 591 1075 516 
Q 1375 441 1709 441 
Q 2250 441 2565 725 
Q 2881 1009 2881 1497 
Q 2881 1984 2565 2268 
Q 2250 2553 1709 2553 
Q 1456 2553 1204 2497 
Q 953 2441 691 2322 
L 691 4666 
z
" transform="scale(0.015625)"/>
       </defs>
       <use xlink:href="#DejaVuSans-34"/>
       <use xlink:href="#DejaVuSans-35" x="63.623047"/>
       <use xlink:href="#DejaVuSans-30" x="127.246094"/>
      </g>
     </g>
    </g>
    <g id="ytick_3">
     <g id="line2d_9">
      <g>
       <use xlink:href="#m4c5bac53a6" x="54" y="179.52" style="stroke: #000000; stroke-width: 0.8"/>
      </g>
     </g>
     <g id="text_10">
      <!-- 500 -->
      <g transform="translate(27.9125 183.319219)scale(0.1 -0.1)">
       <use xlink:href="#DejaVuSans-35"/>
       <use xlink:href="#DejaVuSans-30" x="63.623047"/>
       <use xlink:href="#DejaVuSans-30" x="127.246094"/>
      </g>
     </g>
    </g>
    <g id="ytick_4">
     <g id="line2d_10">
      <g>
       <use xlink:href="#m4c5bac53a6" x="54" y="143.28" style="stroke: #000000; stroke-width: 0.8"/>
      </g>
     </g>
     <g id="text_11">
      <!-- 550 -->
      <g transform="translate(27.9125 147.079219)scale(0.1 -0.1)">
       <use xlink:href="#DejaVuSans-35"/>
       <use xlink:href="#DejaVuSans-35" x="63.623047"/>
       <use xlink:href="#DejaVuSans-30" x="127.246094"/>
      </g>
     </g>
    </g>
    <g id="ytick_5">
     <g id="line2d_11">
      <g>
       <use xlink:href="#m4c5bac53a6" x="54" y="107.04" style="stroke: #000000; stroke-width: 0.8"/>
      </g>
     </g>
     <g id="text_12">
      <!-- 600 -->
      <g transform="translate(27.9125 110.839219)scale(0.1 -0.1)">
       <use xlink:href="#DejaVuSans-36"/>
       <use xlink:href="#DejaVuSans-30" x="63.623047"/>
       <use xlink:href="#DejaVuSans-30" x="127.246094"/>
      </g>
     </g>
    </g>
    <g id="ytick_6">
     <g id="line2d_12">
      <g>
       <use xlink:href="#m4c5bac53a6" x="54" y="70.8" style="stroke: #000000; stroke-width: 0.8"/>
      </g>
     </g>
     <g id="text_13">
      <!-- 650 -->
      <g transform="translate(27.9125 74.599219)scale(0.1 -0.1)">
       <use xlink:href="#DejaVuSans-36"/>
       <use xlink:href="#DejaVuSans-35" x="63.623047"/>
       <use xlink:href="#DejaVuSans-30" x="127.246094"/>
      </g>
     </g>
    </g>
    <g id="ytick_7">
     <g id="line2d_13">
      <g>
       <use xlink:href="#m4c5bac53a6" x="54" y="34.56" style="stroke: #000000; stroke-width: 0.8"/>
      </g>
     </g>
     <g id="text_14">
      <!-- 700 -->
      <g transform="translate(27.9125 38.359219)scale(0.1 -0.1)">
       <defs>
        <path id="DejaVuSans-37" d="M 525 4666 
L 3525 4666 
L 3525 4397 
L 1831 0 
L 1172 0 
L 2766 4134 
L 525 4134 
L 525 4666 
z
" transform="scale(0.015625)"/>
       </defs>
       <use xlink:href="#DejaVuSans-37"/>
       <use xlink:href="#DejaVuSans-30" x="63.623047"/>
       <use xlink:href="#DejaVuSans-30" x="127.246094"/>
      </g>
     </g>
    </g>
    <g id="text_15">
     <!-- Toughness (J/m2) -->
     <g style="fill: #ff0000" transform="translate(21.832812 186.21125)rotate(-90)scale(0.1 -0.1)">
      <defs>
       <path id="DejaVuSans-54" d="M -19 4666 
L 3928 4666 
L 3928 4134 
L 2272 4134 
L 2272 0 
L 1638 0 
L 1638 4134 
L -19 4134 
L -19 4666 
z
" transform="scale(0.015625)"/>
       <path id="DejaVuSans-6f" d="M 1959 3097 
Q 1497 3097 1228 2736 
Q 959 2375 959 1747 
Q 959 1119 1226 758 
Q 1494 397 1959 397 
Q 2419 397 2687 759 
Q 2956 1122 2956 1747 
Q 2956 2369 2687 2733 
Q 2419 3097 1959 3097 
z
M 1959 3584 
Q 2709 3584 3137 3096 
Q 3566 2609 3566 1747 
Q 3566 888 3137 398 
Q 2709 -91 1959 -91 
Q 1206 -91 779 398 
Q 353 888 353 1747 
Q 353 2609 779 3096 
Q 1206 3584 1959 3584 
z
" transform="scale(0.015625)"/>
       <path id="DejaVuSans-75" d="M 544 1381 
L 544 3500 
L 1119 3500 
L 1119 1403 
Q 1119 906 1312 657 
Q 1506 409 1894 409 
Q 2359 409 2629 706 
Q 2900 1003 2900 1516 
L 2900 3500 
L 3475 3500 
L 3475 0 
L 2900 0 
L 2900 538 
Q 2691 219 2414 64 
Q 2138 -91 1772 -91 
Q 1169 -91 856 284 
Q 544 659 544 1381 
z
M 1991 3584 
L 1991 3584 
z
" transform="scale(0.015625)"/>
       <path id="DejaVuSans-67" d="M 2906 1791 
Q 2906 2416 2648 2759 
Q 2391 3103 1925 3103 
Q 1463 3103 1205 2759 
Q 947 2416 947 1791 
Q 947 1169 1205 825 
Q 1463 481 1925 481 
Q 2391 481 2648 825 
Q 2906 1169 2906 1791 
z
M 3481 434 
Q 3481 -459 3084 -895 
Q 2688 -1331 1869 -1331 
Q 1566 -1331 1297 -1286 
Q 1028 -1241 775 -1147 
L 775 -588 
Q 1028 -725 1275 -790 
Q 1522 -856 1778 -856 
Q 2344 -856 2625 -561 
Q 2906 -266 2906 331 
L 2906 616 
Q 2728 306 2450 153 
Q 2172 0 1784 0 
Q 1141 0 747 490 
Q 353 981 353 1791 
Q 353 2603 747 3093 
Q 1141 3584 1784 3584 
Q 2172 3584 2450 3431 
Q 2728 3278 2906 2969 
L 2906 3500 
L 3481 3500 
L 3481 434 
z
" transform="scale(0.015625)"/>
       <path id="DejaVuSans-68" d="M 3513 2113 
L 3513 0 
L 2938 0 
L 2938 2094 
Q 2938 2591 2744 2837 
Q 2550 3084 2163 3084 
Q 1697 3084 1428 2787 
Q 1159 2491 1159 1978 
L 1159 0 
L 581 0 
L 581 4863 
L 1159 4863 
L 1159 2956 
Q 1366 3272 1645 3428 
Q 1925 3584 2291 3584 
Q 2894 3584 3203 3211 
Q 3513 2838 3513 2113 
z
" transform="scale(0.015625)"/>
       <path id="DejaVuSans-28" d="M 1984 4856 
Q 1566 4138 1362 3434 
Q 1159 2731 1159 2009 
Q 1159 1288 1364 580 
Q 1569 -128 1984 -844 
L 1484 -844 
Q 1016 -109 783 600 
Q 550 1309 550 2009 
Q 550 2706 781 3412 
Q 1013 4119 1484 4856 
L 1984 4856 
z
" transform="scale(0.015625)"/>
       <path id="DejaVuSans-4a" d="M 628 4666 
L 1259 4666 
L 1259 325 
Q 1259 -519 939 -900 
Q 619 -1281 -91 -1281 
L -331 -1281 
L -331 -750 
L -134 -750 
Q 284 -750 456 -515 
Q 628 -281 628 325 
L 628 4666 
z
" transform="scale(0.015625)"/>
       <path id="DejaVuSans-2f" d="M 1625 4666 
L 2156 4666 
L 531 -594 
L 0 -594 
L 1625 4666 
z
" transform="scale(0.015625)"/>
       <path id="DejaVuSans-6d" d="M 3328 2828 
Q 3544 3216 3844 3400 
Q 4144 3584 4550 3584 
Q 5097 3584 5394 3201 
Q 5691 2819 5691 2113 
L 5691 0 
L 5113 0 
L 5113 2094 
Q 5113 2597 4934 2840 
Q 4756 3084 4391 3084 
Q 3944 3084 3684 2787 
Q 3425 2491 3425 1978 
L 3425 0 
L 2847 0 
L 2847 2094 
Q 2847 2600 2669 2842 
Q 2491 3084 2119 3084 
Q 1678 3084 1418 2786 
Q 1159 2488 1159 1978 
L 1159 0 
L 581 0 
L 581 3500 
L 1159 3500 
L 1159 2956 
Q 1356 3278 1631 3431 
Q 1906 3584 2284 3584 
Q 2666 3584 2933 3390 
Q 3200 3197 3328 2828 
z
" transform="scale(0.015625)"/>
       <path id="DejaVuSans-29" d="M 513 4856 
L 1013 4856 
Q 1481 4119 1714 3412 
Q 1947 2706 1947 2009 
Q 1947 1309 1714 600 
Q 1481 -109 1013 -844 
L 513 -844 
Q 928 -128 1133 580 
Q 1338 1288 1338 2009 
Q 1338 2731 1133 3434 
Q 928 4138 513 4856 
z
" transform="scale(0.015625)"/>
      </defs>
      <use xlink:href="#DejaVuSans-54"/>
      <use xlink:href="#DejaVuSans-6f" x="44.083984"/>
      <use xlink:href="#DejaVuSans-75" x="105.265625"/>
      <use xlink:href="#DejaVuSans-67" x="168.644531"/>
      <use xlink:href="#DejaVuSans-68" x="232.121094"/>
      <use xlink:href="#DejaVuSans-6e" x="295.5"/>
      <use xlink:href="#DejaVuSans-65" x="358.878906"/>
      <use xlink:href="#DejaVuSans-73" x="420.402344"/>
      <use xlink:href="#DejaVuSans-73" x="472.501953"/>
      <use xlink:href="#DejaVuSans-20" x="524.601562"/>
      <use xlink:href="#DejaVuSans-28" x="556.388672"/>
      <use xlink:href="#DejaVuSans-4a" x="595.402344"/>
      <use xlink:href="#DejaVuSans-2f" x="624.894531"/>
      <use xlink:href="#DejaVuSans-6d" x="658.585938"/>
      <use xlink:href="#DejaVuSans-32" x="755.998047"/>
      <use xlink:href="#DejaVuSans-29" x="819.621094"/>
     </g>
    </g>
   </g>
   <g id="line2d_14">
    <path d="M 373.581818 106.890807 
L 370.507438 108.150951 
L 367.433058 109.967056 
L 364.358678 112.506876 
L 361.284298 115.951556 
L 358.209917 120.479111 
L 355.135537 126.240852 
L 352.061157 133.332041 
L 348.986777 141.759796 
L 345.912397 151.413008 
L 342.838017 162.040265 
L 339.763636 173.242021 
L 336.689256 184.482129 
L 333.614876 195.121265 
L 330.540496 204.471012 
L 327.466116 211.8631 
L 324.391736 216.724522 
L 321.317355 218.646929 
L 318.242975 217.438604 
L 315.168595 213.149759 
L 312.094215 206.066392 
L 309.019835 196.673671 
L 305.945455 185.595366 
L 302.871074 173.519981 
L 299.796694 161.126051 
L 296.722314 149.018095 
L 293.647934 137.681564 
L 290.573554 127.460465 
L 287.499174 118.556591 
L 284.424793 111.045486 
L 281.350413 104.90219 
L 278.276033 100.029675 
L 275.201653 96.284472 
L 272.127273 93.496407 
L 269.052893 91.482049 
L 265.978512 90.053397 
L 262.904132 89.024319 
L 259.829752 88.217045 
L 256.755372 87.470017 
L 253.680992 86.647024 
L 250.606612 85.64636 
L 247.532231 84.408109 
L 244.457851 82.917758 
L 241.383471 81.205076 
L 238.309091 79.338229 
L 235.234711 77.414158 
L 232.160331 75.546886 
L 229.08595 73.855595 
L 226.01157 72.453942 
L 222.93719 71.441484 
L 219.86281 70.897362 
L 216.78843 70.875962 
L 213.71405 71.404116 
L 210.639669 72.479556 
L 207.565289 74.070679 
L 204.490909 76.117927 
L 201.416529 78.53719 
L 198.342149 81.225425 
L 195.267769 84.068295 
L 192.193388 86.949134 
L 189.119008 89.758164 
L 186.044628 92.400737 
L 182.970248 94.803497 
L 179.895868 96.917737 
L 176.821488 98.719763 
L 173.747107 100.208571 
L 170.672727 101.401541 
L 167.598347 102.329084 
L 164.523967 103.029116 
L 161.449587 103.542127 
L 158.375207 103.907287 
L 155.300826 104.159811 
L 152.226446 104.329509 
L 149.152066 104.44035 
L 146.077686 104.510731 
L 143.003306 104.554182 
L 139.928926 104.580268 
L 136.854545 104.595501 
L 133.780165 104.604152 
L 130.705785 104.608932 
L 127.631405 104.611501 
L 124.557025 104.612845 
L 121.482645 104.61353 
L 118.408264 104.613868 
L 115.333884 104.614032 
L 112.259504 104.614108 
L 109.185124 104.614143 
L 106.110744 104.614159 
L 103.036364 104.614166 
L 99.961983 104.614169 
L 96.887603 104.61417 
L 93.813223 104.61417 
L 90.738843 104.61417 
L 87.664463 104.61417 
L 84.590083 104.61417 
L 81.515702 104.61417 
L 78.441322 104.61417 
L 75.366942 104.61417 
L 72.292562 104.61417 
L 69.218182 104.61417 
" clip-path="url(#pf28ff9b5f7)" style="fill: none; stroke: #ff0000; stroke-width: 0.5; stroke-linecap: square"/>
   </g>
   <g id="line2d_15">
    <path d="M 251.836364 252 
L 251.836364 34.56 
" clip-path="url(#pf28ff9b5f7)" style="fill: none; stroke-dasharray: 5.55,2.4; stroke-dashoffset: 0; stroke: #808080; stroke-opacity: 0.7; stroke-width: 1.5"/>
   </g>
   <g id="patch_3">
    <path d="M 54 252 
L 54 34.56 
" style="fill: none; stroke: #000000; stroke-width: 0.8; stroke-linejoin: miter; stroke-linecap: square"/>
   </g>
   <g id="patch_4">
    <path d="M 388.8 252 
L 388.8 34.56 
" style="fill: none; stroke: #000000; stroke-width: 0.8; stroke-linejoin: miter; stroke-linecap: square"/>
   </g>
   <g id="patch_5">
    <path d="M 54 252 
L 388.8 252 
" style="fill: none; stroke: #000000; stroke-width: 0.8; stroke-linejoin: miter; stroke-linecap: square"/>
   </g>
   <g id="patch_6">
    <path d="M 54 34.56 
L 388.8 34.56 
" style="fill: none; stroke: #000000; stroke-width: 0.8; stroke-linejoin: miter; stroke-linecap: square"/>
   </g>
  </g>
  <g id="axes_2">
   <g id="PolyCollection_3">
    <defs>
     <path id="m1df04708cc" d="M 373.581818 -173.54113 
L 373.581818 -94.587518 
L 370.507438 -95.821625 
L 367.433058 -97.282664 
L 364.358678 -98.991358 
L 361.284298 -100.964845 
L 358.209917 -103.215014 
L 355.135537 -105.746725 
L 352.061157 -108.556011 
L 348.986777 -111.628392 
L 345.912397 -114.937453 
L 342.838017 -118.44387 
L 339.763636 -122.095063 
L 336.689256 -125.825658 
L 333.614876 -129.558883 
L 330.540496 -133.209019 
L 327.466116 -136.68489 
L 324.391736 -139.894347 
L 321.317355 -142.749541 
L 318.242975 -145.172669 
L 315.168595 -147.101716 
L 312.094215 -148.495575 
L 309.019835 -149.337831 
L 305.945455 -149.638503 
L 302.871074 -149.433268 
L 299.796694 -148.780083 
L 296.722314 -147.753643 
L 293.647934 -146.438504 
L 290.573554 -144.921892 
L 287.499174 -143.287108 
L 284.424793 -141.608117 
L 281.350413 -139.945563 
L 278.276033 -138.344135 
L 275.201653 -136.831063 
L 272.127273 -135.415531 
L 269.052893 -134.088956 
L 265.978512 -132.826295 
L 262.904132 -131.588823 
L 259.829752 -130.328834 
L 256.755372 -128.996446 
L 253.680992 -127.547853 
L 250.606612 -125.953303 
L 247.532231 -124.202589 
L 244.457851 -122.306492 
L 241.383471 -120.294252 
L 238.309091 -118.208477 
L 235.234711 -116.099209 
L 232.160331 -114.018339 
L 229.08595 -112.014935 
L 226.01157 -110.131586 
L 222.93719 -108.401745 
L 219.86281 -106.848021 
L 216.78843 -105.481379 
L 213.71405 -104.301257 
L 210.639669 -103.296517 
L 207.565289 -102.447174 
L 204.490909 -101.726719 
L 201.416529 -101.104847 
L 198.342149 -100.550308 
L 195.267769 -100.033611 
L 192.193388 -99.529296 
L 189.119008 -99.017576 
L 186.044628 -98.485218 
L 182.970248 -97.925661 
L 179.895868 -97.338441 
L 176.821488 -96.728125 
L 173.747107 -96.102936 
L 170.672727 -95.473288 
L 167.598347 -94.85042 
L 164.523967 -94.245236 
L 161.449587 -93.667442 
L 158.375207 -93.124979 
L 155.300826 -92.623741 
L 152.226446 -92.167534 
L 149.152066 -91.7582 
L 146.077686 -91.395868 
L 143.003306 -91.079257 
L 139.928926 -90.806005 
L 136.854545 -90.572978 
L 133.780165 -90.376551 
L 130.705785 -90.21285 
L 127.631405 -90.077942 
L 124.557025 -89.967991 
L 121.482645 -89.879362 
L 118.408264 -89.8087 
L 115.333884 -89.752976 
L 112.259504 -89.709512 
L 109.185124 -89.675979 
L 106.110744 -89.650389 
L 103.036364 -89.631073 
L 99.961983 -89.616651 
L 96.887603 -89.605999 
L 93.813223 -89.598216 
L 90.738843 -89.592591 
L 87.664463 -89.588569 
L 84.590083 -89.585724 
L 81.515702 -89.583733 
L 78.441322 -89.582354 
L 75.366942 -89.581409 
L 72.292562 -89.580769 
L 69.218182 -89.580339 
L 69.218182 -169.292953 
L 69.218182 -169.292953 
L 72.292562 -169.293283 
L 75.366942 -169.293775 
L 78.441322 -169.294499 
L 81.515702 -169.295555 
L 84.590083 -169.297079 
L 87.664463 -169.299253 
L 90.738843 -169.302321 
L 93.813223 -169.306601 
L 96.887603 -169.312506 
L 99.961983 -169.320557 
L 103.036364 -169.331406 
L 106.110744 -169.34585 
L 109.185124 -169.36484 
L 112.259504 -169.389491 
L 115.333884 -169.421066 
L 118.408264 -169.460955 
L 121.482645 -169.510622 
L 124.557025 -169.571528 
L 127.631405 -169.645017 
L 130.705785 -169.732168 
L 133.780165 -169.833611 
L 136.854545 -169.949313 
L 139.928926 -170.07834 
L 143.003306 -170.218623 
L 146.077686 -170.366749 
L 149.152066 -170.517795 
L 152.226446 -170.665253 
L 155.300826 -170.801067 
L 158.375207 -170.915799 
L 161.449587 -170.998946 
L 164.523967 -171.039386 
L 167.598347 -171.025936 
L 170.672727 -170.947977 
L 173.747107 -170.796072 
L 176.821488 -170.562535 
L 179.895868 -170.241867 
L 182.970248 -169.831036 
L 186.044628 -169.329583 
L 189.119008 -168.739572 
L 192.193388 -168.065441 
L 195.267769 -167.313799 
L 198.342149 -166.493248 
L 201.416529 -165.614226 
L 204.490909 -164.688883 
L 207.565289 -163.730929 
L 210.639669 -162.755422 
L 213.71405 -161.778451 
L 216.78843 -160.816722 
L 219.86281 -159.887121 
L 222.93719 -159.006355 
L 226.01157 -158.190799 
L 229.08595 -157.456663 
L 232.160331 -156.820502 
L 235.234711 -156.300009 
L 238.309091 -155.914844 
L 241.383471 -155.687121 
L 244.457851 -155.641056 
L 247.532231 -155.801392 
L 250.606612 -156.19061 
L 253.680992 -156.825663 
L 256.755372 -157.715606 
L 259.829752 -158.861349 
L 262.904132 -160.257619 
L 265.978512 -161.895864 
L 269.052893 -163.76628 
L 272.127273 -165.857895 
L 275.201653 -168.156744 
L 278.276033 -170.643046 
L 281.350413 -173.288536 
L 284.424793 -176.054875 
L 287.499174 -178.893683 
L 290.573554 -181.748188 
L 293.647934 -184.556115 
L 296.722314 -187.253174 
L 299.796694 -189.776465 
L 302.871074 -192.067275 
L 305.945455 -194.073076 
L 309.019835 -195.748843 
L 312.094215 -197.058053 
L 315.168595 -197.973713 
L 318.242975 -198.479541 
L 321.317355 -198.571177 
L 324.391736 -198.257088 
L 327.466116 -197.558825 
L 330.540496 -196.51039 
L 333.614876 -195.156675 
L 336.689256 -193.551094 
L 339.763636 -191.752642 
L 342.838017 -189.822702 
L 345.912397 -187.821873 
L 348.986777 -185.807108 
L 352.061157 -183.829351 
L 355.135537 -181.931798 
L 358.209917 -180.148856 
L 361.284298 -178.505761 
L 364.358678 -177.018809 
L 367.433058 -175.696074 
L 370.507438 -174.538488 
L 373.581818 -173.54113 
z
" style="stroke: #0000ff; stroke-opacity: 0.5"/>
    </defs>
    <g clip-path="url(#pf28ff9b5f7)">
     <use xlink:href="#m1df04708cc" x="0" y="288" style="fill: #0000ff; fill-opacity: 0.5; stroke: #0000ff; stroke-opacity: 0.5"/>
    </g>
   </g>
   <g id="PolyCollection_4">
    <defs>
     <path id="mbda568b1f4" d="M 373.581818 -213.017936 
L 373.581818 -55.110713 
L 370.507438 -56.463194 
L 367.433058 -58.075959 
L 364.358678 -59.977633 
L 361.284298 -62.194388 
L 358.209917 -64.748094 
L 355.135537 -67.654189 
L 352.061157 -70.919342 
L 348.986777 -74.539034 
L 345.912397 -78.495243 
L 342.838017 -82.754454 
L 339.763636 -87.266274 
L 336.689256 -91.96294 
L 333.614876 -96.759988 
L 330.540496 -101.558334 
L 327.466116 -106.247922 
L 324.391736 -110.712976 
L 321.317355 -114.838723 
L 318.242975 -118.519234 
L 315.168595 -121.665717 
L 312.094215 -124.214336 
L 309.019835 -126.132325 
L 305.945455 -127.421217 
L 302.871074 -128.116264 
L 299.796694 -128.281892 
L 296.722314 -128.003878 
L 293.647934 -127.379699 
L 290.573554 -126.508744 
L 287.499174 -125.48382 
L 284.424793 -124.384738 
L 281.350413 -123.274077 
L 278.276033 -122.19468 
L 275.201653 -121.168223 
L 272.127273 -120.19435 
L 269.052893 -119.250294 
L 265.978512 -118.291511 
L 262.904132 -117.254425 
L 259.829752 -116.062577 
L 256.755372 -114.636866 
L 253.680992 -112.908948 
L 250.606612 -110.83465 
L 247.532231 -108.403188 
L 244.457851 -105.63921 
L 241.383471 -102.597817 
L 238.309091 -99.355294 
L 235.234711 -95.998809 
L 232.160331 -92.617258 
L 229.08595 -89.294071 
L 226.01157 -86.101979 
L 222.93719 -83.099441 
L 219.86281 -80.32847 
L 216.78843 -77.813707 
L 213.71405 -75.562659 
L 210.639669 -73.567065 
L 207.565289 -71.805297 
L 204.490909 -70.245637 
L 201.416529 -68.850157 
L 198.342149 -67.578838 
L 195.267769 -66.393517 
L 192.193388 -65.261224 
L 189.119008 -64.156577 
L 186.044628 -63.063036 
L 182.970248 -61.972973 
L 179.895868 -60.886728 
L 176.821488 -59.81092 
L 173.747107 -58.756368 
L 170.672727 -57.735944 
L 167.598347 -56.762661 
L 164.523967 -55.848161 
L 161.449587 -55.00169 
L 158.375207 -54.229569 
L 155.300826 -53.535079 
L 152.226446 -52.918675 
L 149.152066 -52.378403 
L 146.077686 -51.910427 
L 143.003306 -51.509574 
L 139.928926 -51.169838 
L 136.854545 -50.88481 
L 133.780165 -50.64802 
L 130.705785 -50.45319 
L 127.631405 -50.294405 
L 124.557025 -50.166223 
L 121.482645 -50.063732 
L 118.408264 -49.982572 
L 115.333884 -49.918931 
L 112.259504 -49.869523 
L 109.185124 -49.831548 
L 106.110744 -49.802659 
L 103.036364 -49.780906 
L 99.961983 -49.764697 
L 96.887603 -49.752745 
L 93.813223 -49.744023 
L 90.738843 -49.737726 
L 87.664463 -49.733227 
L 84.590083 -49.730047 
L 81.515702 -49.727822 
L 78.441322 -49.726282 
L 75.366942 -49.725227 
L 72.292562 -49.724512 
L 69.218182 -49.724032 
L 69.218182 -209.149261 
L 69.218182 -209.149261 
L 72.292562 -209.14954 
L 75.366942 -209.149957 
L 78.441322 -209.150571 
L 81.515702 -209.151466 
L 84.590083 -209.152757 
L 87.664463 -209.154595 
L 90.738843 -209.157186 
L 93.813223 -209.160794 
L 96.887603 -209.16576 
L 99.961983 -209.172511 
L 103.036364 -209.181573 
L 106.110744 -209.19358 
L 109.185124 -209.209271 
L 112.259504 -209.22948 
L 115.333884 -209.255111 
L 118.408264 -209.287083 
L 121.482645 -209.326252 
L 124.557025 -209.373296 
L 127.631405 -209.428554 
L 130.705785 -209.491827 
L 133.780165 -209.562142 
L 136.854545 -209.637481 
L 139.928926 -209.714507 
L 143.003306 -209.788306 
L 146.077686 -209.85219 
L 149.152066 -209.897592 
L 152.226446 -209.914112 
L 155.300826 -209.889729 
L 158.375207 -209.811209 
L 161.449587 -209.664698 
L 164.523967 -209.436461 
L 167.598347 -209.113695 
L 170.672727 -208.685321 
L 173.747107 -208.14264 
L 176.821488 -207.47974 
L 179.895868 -206.69358 
L 182.970248 -205.783723 
L 186.044628 -204.751765 
L 189.119008 -203.600571 
L 192.193388 -202.333513 
L 195.267769 -200.953892 
L 198.342149 -199.464717 
L 201.416529 -197.868916 
L 204.490909 -196.169965 
L 207.565289 -194.372806 
L 210.639669 -192.484875 
L 213.71405 -190.517049 
L 216.78843 -188.484394 
L 219.86281 -186.406671 
L 222.93719 -184.308659 
L 226.01157 -182.220406 
L 229.08595 -180.177528 
L 232.160331 -178.221584 
L 235.234711 -176.400409 
L 238.309091 -174.768027 
L 241.383471 -173.383556 
L 244.457851 -172.308339 
L 247.532231 -171.600794 
L 250.606612 -171.309263 
L 253.680992 -171.464568 
L 256.755372 -172.075187 
L 259.829752 -173.127606 
L 262.904132 -174.592017 
L 265.978512 -176.430648 
L 269.052893 -178.604943 
L 272.127273 -181.079077 
L 275.201653 -183.819584 
L 278.276033 -186.792502 
L 281.350413 -189.960022 
L 284.424793 -193.278254 
L 287.499174 -196.696971 
L 290.573554 -200.161336 
L 293.647934 -203.61492 
L 296.722314 -207.002939 
L 299.796694 -210.274656 
L 302.871074 -213.384279 
L 305.945455 -216.290363 
L 309.019835 -218.954348 
L 312.094215 -221.339292 
L 315.168595 -223.409711 
L 318.242975 -225.132976 
L 321.317355 -226.481994 
L 324.391736 -227.438459 
L 327.466116 -227.995793 
L 330.540496 -228.161075 
L 333.614876 -227.955571 
L 336.689256 -227.413811 
L 339.763636 -226.581431 
L 342.838017 -225.512118 
L 345.912397 -224.264082 
L 348.986777 -222.896466 
L 352.061157 -221.466021 
L 355.135537 -220.024335 
L 358.209917 -218.615777 
L 361.284298 -217.276218 
L 364.358678 -216.032534 
L 367.433058 -214.90278 
L 370.507438 -213.89692 
L 373.581818 -213.017936 
z
" style="stroke: #0000ff; stroke-opacity: 0.3"/>
    </defs>
    <g clip-path="url(#pf28ff9b5f7)">
     <use xlink:href="#mbda568b1f4" x="0" y="288" style="fill: #0000ff; fill-opacity: 0.3; stroke: #0000ff; stroke-opacity: 0.3"/>
    </g>
   </g>
   <g id="matplotlib.axis_3">
    <g id="ytick_8">
     <g id="line2d_16">
      <defs>
       <path id="m923dde70cf" d="M 0 0 
L 3.5 0 
" style="stroke: #000000; stroke-width: 0.8"/>
      </defs>
      <g>
       <use xlink:href="#m923dde70cf" x="388.8" y="233.88" style="stroke: #000000; stroke-width: 0.8"/>
      </g>
     </g>
     <g id="text_16">
      <!-- 3 -->
      <g transform="translate(395.8 237.679219)scale(0.1 -0.1)">
       <defs>
        <path id="DejaVuSans-33" d="M 2597 2516 
Q 3050 2419 3304 2112 
Q 3559 1806 3559 1356 
Q 3559 666 3084 287 
Q 2609 -91 1734 -91 
Q 1441 -91 1130 -33 
Q 819 25 488 141 
L 488 750 
Q 750 597 1062 519 
Q 1375 441 1716 441 
Q 2309 441 2620 675 
Q 2931 909 2931 1356 
Q 2931 1769 2642 2001 
Q 2353 2234 1838 2234 
L 1294 2234 
L 1294 2753 
L 1863 2753 
Q 2328 2753 2575 2939 
Q 2822 3125 2822 3475 
Q 2822 3834 2567 4026 
Q 2313 4219 1838 4219 
Q 1578 4219 1281 4162 
Q 984 4106 628 3988 
L 628 4550 
Q 988 4650 1302 4700 
Q 1616 4750 1894 4750 
Q 2613 4750 3031 4423 
Q 3450 4097 3450 3541 
Q 3450 3153 3228 2886 
Q 3006 2619 2597 2516 
z
" transform="scale(0.015625)"/>
       </defs>
       <use xlink:href="#DejaVuSans-33"/>
      </g>
     </g>
    </g>
    <g id="ytick_9">
     <g id="line2d_17">
      <g>
       <use xlink:href="#m923dde70cf" x="388.8" y="197.64" style="stroke: #000000; stroke-width: 0.8"/>
      </g>
     </g>
     <g id="text_17">
      <!-- 4 -->
      <g transform="translate(395.8 201.439219)scale(0.1 -0.1)">
       <use xlink:href="#DejaVuSans-34"/>
      </g>
     </g>
    </g>
    <g id="ytick_10">
     <g id="line2d_18">
      <g>
       <use xlink:href="#m923dde70cf" x="388.8" y="161.4" style="stroke: #000000; stroke-width: 0.8"/>
      </g>
     </g>
     <g id="text_18">
      <!-- 5 -->
      <g transform="translate(395.8 165.199219)scale(0.1 -0.1)">
       <use xlink:href="#DejaVuSans-35"/>
      </g>
     </g>
    </g>
    <g id="ytick_11">
     <g id="line2d_19">
      <g>
       <use xlink:href="#m923dde70cf" x="388.8" y="125.16" style="stroke: #000000; stroke-width: 0.8"/>
      </g>
     </g>
     <g id="text_19">
      <!-- 6 -->
      <g transform="translate(395.8 128.959219)scale(0.1 -0.1)">
       <use xlink:href="#DejaVuSans-36"/>
      </g>
     </g>
    </g>
    <g id="ytick_12">
     <g id="line2d_20">
      <g>
       <use xlink:href="#m923dde70cf" x="388.8" y="88.92" style="stroke: #000000; stroke-width: 0.8"/>
      </g>
     </g>
     <g id="text_20">
      <!-- 7 -->
      <g transform="translate(395.8 92.719219)scale(0.1 -0.1)">
       <use xlink:href="#DejaVuSans-37"/>
      </g>
     </g>
    </g>
    <g id="ytick_13">
     <g id="line2d_21">
      <g>
       <use xlink:href="#m923dde70cf" x="388.8" y="52.68" style="stroke: #000000; stroke-width: 0.8"/>
      </g>
     </g>
     <g id="text_21">
      <!-- 8 -->
      <g transform="translate(395.8 56.479219)scale(0.1 -0.1)">
       <use xlink:href="#DejaVuSans-38"/>
      </g>
     </g>
    </g>
    <g id="text_22">
     <!-- Modulus (GPa) -->
     <g style="fill: #0000ff" transform="translate(413.760938 179.377656)rotate(-90)scale(0.1 -0.1)">
      <defs>
       <path id="DejaVuSans-4d" d="M 628 4666 
L 1569 4666 
L 2759 1491 
L 3956 4666 
L 4897 4666 
L 4897 0 
L 4281 0 
L 4281 4097 
L 3078 897 
L 2444 897 
L 1241 4097 
L 1241 0 
L 628 0 
L 628 4666 
z
" transform="scale(0.015625)"/>
       <path id="DejaVuSans-64" d="M 2906 2969 
L 2906 4863 
L 3481 4863 
L 3481 0 
L 2906 0 
L 2906 525 
Q 2725 213 2448 61 
Q 2172 -91 1784 -91 
Q 1150 -91 751 415 
Q 353 922 353 1747 
Q 353 2572 751 3078 
Q 1150 3584 1784 3584 
Q 2172 3584 2448 3432 
Q 2725 3281 2906 2969 
z
M 947 1747 
Q 947 1113 1208 752 
Q 1469 391 1925 391 
Q 2381 391 2643 752 
Q 2906 1113 2906 1747 
Q 2906 2381 2643 2742 
Q 2381 3103 1925 3103 
Q 1469 3103 1208 2742 
Q 947 2381 947 1747 
z
" transform="scale(0.015625)"/>
       <path id="DejaVuSans-6c" d="M 603 4863 
L 1178 4863 
L 1178 0 
L 603 0 
L 603 4863 
z
" transform="scale(0.015625)"/>
       <path id="DejaVuSans-47" d="M 3809 666 
L 3809 1919 
L 2778 1919 
L 2778 2438 
L 4434 2438 
L 4434 434 
Q 4069 175 3628 42 
Q 3188 -91 2688 -91 
Q 1594 -91 976 548 
Q 359 1188 359 2328 
Q 359 3472 976 4111 
Q 1594 4750 2688 4750 
Q 3144 4750 3555 4637 
Q 3966 4525 4313 4306 
L 4313 3634 
Q 3963 3931 3569 4081 
Q 3175 4231 2741 4231 
Q 1884 4231 1454 3753 
Q 1025 3275 1025 2328 
Q 1025 1384 1454 906 
Q 1884 428 2741 428 
Q 3075 428 3337 486 
Q 3600 544 3809 666 
z
" transform="scale(0.015625)"/>
       <path id="DejaVuSans-50" d="M 1259 4147 
L 1259 2394 
L 2053 2394 
Q 2494 2394 2734 2622 
Q 2975 2850 2975 3272 
Q 2975 3691 2734 3919 
Q 2494 4147 2053 4147 
L 1259 4147 
z
M 628 4666 
L 2053 4666 
Q 2838 4666 3239 4311 
Q 3641 3956 3641 3272 
Q 3641 2581 3239 2228 
Q 2838 1875 2053 1875 
L 1259 1875 
L 1259 0 
L 628 0 
L 628 4666 
z
" transform="scale(0.015625)"/>
      </defs>
      <use xlink:href="#DejaVuSans-4d"/>
      <use xlink:href="#DejaVuSans-6f" x="86.279297"/>
      <use xlink:href="#DejaVuSans-64" x="147.460938"/>
      <use xlink:href="#DejaVuSans-75" x="210.9375"/>
      <use xlink:href="#DejaVuSans-6c" x="274.316406"/>
      <use xlink:href="#DejaVuSans-75" x="302.099609"/>
      <use xlink:href="#DejaVuSans-73" x="365.478516"/>
      <use xlink:href="#DejaVuSans-20" x="417.578125"/>
      <use xlink:href="#DejaVuSans-28" x="449.365234"/>
      <use xlink:href="#DejaVuSans-47" x="488.378906"/>
      <use xlink:href="#DejaVuSans-50" x="565.869141"/>
      <use xlink:href="#DejaVuSans-61" x="621.671875"/>
      <use xlink:href="#DejaVuSans-29" x="682.951172"/>
     </g>
    </g>
   </g>
   <g id="line2d_22">
    <path d="M 373.581818 153.935676 
L 370.507438 152.819943 
L 367.433058 151.510631 
L 364.358678 149.994917 
L 361.284298 148.264697 
L 358.209917 146.318065 
L 355.135537 144.160738 
L 352.061157 141.807319 
L 348.986777 139.28225 
L 345.912397 136.620337 
L 342.838017 133.866714 
L 339.763636 131.076147 
L 336.689256 128.311624 
L 333.614876 125.642221 
L 330.540496 123.140296 
L 327.466116 120.878143 
L 324.391736 118.924283 
L 321.317355 117.339641 
L 318.242975 116.173895 
L 315.168595 115.462286 
L 312.094215 115.223186 
L 309.019835 115.456663 
L 305.945455 116.14421 
L 302.871074 117.249728 
L 299.796694 118.721726 
L 296.722314 120.496592 
L 293.647934 122.502691 
L 290.573554 124.66496 
L 287.499174 126.909604 
L 284.424793 129.168504 
L 281.350413 131.382951 
L 278.276033 133.506409 
L 275.201653 135.506097 
L 272.127273 137.363287 
L 269.052893 139.072382 
L 265.978512 140.63892 
L 262.904132 142.076779 
L 259.829752 143.404909 
L 256.755372 144.643974 
L 253.680992 145.813242 
L 250.606612 146.928043 
L 247.532231 147.998009 
L 244.457851 149.026226 
L 241.383471 150.009314 
L 238.309091 150.938339 
L 235.234711 151.800391 
L 232.160331 152.580579 
L 229.08595 153.264201 
L 226.01157 153.838807 
L 222.93719 154.29595 
L 219.86281 154.632429 
L 216.78843 154.850949 
L 213.71405 154.960146 
L 210.639669 154.97403 
L 207.565289 154.910949 
L 204.490909 154.792199 
L 201.416529 154.640464 
L 198.342149 154.478222 
L 195.267769 154.326295 
L 192.193388 154.202632 
L 189.119008 154.121426 
L 186.044628 154.092599 
L 182.970248 154.121652 
L 179.895868 154.209846 
L 176.821488 154.35467 
L 173.747107 154.550496 
L 170.672727 154.789368 
L 167.598347 155.061822 
L 164.523967 155.357689 
L 161.449587 155.666806 
L 158.375207 155.979611 
L 155.300826 156.287596 
L 152.226446 156.583607 
L 149.152066 156.862003 
L 146.077686 157.118692 
L 143.003306 157.35106 
L 139.928926 157.557827 
L 136.854545 157.738855 
L 133.780165 157.894919 
L 130.705785 158.027491 
L 127.631405 158.138521 
L 124.557025 158.23024 
L 121.482645 158.305008 
L 118.408264 158.365173 
L 115.333884 158.412979 
L 112.259504 158.450498 
L 109.185124 158.47959 
L 106.110744 158.50188 
L 103.036364 158.51876 
L 99.961983 158.531396 
L 96.887603 158.540748 
L 93.813223 158.547591 
L 90.738843 158.552544 
L 87.664463 158.556089 
L 84.590083 158.558598 
L 81.515702 158.560356 
L 78.441322 158.561573 
L 75.366942 158.562408 
L 72.292562 158.562974 
L 69.218182 158.563354 
" clip-path="url(#pf28ff9b5f7)" style="fill: none; stroke: #0000ff; stroke-width: 0.5; stroke-linecap: square"/>
   </g>
   <g id="patch_7">
    <path d="M 54 252 
L 54 34.56 
" style="fill: none; stroke: #000000; stroke-width: 0.8; stroke-linejoin: miter; stroke-linecap: square"/>
   </g>
   <g id="patch_8">
    <path d="M 388.8 252 
L 388.8 34.56 
" style="fill: none; stroke: #000000; stroke-width: 0.8; stroke-linejoin: miter; stroke-linecap: square"/>
   </g>
   <g id="patch_9">
    <path d="M 54 252 
L 388.8 252 
" style="fill: none; stroke: #000000; stroke-width: 0.8; stroke-linejoin: miter; stroke-linecap: square"/>
   </g>
   <g id="patch_10">
    <path d="M 54 34.56 
L 388.8 34.56 
" style="fill: none; stroke: #000000; stroke-width: 0.8; stroke-linejoin: miter; stroke-linecap: square"/>
   </g>
  </g>
 </g>
 <defs>
  <clipPath id="pf28ff9b5f7">
   <rect x="54" y="34.56" width="334.8" height="217.44"/>
  </clipPath>
 </defs>
</svg>
