<?xml version="1.0" encoding="utf-8" standalone="no"?>
<!DOCTYPE svg PUBLIC "-//W3C//DTD SVG 1.1//EN"
  "http://www.w3.org/Graphics/SVG/1.1/DTD/svg11.dtd">
<svg xmlns:xlink="http://www.w3.org/1999/xlink" width="432pt" height="288pt" viewBox="0 0 432 288" xmlns="http://www.w3.org/2000/svg" version="1.1">
 <metadata>
  <rdf:RDF xmlns:dc="http://purl.org/dc/elements/1.1/" xmlns:cc="http://creativecommons.org/ns#" xmlns:rdf="http://www.w3.org/1999/02/22-rdf-syntax-ns#">
   <cc:Work>
    <dc:type rdf:resource="http://purl.org/dc/dcmitype/StillImage"/>
    <dc:date>2023-05-11T13:48:33.255434</dc:date>
    <dc:format>image/svg+xml</dc:format>
    <dc:creator>
     <cc:Agent>
      <dc:title>Matplotlib v3.5.1, https://matplotlib.org/</dc:title>
     </cc:Agent>
    </dc:creator>
   </cc:Work>
  </rdf:RDF>
 </metadata>
 <defs>
  <style type="text/css">*{stroke-linejoin: round; stroke-linecap: butt}</style>
 </defs>
 <g id="figure_1">
  <g id="patch_1">
   <path d="M 0 288 
L 432 288 
L 432 0 
L 0 0 
L 0 288 
z
" style="fill: none"/>
  </g>
  <g id="axes_1">
   <g id="patch_2">
    <path d="M 54 252 
L 388.8 252 
L 388.8 34.56 
L 54 34.56 
z
" style="fill: #ffffff"/>
   </g>
   <g id="PolyCollection_1">
    <defs>
     <path id="m239918fe0f" d="M 373.581818 -184.164461 
L 373.581818 -182.607199 
L 370.507438 -182.607199 
L 367.433058 -182.607199 
L 364.358678 -182.607199 
L 361.284298 -182.607199 
L 358.209917 -182.607199 
L 355.135537 -182.607199 
L 352.061157 -182.607199 
L 348.986777 -182.607199 
L 345.912397 -182.607199 
L 342.838017 -182.607199 
L 339.763636 -182.607199 
L 336.689256 -182.607199 
L 333.614876 -182.607199 
L 330.540496 -182.607199 
L 327.466116 -182.607199 
L 324.391736 -182.607199 
L 321.317355 -182.607199 
L 318.242975 -182.607199 
L 315.168595 -182.607199 
L 312.094215 -182.607199 
L 309.019835 -182.607199 
L 305.945455 -182.607199 
L 302.871074 -182.607199 
L 299.796694 -182.607199 
L 296.722314 -182.607199 
L 293.647934 -182.607199 
L 290.573554 -182.607199 
L 287.499174 -182.607199 
L 284.424793 -182.607199 
L 281.350413 -182.607199 
L 278.276033 -182.607199 
L 275.201653 -182.607199 
L 272.127273 -182.607199 
L 269.052893 -182.607199 
L 265.978512 -182.607199 
L 262.904132 -182.607199 
L 259.829752 -182.607199 
L 256.755372 -182.607199 
L 253.680992 -182.607199 
L 250.606612 -182.607199 
L 247.532231 -182.607199 
L 244.457851 -182.607199 
L 241.383471 -182.607199 
L 238.309091 -182.607199 
L 235.234711 -182.607199 
L 232.160331 -182.607199 
L 229.08595 -182.607199 
L 226.01157 -182.607199 
L 222.93719 -182.607199 
L 219.86281 -182.607199 
L 216.78843 -182.607199 
L 213.71405 -182.607199 
L 210.639669 -182.607199 
L 207.565289 -182.607199 
L 204.490909 -182.607199 
L 201.416529 -182.607199 
L 198.342149 -182.607199 
L 195.267769 -182.607199 
L 192.193388 -182.607199 
L 189.119008 -182.607199 
L 186.044628 -182.607199 
L 182.970248 -182.607199 
L 179.895868 -182.607199 
L 176.821488 -182.607199 
L 173.747107 -182.607199 
L 170.672727 -182.607198 
L 167.598347 -182.607198 
L 164.523967 -182.607194 
L 161.449587 -182.607181 
L 158.375207 -182.607135 
L 155.300826 -182.606982 
L 152.226446 -182.606514 
L 149.152066 -182.605187 
L 146.077686 -182.601696 
L 143.003306 -182.593196 
L 139.928926 -182.57406 
L 136.854545 -182.534315 
L 133.780165 -182.458438 
L 130.705785 -182.326062 
L 127.631405 -182.117181 
L 124.557025 -181.824839 
L 121.482645 -181.477123 
L 118.408264 -181.166356 
L 115.333884 -181.076733 
L 112.259504 -181.494139 
L 109.185124 -182.778267 
L 106.110744 -185.283094 
L 103.036364 -189.231004 
L 99.961983 -194.574451 
L 96.887603 -200.900981 
L 93.813223 -207.433894 
L 90.738843 -213.157351 
L 87.664463 -217.058698 
L 84.590083 -218.424136 
L 81.515702 -217.068036 
L 78.441322 -213.37539 
L 75.366942 -208.147697 
L 72.292562 -202.342689 
L 69.218182 -196.814618 
L 69.218182 -198.271256 
L 69.218182 -198.271256 
L 72.292562 -203.724888 
L 75.366942 -209.421411 
L 78.441322 -214.509382 
L 81.515702 -218.049949 
L 84.590083 -219.278385 
L 87.664463 -217.847148 
L 90.738843 -213.945288 
L 93.813223 -208.256121 
L 96.887603 -201.771405 
L 99.961983 -195.513336 
L 103.036364 -190.269547 
L 106.110744 -186.444226 
L 109.185124 -184.061652 
L 112.259504 -182.879032 
L 115.333884 -182.534092 
L 118.408264 -182.66943 
L 121.482645 -183.006369 
L 124.557025 -183.368081 
L 127.631405 -183.667605 
L 130.705785 -183.880085 
L 133.780165 -184.014224 
L 136.854545 -184.090937 
L 139.928926 -184.131059 
L 143.003306 -184.150357 
L 146.077686 -184.158922 
L 149.152066 -184.162436 
L 152.226446 -184.163772 
L 155.300826 -184.164243 
L 158.375207 -184.164396 
L 161.449587 -184.164443 
L 164.523967 -184.164456 
L 167.598347 -184.164459 
L 170.672727 -184.16446 
L 173.747107 -184.16446 
L 176.821488 -184.164461 
L 179.895868 -184.164461 
L 182.970248 -184.164461 
L 186.044628 -184.164461 
L 189.119008 -184.164461 
L 192.193388 -184.164461 
L 195.267769 -184.164461 
L 198.342149 -184.164461 
L 201.416529 -184.164461 
L 204.490909 -184.164461 
L 207.565289 -184.164461 
L 210.639669 -184.164461 
L 213.71405 -184.164461 
L 216.78843 -184.164461 
L 219.86281 -184.164461 
L 222.93719 -184.164461 
L 226.01157 -184.164461 
L 229.08595 -184.164461 
L 232.160331 -184.164461 
L 235.234711 -184.164461 
L 238.309091 -184.164461 
L 241.383471 -184.164461 
L 244.457851 -184.164461 
L 247.532231 -184.164461 
L 250.606612 -184.164461 
L 253.680992 -184.164461 
L 256.755372 -184.164461 
L 259.829752 -184.164461 
L 262.904132 -184.164461 
L 265.978512 -184.164461 
L 269.052893 -184.164461 
L 272.127273 -184.164461 
L 275.201653 -184.164461 
L 278.276033 -184.164461 
L 281.350413 -184.164461 
L 284.424793 -184.164461 
L 287.499174 -184.164461 
L 290.573554 -184.164461 
L 293.647934 -184.164461 
L 296.722314 -184.164461 
L 299.796694 -184.164461 
L 302.871074 -184.164461 
L 305.945455 -184.164461 
L 309.019835 -184.164461 
L 312.094215 -184.164461 
L 315.168595 -184.164461 
L 318.242975 -184.164461 
L 321.317355 -184.164461 
L 324.391736 -184.164461 
L 327.466116 -184.164461 
L 330.540496 -184.164461 
L 333.614876 -184.164461 
L 336.689256 -184.164461 
L 339.763636 -184.164461 
L 342.838017 -184.164461 
L 345.912397 -184.164461 
L 348.986777 -184.164461 
L 352.061157 -184.164461 
L 355.135537 -184.164461 
L 358.209917 -184.164461 
L 361.284298 -184.164461 
L 364.358678 -184.164461 
L 367.433058 -184.164461 
L 370.507438 -184.164461 
L 373.581818 -184.164461 
z
" style="stroke: #ff0000; stroke-opacity: 0.5"/>
    </defs>
    <g clip-path="url(#p8fda9891b6)">
     <use xlink:href="#m239918fe0f" x="0" y="288" style="fill: #ff0000; fill-opacity: 0.5; stroke: #ff0000; stroke-opacity: 0.5"/>
    </g>
   </g>
   <g id="PolyCollection_2">
    <defs>
     <path id="m2d10ea7168" d="M 373.581818 -184.943091 
L 373.581818 -181.828568 
L 370.507438 -181.828568 
L 367.433058 -181.828568 
L 364.358678 -181.828568 
L 361.284298 -181.828568 
L 358.209917 -181.828568 
L 355.135537 -181.828568 
L 352.061157 -181.828568 
L 348.986777 -181.828568 
L 345.912397 -181.828568 
L 342.838017 -181.828568 
L 339.763636 -181.828568 
L 336.689256 -181.828568 
L 333.614876 -181.828568 
L 330.540496 -181.828568 
L 327.466116 -181.828568 
L 324.391736 -181.828568 
L 321.317355 -181.828568 
L 318.242975 -181.828568 
L 315.168595 -181.828568 
L 312.094215 -181.828568 
L 309.019835 -181.828568 
L 305.945455 -181.828568 
L 302.871074 -181.828568 
L 299.796694 -181.828568 
L 296.722314 -181.828568 
L 293.647934 -181.828568 
L 290.573554 -181.828568 
L 287.499174 -181.828568 
L 284.424793 -181.828568 
L 281.350413 -181.828568 
L 278.276033 -181.828568 
L 275.201653 -181.828568 
L 272.127273 -181.828568 
L 269.052893 -181.828568 
L 265.978512 -181.828568 
L 262.904132 -181.828568 
L 259.829752 -181.828568 
L 256.755372 -181.828568 
L 253.680992 -181.828568 
L 250.606612 -181.828568 
L 247.532231 -181.828568 
L 244.457851 -181.828568 
L 241.383471 -181.828568 
L 238.309091 -181.828568 
L 235.234711 -181.828568 
L 232.160331 -181.828568 
L 229.08595 -181.828568 
L 226.01157 -181.828568 
L 222.93719 -181.828568 
L 219.86281 -181.828568 
L 216.78843 -181.828568 
L 213.71405 -181.828568 
L 210.639669 -181.828568 
L 207.565289 -181.828568 
L 204.490909 -181.828568 
L 201.416529 -181.828568 
L 198.342149 -181.828568 
L 195.267769 -181.828568 
L 192.193388 -181.828568 
L 189.119008 -181.828568 
L 186.044628 -181.828568 
L 182.970248 -181.828568 
L 179.895868 -181.828568 
L 176.821488 -181.828568 
L 173.747107 -181.828568 
L 170.672727 -181.828567 
L 167.598347 -181.828567 
L 164.523967 -181.828563 
L 161.449587 -181.82855 
L 158.375207 -181.828504 
L 155.300826 -181.828351 
L 152.226446 -181.827885 
L 149.152066 -181.826562 
L 146.077686 -181.823083 
L 143.003306 -181.814616 
L 139.928926 -181.79556 
L 136.854545 -181.756004 
L 133.780165 -181.680545 
L 130.705785 -181.549051 
L 127.631405 -181.341969 
L 124.557025 -181.053219 
L 121.482645 -180.7125 
L 118.408264 -180.414819 
L 115.333884 -180.348053 
L 112.259504 -180.801692 
L 109.185124 -182.136575 
L 106.110744 -184.702528 
L 103.036364 -188.711732 
L 99.961983 -194.105008 
L 96.887603 -200.465769 
L 93.813223 -207.022781 
L 90.738843 -212.763383 
L 87.664463 -216.664473 
L 84.590083 -217.997011 
L 81.515702 -216.577079 
L 78.441322 -212.808395 
L 75.366942 -207.51084 
L 72.292562 -201.65159 
L 69.218182 -196.086299 
L 69.218182 -198.999575 
L 69.218182 -198.999575 
L 72.292562 -204.415988 
L 75.366942 -210.058268 
L 78.441322 -215.076378 
L 81.515702 -218.540906 
L 84.590083 -219.70551 
L 87.664463 -218.241374 
L 90.738843 -214.339257 
L 93.813223 -208.667234 
L 96.887603 -202.206618 
L 99.961983 -195.982779 
L 103.036364 -190.788819 
L 106.110744 -187.024792 
L 109.185124 -184.703345 
L 112.259504 -183.571479 
L 115.333884 -183.262772 
L 118.408264 -183.420967 
L 121.482645 -183.770992 
L 124.557025 -184.139701 
L 127.631405 -184.442817 
L 130.705785 -184.657096 
L 133.780165 -184.792117 
L 136.854545 -184.869247 
L 139.928926 -184.909559 
L 143.003306 -184.928938 
L 146.077686 -184.937534 
L 149.152066 -184.941061 
L 152.226446 -184.942401 
L 155.300826 -184.942873 
L 158.375207 -184.943027 
L 161.449587 -184.943074 
L 164.523967 -184.943087 
L 167.598347 -184.94309 
L 170.672727 -184.943091 
L 173.747107 -184.943091 
L 176.821488 -184.943091 
L 179.895868 -184.943091 
L 182.970248 -184.943091 
L 186.044628 -184.943091 
L 189.119008 -184.943091 
L 192.193388 -184.943091 
L 195.267769 -184.943091 
L 198.342149 -184.943091 
L 201.416529 -184.943091 
L 204.490909 -184.943091 
L 207.565289 -184.943091 
L 210.639669 -184.943091 
L 213.71405 -184.943091 
L 216.78843 -184.943091 
L 219.86281 -184.943091 
L 222.93719 -184.943091 
L 226.01157 -184.943091 
L 229.08595 -184.943091 
L 232.160331 -184.943091 
L 235.234711 -184.943091 
L 238.309091 -184.943091 
L 241.383471 -184.943091 
L 244.457851 -184.943091 
L 247.532231 -184.943091 
L 250.606612 -184.943091 
L 253.680992 -184.943091 
L 256.755372 -184.943091 
L 259.829752 -184.943091 
L 262.904132 -184.943091 
L 265.978512 -184.943091 
L 269.052893 -184.943091 
L 272.127273 -184.943091 
L 275.201653 -184.943091 
L 278.276033 -184.943091 
L 281.350413 -184.943091 
L 284.424793 -184.943091 
L 287.499174 -184.943091 
L 290.573554 -184.943091 
L 293.647934 -184.943091 
L 296.722314 -184.943091 
L 299.796694 -184.943091 
L 302.871074 -184.943091 
L 305.945455 -184.943091 
L 309.019835 -184.943091 
L 312.094215 -184.943091 
L 315.168595 -184.943091 
L 318.242975 -184.943091 
L 321.317355 -184.943091 
L 324.391736 -184.943091 
L 327.466116 -184.943091 
L 330.540496 -184.943091 
L 333.614876 -184.943091 
L 336.689256 -184.943091 
L 339.763636 -184.943091 
L 342.838017 -184.943091 
L 345.912397 -184.943091 
L 348.986777 -184.943091 
L 352.061157 -184.943091 
L 355.135537 -184.943091 
L 358.209917 -184.943091 
L 361.284298 -184.943091 
L 364.358678 -184.943091 
L 367.433058 -184.943091 
L 370.507438 -184.943091 
L 373.581818 -184.943091 
z
" style="stroke: #ff0000; stroke-opacity: 0.3"/>
    </defs>
    <g clip-path="url(#p8fda9891b6)">
     <use xlink:href="#m2d10ea7168" x="0" y="288" style="fill: #ff0000; fill-opacity: 0.3; stroke: #ff0000; stroke-opacity: 0.3"/>
    </g>
   </g>
   <g id="matplotlib.axis_1">
    <g id="xtick_1">
     <g id="line2d_1">
      <defs>
       <path id="m66cfe43e56" d="M 0 0 
L 0 3.5 
" style="stroke: #000000; stroke-width: 0.8"/>
      </defs>
      <g>
       <use xlink:href="#m66cfe43e56" x="69.218182" y="252" style="stroke: #000000; stroke-width: 0.8"/>
      </g>
     </g>
     <g id="text_1">
      <!-- 0.0 -->
      <g transform="translate(61.266619 266.598437)scale(0.1 -0.1)">
       <defs>
        <path id="DejaVuSans-30" d="M 2034 4250 
Q 1547 4250 1301 3770 
Q 1056 3291 1056 2328 
Q 1056 1369 1301 889 
Q 1547 409 2034 409 
Q 2525 409 2770 889 
Q 3016 1369 3016 2328 
Q 3016 3291 2770 3770 
Q 2525 4250 2034 4250 
z
M 2034 4750 
Q 2819 4750 3233 4129 
Q 3647 3509 3647 2328 
Q 3647 1150 3233 529 
Q 2819 -91 2034 -91 
Q 1250 -91 836 529 
Q 422 1150 422 2328 
Q 422 3509 836 4129 
Q 1250 4750 2034 4750 
z
" transform="scale(0.015625)"/>
        <path id="DejaVuSans-2e" d="M 684 794 
L 1344 794 
L 1344 0 
L 684 0 
L 684 794 
z
" transform="scale(0.015625)"/>
       </defs>
       <use xlink:href="#DejaVuSans-30"/>
       <use xlink:href="#DejaVuSans-2e" x="63.623047"/>
       <use xlink:href="#DejaVuSans-30" x="95.410156"/>
      </g>
     </g>
    </g>
    <g id="xtick_2">
     <g id="line2d_2">
      <g>
       <use xlink:href="#m66cfe43e56" x="130.090909" y="252" style="stroke: #000000; stroke-width: 0.8"/>
      </g>
     </g>
     <g id="text_2">
      <!-- 0.2 -->
      <g transform="translate(122.139347 266.598437)scale(0.1 -0.1)">
       <defs>
        <path id="DejaVuSans-32" d="M 1228 531 
L 3431 531 
L 3431 0 
L 469 0 
L 469 531 
Q 828 903 1448 1529 
Q 2069 2156 2228 2338 
Q 2531 2678 2651 2914 
Q 2772 3150 2772 3378 
Q 2772 3750 2511 3984 
Q 2250 4219 1831 4219 
Q 1534 4219 1204 4116 
Q 875 4013 500 3803 
L 500 4441 
Q 881 4594 1212 4672 
Q 1544 4750 1819 4750 
Q 2544 4750 2975 4387 
Q 3406 4025 3406 3419 
Q 3406 3131 3298 2873 
Q 3191 2616 2906 2266 
Q 2828 2175 2409 1742 
Q 1991 1309 1228 531 
z
" transform="scale(0.015625)"/>
       </defs>
       <use xlink:href="#DejaVuSans-30"/>
       <use xlink:href="#DejaVuSans-2e" x="63.623047"/>
       <use xlink:href="#DejaVuSans-32" x="95.410156"/>
      </g>
     </g>
    </g>
    <g id="xtick_3">
     <g id="line2d_3">
      <g>
       <use xlink:href="#m66cfe43e56" x="190.963636" y="252" style="stroke: #000000; stroke-width: 0.8"/>
      </g>
     </g>
     <g id="text_3">
      <!-- 0.4 -->
      <g transform="translate(183.012074 266.598437)scale(0.1 -0.1)">
       <defs>
        <path id="DejaVuSans-34" d="M 2419 4116 
L 825 1625 
L 2419 1625 
L 2419 4116 
z
M 2253 4666 
L 3047 4666 
L 3047 1625 
L 3713 1625 
L 3713 1100 
L 3047 1100 
L 3047 0 
L 2419 0 
L 2419 1100 
L 313 1100 
L 313 1709 
L 2253 4666 
z
" transform="scale(0.015625)"/>
       </defs>
       <use xlink:href="#DejaVuSans-30"/>
       <use xlink:href="#DejaVuSans-2e" x="63.623047"/>
       <use xlink:href="#DejaVuSans-34" x="95.410156"/>
      </g>
     </g>
    </g>
    <g id="xtick_4">
     <g id="line2d_4">
      <g>
       <use xlink:href="#m66cfe43e56" x="251.836364" y="252" style="stroke: #000000; stroke-width: 0.8"/>
      </g>
     </g>
     <g id="text_4">
      <!-- 0.6 -->
      <g transform="translate(243.884801 266.598437)scale(0.1 -0.1)">
       <defs>
        <path id="DejaVuSans-36" d="M 2113 2584 
Q 1688 2584 1439 2293 
Q 1191 2003 1191 1497 
Q 1191 994 1439 701 
Q 1688 409 2113 409 
Q 2538 409 2786 701 
Q 3034 994 3034 1497 
Q 3034 2003 2786 2293 
Q 2538 2584 2113 2584 
z
M 3366 4563 
L 3366 3988 
Q 3128 4100 2886 4159 
Q 2644 4219 2406 4219 
Q 1781 4219 1451 3797 
Q 1122 3375 1075 2522 
Q 1259 2794 1537 2939 
Q 1816 3084 2150 3084 
Q 2853 3084 3261 2657 
Q 3669 2231 3669 1497 
Q 3669 778 3244 343 
Q 2819 -91 2113 -91 
Q 1303 -91 875 529 
Q 447 1150 447 2328 
Q 447 3434 972 4092 
Q 1497 4750 2381 4750 
Q 2619 4750 2861 4703 
Q 3103 4656 3366 4563 
z
" transform="scale(0.015625)"/>
       </defs>
       <use xlink:href="#DejaVuSans-30"/>
       <use xlink:href="#DejaVuSans-2e" x="63.623047"/>
       <use xlink:href="#DejaVuSans-36" x="95.410156"/>
      </g>
     </g>
    </g>
    <g id="xtick_5">
     <g id="line2d_5">
      <g>
       <use xlink:href="#m66cfe43e56" x="312.709091" y="252" style="stroke: #000000; stroke-width: 0.8"/>
      </g>
     </g>
     <g id="text_5">
      <!-- 0.8 -->
      <g transform="translate(304.757528 266.598437)scale(0.1 -0.1)">
       <defs>
        <path id="DejaVuSans-38" d="M 2034 2216 
Q 1584 2216 1326 1975 
Q 1069 1734 1069 1313 
Q 1069 891 1326 650 
Q 1584 409 2034 409 
Q 2484 409 2743 651 
Q 3003 894 3003 1313 
Q 3003 1734 2745 1975 
Q 2488 2216 2034 2216 
z
M 1403 2484 
Q 997 2584 770 2862 
Q 544 3141 544 3541 
Q 544 4100 942 4425 
Q 1341 4750 2034 4750 
Q 2731 4750 3128 4425 
Q 3525 4100 3525 3541 
Q 3525 3141 3298 2862 
Q 3072 2584 2669 2484 
Q 3125 2378 3379 2068 
Q 3634 1759 3634 1313 
Q 3634 634 3220 271 
Q 2806 -91 2034 -91 
Q 1263 -91 848 271 
Q 434 634 434 1313 
Q 434 1759 690 2068 
Q 947 2378 1403 2484 
z
M 1172 3481 
Q 1172 3119 1398 2916 
Q 1625 2713 2034 2713 
Q 2441 2713 2670 2916 
Q 2900 3119 2900 3481 
Q 2900 3844 2670 4047 
Q 2441 4250 2034 4250 
Q 1625 4250 1398 4047 
Q 1172 3844 1172 3481 
z
" transform="scale(0.015625)"/>
       </defs>
       <use xlink:href="#DejaVuSans-30"/>
       <use xlink:href="#DejaVuSans-2e" x="63.623047"/>
       <use xlink:href="#DejaVuSans-38" x="95.410156"/>
      </g>
     </g>
    </g>
    <g id="xtick_6">
     <g id="line2d_6">
      <g>
       <use xlink:href="#m66cfe43e56" x="373.581818" y="252" style="stroke: #000000; stroke-width: 0.8"/>
      </g>
     </g>
     <g id="text_6">
      <!-- 1.0 -->
      <g transform="translate(365.630256 266.598437)scale(0.1 -0.1)">
       <defs>
        <path id="DejaVuSans-31" d="M 794 531 
L 1825 531 
L 1825 4091 
L 703 3866 
L 703 4441 
L 1819 4666 
L 2450 4666 
L 2450 531 
L 3481 531 
L 3481 0 
L 794 0 
L 794 531 
z
" transform="scale(0.015625)"/>
       </defs>
       <use xlink:href="#DejaVuSans-31"/>
       <use xlink:href="#DejaVuSans-2e" x="63.623047"/>
       <use xlink:href="#DejaVuSans-30" x="95.410156"/>
      </g>
     </g>
    </g>
    <g id="text_7">
     <!-- Stabilizer -->
     <g transform="translate(198.103906 280.276563)scale(0.1 -0.1)">
      <defs>
       <path id="DejaVuSans-53" d="M 3425 4513 
L 3425 3897 
Q 3066 4069 2747 4153 
Q 2428 4238 2131 4238 
Q 1616 4238 1336 4038 
Q 1056 3838 1056 3469 
Q 1056 3159 1242 3001 
Q 1428 2844 1947 2747 
L 2328 2669 
Q 3034 2534 3370 2195 
Q 3706 1856 3706 1288 
Q 3706 609 3251 259 
Q 2797 -91 1919 -91 
Q 1588 -91 1214 -16 
Q 841 59 441 206 
L 441 856 
Q 825 641 1194 531 
Q 1563 422 1919 422 
Q 2459 422 2753 634 
Q 3047 847 3047 1241 
Q 3047 1584 2836 1778 
Q 2625 1972 2144 2069 
L 1759 2144 
Q 1053 2284 737 2584 
Q 422 2884 422 3419 
Q 422 4038 858 4394 
Q 1294 4750 2059 4750 
Q 2388 4750 2728 4690 
Q 3069 4631 3425 4513 
z
" transform="scale(0.015625)"/>
       <path id="DejaVuSans-74" d="M 1172 4494 
L 1172 3500 
L 2356 3500 
L 2356 3053 
L 1172 3053 
L 1172 1153 
Q 1172 725 1289 603 
Q 1406 481 1766 481 
L 2356 481 
L 2356 0 
L 1766 0 
Q 1100 0 847 248 
Q 594 497 594 1153 
L 594 3053 
L 172 3053 
L 172 3500 
L 594 3500 
L 594 4494 
L 1172 4494 
z
" transform="scale(0.015625)"/>
       <path id="DejaVuSans-61" d="M 2194 1759 
Q 1497 1759 1228 1600 
Q 959 1441 959 1056 
Q 959 750 1161 570 
Q 1363 391 1709 391 
Q 2188 391 2477 730 
Q 2766 1069 2766 1631 
L 2766 1759 
L 2194 1759 
z
M 3341 1997 
L 3341 0 
L 2766 0 
L 2766 531 
Q 2569 213 2275 61 
Q 1981 -91 1556 -91 
Q 1019 -91 701 211 
Q 384 513 384 1019 
Q 384 1609 779 1909 
Q 1175 2209 1959 2209 
L 2766 2209 
L 2766 2266 
Q 2766 2663 2505 2880 
Q 2244 3097 1772 3097 
Q 1472 3097 1187 3025 
Q 903 2953 641 2809 
L 641 3341 
Q 956 3463 1253 3523 
Q 1550 3584 1831 3584 
Q 2591 3584 2966 3190 
Q 3341 2797 3341 1997 
z
" transform="scale(0.015625)"/>
       <path id="DejaVuSans-62" d="M 3116 1747 
Q 3116 2381 2855 2742 
Q 2594 3103 2138 3103 
Q 1681 3103 1420 2742 
Q 1159 2381 1159 1747 
Q 1159 1113 1420 752 
Q 1681 391 2138 391 
Q 2594 391 2855 752 
Q 3116 1113 3116 1747 
z
M 1159 2969 
Q 1341 3281 1617 3432 
Q 1894 3584 2278 3584 
Q 2916 3584 3314 3078 
Q 3713 2572 3713 1747 
Q 3713 922 3314 415 
Q 2916 -91 2278 -91 
Q 1894 -91 1617 61 
Q 1341 213 1159 525 
L 1159 0 
L 581 0 
L 581 4863 
L 1159 4863 
L 1159 2969 
z
" transform="scale(0.015625)"/>
       <path id="DejaVuSans-69" d="M 603 3500 
L 1178 3500 
L 1178 0 
L 603 0 
L 603 3500 
z
M 603 4863 
L 1178 4863 
L 1178 4134 
L 603 4134 
L 603 4863 
z
" transform="scale(0.015625)"/>
       <path id="DejaVuSans-6c" d="M 603 4863 
L 1178 4863 
L 1178 0 
L 603 0 
L 603 4863 
z
" transform="scale(0.015625)"/>
       <path id="DejaVuSans-7a" d="M 353 3500 
L 3084 3500 
L 3084 2975 
L 922 459 
L 3084 459 
L 3084 0 
L 275 0 
L 275 525 
L 2438 3041 
L 353 3041 
L 353 3500 
z
" transform="scale(0.015625)"/>
       <path id="DejaVuSans-65" d="M 3597 1894 
L 3597 1613 
L 953 1613 
Q 991 1019 1311 708 
Q 1631 397 2203 397 
Q 2534 397 2845 478 
Q 3156 559 3463 722 
L 3463 178 
Q 3153 47 2828 -22 
Q 2503 -91 2169 -91 
Q 1331 -91 842 396 
Q 353 884 353 1716 
Q 353 2575 817 3079 
Q 1281 3584 2069 3584 
Q 2775 3584 3186 3129 
Q 3597 2675 3597 1894 
z
M 3022 2063 
Q 3016 2534 2758 2815 
Q 2500 3097 2075 3097 
Q 1594 3097 1305 2825 
Q 1016 2553 972 2059 
L 3022 2063 
z
" transform="scale(0.015625)"/>
       <path id="DejaVuSans-72" d="M 2631 2963 
Q 2534 3019 2420 3045 
Q 2306 3072 2169 3072 
Q 1681 3072 1420 2755 
Q 1159 2438 1159 1844 
L 1159 0 
L 581 0 
L 581 3500 
L 1159 3500 
L 1159 2956 
Q 1341 3275 1631 3429 
Q 1922 3584 2338 3584 
Q 2397 3584 2469 3576 
Q 2541 3569 2628 3553 
L 2631 2963 
z
" transform="scale(0.015625)"/>
      </defs>
      <use xlink:href="#DejaVuSans-53"/>
      <use xlink:href="#DejaVuSans-74" x="63.476562"/>
      <use xlink:href="#DejaVuSans-61" x="102.685547"/>
      <use xlink:href="#DejaVuSans-62" x="163.964844"/>
      <use xlink:href="#DejaVuSans-69" x="227.441406"/>
      <use xlink:href="#DejaVuSans-6c" x="255.224609"/>
      <use xlink:href="#DejaVuSans-69" x="283.007812"/>
      <use xlink:href="#DejaVuSans-7a" x="310.791016"/>
      <use xlink:href="#DejaVuSans-65" x="363.28125"/>
      <use xlink:href="#DejaVuSans-72" x="424.804688"/>
     </g>
    </g>
   </g>
   <g id="matplotlib.axis_2">
    <g id="ytick_1">
     <g id="line2d_7">
      <defs>
       <path id="ma6f8d30ed4" d="M 0 0 
L -3.5 0 
" style="stroke: #000000; stroke-width: 0.8"/>
      </defs>
      <g>
       <use xlink:href="#ma6f8d30ed4" x="54" y="252" style="stroke: #000000; stroke-width: 0.8"/>
      </g>
     </g>
     <g id="text_8">
      <!-- 400 -->
      <g transform="translate(27.9125 255.799219)scale(0.1 -0.1)">
       <use xlink:href="#DejaVuSans-34"/>
       <use xlink:href="#DejaVuSans-30" x="63.623047"/>
       <use xlink:href="#DejaVuSans-30" x="127.246094"/>
      </g>
     </g>
    </g>
    <g id="ytick_2">
     <g id="line2d_8">
      <g>
       <use xlink:href="#ma6f8d30ed4" x="54" y="215.76" style="stroke: #000000; stroke-width: 0.8"/>
      </g>
     </g>
     <g id="text_9">
      <!-- 450 -->
      <g transform="translate(27.9125 219.559219)scale(0.1 -0.1)">
       <defs>
        <path id="DejaVuSans-35" d="M 691 4666 
L 3169 4666 
L 3169 4134 
L 1269 4134 
L 1269 2991 
Q 1406 3038 1543 3061 
Q 1681 3084 1819 3084 
Q 2600 3084 3056 2656 
Q 3513 2228 3513 1497 
Q 3513 744 3044 326 
Q 2575 -91 1722 -91 
Q 1428 -91 1123 -41 
Q 819 9 494 109 
L 494 744 
Q 775 591 1075 516 
Q 1375 441 1709 441 
Q 2250 441 2565 725 
Q 2881 1009 2881 1497 
Q 2881 1984 2565 2268 
Q 2250 2553 1709 2553 
Q 1456 2553 1204 2497 
Q 953 2441 691 2322 
L 691 4666 
z
" transform="scale(0.015625)"/>
       </defs>
       <use xlink:href="#DejaVuSans-34"/>
       <use xlink:href="#DejaVuSans-35" x="63.623047"/>
       <use xlink:href="#DejaVuSans-30" x="127.246094"/>
      </g>
     </g>
    </g>
    <g id="ytick_3">
     <g id="line2d_9">
      <g>
       <use xlink:href="#ma6f8d30ed4" x="54" y="179.52" style="stroke: #000000; stroke-width: 0.8"/>
      </g>
     </g>
     <g id="text_10">
      <!-- 500 -->
      <g transform="translate(27.9125 183.319219)scale(0.1 -0.1)">
       <use xlink:href="#DejaVuSans-35"/>
       <use xlink:href="#DejaVuSans-30" x="63.623047"/>
       <use xlink:href="#DejaVuSans-30" x="127.246094"/>
      </g>
     </g>
    </g>
    <g id="ytick_4">
     <g id="line2d_10">
      <g>
       <use xlink:href="#ma6f8d30ed4" x="54" y="143.28" style="stroke: #000000; stroke-width: 0.8"/>
      </g>
     </g>
     <g id="text_11">
      <!-- 550 -->
      <g transform="translate(27.9125 147.079219)scale(0.1 -0.1)">
       <use xlink:href="#DejaVuSans-35"/>
       <use xlink:href="#DejaVuSans-35" x="63.623047"/>
       <use xlink:href="#DejaVuSans-30" x="127.246094"/>
      </g>
     </g>
    </g>
    <g id="ytick_5">
     <g id="line2d_11">
      <g>
       <use xlink:href="#ma6f8d30ed4" x="54" y="107.04" style="stroke: #000000; stroke-width: 0.8"/>
      </g>
     </g>
     <g id="text_12">
      <!-- 600 -->
      <g transform="translate(27.9125 110.839219)scale(0.1 -0.1)">
       <use xlink:href="#DejaVuSans-36"/>
       <use xlink:href="#DejaVuSans-30" x="63.623047"/>
       <use xlink:href="#DejaVuSans-30" x="127.246094"/>
      </g>
     </g>
    </g>
    <g id="ytick_6">
     <g id="line2d_12">
      <g>
       <use xlink:href="#ma6f8d30ed4" x="54" y="70.8" style="stroke: #000000; stroke-width: 0.8"/>
      </g>
     </g>
     <g id="text_13">
      <!-- 650 -->
      <g transform="translate(27.9125 74.599219)scale(0.1 -0.1)">
       <use xlink:href="#DejaVuSans-36"/>
       <use xlink:href="#DejaVuSans-35" x="63.623047"/>
       <use xlink:href="#DejaVuSans-30" x="127.246094"/>
      </g>
     </g>
    </g>
    <g id="ytick_7">
     <g id="line2d_13">
      <g>
       <use xlink:href="#ma6f8d30ed4" x="54" y="34.56" style="stroke: #000000; stroke-width: 0.8"/>
      </g>
     </g>
     <g id="text_14">
      <!-- 700 -->
      <g transform="translate(27.9125 38.359219)scale(0.1 -0.1)">
       <defs>
        <path id="DejaVuSans-37" d="M 525 4666 
L 3525 4666 
L 3525 4397 
L 1831 0 
L 1172 0 
L 2766 4134 
L 525 4134 
L 525 4666 
z
" transform="scale(0.015625)"/>
       </defs>
       <use xlink:href="#DejaVuSans-37"/>
       <use xlink:href="#DejaVuSans-30" x="63.623047"/>
       <use xlink:href="#DejaVuSans-30" x="127.246094"/>
      </g>
     </g>
    </g>
    <g id="text_15">
     <!-- Toughness (J/m2) -->
     <g style="fill: #ff0000" transform="translate(21.832812 186.21125)rotate(-90)scale(0.1 -0.1)">
      <defs>
       <path id="DejaVuSans-54" d="M -19 4666 
L 3928 4666 
L 3928 4134 
L 2272 4134 
L 2272 0 
L 1638 0 
L 1638 4134 
L -19 4134 
L -19 4666 
z
" transform="scale(0.015625)"/>
       <path id="DejaVuSans-6f" d="M 1959 3097 
Q 1497 3097 1228 2736 
Q 959 2375 959 1747 
Q 959 1119 1226 758 
Q 1494 397 1959 397 
Q 2419 397 2687 759 
Q 2956 1122 2956 1747 
Q 2956 2369 2687 2733 
Q 2419 3097 1959 3097 
z
M 1959 3584 
Q 2709 3584 3137 3096 
Q 3566 2609 3566 1747 
Q 3566 888 3137 398 
Q 2709 -91 1959 -91 
Q 1206 -91 779 398 
Q 353 888 353 1747 
Q 353 2609 779 3096 
Q 1206 3584 1959 3584 
z
" transform="scale(0.015625)"/>
       <path id="DejaVuSans-75" d="M 544 1381 
L 544 3500 
L 1119 3500 
L 1119 1403 
Q 1119 906 1312 657 
Q 1506 409 1894 409 
Q 2359 409 2629 706 
Q 2900 1003 2900 1516 
L 2900 3500 
L 3475 3500 
L 3475 0 
L 2900 0 
L 2900 538 
Q 2691 219 2414 64 
Q 2138 -91 1772 -91 
Q 1169 -91 856 284 
Q 544 659 544 1381 
z
M 1991 3584 
L 1991 3584 
z
" transform="scale(0.015625)"/>
       <path id="DejaVuSans-67" d="M 2906 1791 
Q 2906 2416 2648 2759 
Q 2391 3103 1925 3103 
Q 1463 3103 1205 2759 
Q 947 2416 947 1791 
Q 947 1169 1205 825 
Q 1463 481 1925 481 
Q 2391 481 2648 825 
Q 2906 1169 2906 1791 
z
M 3481 434 
Q 3481 -459 3084 -895 
Q 2688 -1331 1869 -1331 
Q 1566 -1331 1297 -1286 
Q 1028 -1241 775 -1147 
L 775 -588 
Q 1028 -725 1275 -790 
Q 1522 -856 1778 -856 
Q 2344 -856 2625 -561 
Q 2906 -266 2906 331 
L 2906 616 
Q 2728 306 2450 153 
Q 2172 0 1784 0 
Q 1141 0 747 490 
Q 353 981 353 1791 
Q 353 2603 747 3093 
Q 1141 3584 1784 3584 
Q 2172 3584 2450 3431 
Q 2728 3278 2906 2969 
L 2906 3500 
L 3481 3500 
L 3481 434 
z
" transform="scale(0.015625)"/>
       <path id="DejaVuSans-68" d="M 3513 2113 
L 3513 0 
L 2938 0 
L 2938 2094 
Q 2938 2591 2744 2837 
Q 2550 3084 2163 3084 
Q 1697 3084 1428 2787 
Q 1159 2491 1159 1978 
L 1159 0 
L 581 0 
L 581 4863 
L 1159 4863 
L 1159 2956 
Q 1366 3272 1645 3428 
Q 1925 3584 2291 3584 
Q 2894 3584 3203 3211 
Q 3513 2838 3513 2113 
z
" transform="scale(0.015625)"/>
       <path id="DejaVuSans-6e" d="M 3513 2113 
L 3513 0 
L 2938 0 
L 2938 2094 
Q 2938 2591 2744 2837 
Q 2550 3084 2163 3084 
Q 1697 3084 1428 2787 
Q 1159 2491 1159 1978 
L 1159 0 
L 581 0 
L 581 3500 
L 1159 3500 
L 1159 2956 
Q 1366 3272 1645 3428 
Q 1925 3584 2291 3584 
Q 2894 3584 3203 3211 
Q 3513 2838 3513 2113 
z
" transform="scale(0.015625)"/>
       <path id="DejaVuSans-73" d="M 2834 3397 
L 2834 2853 
Q 2591 2978 2328 3040 
Q 2066 3103 1784 3103 
Q 1356 3103 1142 2972 
Q 928 2841 928 2578 
Q 928 2378 1081 2264 
Q 1234 2150 1697 2047 
L 1894 2003 
Q 2506 1872 2764 1633 
Q 3022 1394 3022 966 
Q 3022 478 2636 193 
Q 2250 -91 1575 -91 
Q 1294 -91 989 -36 
Q 684 19 347 128 
L 347 722 
Q 666 556 975 473 
Q 1284 391 1588 391 
Q 1994 391 2212 530 
Q 2431 669 2431 922 
Q 2431 1156 2273 1281 
Q 2116 1406 1581 1522 
L 1381 1569 
Q 847 1681 609 1914 
Q 372 2147 372 2553 
Q 372 3047 722 3315 
Q 1072 3584 1716 3584 
Q 2034 3584 2315 3537 
Q 2597 3491 2834 3397 
z
" transform="scale(0.015625)"/>
       <path id="DejaVuSans-20" transform="scale(0.015625)"/>
       <path id="DejaVuSans-28" d="M 1984 4856 
Q 1566 4138 1362 3434 
Q 1159 2731 1159 2009 
Q 1159 1288 1364 580 
Q 1569 -128 1984 -844 
L 1484 -844 
Q 1016 -109 783 600 
Q 550 1309 550 2009 
Q 550 2706 781 3412 
Q 1013 4119 1484 4856 
L 1984 4856 
z
" transform="scale(0.015625)"/>
       <path id="DejaVuSans-4a" d="M 628 4666 
L 1259 4666 
L 1259 325 
Q 1259 -519 939 -900 
Q 619 -1281 -91 -1281 
L -331 -1281 
L -331 -750 
L -134 -750 
Q 284 -750 456 -515 
Q 628 -281 628 325 
L 628 4666 
z
" transform="scale(0.015625)"/>
       <path id="DejaVuSans-2f" d="M 1625 4666 
L 2156 4666 
L 531 -594 
L 0 -594 
L 1625 4666 
z
" transform="scale(0.015625)"/>
       <path id="DejaVuSans-6d" d="M 3328 2828 
Q 3544 3216 3844 3400 
Q 4144 3584 4550 3584 
Q 5097 3584 5394 3201 
Q 5691 2819 5691 2113 
L 5691 0 
L 5113 0 
L 5113 2094 
Q 5113 2597 4934 2840 
Q 4756 3084 4391 3084 
Q 3944 3084 3684 2787 
Q 3425 2491 3425 1978 
L 3425 0 
L 2847 0 
L 2847 2094 
Q 2847 2600 2669 2842 
Q 2491 3084 2119 3084 
Q 1678 3084 1418 2786 
Q 1159 2488 1159 1978 
L 1159 0 
L 581 0 
L 581 3500 
L 1159 3500 
L 1159 2956 
Q 1356 3278 1631 3431 
Q 1906 3584 2284 3584 
Q 2666 3584 2933 3390 
Q 3200 3197 3328 2828 
z
" transform="scale(0.015625)"/>
       <path id="DejaVuSans-29" d="M 513 4856 
L 1013 4856 
Q 1481 4119 1714 3412 
Q 1947 2706 1947 2009 
Q 1947 1309 1714 600 
Q 1481 -109 1013 -844 
L 513 -844 
Q 928 -128 1133 580 
Q 1338 1288 1338 2009 
Q 1338 2731 1133 3434 
Q 928 4138 513 4856 
z
" transform="scale(0.015625)"/>
      </defs>
      <use xlink:href="#DejaVuSans-54"/>
      <use xlink:href="#DejaVuSans-6f" x="44.083984"/>
      <use xlink:href="#DejaVuSans-75" x="105.265625"/>
      <use xlink:href="#DejaVuSans-67" x="168.644531"/>
      <use xlink:href="#DejaVuSans-68" x="232.121094"/>
      <use xlink:href="#DejaVuSans-6e" x="295.5"/>
      <use xlink:href="#DejaVuSans-65" x="358.878906"/>
      <use xlink:href="#DejaVuSans-73" x="420.402344"/>
      <use xlink:href="#DejaVuSans-73" x="472.501953"/>
      <use xlink:href="#DejaVuSans-20" x="524.601562"/>
      <use xlink:href="#DejaVuSans-28" x="556.388672"/>
      <use xlink:href="#DejaVuSans-4a" x="595.402344"/>
      <use xlink:href="#DejaVuSans-2f" x="624.894531"/>
      <use xlink:href="#DejaVuSans-6d" x="658.585938"/>
      <use xlink:href="#DejaVuSans-32" x="755.998047"/>
      <use xlink:href="#DejaVuSans-29" x="819.621094"/>
     </g>
    </g>
   </g>
   <g id="line2d_14">
    <path d="M 373.581818 104.61417 
L 370.507438 104.61417 
L 367.433058 104.61417 
L 364.358678 104.61417 
L 361.284298 104.61417 
L 358.209917 104.61417 
L 355.135537 104.61417 
L 352.061157 104.61417 
L 348.986777 104.61417 
L 345.912397 104.61417 
L 342.838017 104.61417 
L 339.763636 104.61417 
L 336.689256 104.61417 
L 333.614876 104.61417 
L 330.540496 104.61417 
L 327.466116 104.61417 
L 324.391736 104.61417 
L 321.317355 104.61417 
L 318.242975 104.61417 
L 315.168595 104.61417 
L 312.094215 104.61417 
L 309.019835 104.61417 
L 305.945455 104.61417 
L 302.871074 104.61417 
L 299.796694 104.61417 
L 296.722314 104.61417 
L 293.647934 104.61417 
L 290.573554 104.61417 
L 287.499174 104.61417 
L 284.424793 104.61417 
L 281.350413 104.61417 
L 278.276033 104.61417 
L 275.201653 104.61417 
L 272.127273 104.61417 
L 269.052893 104.61417 
L 265.978512 104.61417 
L 262.904132 104.61417 
L 259.829752 104.61417 
L 256.755372 104.61417 
L 253.680992 104.61417 
L 250.606612 104.61417 
L 247.532231 104.61417 
L 244.457851 104.61417 
L 241.383471 104.61417 
L 238.309091 104.61417 
L 235.234711 104.61417 
L 232.160331 104.61417 
L 229.08595 104.61417 
L 226.01157 104.61417 
L 222.93719 104.61417 
L 219.86281 104.61417 
L 216.78843 104.61417 
L 213.71405 104.61417 
L 210.639669 104.61417 
L 207.565289 104.61417 
L 204.490909 104.61417 
L 201.416529 104.61417 
L 198.342149 104.61417 
L 195.267769 104.61417 
L 192.193388 104.61417 
L 189.119008 104.61417 
L 186.044628 104.61417 
L 182.970248 104.61417 
L 179.895868 104.61417 
L 176.821488 104.61417 
L 173.747107 104.61417 
L 170.672727 104.614171 
L 167.598347 104.614171 
L 164.523967 104.614175 
L 161.449587 104.614188 
L 158.375207 104.614234 
L 155.300826 104.614388 
L 152.226446 104.614857 
L 149.152066 104.616188 
L 146.077686 104.619691 
L 143.003306 104.628223 
L 139.928926 104.64744 
L 136.854545 104.687374 
L 133.780165 104.763669 
L 130.705785 104.896926 
L 127.631405 105.107607 
L 124.557025 105.40354 
L 121.482645 105.758254 
L 118.408264 106.082107 
L 115.333884 106.194588 
L 112.259504 105.813414 
L 109.185124 104.58004 
L 106.110744 102.13634 
L 103.036364 98.249724 
L 99.961983 92.956106 
L 96.887603 86.663807 
L 93.813223 80.154992 
L 90.738843 74.44868 
L 87.664463 70.547077 
L 84.590083 69.14874 
L 81.515702 70.441008 
L 78.441322 74.057614 
L 75.366942 79.215446 
L 72.292562 84.966211 
L 69.218182 90.457063 
" clip-path="url(#p8fda9891b6)" style="fill: none; stroke: #ff0000; stroke-width: 0.5; stroke-linecap: square"/>
   </g>
   <g id="line2d_15">
    <path d="M 96.610909 252 
L 96.610909 34.56 
" clip-path="url(#p8fda9891b6)" style="fill: none; stroke-dasharray: 5.55,2.4; stroke-dashoffset: 0; stroke: #808080; stroke-opacity: 0.7; stroke-width: 1.5"/>
   </g>
   <g id="patch_3">
    <path d="M 54 252 
L 54 34.56 
" style="fill: none; stroke: #000000; stroke-width: 0.8; stroke-linejoin: miter; stroke-linecap: square"/>
   </g>
   <g id="patch_4">
    <path d="M 388.8 252 
L 388.8 34.56 
" style="fill: none; stroke: #000000; stroke-width: 0.8; stroke-linejoin: miter; stroke-linecap: square"/>
   </g>
   <g id="patch_5">
    <path d="M 54 252 
L 388.8 252 
" style="fill: none; stroke: #000000; stroke-width: 0.8; stroke-linejoin: miter; stroke-linecap: square"/>
   </g>
   <g id="patch_6">
    <path d="M 54 34.56 
L 388.8 34.56 
" style="fill: none; stroke: #000000; stroke-width: 0.8; stroke-linejoin: miter; stroke-linecap: square"/>
   </g>
  </g>
  <g id="axes_2">
   <g id="PolyCollection_3">
    <defs>
     <path id="m62c33755fd" d="M 373.581818 -169.292336 
L 373.581818 -89.579534 
L 370.507438 -89.579534 
L 367.433058 -89.579534 
L 364.358678 -89.579534 
L 361.284298 -89.579534 
L 358.209917 -89.579534 
L 355.135537 -89.579534 
L 352.061157 -89.579534 
L 348.986777 -89.579534 
L 345.912397 -89.579534 
L 342.838017 -89.579534 
L 339.763636 -89.579534 
L 336.689256 -89.579534 
L 333.614876 -89.579534 
L 330.540496 -89.579534 
L 327.466116 -89.579534 
L 324.391736 -89.579534 
L 321.317355 -89.579534 
L 318.242975 -89.579534 
L 315.168595 -89.579534 
L 312.094215 -89.579534 
L 309.019835 -89.579534 
L 305.945455 -89.579534 
L 302.871074 -89.579534 
L 299.796694 -89.579534 
L 296.722314 -89.579534 
L 293.647934 -89.579534 
L 290.573554 -89.579534 
L 287.499174 -89.579534 
L 284.424793 -89.579534 
L 281.350413 -89.579534 
L 278.276033 -89.579534 
L 275.201653 -89.579534 
L 272.127273 -89.579534 
L 269.052893 -89.579534 
L 265.978512 -89.579534 
L 262.904132 -89.579534 
L 259.829752 -89.579534 
L 256.755372 -89.579534 
L 253.680992 -89.579534 
L 250.606612 -89.579534 
L 247.532231 -89.579534 
L 244.457851 -89.579534 
L 241.383471 -89.579534 
L 238.309091 -89.579534 
L 235.234711 -89.579534 
L 232.160331 -89.579534 
L 229.08595 -89.579534 
L 226.01157 -89.579534 
L 222.93719 -89.579534 
L 219.86281 -89.579534 
L 216.78843 -89.579534 
L 213.71405 -89.579534 
L 210.639669 -89.579534 
L 207.565289 -89.579534 
L 204.490909 -89.579534 
L 201.416529 -89.579534 
L 198.342149 -89.579534 
L 195.267769 -89.579534 
L 192.193388 -89.579534 
L 189.119008 -89.579534 
L 186.044628 -89.579534 
L 182.970248 -89.579534 
L 179.895868 -89.579534 
L 176.821488 -89.579534 
L 173.747107 -89.579534 
L 170.672727 -89.579535 
L 167.598347 -89.579535 
L 164.523967 -89.579539 
L 161.449587 -89.579554 
L 158.375207 -89.579617 
L 155.300826 -89.579863 
L 152.226446 -89.580753 
L 149.152066 -89.583728 
L 146.077686 -89.592922 
L 143.003306 -89.619186 
L 139.928926 -89.688469 
L 136.854545 -89.857046 
L 133.780165 -90.234963 
L 130.705785 -91.014574 
L 127.631405 -92.492492 
L 124.557025 -95.062679 
L 121.482645 -99.152042 
L 118.408264 -105.075813 
L 115.333884 -112.816042 
L 112.259504 -121.776822 
L 109.185124 -130.633292 
L 106.110744 -137.424041 
L 103.036364 -139.987175 
L 99.961983 -136.736559 
L 96.887603 -127.655878 
L 93.813223 -114.808055 
L 90.738843 -101.209266 
L 87.664463 -89.187845 
L 84.590083 -80.173513 
L 81.515702 -74.982453 
L 78.441322 -73.576358 
L 75.366942 -75.051824 
L 72.292562 -78.093571 
L 69.218182 -81.491514 
L 69.218182 -155.909564 
L 69.218182 -155.909564 
L 72.292562 -148.738321 
L 75.366942 -140.13 
L 78.441322 -131.243396 
L 81.515702 -123.959037 
L 84.590083 -120.517082 
L 87.664463 -122.745014 
L 90.738843 -130.985187 
L 93.813223 -143.538335 
L 96.887603 -157.686988 
L 99.961983 -171.064556 
L 103.036364 -181.761347 
L 106.110744 -188.337022 
L 109.185124 -190.415444 
L 112.259504 -188.815587 
L 115.333884 -185.043636 
L 118.408264 -180.62812 
L 121.482645 -176.65902 
L 124.557025 -173.649875 
L 127.631405 -171.651913 
L 130.705785 -170.466907 
L 133.780165 -169.83149 
L 136.854545 -169.521042 
L 139.928926 -169.382124 
L 143.003306 -169.324992 
L 146.077686 -169.303347 
L 149.152066 -169.295779 
L 152.226446 -169.293335 
L 155.300826 -169.292605 
L 158.375207 -169.292403 
L 161.449587 -169.292351 
L 164.523967 -169.292339 
L 167.598347 -169.292336 
L 170.672727 -169.292336 
L 173.747107 -169.292336 
L 176.821488 -169.292336 
L 179.895868 -169.292336 
L 182.970248 -169.292336 
L 186.044628 -169.292336 
L 189.119008 -169.292336 
L 192.193388 -169.292336 
L 195.267769 -169.292336 
L 198.342149 -169.292336 
L 201.416529 -169.292336 
L 204.490909 -169.292336 
L 207.565289 -169.292336 
L 210.639669 -169.292336 
L 213.71405 -169.292336 
L 216.78843 -169.292336 
L 219.86281 -169.292336 
L 222.93719 -169.292336 
L 226.01157 -169.292336 
L 229.08595 -169.292336 
L 232.160331 -169.292336 
L 235.234711 -169.292336 
L 238.309091 -169.292336 
L 241.383471 -169.292336 
L 244.457851 -169.292336 
L 247.532231 -169.292336 
L 250.606612 -169.292336 
L 253.680992 -169.292336 
L 256.755372 -169.292336 
L 259.829752 -169.292336 
L 262.904132 -169.292336 
L 265.978512 -169.292336 
L 269.052893 -169.292336 
L 272.127273 -169.292336 
L 275.201653 -169.292336 
L 278.276033 -169.292336 
L 281.350413 -169.292336 
L 284.424793 -169.292336 
L 287.499174 -169.292336 
L 290.573554 -169.292336 
L 293.647934 -169.292336 
L 296.722314 -169.292336 
L 299.796694 -169.292336 
L 302.871074 -169.292336 
L 305.945455 -169.292336 
L 309.019835 -169.292336 
L 312.094215 -169.292336 
L 315.168595 -169.292336 
L 318.242975 -169.292336 
L 321.317355 -169.292336 
L 324.391736 -169.292336 
L 327.466116 -169.292336 
L 330.540496 -169.292336 
L 333.614876 -169.292336 
L 336.689256 -169.292336 
L 339.763636 -169.292336 
L 342.838017 -169.292336 
L 345.912397 -169.292336 
L 348.986777 -169.292336 
L 352.061157 -169.292336 
L 355.135537 -169.292336 
L 358.209917 -169.292336 
L 361.284298 -169.292336 
L 364.358678 -169.292336 
L 367.433058 -169.292336 
L 370.507438 -169.292336 
L 373.581818 -169.292336 
z
" style="stroke: #0000ff; stroke-opacity: 0.5"/>
    </defs>
    <g clip-path="url(#p8fda9891b6)">
     <use xlink:href="#m62c33755fd" x="0" y="288" style="fill: #0000ff; fill-opacity: 0.5; stroke: #0000ff; stroke-opacity: 0.5"/>
    </g>
   </g>
   <g id="PolyCollection_4">
    <defs>
     <path id="mc576fcad8a" d="M 373.581818 -209.148736 
L 373.581818 -49.723134 
L 370.507438 -49.723134 
L 367.433058 -49.723134 
L 364.358678 -49.723134 
L 361.284298 -49.723134 
L 358.209917 -49.723134 
L 355.135537 -49.723134 
L 352.061157 -49.723134 
L 348.986777 -49.723134 
L 345.912397 -49.723134 
L 342.838017 -49.723134 
L 339.763636 -49.723134 
L 336.689256 -49.723134 
L 333.614876 -49.723134 
L 330.540496 -49.723134 
L 327.466116 -49.723134 
L 324.391736 -49.723134 
L 321.317355 -49.723134 
L 318.242975 -49.723134 
L 315.168595 -49.723134 
L 312.094215 -49.723134 
L 309.019835 -49.723134 
L 305.945455 -49.723134 
L 302.871074 -49.723134 
L 299.796694 -49.723134 
L 296.722314 -49.723134 
L 293.647934 -49.723134 
L 290.573554 -49.723134 
L 287.499174 -49.723134 
L 284.424793 -49.723134 
L 281.350413 -49.723134 
L 278.276033 -49.723134 
L 275.201653 -49.723134 
L 272.127273 -49.723134 
L 269.052893 -49.723134 
L 265.978512 -49.723134 
L 262.904132 -49.723134 
L 259.829752 -49.723134 
L 256.755372 -49.723134 
L 253.680992 -49.723134 
L 250.606612 -49.723134 
L 247.532231 -49.723134 
L 244.457851 -49.723134 
L 241.383471 -49.723134 
L 238.309091 -49.723134 
L 235.234711 -49.723134 
L 232.160331 -49.723134 
L 229.08595 -49.723134 
L 226.01157 -49.723134 
L 222.93719 -49.723134 
L 219.86281 -49.723134 
L 216.78843 -49.723134 
L 213.71405 -49.723134 
L 210.639669 -49.723134 
L 207.565289 -49.723134 
L 204.490909 -49.723134 
L 201.416529 -49.723134 
L 198.342149 -49.723134 
L 195.267769 -49.723134 
L 192.193388 -49.723134 
L 189.119008 -49.723134 
L 186.044628 -49.723134 
L 182.970248 -49.723134 
L 179.895868 -49.723134 
L 176.821488 -49.723134 
L 173.747107 -49.723134 
L 170.672727 -49.723134 
L 167.598347 -49.723135 
L 164.523967 -49.723138 
L 161.449587 -49.723155 
L 158.375207 -49.723224 
L 155.300826 -49.723493 
L 152.226446 -49.724463 
L 149.152066 -49.727702 
L 146.077686 -49.737709 
L 143.003306 -49.766283 
L 139.928926 -49.841641 
L 136.854545 -50.025048 
L 133.780165 -50.436699 
L 130.705785 -51.288408 
L 127.631405 -52.912781 
L 124.557025 -55.769082 
L 121.482645 -60.398553 
L 118.408264 -67.299659 
L 115.333884 -76.702245 
L 112.259504 -88.25744 
L 109.185124 -100.742217 
L 106.110744 -111.967551 
L 103.036364 -119.100089 
L 99.961983 -119.57256 
L 96.887603 -112.640324 
L 93.813223 -100.442915 
L 90.738843 -86.321306 
L 87.664463 -72.40926 
L 84.590083 -60.001728 
L 81.515702 -50.494161 
L 78.441322 -44.742839 
L 75.366942 -42.512737 
L 72.292562 -42.771196 
L 69.218182 -44.282489 
L 69.218182 -193.11859 
L 69.218182 -193.11859 
L 72.292562 -184.060697 
L 75.366942 -172.669087 
L 78.441322 -160.076915 
L 81.515702 -148.447329 
L 84.590083 -140.688867 
L 87.664463 -139.523599 
L 90.738843 -145.873148 
L 93.813223 -157.903476 
L 96.887603 -172.702543 
L 99.961983 -188.228554 
L 103.036364 -202.648433 
L 106.110744 -213.793512 
L 109.185124 -220.306519 
L 112.259504 -222.33497 
L 115.333884 -221.157433 
L 118.408264 -218.404273 
L 121.482645 -215.412509 
L 124.557025 -212.943473 
L 127.631405 -211.231623 
L 130.705785 -210.193074 
L 133.780165 -209.629754 
L 136.854545 -209.35304 
L 139.928926 -209.228952 
L 143.003306 -209.177895 
L 146.077686 -209.158559 
L 149.152066 -209.151805 
L 152.226446 -209.149625 
L 155.300826 -209.148975 
L 158.375207 -209.148796 
L 161.449587 -209.14875 
L 164.523967 -209.148739 
L 167.598347 -209.148737 
L 170.672727 -209.148736 
L 173.747107 -209.148736 
L 176.821488 -209.148736 
L 179.895868 -209.148736 
L 182.970248 -209.148736 
L 186.044628 -209.148736 
L 189.119008 -209.148736 
L 192.193388 -209.148736 
L 195.267769 -209.148736 
L 198.342149 -209.148736 
L 201.416529 -209.148736 
L 204.490909 -209.148736 
L 207.565289 -209.148736 
L 210.639669 -209.148736 
L 213.71405 -209.148736 
L 216.78843 -209.148736 
L 219.86281 -209.148736 
L 222.93719 -209.148736 
L 226.01157 -209.148736 
L 229.08595 -209.148736 
L 232.160331 -209.148736 
L 235.234711 -209.148736 
L 238.309091 -209.148736 
L 241.383471 -209.148736 
L 244.457851 -209.148736 
L 247.532231 -209.148736 
L 250.606612 -209.148736 
L 253.680992 -209.148736 
L 256.755372 -209.148736 
L 259.829752 -209.148736 
L 262.904132 -209.148736 
L 265.978512 -209.148736 
L 269.052893 -209.148736 
L 272.127273 -209.148736 
L 275.201653 -209.148736 
L 278.276033 -209.148736 
L 281.350413 -209.148736 
L 284.424793 -209.148736 
L 287.499174 -209.148736 
L 290.573554 -209.148736 
L 293.647934 -209.148736 
L 296.722314 -209.148736 
L 299.796694 -209.148736 
L 302.871074 -209.148736 
L 305.945455 -209.148736 
L 309.019835 -209.148736 
L 312.094215 -209.148736 
L 315.168595 -209.148736 
L 318.242975 -209.148736 
L 321.317355 -209.148736 
L 324.391736 -209.148736 
L 327.466116 -209.148736 
L 330.540496 -209.148736 
L 333.614876 -209.148736 
L 336.689256 -209.148736 
L 339.763636 -209.148736 
L 342.838017 -209.148736 
L 345.912397 -209.148736 
L 348.986777 -209.148736 
L 352.061157 -209.148736 
L 355.135537 -209.148736 
L 358.209917 -209.148736 
L 361.284298 -209.148736 
L 364.358678 -209.148736 
L 367.433058 -209.148736 
L 370.507438 -209.148736 
L 373.581818 -209.148736 
z
" style="stroke: #0000ff; stroke-opacity: 0.3"/>
    </defs>
    <g clip-path="url(#p8fda9891b6)">
     <use xlink:href="#mc576fcad8a" x="0" y="288" style="fill: #0000ff; fill-opacity: 0.3; stroke: #0000ff; stroke-opacity: 0.3"/>
    </g>
   </g>
   <g id="matplotlib.axis_3">
    <g id="ytick_8">
     <g id="line2d_16">
      <defs>
       <path id="m97bc372130" d="M 0 0 
L 3.5 0 
" style="stroke: #000000; stroke-width: 0.8"/>
      </defs>
      <g>
       <use xlink:href="#m97bc372130" x="388.8" y="233.88" style="stroke: #000000; stroke-width: 0.8"/>
      </g>
     </g>
     <g id="text_16">
      <!-- 3 -->
      <g transform="translate(395.8 237.679219)scale(0.1 -0.1)">
       <defs>
        <path id="DejaVuSans-33" d="M 2597 2516 
Q 3050 2419 3304 2112 
Q 3559 1806 3559 1356 
Q 3559 666 3084 287 
Q 2609 -91 1734 -91 
Q 1441 -91 1130 -33 
Q 819 25 488 141 
L 488 750 
Q 750 597 1062 519 
Q 1375 441 1716 441 
Q 2309 441 2620 675 
Q 2931 909 2931 1356 
Q 2931 1769 2642 2001 
Q 2353 2234 1838 2234 
L 1294 2234 
L 1294 2753 
L 1863 2753 
Q 2328 2753 2575 2939 
Q 2822 3125 2822 3475 
Q 2822 3834 2567 4026 
Q 2313 4219 1838 4219 
Q 1578 4219 1281 4162 
Q 984 4106 628 3988 
L 628 4550 
Q 988 4650 1302 4700 
Q 1616 4750 1894 4750 
Q 2613 4750 3031 4423 
Q 3450 4097 3450 3541 
Q 3450 3153 3228 2886 
Q 3006 2619 2597 2516 
z
" transform="scale(0.015625)"/>
       </defs>
       <use xlink:href="#DejaVuSans-33"/>
      </g>
     </g>
    </g>
    <g id="ytick_9">
     <g id="line2d_17">
      <g>
       <use xlink:href="#m97bc372130" x="388.8" y="197.64" style="stroke: #000000; stroke-width: 0.8"/>
      </g>
     </g>
     <g id="text_17">
      <!-- 4 -->
      <g transform="translate(395.8 201.439219)scale(0.1 -0.1)">
       <use xlink:href="#DejaVuSans-34"/>
      </g>
     </g>
    </g>
    <g id="ytick_10">
     <g id="line2d_18">
      <g>
       <use xlink:href="#m97bc372130" x="388.8" y="161.4" style="stroke: #000000; stroke-width: 0.8"/>
      </g>
     </g>
     <g id="text_18">
      <!-- 5 -->
      <g transform="translate(395.8 165.199219)scale(0.1 -0.1)">
       <use xlink:href="#DejaVuSans-35"/>
      </g>
     </g>
    </g>
    <g id="ytick_11">
     <g id="line2d_19">
      <g>
       <use xlink:href="#m97bc372130" x="388.8" y="125.16" style="stroke: #000000; stroke-width: 0.8"/>
      </g>
     </g>
     <g id="text_19">
      <!-- 6 -->
      <g transform="translate(395.8 128.959219)scale(0.1 -0.1)">
       <use xlink:href="#DejaVuSans-36"/>
      </g>
     </g>
    </g>
    <g id="ytick_12">
     <g id="line2d_20">
      <g>
       <use xlink:href="#m97bc372130" x="388.8" y="88.92" style="stroke: #000000; stroke-width: 0.8"/>
      </g>
     </g>
     <g id="text_20">
      <!-- 7 -->
      <g transform="translate(395.8 92.719219)scale(0.1 -0.1)">
       <use xlink:href="#DejaVuSans-37"/>
      </g>
     </g>
    </g>
    <g id="ytick_13">
     <g id="line2d_21">
      <g>
       <use xlink:href="#m97bc372130" x="388.8" y="52.68" style="stroke: #000000; stroke-width: 0.8"/>
      </g>
     </g>
     <g id="text_21">
      <!-- 8 -->
      <g transform="translate(395.8 56.479219)scale(0.1 -0.1)">
       <use xlink:href="#DejaVuSans-38"/>
      </g>
     </g>
    </g>
    <g id="text_22">
     <!-- Modulus (GPa) -->
     <g style="fill: #0000ff" transform="translate(413.760938 179.377656)rotate(-90)scale(0.1 -0.1)">
      <defs>
       <path id="DejaVuSans-4d" d="M 628 4666 
L 1569 4666 
L 2759 1491 
L 3956 4666 
L 4897 4666 
L 4897 0 
L 4281 0 
L 4281 4097 
L 3078 897 
L 2444 897 
L 1241 4097 
L 1241 0 
L 628 0 
L 628 4666 
z
" transform="scale(0.015625)"/>
       <path id="DejaVuSans-64" d="M 2906 2969 
L 2906 4863 
L 3481 4863 
L 3481 0 
L 2906 0 
L 2906 525 
Q 2725 213 2448 61 
Q 2172 -91 1784 -91 
Q 1150 -91 751 415 
Q 353 922 353 1747 
Q 353 2572 751 3078 
Q 1150 3584 1784 3584 
Q 2172 3584 2448 3432 
Q 2725 3281 2906 2969 
z
M 947 1747 
Q 947 1113 1208 752 
Q 1469 391 1925 391 
Q 2381 391 2643 752 
Q 2906 1113 2906 1747 
Q 2906 2381 2643 2742 
Q 2381 3103 1925 3103 
Q 1469 3103 1208 2742 
Q 947 2381 947 1747 
z
" transform="scale(0.015625)"/>
       <path id="DejaVuSans-47" d="M 3809 666 
L 3809 1919 
L 2778 1919 
L 2778 2438 
L 4434 2438 
L 4434 434 
Q 4069 175 3628 42 
Q 3188 -91 2688 -91 
Q 1594 -91 976 548 
Q 359 1188 359 2328 
Q 359 3472 976 4111 
Q 1594 4750 2688 4750 
Q 3144 4750 3555 4637 
Q 3966 4525 4313 4306 
L 4313 3634 
Q 3963 3931 3569 4081 
Q 3175 4231 2741 4231 
Q 1884 4231 1454 3753 
Q 1025 3275 1025 2328 
Q 1025 1384 1454 906 
Q 1884 428 2741 428 
Q 3075 428 3337 486 
Q 3600 544 3809 666 
z
" transform="scale(0.015625)"/>
       <path id="DejaVuSans-50" d="M 1259 4147 
L 1259 2394 
L 2053 2394 
Q 2494 2394 2734 2622 
Q 2975 2850 2975 3272 
Q 2975 3691 2734 3919 
Q 2494 4147 2053 4147 
L 1259 4147 
z
M 628 4666 
L 2053 4666 
Q 2838 4666 3239 4311 
Q 3641 3956 3641 3272 
Q 3641 2581 3239 2228 
Q 2838 1875 2053 1875 
L 1259 1875 
L 1259 0 
L 628 0 
L 628 4666 
z
" transform="scale(0.015625)"/>
      </defs>
      <use xlink:href="#DejaVuSans-4d"/>
      <use xlink:href="#DejaVuSans-6f" x="86.279297"/>
      <use xlink:href="#DejaVuSans-64" x="147.460938"/>
      <use xlink:href="#DejaVuSans-75" x="210.9375"/>
      <use xlink:href="#DejaVuSans-6c" x="274.316406"/>
      <use xlink:href="#DejaVuSans-75" x="302.099609"/>
      <use xlink:href="#DejaVuSans-73" x="365.478516"/>
      <use xlink:href="#DejaVuSans-20" x="417.578125"/>
      <use xlink:href="#DejaVuSans-28" x="449.365234"/>
      <use xlink:href="#DejaVuSans-47" x="488.378906"/>
      <use xlink:href="#DejaVuSans-50" x="565.869141"/>
      <use xlink:href="#DejaVuSans-61" x="621.671875"/>
      <use xlink:href="#DejaVuSans-29" x="682.951172"/>
     </g>
    </g>
   </g>
   <g id="line2d_22">
    <path d="M 373.581818 158.564065 
L 370.507438 158.564065 
L 367.433058 158.564065 
L 364.358678 158.564065 
L 361.284298 158.564065 
L 358.209917 158.564065 
L 355.135537 158.564065 
L 352.061157 158.564065 
L 348.986777 158.564065 
L 345.912397 158.564065 
L 342.838017 158.564065 
L 339.763636 158.564065 
L 336.689256 158.564065 
L 333.614876 158.564065 
L 330.540496 158.564065 
L 327.466116 158.564065 
L 324.391736 158.564065 
L 321.317355 158.564065 
L 318.242975 158.564065 
L 315.168595 158.564065 
L 312.094215 158.564065 
L 309.019835 158.564065 
L 305.945455 158.564065 
L 302.871074 158.564065 
L 299.796694 158.564065 
L 296.722314 158.564065 
L 293.647934 158.564065 
L 290.573554 158.564065 
L 287.499174 158.564065 
L 284.424793 158.564065 
L 281.350413 158.564065 
L 278.276033 158.564065 
L 275.201653 158.564065 
L 272.127273 158.564065 
L 269.052893 158.564065 
L 265.978512 158.564065 
L 262.904132 158.564065 
L 259.829752 158.564065 
L 256.755372 158.564065 
L 253.680992 158.564065 
L 250.606612 158.564065 
L 247.532231 158.564065 
L 244.457851 158.564065 
L 241.383471 158.564065 
L 238.309091 158.564065 
L 235.234711 158.564065 
L 232.160331 158.564065 
L 229.08595 158.564065 
L 226.01157 158.564065 
L 222.93719 158.564065 
L 219.86281 158.564065 
L 216.78843 158.564065 
L 213.71405 158.564065 
L 210.639669 158.564065 
L 207.565289 158.564065 
L 204.490909 158.564065 
L 201.416529 158.564065 
L 198.342149 158.564065 
L 195.267769 158.564065 
L 192.193388 158.564065 
L 189.119008 158.564065 
L 186.044628 158.564065 
L 182.970248 158.564065 
L 179.895868 158.564065 
L 176.821488 158.564065 
L 173.747107 158.564065 
L 170.672727 158.564065 
L 167.598347 158.564064 
L 164.523967 158.564061 
L 161.449587 158.564048 
L 158.375207 158.56399 
L 155.300826 158.563766 
L 152.226446 158.562956 
L 149.152066 158.560247 
L 146.077686 158.551866 
L 143.003306 158.527911 
L 139.928926 158.464704 
L 136.854545 158.310956 
L 133.780165 157.966774 
L 130.705785 157.259259 
L 127.631405 155.927798 
L 124.557025 153.643723 
L 121.482645 150.094469 
L 118.408264 145.148034 
L 115.333884 139.070161 
L 112.259504 132.703795 
L 109.185124 127.475632 
L 106.110744 125.119468 
L 103.036364 127.125739 
L 99.961983 134.099443 
L 96.887603 145.328567 
L 93.813223 158.826805 
L 90.738843 171.902773 
L 87.664463 182.03357 
L 84.590083 187.654702 
L 81.515702 188.529255 
L 78.441322 185.590123 
L 75.366942 180.409088 
L 72.292562 174.584054 
L 69.218182 169.299461 
" clip-path="url(#p8fda9891b6)" style="fill: none; stroke: #0000ff; stroke-width: 0.5; stroke-linecap: square"/>
   </g>
   <g id="patch_7">
    <path d="M 54 252 
L 54 34.56 
" style="fill: none; stroke: #000000; stroke-width: 0.8; stroke-linejoin: miter; stroke-linecap: square"/>
   </g>
   <g id="patch_8">
    <path d="M 388.8 252 
L 388.8 34.56 
" style="fill: none; stroke: #000000; stroke-width: 0.8; stroke-linejoin: miter; stroke-linecap: square"/>
   </g>
   <g id="patch_9">
    <path d="M 54 252 
L 388.8 252 
" style="fill: none; stroke: #000000; stroke-width: 0.8; stroke-linejoin: miter; stroke-linecap: square"/>
   </g>
   <g id="patch_10">
    <path d="M 54 34.56 
L 388.8 34.56 
" style="fill: none; stroke: #000000; stroke-width: 0.8; stroke-linejoin: miter; stroke-linecap: square"/>
   </g>
  </g>
 </g>
 <defs>
  <clipPath id="p8fda9891b6">
   <rect x="54" y="34.56" width="334.8" height="217.44"/>
  </clipPath>
 </defs>
</svg>
