<?xml version="1.0" encoding="utf-8" standalone="no"?>
<!DOCTYPE svg PUBLIC "-//W3C//DTD SVG 1.1//EN"
  "http://www.w3.org/Graphics/SVG/1.1/DTD/svg11.dtd">
<svg xmlns:xlink="http://www.w3.org/1999/xlink" width="432pt" height="288pt" viewBox="0 0 432 288" xmlns="http://www.w3.org/2000/svg" version="1.1">
 <metadata>
  <rdf:RDF xmlns:dc="http://purl.org/dc/elements/1.1/" xmlns:cc="http://creativecommons.org/ns#" xmlns:rdf="http://www.w3.org/1999/02/22-rdf-syntax-ns#">
   <cc:Work>
    <dc:type rdf:resource="http://purl.org/dc/dcmitype/StillImage"/>
    <dc:date>2023-05-11T13:48:32.762433</dc:date>
    <dc:format>image/svg+xml</dc:format>
    <dc:creator>
     <cc:Agent>
      <dc:title>Matplotlib v3.5.1, https://matplotlib.org/</dc:title>
     </cc:Agent>
    </dc:creator>
   </cc:Work>
  </rdf:RDF>
 </metadata>
 <defs>
  <style type="text/css">*{stroke-linejoin: round; stroke-linecap: butt}</style>
 </defs>
 <g id="figure_1">
  <g id="patch_1">
   <path d="M 0 288 
L 432 288 
L 432 0 
L 0 0 
L 0 288 
z
" style="fill: none"/>
  </g>
  <g id="axes_1">
   <g id="patch_2">
    <path d="M 54 252 
L 388.8 252 
L 388.8 34.56 
L 54 34.56 
z
" style="fill: #ffffff"/>
   </g>
   <g id="PolyCollection_1">
    <defs>
     <path id="m57af0e9412" d="M 373.581818 -184.164461 
L 373.581818 -182.607199 
L 370.507438 -182.607199 
L 367.433058 -182.607199 
L 364.358678 -182.607199 
L 361.284298 -182.607199 
L 358.209917 -182.607199 
L 355.135537 -182.607199 
L 352.061157 -182.607199 
L 348.986777 -182.607199 
L 345.912397 -182.607199 
L 342.838017 -182.607199 
L 339.763636 -182.607199 
L 336.689256 -182.607199 
L 333.614876 -182.607199 
L 330.540496 -182.607199 
L 327.466116 -182.607199 
L 324.391736 -182.607199 
L 321.317355 -182.607199 
L 318.242975 -182.607199 
L 315.168595 -182.607199 
L 312.094215 -182.607199 
L 309.019835 -182.607199 
L 305.945455 -182.607199 
L 302.871074 -182.607199 
L 299.796694 -182.6072 
L 296.722314 -182.607201 
L 293.647934 -182.607206 
L 290.573554 -182.60722 
L 287.499174 -182.607257 
L 284.424793 -182.607352 
L 281.350413 -182.607588 
L 278.276033 -182.608147 
L 275.201653 -182.609431 
L 272.127273 -182.612264 
L 269.052893 -182.618287 
L 265.978512 -182.630611 
L 262.904132 -182.65489 
L 259.829752 -182.700938 
L 256.755372 -182.785002 
L 253.680992 -182.932719 
L 250.606612 -183.182547 
L 247.532231 -183.589181 
L 244.457851 -184.226106 
L 241.383471 -185.186063 
L 238.309091 -186.578046 
L 235.234711 -188.519609 
L 232.160331 -191.123847 
L 229.08595 -194.48151 
L 226.01157 -198.640084 
L 222.93719 -203.583025 
L 219.86281 -209.213235 
L 216.78843 -215.344923 
L 213.71405 -221.706947 
L 210.639669 -227.958821 
L 207.565289 -233.718078 
L 204.490909 -238.595637 
L 201.416529 -242.234818 
L 198.342149 -244.349588 
L 195.267769 -244.758046 
L 192.193388 -243.408068 
L 189.119008 -240.393318 
L 186.044628 -235.955748 
L 182.970248 -230.465176 
L 179.895868 -224.373851 
L 176.821488 -218.158258 
L 173.747107 -212.259418 
L 170.672727 -207.02838 
L 167.598347 -202.683372 
L 164.523967 -199.28426 
L 161.449587 -196.727365 
L 158.375207 -194.761132 
L 155.300826 -193.021272 
L 152.226446 -191.082412 
L 149.152066 -188.52165 
L 146.077686 -184.985436 
L 143.003306 -180.244746 
L 139.928926 -174.228849 
L 136.854545 -167.040675 
L 133.780165 -158.956273 
L 130.705785 -150.406871 
L 127.631405 -141.942722 
L 124.557025 -134.178902 
L 121.482645 -127.724737 
L 118.408264 -123.104494 
L 115.333884 -120.683999 
L 112.259504 -120.61847 
L 109.185124 -122.832269 
L 106.110744 -127.03465 
L 103.036364 -132.767752 
L 99.961983 -139.476369 
L 96.887603 -146.585709 
L 93.813223 -153.573241 
L 90.738843 -160.022939 
L 87.664463 -165.65483 
L 84.590083 -170.328758 
L 81.515702 -174.026825 
L 78.441322 -176.822471 
L 75.366942 -178.845015 
L 72.292562 -180.247005 
L 69.218182 -181.17903 
L 69.218182 -182.733105 
L 69.218182 -182.733105 
L 72.292562 -181.798603 
L 75.366942 -180.392337 
L 78.441322 -178.362545 
L 81.515702 -175.554953 
L 84.590083 -171.837967 
L 87.664463 -167.135562 
L 90.738843 -161.463354 
L 93.813223 -154.96046 
L 96.887603 -147.908134 
L 99.961983 -140.726687 
L 103.036364 -133.945529 
L 106.110744 -128.1468 
L 109.185124 -123.890093 
L 112.259504 -121.632047 
L 115.333884 -121.657394 
L 118.408264 -124.03545 
L 121.482645 -128.60947 
L 124.557025 -135.018861 
L 127.631405 -142.748059 
L 130.705785 -151.192377 
L 133.780165 -159.731633 
L 136.854545 -167.803373 
L 139.928926 -174.966056 
L 143.003306 -180.943208 
L 146.077686 -185.643959 
L 149.152066 -189.158562 
L 152.226446 -191.729839 
L 155.300826 -193.708173 
L 158.375207 -195.501245 
L 161.449587 -197.520427 
L 164.523967 -200.123324 
L 167.598347 -203.559828 
L 170.672727 -207.931889 
L 173.747107 -213.175043 
L 176.821488 -219.065258 
L 179.895868 -225.249311 
L 182.970248 -231.292644 
L 186.044628 -236.736092 
L 189.119008 -241.151293 
L 192.193388 -244.185455 
L 195.267769 -245.593969 
L 198.342149 -245.265228 
L 201.416529 -243.232994 
L 204.490909 -239.668994 
L 207.565289 -234.857534 
L 210.639669 -229.158365 
L 213.71405 -222.964196 
L 216.78843 -216.658872 
L 219.86281 -210.581524 
L 222.93719 -205.000484 
L 226.01157 -200.098977 
L 229.08595 -195.972837 
L 232.160331 -192.638837 
L 235.234711 -190.05079 
L 238.309091 -188.119707 
L 241.383471 -186.734205 
L 244.457851 -185.778125 
L 247.532231 -185.143466 
L 250.606612 -184.73814 
L 253.680992 -184.489059 
L 256.755372 -184.341764 
L 259.829752 -184.257935 
L 262.904132 -184.212016 
L 265.978512 -184.187805 
L 269.052893 -184.175516 
L 272.127273 -184.169511 
L 275.201653 -184.166686 
L 278.276033 -184.165406 
L 281.350413 -184.164848 
L 284.424793 -184.164614 
L 287.499174 -184.164519 
L 290.573554 -184.164482 
L 293.647934 -184.164468 
L 296.722314 -184.164463 
L 299.796694 -184.164461 
L 302.871074 -184.164461 
L 305.945455 -184.164461 
L 309.019835 -184.164461 
L 312.094215 -184.164461 
L 315.168595 -184.164461 
L 318.242975 -184.164461 
L 321.317355 -184.164461 
L 324.391736 -184.164461 
L 327.466116 -184.164461 
L 330.540496 -184.164461 
L 333.614876 -184.164461 
L 336.689256 -184.164461 
L 339.763636 -184.164461 
L 342.838017 -184.164461 
L 345.912397 -184.164461 
L 348.986777 -184.164461 
L 352.061157 -184.164461 
L 355.135537 -184.164461 
L 358.209917 -184.164461 
L 361.284298 -184.164461 
L 364.358678 -184.164461 
L 367.433058 -184.164461 
L 370.507438 -184.164461 
L 373.581818 -184.164461 
z
" style="stroke: #ff0000; stroke-opacity: 0.5"/>
    </defs>
    <g clip-path="url(#pdba83c8ba5)">
     <use xlink:href="#m57af0e9412" x="0" y="288" style="fill: #ff0000; fill-opacity: 0.5; stroke: #ff0000; stroke-opacity: 0.5"/>
    </g>
   </g>
   <g id="PolyCollection_2">
    <defs>
     <path id="m5d55340bf2" d="M 373.581818 -184.943091 
L 373.581818 -181.828568 
L 370.507438 -181.828568 
L 367.433058 -181.828568 
L 364.358678 -181.828568 
L 361.284298 -181.828568 
L 358.209917 -181.828568 
L 355.135537 -181.828568 
L 352.061157 -181.828568 
L 348.986777 -181.828568 
L 345.912397 -181.828568 
L 342.838017 -181.828568 
L 339.763636 -181.828568 
L 336.689256 -181.828568 
L 333.614876 -181.828568 
L 330.540496 -181.828568 
L 327.466116 -181.828568 
L 324.391736 -181.828568 
L 321.317355 -181.828568 
L 318.242975 -181.828568 
L 315.168595 -181.828568 
L 312.094215 -181.828568 
L 309.019835 -181.828568 
L 305.945455 -181.828568 
L 302.871074 -181.828568 
L 299.796694 -181.828569 
L 296.722314 -181.82857 
L 293.647934 -181.828575 
L 290.573554 -181.828589 
L 287.499174 -181.828626 
L 284.424793 -181.828722 
L 281.350413 -181.828957 
L 278.276033 -181.829518 
L 275.201653 -181.830803 
L 272.127273 -181.833641 
L 269.052893 -181.839672 
L 265.978512 -181.852014 
L 262.904132 -181.876328 
L 259.829752 -181.922439 
L 256.755372 -182.006621 
L 253.680992 -182.15455 
L 250.606612 -182.40475 
L 247.532231 -182.812038 
L 244.457851 -183.450097 
L 241.383471 -184.411992 
L 238.309091 -185.807216 
L 235.234711 -187.754018 
L 232.160331 -190.366352 
L 229.08595 -193.735847 
L 226.01157 -197.910638 
L 222.93719 -202.874295 
L 219.86281 -208.529091 
L 216.78843 -214.687948 
L 213.71405 -221.078322 
L 210.639669 -227.35905 
L 207.565289 -233.148351 
L 204.490909 -238.058959 
L 201.416529 -241.73573 
L 198.342149 -243.891767 
L 195.267769 -244.340085 
L 192.193388 -243.019375 
L 189.119008 -240.01433 
L 186.044628 -235.565576 
L 182.970248 -230.051443 
L 179.895868 -223.936122 
L 176.821488 -217.704758 
L 173.747107 -211.801605 
L 170.672727 -206.576625 
L 167.598347 -202.245144 
L 164.523967 -198.864727 
L 161.449587 -196.330834 
L 158.375207 -194.391076 
L 155.300826 -192.677822 
L 152.226446 -190.758698 
L 149.152066 -188.203194 
L 146.077686 -184.656175 
L 143.003306 -179.895514 
L 139.928926 -173.860246 
L 136.854545 -166.659326 
L 133.780165 -158.568592 
L 130.705785 -150.014118 
L 127.631405 -141.540053 
L 124.557025 -133.758923 
L 121.482645 -127.282371 
L 118.408264 -122.639015 
L 115.333884 -120.197302 
L 112.259504 -120.111682 
L 109.185124 -122.303357 
L 106.110744 -126.478575 
L 103.036364 -132.178864 
L 99.961983 -138.85121 
L 96.887603 -145.924497 
L 93.813223 -152.879632 
L 90.738843 -159.302731 
L 87.664463 -164.914463 
L 84.590083 -169.574154 
L 81.515702 -173.26276 
L 78.441322 -176.052433 
L 75.366942 -178.071354 
L 72.292562 -179.471206 
L 69.218182 -180.401992 
L 69.218182 -183.510142 
L 69.218182 -183.510142 
L 72.292562 -182.574402 
L 75.366942 -181.165998 
L 78.441322 -179.132582 
L 81.515702 -176.319018 
L 84.590083 -172.592572 
L 87.664463 -167.875928 
L 90.738843 -162.183561 
L 93.813223 -155.65407 
L 96.887603 -148.569346 
L 99.961983 -141.351846 
L 103.036364 -134.534418 
L 106.110744 -128.702875 
L 109.185124 -124.419005 
L 112.259504 -122.138836 
L 115.333884 -122.144091 
L 118.408264 -124.500928 
L 121.482645 -129.051836 
L 124.557025 -135.438841 
L 127.631405 -143.150728 
L 130.705785 -151.58513 
L 133.780165 -160.119313 
L 136.854545 -168.184722 
L 139.928926 -175.334659 
L 143.003306 -181.29244 
L 146.077686 -185.97322 
L 149.152066 -189.477018 
L 152.226446 -192.053553 
L 155.300826 -194.051623 
L 158.375207 -195.871302 
L 161.449587 -197.916959 
L 164.523967 -200.542857 
L 167.598347 -203.998056 
L 170.672727 -208.383644 
L 173.747107 -213.632856 
L 176.821488 -219.518758 
L 179.895868 -225.68704 
L 182.970248 -231.706378 
L 186.044628 -237.126264 
L 189.119008 -241.530281 
L 192.193388 -244.574148 
L 195.267769 -246.01193 
L 198.342149 -245.723048 
L 201.416529 -243.732081 
L 204.490909 -240.205673 
L 207.565289 -235.427261 
L 210.639669 -229.758136 
L 213.71405 -223.59282 
L 216.78843 -217.315847 
L 219.86281 -211.265669 
L 222.93719 -205.709214 
L 226.01157 -200.828423 
L 229.08595 -196.7185 
L 232.160331 -193.396332 
L 235.234711 -190.816381 
L 238.309091 -188.890537 
L 241.383471 -187.508277 
L 244.457851 -186.554134 
L 247.532231 -185.920609 
L 250.606612 -185.515936 
L 253.680992 -185.267229 
L 256.755372 -185.120145 
L 259.829752 -185.036434 
L 262.904132 -184.990579 
L 265.978512 -184.966401 
L 269.052893 -184.95413 
L 272.127273 -184.948134 
L 275.201653 -184.945313 
L 278.276033 -184.944036 
L 281.350413 -184.943478 
L 284.424793 -184.943244 
L 287.499174 -184.94315 
L 290.573554 -184.943113 
L 293.647934 -184.943099 
L 296.722314 -184.943094 
L 299.796694 -184.943092 
L 302.871074 -184.943092 
L 305.945455 -184.943092 
L 309.019835 -184.943091 
L 312.094215 -184.943091 
L 315.168595 -184.943091 
L 318.242975 -184.943091 
L 321.317355 -184.943091 
L 324.391736 -184.943091 
L 327.466116 -184.943091 
L 330.540496 -184.943091 
L 333.614876 -184.943091 
L 336.689256 -184.943091 
L 339.763636 -184.943091 
L 342.838017 -184.943091 
L 345.912397 -184.943091 
L 348.986777 -184.943091 
L 352.061157 -184.943091 
L 355.135537 -184.943091 
L 358.209917 -184.943091 
L 361.284298 -184.943091 
L 364.358678 -184.943091 
L 367.433058 -184.943091 
L 370.507438 -184.943091 
L 373.581818 -184.943091 
z
" style="stroke: #ff0000; stroke-opacity: 0.3"/>
    </defs>
    <g clip-path="url(#pdba83c8ba5)">
     <use xlink:href="#m5d55340bf2" x="0" y="288" style="fill: #ff0000; fill-opacity: 0.3; stroke: #ff0000; stroke-opacity: 0.3"/>
    </g>
   </g>
   <g id="matplotlib.axis_1">
    <g id="xtick_1">
     <g id="line2d_1">
      <defs>
       <path id="m2195c83cd4" d="M 0 0 
L 0 3.5 
" style="stroke: #000000; stroke-width: 0.8"/>
      </defs>
      <g>
       <use xlink:href="#m2195c83cd4" x="69.218182" y="252" style="stroke: #000000; stroke-width: 0.8"/>
      </g>
     </g>
     <g id="text_1">
      <!-- 0.0 -->
      <g transform="translate(61.266619 266.598437)scale(0.1 -0.1)">
       <defs>
        <path id="DejaVuSans-30" d="M 2034 4250 
Q 1547 4250 1301 3770 
Q 1056 3291 1056 2328 
Q 1056 1369 1301 889 
Q 1547 409 2034 409 
Q 2525 409 2770 889 
Q 3016 1369 3016 2328 
Q 3016 3291 2770 3770 
Q 2525 4250 2034 4250 
z
M 2034 4750 
Q 2819 4750 3233 4129 
Q 3647 3509 3647 2328 
Q 3647 1150 3233 529 
Q 2819 -91 2034 -91 
Q 1250 -91 836 529 
Q 422 1150 422 2328 
Q 422 3509 836 4129 
Q 1250 4750 2034 4750 
z
" transform="scale(0.015625)"/>
        <path id="DejaVuSans-2e" d="M 684 794 
L 1344 794 
L 1344 0 
L 684 0 
L 684 794 
z
" transform="scale(0.015625)"/>
       </defs>
       <use xlink:href="#DejaVuSans-30"/>
       <use xlink:href="#DejaVuSans-2e" x="63.623047"/>
       <use xlink:href="#DejaVuSans-30" x="95.410156"/>
      </g>
     </g>
    </g>
    <g id="xtick_2">
     <g id="line2d_2">
      <g>
       <use xlink:href="#m2195c83cd4" x="130.090909" y="252" style="stroke: #000000; stroke-width: 0.8"/>
      </g>
     </g>
     <g id="text_2">
      <!-- 0.2 -->
      <g transform="translate(122.139347 266.598437)scale(0.1 -0.1)">
       <defs>
        <path id="DejaVuSans-32" d="M 1228 531 
L 3431 531 
L 3431 0 
L 469 0 
L 469 531 
Q 828 903 1448 1529 
Q 2069 2156 2228 2338 
Q 2531 2678 2651 2914 
Q 2772 3150 2772 3378 
Q 2772 3750 2511 3984 
Q 2250 4219 1831 4219 
Q 1534 4219 1204 4116 
Q 875 4013 500 3803 
L 500 4441 
Q 881 4594 1212 4672 
Q 1544 4750 1819 4750 
Q 2544 4750 2975 4387 
Q 3406 4025 3406 3419 
Q 3406 3131 3298 2873 
Q 3191 2616 2906 2266 
Q 2828 2175 2409 1742 
Q 1991 1309 1228 531 
z
" transform="scale(0.015625)"/>
       </defs>
       <use xlink:href="#DejaVuSans-30"/>
       <use xlink:href="#DejaVuSans-2e" x="63.623047"/>
       <use xlink:href="#DejaVuSans-32" x="95.410156"/>
      </g>
     </g>
    </g>
    <g id="xtick_3">
     <g id="line2d_3">
      <g>
       <use xlink:href="#m2195c83cd4" x="190.963636" y="252" style="stroke: #000000; stroke-width: 0.8"/>
      </g>
     </g>
     <g id="text_3">
      <!-- 0.4 -->
      <g transform="translate(183.012074 266.598437)scale(0.1 -0.1)">
       <defs>
        <path id="DejaVuSans-34" d="M 2419 4116 
L 825 1625 
L 2419 1625 
L 2419 4116 
z
M 2253 4666 
L 3047 4666 
L 3047 1625 
L 3713 1625 
L 3713 1100 
L 3047 1100 
L 3047 0 
L 2419 0 
L 2419 1100 
L 313 1100 
L 313 1709 
L 2253 4666 
z
" transform="scale(0.015625)"/>
       </defs>
       <use xlink:href="#DejaVuSans-30"/>
       <use xlink:href="#DejaVuSans-2e" x="63.623047"/>
       <use xlink:href="#DejaVuSans-34" x="95.410156"/>
      </g>
     </g>
    </g>
    <g id="xtick_4">
     <g id="line2d_4">
      <g>
       <use xlink:href="#m2195c83cd4" x="251.836364" y="252" style="stroke: #000000; stroke-width: 0.8"/>
      </g>
     </g>
     <g id="text_4">
      <!-- 0.6 -->
      <g transform="translate(243.884801 266.598437)scale(0.1 -0.1)">
       <defs>
        <path id="DejaVuSans-36" d="M 2113 2584 
Q 1688 2584 1439 2293 
Q 1191 2003 1191 1497 
Q 1191 994 1439 701 
Q 1688 409 2113 409 
Q 2538 409 2786 701 
Q 3034 994 3034 1497 
Q 3034 2003 2786 2293 
Q 2538 2584 2113 2584 
z
M 3366 4563 
L 3366 3988 
Q 3128 4100 2886 4159 
Q 2644 4219 2406 4219 
Q 1781 4219 1451 3797 
Q 1122 3375 1075 2522 
Q 1259 2794 1537 2939 
Q 1816 3084 2150 3084 
Q 2853 3084 3261 2657 
Q 3669 2231 3669 1497 
Q 3669 778 3244 343 
Q 2819 -91 2113 -91 
Q 1303 -91 875 529 
Q 447 1150 447 2328 
Q 447 3434 972 4092 
Q 1497 4750 2381 4750 
Q 2619 4750 2861 4703 
Q 3103 4656 3366 4563 
z
" transform="scale(0.015625)"/>
       </defs>
       <use xlink:href="#DejaVuSans-30"/>
       <use xlink:href="#DejaVuSans-2e" x="63.623047"/>
       <use xlink:href="#DejaVuSans-36" x="95.410156"/>
      </g>
     </g>
    </g>
    <g id="xtick_5">
     <g id="line2d_5">
      <g>
       <use xlink:href="#m2195c83cd4" x="312.709091" y="252" style="stroke: #000000; stroke-width: 0.8"/>
      </g>
     </g>
     <g id="text_5">
      <!-- 0.8 -->
      <g transform="translate(304.757528 266.598437)scale(0.1 -0.1)">
       <defs>
        <path id="DejaVuSans-38" d="M 2034 2216 
Q 1584 2216 1326 1975 
Q 1069 1734 1069 1313 
Q 1069 891 1326 650 
Q 1584 409 2034 409 
Q 2484 409 2743 651 
Q 3003 894 3003 1313 
Q 3003 1734 2745 1975 
Q 2488 2216 2034 2216 
z
M 1403 2484 
Q 997 2584 770 2862 
Q 544 3141 544 3541 
Q 544 4100 942 4425 
Q 1341 4750 2034 4750 
Q 2731 4750 3128 4425 
Q 3525 4100 3525 3541 
Q 3525 3141 3298 2862 
Q 3072 2584 2669 2484 
Q 3125 2378 3379 2068 
Q 3634 1759 3634 1313 
Q 3634 634 3220 271 
Q 2806 -91 2034 -91 
Q 1263 -91 848 271 
Q 434 634 434 1313 
Q 434 1759 690 2068 
Q 947 2378 1403 2484 
z
M 1172 3481 
Q 1172 3119 1398 2916 
Q 1625 2713 2034 2713 
Q 2441 2713 2670 2916 
Q 2900 3119 2900 3481 
Q 2900 3844 2670 4047 
Q 2441 4250 2034 4250 
Q 1625 4250 1398 4047 
Q 1172 3844 1172 3481 
z
" transform="scale(0.015625)"/>
       </defs>
       <use xlink:href="#DejaVuSans-30"/>
       <use xlink:href="#DejaVuSans-2e" x="63.623047"/>
       <use xlink:href="#DejaVuSans-38" x="95.410156"/>
      </g>
     </g>
    </g>
    <g id="xtick_6">
     <g id="line2d_6">
      <g>
       <use xlink:href="#m2195c83cd4" x="373.581818" y="252" style="stroke: #000000; stroke-width: 0.8"/>
      </g>
     </g>
     <g id="text_6">
      <!-- 1.0 -->
      <g transform="translate(365.630256 266.598437)scale(0.1 -0.1)">
       <defs>
        <path id="DejaVuSans-31" d="M 794 531 
L 1825 531 
L 1825 4091 
L 703 3866 
L 703 4441 
L 1819 4666 
L 2450 4666 
L 2450 531 
L 3481 531 
L 3481 0 
L 794 0 
L 794 531 
z
" transform="scale(0.015625)"/>
       </defs>
       <use xlink:href="#DejaVuSans-31"/>
       <use xlink:href="#DejaVuSans-2e" x="63.623047"/>
       <use xlink:href="#DejaVuSans-30" x="95.410156"/>
      </g>
     </g>
    </g>
    <g id="text_7">
     <!-- Powdered Additive -->
     <g transform="translate(174.928906 280.276563)scale(0.1 -0.1)">
      <defs>
       <path id="DejaVuSans-50" d="M 1259 4147 
L 1259 2394 
L 2053 2394 
Q 2494 2394 2734 2622 
Q 2975 2850 2975 3272 
Q 2975 3691 2734 3919 
Q 2494 4147 2053 4147 
L 1259 4147 
z
M 628 4666 
L 2053 4666 
Q 2838 4666 3239 4311 
Q 3641 3956 3641 3272 
Q 3641 2581 3239 2228 
Q 2838 1875 2053 1875 
L 1259 1875 
L 1259 0 
L 628 0 
L 628 4666 
z
" transform="scale(0.015625)"/>
       <path id="DejaVuSans-6f" d="M 1959 3097 
Q 1497 3097 1228 2736 
Q 959 2375 959 1747 
Q 959 1119 1226 758 
Q 1494 397 1959 397 
Q 2419 397 2687 759 
Q 2956 1122 2956 1747 
Q 2956 2369 2687 2733 
Q 2419 3097 1959 3097 
z
M 1959 3584 
Q 2709 3584 3137 3096 
Q 3566 2609 3566 1747 
Q 3566 888 3137 398 
Q 2709 -91 1959 -91 
Q 1206 -91 779 398 
Q 353 888 353 1747 
Q 353 2609 779 3096 
Q 1206 3584 1959 3584 
z
" transform="scale(0.015625)"/>
       <path id="DejaVuSans-77" d="M 269 3500 
L 844 3500 
L 1563 769 
L 2278 3500 
L 2956 3500 
L 3675 769 
L 4391 3500 
L 4966 3500 
L 4050 0 
L 3372 0 
L 2619 2869 
L 1863 0 
L 1184 0 
L 269 3500 
z
" transform="scale(0.015625)"/>
       <path id="DejaVuSans-64" d="M 2906 2969 
L 2906 4863 
L 3481 4863 
L 3481 0 
L 2906 0 
L 2906 525 
Q 2725 213 2448 61 
Q 2172 -91 1784 -91 
Q 1150 -91 751 415 
Q 353 922 353 1747 
Q 353 2572 751 3078 
Q 1150 3584 1784 3584 
Q 2172 3584 2448 3432 
Q 2725 3281 2906 2969 
z
M 947 1747 
Q 947 1113 1208 752 
Q 1469 391 1925 391 
Q 2381 391 2643 752 
Q 2906 1113 2906 1747 
Q 2906 2381 2643 2742 
Q 2381 3103 1925 3103 
Q 1469 3103 1208 2742 
Q 947 2381 947 1747 
z
" transform="scale(0.015625)"/>
       <path id="DejaVuSans-65" d="M 3597 1894 
L 3597 1613 
L 953 1613 
Q 991 1019 1311 708 
Q 1631 397 2203 397 
Q 2534 397 2845 478 
Q 3156 559 3463 722 
L 3463 178 
Q 3153 47 2828 -22 
Q 2503 -91 2169 -91 
Q 1331 -91 842 396 
Q 353 884 353 1716 
Q 353 2575 817 3079 
Q 1281 3584 2069 3584 
Q 2775 3584 3186 3129 
Q 3597 2675 3597 1894 
z
M 3022 2063 
Q 3016 2534 2758 2815 
Q 2500 3097 2075 3097 
Q 1594 3097 1305 2825 
Q 1016 2553 972 2059 
L 3022 2063 
z
" transform="scale(0.015625)"/>
       <path id="DejaVuSans-72" d="M 2631 2963 
Q 2534 3019 2420 3045 
Q 2306 3072 2169 3072 
Q 1681 3072 1420 2755 
Q 1159 2438 1159 1844 
L 1159 0 
L 581 0 
L 581 3500 
L 1159 3500 
L 1159 2956 
Q 1341 3275 1631 3429 
Q 1922 3584 2338 3584 
Q 2397 3584 2469 3576 
Q 2541 3569 2628 3553 
L 2631 2963 
z
" transform="scale(0.015625)"/>
       <path id="DejaVuSans-20" transform="scale(0.015625)"/>
       <path id="DejaVuSans-41" d="M 2188 4044 
L 1331 1722 
L 3047 1722 
L 2188 4044 
z
M 1831 4666 
L 2547 4666 
L 4325 0 
L 3669 0 
L 3244 1197 
L 1141 1197 
L 716 0 
L 50 0 
L 1831 4666 
z
" transform="scale(0.015625)"/>
       <path id="DejaVuSans-69" d="M 603 3500 
L 1178 3500 
L 1178 0 
L 603 0 
L 603 3500 
z
M 603 4863 
L 1178 4863 
L 1178 4134 
L 603 4134 
L 603 4863 
z
" transform="scale(0.015625)"/>
       <path id="DejaVuSans-74" d="M 1172 4494 
L 1172 3500 
L 2356 3500 
L 2356 3053 
L 1172 3053 
L 1172 1153 
Q 1172 725 1289 603 
Q 1406 481 1766 481 
L 2356 481 
L 2356 0 
L 1766 0 
Q 1100 0 847 248 
Q 594 497 594 1153 
L 594 3053 
L 172 3053 
L 172 3500 
L 594 3500 
L 594 4494 
L 1172 4494 
z
" transform="scale(0.015625)"/>
       <path id="DejaVuSans-76" d="M 191 3500 
L 800 3500 
L 1894 563 
L 2988 3500 
L 3597 3500 
L 2284 0 
L 1503 0 
L 191 3500 
z
" transform="scale(0.015625)"/>
      </defs>
      <use xlink:href="#DejaVuSans-50"/>
      <use xlink:href="#DejaVuSans-6f" x="56.677734"/>
      <use xlink:href="#DejaVuSans-77" x="117.859375"/>
      <use xlink:href="#DejaVuSans-64" x="199.646484"/>
      <use xlink:href="#DejaVuSans-65" x="263.123047"/>
      <use xlink:href="#DejaVuSans-72" x="324.646484"/>
      <use xlink:href="#DejaVuSans-65" x="363.509766"/>
      <use xlink:href="#DejaVuSans-64" x="425.033203"/>
      <use xlink:href="#DejaVuSans-20" x="488.509766"/>
      <use xlink:href="#DejaVuSans-41" x="520.296875"/>
      <use xlink:href="#DejaVuSans-64" x="586.955078"/>
      <use xlink:href="#DejaVuSans-64" x="650.431641"/>
      <use xlink:href="#DejaVuSans-69" x="713.908203"/>
      <use xlink:href="#DejaVuSans-74" x="741.691406"/>
      <use xlink:href="#DejaVuSans-69" x="780.900391"/>
      <use xlink:href="#DejaVuSans-76" x="808.683594"/>
      <use xlink:href="#DejaVuSans-65" x="867.863281"/>
     </g>
    </g>
   </g>
   <g id="matplotlib.axis_2">
    <g id="ytick_1">
     <g id="line2d_7">
      <defs>
       <path id="mcec109c1f9" d="M 0 0 
L -3.5 0 
" style="stroke: #000000; stroke-width: 0.8"/>
      </defs>
      <g>
       <use xlink:href="#mcec109c1f9" x="54" y="252" style="stroke: #000000; stroke-width: 0.8"/>
      </g>
     </g>
     <g id="text_8">
      <!-- 400 -->
      <g transform="translate(27.9125 255.799219)scale(0.1 -0.1)">
       <use xlink:href="#DejaVuSans-34"/>
       <use xlink:href="#DejaVuSans-30" x="63.623047"/>
       <use xlink:href="#DejaVuSans-30" x="127.246094"/>
      </g>
     </g>
    </g>
    <g id="ytick_2">
     <g id="line2d_8">
      <g>
       <use xlink:href="#mcec109c1f9" x="54" y="215.76" style="stroke: #000000; stroke-width: 0.8"/>
      </g>
     </g>
     <g id="text_9">
      <!-- 450 -->
      <g transform="translate(27.9125 219.559219)scale(0.1 -0.1)">
       <defs>
        <path id="DejaVuSans-35" d="M 691 4666 
L 3169 4666 
L 3169 4134 
L 1269 4134 
L 1269 2991 
Q 1406 3038 1543 3061 
Q 1681 3084 1819 3084 
Q 2600 3084 3056 2656 
Q 3513 2228 3513 1497 
Q 3513 744 3044 326 
Q 2575 -91 1722 -91 
Q 1428 -91 1123 -41 
Q 819 9 494 109 
L 494 744 
Q 775 591 1075 516 
Q 1375 441 1709 441 
Q 2250 441 2565 725 
Q 2881 1009 2881 1497 
Q 2881 1984 2565 2268 
Q 2250 2553 1709 2553 
Q 1456 2553 1204 2497 
Q 953 2441 691 2322 
L 691 4666 
z
" transform="scale(0.015625)"/>
       </defs>
       <use xlink:href="#DejaVuSans-34"/>
       <use xlink:href="#DejaVuSans-35" x="63.623047"/>
       <use xlink:href="#DejaVuSans-30" x="127.246094"/>
      </g>
     </g>
    </g>
    <g id="ytick_3">
     <g id="line2d_9">
      <g>
       <use xlink:href="#mcec109c1f9" x="54" y="179.52" style="stroke: #000000; stroke-width: 0.8"/>
      </g>
     </g>
     <g id="text_10">
      <!-- 500 -->
      <g transform="translate(27.9125 183.319219)scale(0.1 -0.1)">
       <use xlink:href="#DejaVuSans-35"/>
       <use xlink:href="#DejaVuSans-30" x="63.623047"/>
       <use xlink:href="#DejaVuSans-30" x="127.246094"/>
      </g>
     </g>
    </g>
    <g id="ytick_4">
     <g id="line2d_10">
      <g>
       <use xlink:href="#mcec109c1f9" x="54" y="143.28" style="stroke: #000000; stroke-width: 0.8"/>
      </g>
     </g>
     <g id="text_11">
      <!-- 550 -->
      <g transform="translate(27.9125 147.079219)scale(0.1 -0.1)">
       <use xlink:href="#DejaVuSans-35"/>
       <use xlink:href="#DejaVuSans-35" x="63.623047"/>
       <use xlink:href="#DejaVuSans-30" x="127.246094"/>
      </g>
     </g>
    </g>
    <g id="ytick_5">
     <g id="line2d_11">
      <g>
       <use xlink:href="#mcec109c1f9" x="54" y="107.04" style="stroke: #000000; stroke-width: 0.8"/>
      </g>
     </g>
     <g id="text_12">
      <!-- 600 -->
      <g transform="translate(27.9125 110.839219)scale(0.1 -0.1)">
       <use xlink:href="#DejaVuSans-36"/>
       <use xlink:href="#DejaVuSans-30" x="63.623047"/>
       <use xlink:href="#DejaVuSans-30" x="127.246094"/>
      </g>
     </g>
    </g>
    <g id="ytick_6">
     <g id="line2d_12">
      <g>
       <use xlink:href="#mcec109c1f9" x="54" y="70.8" style="stroke: #000000; stroke-width: 0.8"/>
      </g>
     </g>
     <g id="text_13">
      <!-- 650 -->
      <g transform="translate(27.9125 74.599219)scale(0.1 -0.1)">
       <use xlink:href="#DejaVuSans-36"/>
       <use xlink:href="#DejaVuSans-35" x="63.623047"/>
       <use xlink:href="#DejaVuSans-30" x="127.246094"/>
      </g>
     </g>
    </g>
    <g id="ytick_7">
     <g id="line2d_13">
      <g>
       <use xlink:href="#mcec109c1f9" x="54" y="34.56" style="stroke: #000000; stroke-width: 0.8"/>
      </g>
     </g>
     <g id="text_14">
      <!-- 700 -->
      <g transform="translate(27.9125 38.359219)scale(0.1 -0.1)">
       <defs>
        <path id="DejaVuSans-37" d="M 525 4666 
L 3525 4666 
L 3525 4397 
L 1831 0 
L 1172 0 
L 2766 4134 
L 525 4134 
L 525 4666 
z
" transform="scale(0.015625)"/>
       </defs>
       <use xlink:href="#DejaVuSans-37"/>
       <use xlink:href="#DejaVuSans-30" x="63.623047"/>
       <use xlink:href="#DejaVuSans-30" x="127.246094"/>
      </g>
     </g>
    </g>
    <g id="text_15">
     <!-- Toughness (J/m2) -->
     <g style="fill: #ff0000" transform="translate(21.832812 186.21125)rotate(-90)scale(0.1 -0.1)">
      <defs>
       <path id="DejaVuSans-54" d="M -19 4666 
L 3928 4666 
L 3928 4134 
L 2272 4134 
L 2272 0 
L 1638 0 
L 1638 4134 
L -19 4134 
L -19 4666 
z
" transform="scale(0.015625)"/>
       <path id="DejaVuSans-75" d="M 544 1381 
L 544 3500 
L 1119 3500 
L 1119 1403 
Q 1119 906 1312 657 
Q 1506 409 1894 409 
Q 2359 409 2629 706 
Q 2900 1003 2900 1516 
L 2900 3500 
L 3475 3500 
L 3475 0 
L 2900 0 
L 2900 538 
Q 2691 219 2414 64 
Q 2138 -91 1772 -91 
Q 1169 -91 856 284 
Q 544 659 544 1381 
z
M 1991 3584 
L 1991 3584 
z
" transform="scale(0.015625)"/>
       <path id="DejaVuSans-67" d="M 2906 1791 
Q 2906 2416 2648 2759 
Q 2391 3103 1925 3103 
Q 1463 3103 1205 2759 
Q 947 2416 947 1791 
Q 947 1169 1205 825 
Q 1463 481 1925 481 
Q 2391 481 2648 825 
Q 2906 1169 2906 1791 
z
M 3481 434 
Q 3481 -459 3084 -895 
Q 2688 -1331 1869 -1331 
Q 1566 -1331 1297 -1286 
Q 1028 -1241 775 -1147 
L 775 -588 
Q 1028 -725 1275 -790 
Q 1522 -856 1778 -856 
Q 2344 -856 2625 -561 
Q 2906 -266 2906 331 
L 2906 616 
Q 2728 306 2450 153 
Q 2172 0 1784 0 
Q 1141 0 747 490 
Q 353 981 353 1791 
Q 353 2603 747 3093 
Q 1141 3584 1784 3584 
Q 2172 3584 2450 3431 
Q 2728 3278 2906 2969 
L 2906 3500 
L 3481 3500 
L 3481 434 
z
" transform="scale(0.015625)"/>
       <path id="DejaVuSans-68" d="M 3513 2113 
L 3513 0 
L 2938 0 
L 2938 2094 
Q 2938 2591 2744 2837 
Q 2550 3084 2163 3084 
Q 1697 3084 1428 2787 
Q 1159 2491 1159 1978 
L 1159 0 
L 581 0 
L 581 4863 
L 1159 4863 
L 1159 2956 
Q 1366 3272 1645 3428 
Q 1925 3584 2291 3584 
Q 2894 3584 3203 3211 
Q 3513 2838 3513 2113 
z
" transform="scale(0.015625)"/>
       <path id="DejaVuSans-6e" d="M 3513 2113 
L 3513 0 
L 2938 0 
L 2938 2094 
Q 2938 2591 2744 2837 
Q 2550 3084 2163 3084 
Q 1697 3084 1428 2787 
Q 1159 2491 1159 1978 
L 1159 0 
L 581 0 
L 581 3500 
L 1159 3500 
L 1159 2956 
Q 1366 3272 1645 3428 
Q 1925 3584 2291 3584 
Q 2894 3584 3203 3211 
Q 3513 2838 3513 2113 
z
" transform="scale(0.015625)"/>
       <path id="DejaVuSans-73" d="M 2834 3397 
L 2834 2853 
Q 2591 2978 2328 3040 
Q 2066 3103 1784 3103 
Q 1356 3103 1142 2972 
Q 928 2841 928 2578 
Q 928 2378 1081 2264 
Q 1234 2150 1697 2047 
L 1894 2003 
Q 2506 1872 2764 1633 
Q 3022 1394 3022 966 
Q 3022 478 2636 193 
Q 2250 -91 1575 -91 
Q 1294 -91 989 -36 
Q 684 19 347 128 
L 347 722 
Q 666 556 975 473 
Q 1284 391 1588 391 
Q 1994 391 2212 530 
Q 2431 669 2431 922 
Q 2431 1156 2273 1281 
Q 2116 1406 1581 1522 
L 1381 1569 
Q 847 1681 609 1914 
Q 372 2147 372 2553 
Q 372 3047 722 3315 
Q 1072 3584 1716 3584 
Q 2034 3584 2315 3537 
Q 2597 3491 2834 3397 
z
" transform="scale(0.015625)"/>
       <path id="DejaVuSans-28" d="M 1984 4856 
Q 1566 4138 1362 3434 
Q 1159 2731 1159 2009 
Q 1159 1288 1364 580 
Q 1569 -128 1984 -844 
L 1484 -844 
Q 1016 -109 783 600 
Q 550 1309 550 2009 
Q 550 2706 781 3412 
Q 1013 4119 1484 4856 
L 1984 4856 
z
" transform="scale(0.015625)"/>
       <path id="DejaVuSans-4a" d="M 628 4666 
L 1259 4666 
L 1259 325 
Q 1259 -519 939 -900 
Q 619 -1281 -91 -1281 
L -331 -1281 
L -331 -750 
L -134 -750 
Q 284 -750 456 -515 
Q 628 -281 628 325 
L 628 4666 
z
" transform="scale(0.015625)"/>
       <path id="DejaVuSans-2f" d="M 1625 4666 
L 2156 4666 
L 531 -594 
L 0 -594 
L 1625 4666 
z
" transform="scale(0.015625)"/>
       <path id="DejaVuSans-6d" d="M 3328 2828 
Q 3544 3216 3844 3400 
Q 4144 3584 4550 3584 
Q 5097 3584 5394 3201 
Q 5691 2819 5691 2113 
L 5691 0 
L 5113 0 
L 5113 2094 
Q 5113 2597 4934 2840 
Q 4756 3084 4391 3084 
Q 3944 3084 3684 2787 
Q 3425 2491 3425 1978 
L 3425 0 
L 2847 0 
L 2847 2094 
Q 2847 2600 2669 2842 
Q 2491 3084 2119 3084 
Q 1678 3084 1418 2786 
Q 1159 2488 1159 1978 
L 1159 0 
L 581 0 
L 581 3500 
L 1159 3500 
L 1159 2956 
Q 1356 3278 1631 3431 
Q 1906 3584 2284 3584 
Q 2666 3584 2933 3390 
Q 3200 3197 3328 2828 
z
" transform="scale(0.015625)"/>
       <path id="DejaVuSans-29" d="M 513 4856 
L 1013 4856 
Q 1481 4119 1714 3412 
Q 1947 2706 1947 2009 
Q 1947 1309 1714 600 
Q 1481 -109 1013 -844 
L 513 -844 
Q 928 -128 1133 580 
Q 1338 1288 1338 2009 
Q 1338 2731 1133 3434 
Q 928 4138 513 4856 
z
" transform="scale(0.015625)"/>
      </defs>
      <use xlink:href="#DejaVuSans-54"/>
      <use xlink:href="#DejaVuSans-6f" x="44.083984"/>
      <use xlink:href="#DejaVuSans-75" x="105.265625"/>
      <use xlink:href="#DejaVuSans-67" x="168.644531"/>
      <use xlink:href="#DejaVuSans-68" x="232.121094"/>
      <use xlink:href="#DejaVuSans-6e" x="295.5"/>
      <use xlink:href="#DejaVuSans-65" x="358.878906"/>
      <use xlink:href="#DejaVuSans-73" x="420.402344"/>
      <use xlink:href="#DejaVuSans-73" x="472.501953"/>
      <use xlink:href="#DejaVuSans-20" x="524.601562"/>
      <use xlink:href="#DejaVuSans-28" x="556.388672"/>
      <use xlink:href="#DejaVuSans-4a" x="595.402344"/>
      <use xlink:href="#DejaVuSans-2f" x="624.894531"/>
      <use xlink:href="#DejaVuSans-6d" x="658.585938"/>
      <use xlink:href="#DejaVuSans-32" x="755.998047"/>
      <use xlink:href="#DejaVuSans-29" x="819.621094"/>
     </g>
    </g>
   </g>
   <g id="line2d_14">
    <path d="M 373.581818 104.61417 
L 370.507438 104.61417 
L 367.433058 104.61417 
L 364.358678 104.61417 
L 361.284298 104.61417 
L 358.209917 104.61417 
L 355.135537 104.61417 
L 352.061157 104.61417 
L 348.986777 104.61417 
L 345.912397 104.61417 
L 342.838017 104.61417 
L 339.763636 104.61417 
L 336.689256 104.61417 
L 333.614876 104.61417 
L 330.540496 104.61417 
L 327.466116 104.61417 
L 324.391736 104.61417 
L 321.317355 104.61417 
L 318.242975 104.61417 
L 315.168595 104.61417 
L 312.094215 104.61417 
L 309.019835 104.61417 
L 305.945455 104.61417 
L 302.871074 104.61417 
L 299.796694 104.61417 
L 296.722314 104.614168 
L 293.647934 104.614163 
L 290.573554 104.614149 
L 287.499174 104.614112 
L 284.424793 104.614017 
L 281.350413 104.613782 
L 278.276033 104.613223 
L 275.201653 104.611942 
L 272.127273 104.609112 
L 269.052893 104.603099 
L 265.978512 104.590792 
L 262.904132 104.566547 
L 259.829752 104.520564 
L 256.755372 104.436617 
L 253.680992 104.289111 
L 250.606612 104.039657 
L 247.532231 103.633676 
L 244.457851 102.997884 
L 241.383471 102.039866 
L 238.309091 100.651124 
L 235.234711 98.7148 
L 232.160331 96.118658 
L 229.08595 92.772826 
L 226.01157 88.630469 
L 222.93719 83.708246 
L 219.86281 78.10262 
L 216.78843 71.998103 
L 213.71405 65.664429 
L 210.639669 59.441407 
L 207.565289 53.712194 
L 204.490909 48.867684 
L 201.416529 45.266094 
L 198.342149 43.192592 
L 195.267769 42.823993 
L 192.193388 44.203238 
L 189.119008 47.227695 
L 186.044628 51.65408 
L 182.970248 57.12109 
L 179.895868 63.188419 
L 176.821488 69.388242 
L 173.747107 75.282769 
L 170.672727 80.519866 
L 167.598347 84.8784 
L 164.523967 88.296208 
L 161.449587 90.876104 
L 158.375207 92.868811 
L 155.300826 94.635277 
L 152.226446 96.593874 
L 149.152066 99.159894 
L 146.077686 102.685302 
L 143.003306 107.406023 
L 139.928926 113.402548 
L 136.854545 120.577976 
L 133.780165 128.656047 
L 130.705785 137.200376 
L 127.631405 145.65461 
L 124.557025 153.401118 
L 121.482645 159.832896 
L 118.408264 164.430028 
L 115.333884 166.829303 
L 112.259504 166.874741 
L 109.185124 164.638819 
L 106.110744 160.409275 
L 103.036364 154.643359 
L 99.961983 147.898472 
L 96.887603 140.753079 
L 93.813223 133.733149 
L 90.738843 127.256854 
L 87.664463 121.604804 
L 84.590083 116.916637 
L 81.515702 113.209111 
L 78.441322 110.407492 
L 75.366942 108.381324 
L 72.292562 106.977196 
L 69.218182 106.043933 
" clip-path="url(#pdba83c8ba5)" style="fill: none; stroke: #ff0000; stroke-width: 0.5; stroke-linecap: square"/>
   </g>
   <g id="line2d_15">
    <path d="M 166.614545 252 
L 166.614545 34.56 
" clip-path="url(#pdba83c8ba5)" style="fill: none; stroke-dasharray: 5.55,2.4; stroke-dashoffset: 0; stroke: #808080; stroke-opacity: 0.7; stroke-width: 1.5"/>
   </g>
   <g id="patch_3">
    <path d="M 54 252 
L 54 34.56 
" style="fill: none; stroke: #000000; stroke-width: 0.8; stroke-linejoin: miter; stroke-linecap: square"/>
   </g>
   <g id="patch_4">
    <path d="M 388.8 252 
L 388.8 34.56 
" style="fill: none; stroke: #000000; stroke-width: 0.8; stroke-linejoin: miter; stroke-linecap: square"/>
   </g>
   <g id="patch_5">
    <path d="M 54 252 
L 388.8 252 
" style="fill: none; stroke: #000000; stroke-width: 0.8; stroke-linejoin: miter; stroke-linecap: square"/>
   </g>
   <g id="patch_6">
    <path d="M 54 34.56 
L 388.8 34.56 
" style="fill: none; stroke: #000000; stroke-width: 0.8; stroke-linejoin: miter; stroke-linecap: square"/>
   </g>
  </g>
  <g id="axes_2">
   <g id="PolyCollection_3">
    <defs>
     <path id="mb75724803d" d="M 373.581818 -169.29239 
L 373.581818 -89.579615 
L 370.507438 -89.579669 
L 367.433058 -89.579758 
L 364.358678 -89.579901 
L 361.284298 -89.580127 
L 358.209917 -89.580482 
L 355.135537 -89.581032 
L 352.061157 -89.581873 
L 348.986777 -89.583142 
L 345.912397 -89.585037 
L 342.838017 -89.58783 
L 339.763636 -89.591897 
L 336.689256 -89.597747 
L 333.614876 -89.606061 
L 330.540496 -89.617732 
L 327.466116 -89.633918 
L 324.391736 -89.656095 
L 321.317355 -89.68611 
L 318.242975 -89.726244 
L 315.168595 -89.779259 
L 312.094215 -89.848443 
L 309.019835 -89.937637 
L 305.945455 -90.051234 
L 302.871074 -90.19415 
L 299.796694 -90.371735 
L 296.722314 -90.589634 
L 293.647934 -90.853556 
L 290.573554 -91.16895 
L 287.499174 -91.54056 
L 284.424793 -91.971848 
L 281.350413 -92.464282 
L 278.276033 -93.016497 
L 275.201653 -93.623372 
L 272.127273 -94.275074 
L 269.052893 -94.956166 
L 265.978512 -95.644905 
L 262.904132 -96.312856 
L 259.829752 -96.924979 
L 256.755372 -97.440335 
L 253.680992 -97.813506 
L 250.606612 -97.996813 
L 247.532231 -97.94334 
L 244.457851 -97.610689 
L 241.383471 -96.965336 
L 238.309091 -95.987329 
L 235.234711 -94.67498 
L 232.160331 -93.049053 
L 229.08595 -91.155783 
L 226.01157 -89.067941 
L 222.93719 -86.883148 
L 219.86281 -84.718939 
L 216.78843 -82.704693 
L 213.71405 -80.971411 
L 210.639669 -79.641104 
L 207.565289 -78.817914 
L 204.490909 -78.582866 
L 201.416529 -78.993105 
L 198.342149 -80.084845 
L 195.267769 -81.877528 
L 192.193388 -84.3763 
L 189.119008 -87.571402 
L 186.044628 -91.43542 
L 182.970248 -95.920575 
L 179.895868 -100.957751 
L 176.821488 -106.457809 
L 173.747107 -112.314805 
L 170.672727 -118.410508 
L 167.598347 -124.619643 
L 164.523967 -130.81555 
L 161.449587 -136.876078 
L 158.375207 -142.689466 
L 155.300826 -148.159632 
L 152.226446 -153.209848 
L 149.152066 -157.783576 
L 146.077686 -161.841714 
L 143.003306 -165.356693 
L 139.928926 -168.3051 
L 136.854545 -170.661134 
L 133.780165 -172.392993 
L 130.705785 -173.46342 
L 127.631405 -173.834526 
L 124.557025 -173.475709 
L 121.482645 -172.372401 
L 118.408264 -170.533007 
L 115.333884 -167.992163 
L 112.259504 -164.809895 
L 109.185124 -161.06762 
L 106.110744 -156.86245 
L 103.036364 -152.301041 
L 99.961983 -147.493771 
L 96.887603 -142.549617 
L 93.813223 -137.571872 
L 90.738843 -132.654728 
L 87.664463 -127.880757 
L 84.590083 -123.319231 
L 81.515702 -119.025281 
L 78.441322 -115.039789 
L 75.366942 -111.389922 
L 72.292562 -108.09019 
L 69.218182 -105.143879 
L 69.218182 -181.719084 
L 69.218182 -181.719084 
L 72.292562 -183.848959 
L 75.366942 -186.153212 
L 78.441322 -188.60303 
L 81.515702 -191.160108 
L 84.590083 -193.777389 
L 87.664463 -196.400507 
L 90.738843 -198.969914 
L 93.813223 -201.423573 
L 96.887603 -203.700065 
L 99.961983 -205.741813 
L 103.036364 -207.498129 
L 106.110744 -208.927664 
L 109.185124 -209.999859 
L 112.259504 -210.694989 
L 115.333884 -211.00253 
L 118.408264 -210.917916 
L 121.482645 -210.43823 
L 124.557025 -209.558064 
L 127.631405 -208.267123 
L 130.705785 -206.550777 
L 133.780165 -204.393612 
L 136.854545 -201.784598 
L 139.928926 -198.721797 
L 143.003306 -195.214859 
L 146.077686 -191.284526 
L 149.152066 -186.959479 
L 152.226446 -182.271797 
L 155.300826 -177.25288 
L 158.375207 -171.931732 
L 161.449587 -166.336649 
L 164.523967 -160.500026 
L 167.598347 -154.464784 
L 170.672727 -148.29051 
L 173.747107 -142.057748 
L 176.821488 -135.869597 
L 179.895868 -129.850345 
L 182.970248 -124.141293 
L 186.044628 -118.894014 
L 189.119008 -114.261342 
L 192.193388 -110.386444 
L 195.267769 -107.390639 
L 198.342149 -105.361501 
L 201.416529 -104.343755 
L 204.490909 -104.335758 
L 207.565289 -105.292753 
L 210.639669 -107.135505 
L 213.71405 -109.761012 
L 216.78843 -113.052206 
L 219.86281 -116.885 
L 222.93719 -121.132613 
L 226.01157 -125.668065 
L 229.08595 -130.366081 
L 232.160331 -135.105386 
L 235.234711 -139.771811 
L 238.309091 -144.261999 
L 241.383471 -148.487117 
L 244.457851 -152.375896 
L 247.532231 -155.876556 
L 250.606612 -158.957367 
L 253.680992 -161.60592 
L 256.755372 -163.827278 
L 259.829752 -165.641303 
L 262.904132 -167.079473 
L 265.978512 -168.181502 
L 269.052893 -168.99201 
L 272.127273 -169.557483 
L 275.201653 -169.923663 
L 278.276033 -170.133483 
L 281.350413 -170.225569 
L 284.424793 -170.233328 
L 287.499174 -170.184533 
L 290.573554 -170.101358 
L 293.647934 -170.000744 
L 296.722314 -169.894987 
L 299.796694 -169.792462 
L 302.871074 -169.698383 
L 305.945455 -169.615541 
L 309.019835 -169.544964 
L 312.094215 -169.486482 
L 315.168595 -169.439175 
L 318.242975 -169.401722 
L 321.317355 -169.372643 
L 324.391736 -169.35047 
L 327.466116 -169.333847 
L 330.540496 -169.321583 
L 333.614876 -169.312672 
L 336.689256 -169.306294 
L 339.763636 -169.301793 
L 342.838017 -169.298662 
L 345.912397 -169.296513 
L 348.986777 -169.295059 
L 352.061157 -169.294088 
L 355.135537 -169.293448 
L 358.209917 -169.293033 
L 361.284298 -169.292767 
L 364.358678 -169.292598 
L 367.433058 -169.292493 
L 370.507438 -169.292429 
L 373.581818 -169.29239 
z
" style="stroke: #0000ff; stroke-opacity: 0.5"/>
    </defs>
    <g clip-path="url(#pdba83c8ba5)">
     <use xlink:href="#mb75724803d" x="0" y="288" style="fill: #0000ff; fill-opacity: 0.5; stroke: #0000ff; stroke-opacity: 0.5"/>
    </g>
   </g>
   <g id="PolyCollection_4">
    <defs>
     <path id="m05bac70a74" d="M 373.581818 -209.148778 
L 373.581818 -49.723227 
L 370.507438 -49.723289 
L 367.433058 -49.72339 
L 364.358678 -49.723552 
L 361.284298 -49.723808 
L 358.209917 -49.724207 
L 355.135537 -49.724824 
L 352.061157 -49.725765 
L 348.986777 -49.727184 
L 345.912397 -49.729299 
L 342.838017 -49.732414 
L 339.763636 -49.736948 
L 336.689256 -49.743473 
L 333.614876 -49.752755 
L 330.540496 -49.765806 
L 327.466116 -49.783954 
L 324.391736 -49.808907 
L 321.317355 -49.842843 
L 318.242975 -49.888505 
L 315.168595 -49.9493 
L 312.094215 -50.029423 
L 309.019835 -50.133973 
L 305.945455 -50.269081 
L 302.871074 -50.442034 
L 299.796694 -50.661372 
L 296.722314 -50.936957 
L 293.647934 -51.279962 
L 290.573554 -51.702746 
L 287.499174 -52.218574 
L 284.424793 -52.841109 
L 281.350413 -53.583638 
L 278.276033 -54.458004 
L 275.201653 -55.473226 
L 272.127273 -56.633869 
L 269.052893 -57.938244 
L 265.978512 -59.376607 
L 262.904132 -60.929547 
L 259.829752 -62.566817 
L 256.755372 -64.246864 
L 253.680992 -65.917299 
L 250.606612 -67.516536 
L 247.532231 -68.976732 
L 244.457851 -70.228086 
L 241.383471 -71.204446 
L 238.309091 -71.849994 
L 235.234711 -72.126564 
L 232.160331 -72.020886 
L 229.08595 -71.550634 
L 226.01157 -70.76788 
L 222.93719 -69.758416 
L 219.86281 -68.635908 
L 216.78843 -67.530936 
L 213.71405 -66.576611 
L 210.639669 -65.893904 
L 207.565289 -65.580495 
L 204.490909 -65.70642 
L 201.416529 -66.31778 
L 198.342149 -67.446517 
L 195.267769 -69.120972 
L 192.193388 -71.371228 
L 189.119008 -74.226432 
L 186.044628 -77.706124 
L 182.970248 -81.810215 
L 179.895868 -86.511455 
L 176.821488 -91.751915 
L 173.747107 -97.443334 
L 170.672727 -103.470508 
L 167.598347 -109.697073 
L 164.523967 -115.973311 
L 161.449587 -122.145792 
L 158.375207 -128.068333 
L 155.300826 -133.613008 
L 152.226446 -138.678874 
L 149.152066 -143.195624 
L 146.077686 -147.120307 
L 143.003306 -150.42761 
L 139.928926 -153.096751 
L 136.854545 -155.099402 
L 133.780165 -156.392683 
L 130.705785 -156.919741 
L 127.631405 -156.618228 
L 124.557025 -155.434532 
L 121.482645 -153.339486 
L 118.408264 -150.340552 
L 115.333884 -146.48698 
L 112.259504 -141.867348 
L 109.185124 -136.6015 
L 106.110744 -130.829843 
L 103.036364 -124.702497 
L 99.961983 -118.369749 
L 96.887603 -111.974393 
L 93.813223 -105.646021 
L 90.738843 -99.497136 
L 87.664463 -93.620881 
L 84.590083 -88.090152 
L 81.515702 -82.957868 
L 78.441322 -78.258169 
L 75.366942 -74.008277 
L 72.292562 -70.210805 
L 69.218182 -66.856276 
L 69.218182 -220.006687 
L 69.218182 -220.006687 
L 72.292562 -221.728344 
L 75.366942 -223.534857 
L 78.441322 -225.384651 
L 81.515702 -227.227522 
L 84.590083 -229.006468 
L 87.664463 -230.660383 
L 90.738843 -232.127506 
L 93.813223 -233.349424 
L 96.887603 -234.275289 
L 99.961983 -234.865835 
L 103.036364 -235.096673 
L 106.110744 -234.960271 
L 109.185124 -234.465979 
L 112.259504 -233.637535 
L 115.333884 -232.507714 
L 118.408264 -231.110371 
L 121.482645 -229.471144 
L 124.557025 -227.599242 
L 127.631405 -225.483421 
L 130.705785 -223.094456 
L 133.780165 -220.393922 
L 136.854545 -217.34633 
L 139.928926 -213.930145 
L 143.003306 -210.143942 
L 146.077686 -206.005932 
L 149.152066 -201.547431 
L 152.226446 -196.802771 
L 155.300826 -191.799504 
L 158.375207 -186.552866 
L 161.449587 -181.066935 
L 164.523967 -175.342264 
L 167.598347 -169.387355 
L 170.672727 -163.23051 
L 173.747107 -156.92922 
L 176.821488 -150.575491 
L 179.895868 -144.296642 
L 182.970248 -138.251653 
L 186.044628 -132.62331 
L 189.119008 -127.606312 
L 192.193388 -123.391516 
L 195.267769 -120.147195 
L 198.342149 -117.999828 
L 201.416529 -117.019081 
L 204.490909 -117.212204 
L 207.565289 -118.530173 
L 210.639669 -120.882705 
L 213.71405 -124.155812 
L 216.78843 -128.225962 
L 219.86281 -132.968031 
L 222.93719 -138.257345 
L 226.01157 -143.968126 
L 229.08595 -149.97123 
L 232.160331 -156.133552 
L 235.234711 -162.320226 
L 238.309091 -168.399335 
L 241.383471 -174.248007 
L 244.457851 -179.7585 
L 247.532231 -184.843163 
L 250.606612 -189.437643 
L 253.680992 -193.502127 
L 256.755372 -197.02075 
L 259.829752 -199.999464 
L 262.904132 -202.462782 
L 265.978512 -204.4498 
L 269.052893 -206.009932 
L 272.127273 -207.198688 
L 275.201653 -208.073809 
L 278.276033 -208.691976 
L 281.350413 -209.106213 
L 284.424793 -209.364068 
L 287.499174 -209.506519 
L 290.573554 -209.567562 
L 293.647934 -209.574339 
L 296.722314 -209.547664 
L 299.796694 -209.502825 
L 302.871074 -209.450499 
L 305.945455 -209.397694 
L 309.019835 -209.348628 
L 312.094215 -209.305502 
L 315.168595 -209.269134 
L 318.242975 -209.239461 
L 321.317355 -209.215909 
L 324.391736 -209.197658 
L 327.466116 -209.183811 
L 330.540496 -209.173508 
L 333.614876 -209.165978 
L 336.689256 -209.160568 
L 339.763636 -209.156742 
L 342.838017 -209.154078 
L 345.912397 -209.152251 
L 348.986777 -209.151017 
L 352.061157 -209.150196 
L 355.135537 -209.149657 
L 358.209917 -209.149308 
L 361.284298 -209.149086 
L 364.358678 -209.148947 
L 367.433058 -209.148861 
L 370.507438 -209.148809 
L 373.581818 -209.148778 
z
" style="stroke: #0000ff; stroke-opacity: 0.3"/>
    </defs>
    <g clip-path="url(#pdba83c8ba5)">
     <use xlink:href="#m05bac70a74" x="0" y="288" style="fill: #0000ff; fill-opacity: 0.3; stroke: #0000ff; stroke-opacity: 0.3"/>
    </g>
   </g>
   <g id="matplotlib.axis_3">
    <g id="ytick_8">
     <g id="line2d_16">
      <defs>
       <path id="m0d5db3568f" d="M 0 0 
L 3.5 0 
" style="stroke: #000000; stroke-width: 0.8"/>
      </defs>
      <g>
       <use xlink:href="#m0d5db3568f" x="388.8" y="233.88" style="stroke: #000000; stroke-width: 0.8"/>
      </g>
     </g>
     <g id="text_16">
      <!-- 3 -->
      <g transform="translate(395.8 237.679219)scale(0.1 -0.1)">
       <defs>
        <path id="DejaVuSans-33" d="M 2597 2516 
Q 3050 2419 3304 2112 
Q 3559 1806 3559 1356 
Q 3559 666 3084 287 
Q 2609 -91 1734 -91 
Q 1441 -91 1130 -33 
Q 819 25 488 141 
L 488 750 
Q 750 597 1062 519 
Q 1375 441 1716 441 
Q 2309 441 2620 675 
Q 2931 909 2931 1356 
Q 2931 1769 2642 2001 
Q 2353 2234 1838 2234 
L 1294 2234 
L 1294 2753 
L 1863 2753 
Q 2328 2753 2575 2939 
Q 2822 3125 2822 3475 
Q 2822 3834 2567 4026 
Q 2313 4219 1838 4219 
Q 1578 4219 1281 4162 
Q 984 4106 628 3988 
L 628 4550 
Q 988 4650 1302 4700 
Q 1616 4750 1894 4750 
Q 2613 4750 3031 4423 
Q 3450 4097 3450 3541 
Q 3450 3153 3228 2886 
Q 3006 2619 2597 2516 
z
" transform="scale(0.015625)"/>
       </defs>
       <use xlink:href="#DejaVuSans-33"/>
      </g>
     </g>
    </g>
    <g id="ytick_9">
     <g id="line2d_17">
      <g>
       <use xlink:href="#m0d5db3568f" x="388.8" y="197.64" style="stroke: #000000; stroke-width: 0.8"/>
      </g>
     </g>
     <g id="text_17">
      <!-- 4 -->
      <g transform="translate(395.8 201.439219)scale(0.1 -0.1)">
       <use xlink:href="#DejaVuSans-34"/>
      </g>
     </g>
    </g>
    <g id="ytick_10">
     <g id="line2d_18">
      <g>
       <use xlink:href="#m0d5db3568f" x="388.8" y="161.4" style="stroke: #000000; stroke-width: 0.8"/>
      </g>
     </g>
     <g id="text_18">
      <!-- 5 -->
      <g transform="translate(395.8 165.199219)scale(0.1 -0.1)">
       <use xlink:href="#DejaVuSans-35"/>
      </g>
     </g>
    </g>
    <g id="ytick_11">
     <g id="line2d_19">
      <g>
       <use xlink:href="#m0d5db3568f" x="388.8" y="125.16" style="stroke: #000000; stroke-width: 0.8"/>
      </g>
     </g>
     <g id="text_19">
      <!-- 6 -->
      <g transform="translate(395.8 128.959219)scale(0.1 -0.1)">
       <use xlink:href="#DejaVuSans-36"/>
      </g>
     </g>
    </g>
    <g id="ytick_12">
     <g id="line2d_20">
      <g>
       <use xlink:href="#m0d5db3568f" x="388.8" y="88.92" style="stroke: #000000; stroke-width: 0.8"/>
      </g>
     </g>
     <g id="text_20">
      <!-- 7 -->
      <g transform="translate(395.8 92.719219)scale(0.1 -0.1)">
       <use xlink:href="#DejaVuSans-37"/>
      </g>
     </g>
    </g>
    <g id="ytick_13">
     <g id="line2d_21">
      <g>
       <use xlink:href="#m0d5db3568f" x="388.8" y="52.68" style="stroke: #000000; stroke-width: 0.8"/>
      </g>
     </g>
     <g id="text_21">
      <!-- 8 -->
      <g transform="translate(395.8 56.479219)scale(0.1 -0.1)">
       <use xlink:href="#DejaVuSans-38"/>
      </g>
     </g>
    </g>
    <g id="text_22">
     <!-- Modulus (GPa) -->
     <g style="fill: #0000ff" transform="translate(413.760938 179.377656)rotate(-90)scale(0.1 -0.1)">
      <defs>
       <path id="DejaVuSans-4d" d="M 628 4666 
L 1569 4666 
L 2759 1491 
L 3956 4666 
L 4897 4666 
L 4897 0 
L 4281 0 
L 4281 4097 
L 3078 897 
L 2444 897 
L 1241 4097 
L 1241 0 
L 628 0 
L 628 4666 
z
" transform="scale(0.015625)"/>
       <path id="DejaVuSans-6c" d="M 603 4863 
L 1178 4863 
L 1178 0 
L 603 0 
L 603 4863 
z
" transform="scale(0.015625)"/>
       <path id="DejaVuSans-47" d="M 3809 666 
L 3809 1919 
L 2778 1919 
L 2778 2438 
L 4434 2438 
L 4434 434 
Q 4069 175 3628 42 
Q 3188 -91 2688 -91 
Q 1594 -91 976 548 
Q 359 1188 359 2328 
Q 359 3472 976 4111 
Q 1594 4750 2688 4750 
Q 3144 4750 3555 4637 
Q 3966 4525 4313 4306 
L 4313 3634 
Q 3963 3931 3569 4081 
Q 3175 4231 2741 4231 
Q 1884 4231 1454 3753 
Q 1025 3275 1025 2328 
Q 1025 1384 1454 906 
Q 1884 428 2741 428 
Q 3075 428 3337 486 
Q 3600 544 3809 666 
z
" transform="scale(0.015625)"/>
       <path id="DejaVuSans-61" d="M 2194 1759 
Q 1497 1759 1228 1600 
Q 959 1441 959 1056 
Q 959 750 1161 570 
Q 1363 391 1709 391 
Q 2188 391 2477 730 
Q 2766 1069 2766 1631 
L 2766 1759 
L 2194 1759 
z
M 3341 1997 
L 3341 0 
L 2766 0 
L 2766 531 
Q 2569 213 2275 61 
Q 1981 -91 1556 -91 
Q 1019 -91 701 211 
Q 384 513 384 1019 
Q 384 1609 779 1909 
Q 1175 2209 1959 2209 
L 2766 2209 
L 2766 2266 
Q 2766 2663 2505 2880 
Q 2244 3097 1772 3097 
Q 1472 3097 1187 3025 
Q 903 2953 641 2809 
L 641 3341 
Q 956 3463 1253 3523 
Q 1550 3584 1831 3584 
Q 2591 3584 2966 3190 
Q 3341 2797 3341 1997 
z
" transform="scale(0.015625)"/>
      </defs>
      <use xlink:href="#DejaVuSans-4d"/>
      <use xlink:href="#DejaVuSans-6f" x="86.279297"/>
      <use xlink:href="#DejaVuSans-64" x="147.460938"/>
      <use xlink:href="#DejaVuSans-75" x="210.9375"/>
      <use xlink:href="#DejaVuSans-6c" x="274.316406"/>
      <use xlink:href="#DejaVuSans-75" x="302.099609"/>
      <use xlink:href="#DejaVuSans-73" x="365.478516"/>
      <use xlink:href="#DejaVuSans-20" x="417.578125"/>
      <use xlink:href="#DejaVuSans-28" x="449.365234"/>
      <use xlink:href="#DejaVuSans-47" x="488.378906"/>
      <use xlink:href="#DejaVuSans-50" x="565.869141"/>
      <use xlink:href="#DejaVuSans-61" x="621.671875"/>
      <use xlink:href="#DejaVuSans-29" x="682.951172"/>
     </g>
    </g>
   </g>
   <g id="line2d_22">
    <path d="M 373.581818 158.563998 
L 370.507438 158.563951 
L 367.433058 158.563874 
L 364.358678 158.563751 
L 361.284298 158.563553 
L 358.209917 158.563242 
L 355.135537 158.56276 
L 352.061157 158.56202 
L 348.986777 158.560899 
L 345.912397 158.559225 
L 342.838017 158.556754 
L 339.763636 158.553155 
L 336.689256 158.54798 
L 333.614876 158.540633 
L 330.540496 158.530343 
L 327.466116 158.516117 
L 324.391736 158.496718 
L 321.317355 158.470624 
L 318.242975 158.436017 
L 315.168595 158.390783 
L 312.094215 158.332538 
L 309.019835 158.2587 
L 305.945455 158.166612 
L 302.871074 158.053734 
L 299.796694 157.917901 
L 296.722314 157.757689 
L 293.647934 157.57285 
L 290.573554 157.364846 
L 287.499174 157.137454 
L 284.424793 156.897412 
L 281.350413 156.655074 
L 278.276033 156.42501 
L 275.201653 156.226482 
L 272.127273 156.083722 
L 269.052893 156.025912 
L 265.978512 156.086796 
L 262.904132 156.303836 
L 259.829752 156.716859 
L 256.755372 157.366193 
L 253.680992 158.290287 
L 250.606612 159.52291 
L 247.532231 161.090052 
L 244.457851 163.006707 
L 241.383471 165.273773 
L 238.309091 167.875336 
L 235.234711 170.776605 
L 232.160331 173.922781 
L 229.08595 177.239068 
L 226.01157 180.631997 
L 222.93719 183.99212 
L 219.86281 187.198031 
L 216.78843 190.121551 
L 213.71405 192.633788 
L 210.639669 194.611695 
L 207.565289 195.944666 
L 204.490909 196.540688 
L 201.416529 196.33157 
L 198.342149 195.276827 
L 195.267769 193.365917 
L 192.193388 190.618628 
L 189.119008 187.083628 
L 186.044628 182.835283 
L 182.970248 177.969066 
L 179.895868 172.595952 
L 176.821488 166.836297 
L 173.747107 160.813723 
L 170.672727 154.649491 
L 167.598347 148.457786 
L 164.523967 142.342212 
L 161.449587 136.393636 
L 158.375207 130.689401 
L 155.300826 125.293744 
L 152.226446 120.259177 
L 149.152066 115.628472 
L 146.077686 111.43688 
L 143.003306 107.714224 
L 139.928926 104.486552 
L 136.854545 101.777134 
L 133.780165 99.606697 
L 130.705785 97.992902 
L 127.631405 96.949176 
L 124.557025 96.483113 
L 121.482645 96.594685 
L 118.408264 97.274538 
L 115.333884 98.502653 
L 112.259504 100.247558 
L 109.185124 102.46626 
L 106.110744 105.104943 
L 103.036364 108.100415 
L 99.961983 111.382208 
L 96.887603 114.875159 
L 93.813223 118.502277 
L 90.738843 122.187679 
L 87.664463 125.859368 
L 84.590083 129.45169 
L 81.515702 132.907305 
L 78.441322 136.17859 
L 75.366942 139.228433 
L 72.292562 142.030426 
L 69.218182 144.568519 
" clip-path="url(#pdba83c8ba5)" style="fill: none; stroke: #0000ff; stroke-width: 0.5; stroke-linecap: square"/>
   </g>
   <g id="patch_7">
    <path d="M 54 252 
L 54 34.56 
" style="fill: none; stroke: #000000; stroke-width: 0.8; stroke-linejoin: miter; stroke-linecap: square"/>
   </g>
   <g id="patch_8">
    <path d="M 388.8 252 
L 388.8 34.56 
" style="fill: none; stroke: #000000; stroke-width: 0.8; stroke-linejoin: miter; stroke-linecap: square"/>
   </g>
   <g id="patch_9">
    <path d="M 54 252 
L 388.8 252 
" style="fill: none; stroke: #000000; stroke-width: 0.8; stroke-linejoin: miter; stroke-linecap: square"/>
   </g>
   <g id="patch_10">
    <path d="M 54 34.56 
L 388.8 34.56 
" style="fill: none; stroke: #000000; stroke-width: 0.8; stroke-linejoin: miter; stroke-linecap: square"/>
   </g>
  </g>
 </g>
 <defs>
  <clipPath id="pdba83c8ba5">
   <rect x="54" y="34.56" width="334.8" height="217.44"/>
  </clipPath>
 </defs>
</svg>
