<?xml version="1.0" encoding="utf-8" standalone="no"?>
<!DOCTYPE svg PUBLIC "-//W3C//DTD SVG 1.1//EN"
  "http://www.w3.org/Graphics/SVG/1.1/DTD/svg11.dtd">
<svg xmlns:xlink="http://www.w3.org/1999/xlink" width="432pt" height="288pt" viewBox="0 0 432 288" xmlns="http://www.w3.org/2000/svg" version="1.1">
 <metadata>
  <rdf:RDF xmlns:dc="http://purl.org/dc/elements/1.1/" xmlns:cc="http://creativecommons.org/ns#" xmlns:rdf="http://www.w3.org/1999/02/22-rdf-syntax-ns#">
   <cc:Work>
    <dc:type rdf:resource="http://purl.org/dc/dcmitype/StillImage"/>
    <dc:date>2023-05-11T13:48:33.093768</dc:date>
    <dc:format>image/svg+xml</dc:format>
    <dc:creator>
     <cc:Agent>
      <dc:title>Matplotlib v3.5.1, https://matplotlib.org/</dc:title>
     </cc:Agent>
    </dc:creator>
   </cc:Work>
  </rdf:RDF>
 </metadata>
 <defs>
  <style type="text/css">*{stroke-linejoin: round; stroke-linecap: butt}</style>
 </defs>
 <g id="figure_1">
  <g id="patch_1">
   <path d="M 0 288 
L 432 288 
L 432 0 
L 0 0 
L 0 288 
z
" style="fill: none"/>
  </g>
  <g id="axes_1">
   <g id="patch_2">
    <path d="M 54 252 
L 388.8 252 
L 388.8 34.56 
L 54 34.56 
z
" style="fill: #ffffff"/>
   </g>
   <g id="PolyCollection_1">
    <defs>
     <path id="mc83b41150b" d="M 373.581818 -181.886521 
L 373.581818 -180.331869 
L 370.507438 -179.859484 
L 367.433058 -179.304347 
L 364.358678 -178.655389 
L 361.284298 -177.900764 
L 358.209917 -177.027944 
L 355.135537 -176.023835 
L 352.061157 -174.874941 
L 348.986777 -173.567569 
L 345.912397 -172.088063 
L 342.838017 -170.423094 
L 339.763636 -168.559981 
L 336.689256 -166.487047 
L 333.614876 -164.194012 
L 330.540496 -161.672404 
L 327.466116 -158.915996 
L 324.391736 -155.921233 
L 321.317355 -152.687667 
L 318.242975 -149.218363 
L 315.168595 -145.52027 
L 312.094215 -141.604545 
L 309.019835 -137.48681 
L 305.945455 -133.18732 
L 302.871074 -128.731051 
L 299.796694 -124.147666 
L 296.722314 -119.471372 
L 293.647934 -114.74065 
L 290.573554 -109.99786 
L 287.499174 -105.288719 
L 284.424793 -100.661657 
L 281.350413 -96.167063 
L 278.276033 -91.856435 
L 275.201653 -87.781446 
L 272.127273 -83.992964 
L 269.052893 -80.540037 
L 265.978512 -77.468884 
L 262.904132 -74.821922 
L 259.829752 -72.636859 
L 256.755372 -70.945903 
L 253.680992 -69.775087 
L 250.606612 -69.143738 
L 247.532231 -69.064074 
L 244.457851 -69.540926 
L 241.383471 -70.571575 
L 238.309091 -72.14573 
L 235.234711 -74.245677 
L 232.160331 -76.846612 
L 229.08595 -79.917165 
L 226.01157 -83.420097 
L 222.93719 -87.31313 
L 219.86281 -91.549883 
L 216.78843 -96.080884 
L 213.71405 -100.85461 
L 210.639669 -105.818544 
L 207.565289 -110.920203 
L 204.490909 -116.108119 
L 201.416529 -121.332745 
L 198.342149 -126.547272 
L 195.267769 -131.708313 
L 192.193388 -136.776463 
L 189.119008 -141.716699 
L 186.044628 -146.49863 
L 182.970248 -151.096594 
L 179.895868 -155.48963 
L 176.821488 -159.66133 
L 173.747107 -163.599607 
L 170.672727 -167.296391 
L 167.598347 -170.747281 
L 164.523967 -173.951158 
L 161.449587 -176.909794 
L 158.375207 -179.627452 
L 155.300826 -182.110505 
L 152.226446 -184.367075 
L 149.152066 -186.406711 
L 146.077686 -188.240094 
L 143.003306 -189.878794 
L 139.928926 -191.335061 
L 136.854545 -192.621662 
L 133.780165 -193.751749 
L 130.705785 -194.738757 
L 127.631405 -195.596331 
L 124.557025 -196.338254 
L 121.482645 -196.978391 
L 118.408264 -197.530616 
L 115.333884 -198.008736 
L 112.259504 -198.426396 
L 109.185124 -198.796959 
L 106.110744 -199.133389 
L 103.036364 -199.44811 
L 99.961983 -199.752865 
L 96.887603 -200.058579 
L 93.813223 -200.375225 
L 90.738843 -200.711694 
L 87.664463 -201.075683 
L 84.590083 -201.473596 
L 81.515702 -201.910468 
L 78.441322 -202.389906 
L 75.366942 -202.91406 
L 72.292562 -203.483616 
L 69.218182 -204.097826 
L 69.218182 -205.072842 
L 69.218182 -205.072842 
L 72.292562 -204.436596 
L 75.366942 -203.844835 
L 78.441322 -203.298426 
L 81.515702 -202.796811 
L 84.590083 -202.33799 
L 87.664463 -201.918525 
L 90.738843 -201.533572 
L 93.813223 -201.176943 
L 96.887603 -200.841188 
L 99.961983 -200.517696 
L 103.036364 -200.196814 
L 106.110744 -199.867959 
L 109.185124 -199.519745 
L 112.259504 -199.140095 
L 115.333884 -198.716348 
L 118.408264 -198.235351 
L 121.482645 -197.68355 
L 124.557025 -197.047064 
L 127.631405 -196.311765 
L 130.705785 -195.463362 
L 133.780165 -194.487483 
L 136.854545 -193.369775 
L 139.928926 -192.096016 
L 143.003306 -190.652244 
L 146.077686 -189.024898 
L 149.152066 -187.201003 
L 152.226446 -185.16836 
L 155.300826 -182.915794 
L 158.375207 -180.433419 
L 161.449587 -177.712945 
L 164.523967 -174.74802 
L 167.598347 -171.534587 
L 170.672727 -168.071271 
L 173.747107 -164.359759 
L 176.821488 -160.405171 
L 179.895868 -156.216409 
L 182.970248 -151.806454 
L 186.044628 -147.192596 
L 189.119008 -142.396588 
L 192.193388 -137.444706 
L 195.267769 -132.367705 
L 198.342149 -127.200667 
L 201.416529 -121.982749 
L 204.490909 -116.756815 
L 207.565289 -111.568957 
L 210.639669 -106.467901 
L 213.71405 -101.504295 
L 216.78843 -96.729897 
L 219.86281 -92.196671 
L 222.93719 -87.955819 
L 226.01157 -84.056772 
L 229.08595 -80.546181 
L 232.160331 -77.466926 
L 235.234711 -74.857175 
L 238.309091 -72.749528 
L 241.383471 -71.170249 
L 244.457851 -70.138613 
L 247.532231 -69.666391 
L 250.606612 -69.757481 
L 253.680992 -70.407752 
L 256.755372 -71.605097 
L 259.829752 -73.329741 
L 262.904132 -75.554764 
L 265.978512 -78.246791 
L 269.052893 -81.366831 
L 272.127273 -84.871186 
L 275.201653 -88.712442 
L 278.276033 -92.840478 
L 281.350413 -97.203501 
L 284.424793 -101.749061 
L 287.499174 -106.425036 
L 290.573554 -111.180546 
L 293.647934 -115.966802 
L 296.722314 -120.737842 
L 299.796694 -125.451164 
L 302.871074 -130.068236 
L 305.945455 -134.554875 
L 309.019835 -138.881506 
L 312.094215 -143.023295 
L 315.168595 -146.960163 
L 318.242975 -150.676696 
L 321.317355 -154.16196 
L 324.391736 -157.409241 
L 327.466116 -160.415707 
L 330.540496 -163.182036 
L 333.614876 -165.712001 
L 336.689256 -168.012038 
L 339.763636 -170.090804 
L 342.838017 -171.958754 
L 345.912397 -173.627715 
L 348.986777 -175.110504 
L 352.061157 -176.420569 
L 355.135537 -177.571663 
L 358.209917 -178.577567 
L 361.284298 -179.451848 
L 364.358678 -180.20766 
L 367.433058 -180.857583 
L 370.507438 -181.413502 
L 373.581818 -181.886521 
z
" style="stroke: #ff0000; stroke-opacity: 0.5"/>
    </defs>
    <g clip-path="url(#p2e538fc243)">
     <use xlink:href="#mc83b41150b" x="0" y="288" style="fill: #ff0000; fill-opacity: 0.5; stroke: #ff0000; stroke-opacity: 0.5"/>
    </g>
   </g>
   <g id="PolyCollection_2">
    <defs>
     <path id="m7d1067ffcc" d="M 373.581818 -182.663847 
L 373.581818 -179.554543 
L 370.507438 -179.082475 
L 367.433058 -178.527729 
L 364.358678 -177.879253 
L 361.284298 -177.125222 
L 358.209917 -176.253133 
L 355.135537 -175.249921 
L 352.061157 -174.102128 
L 348.986777 -172.796101 
L 345.912397 -171.318237 
L 342.838017 -169.655265 
L 339.763636 -167.79457 
L 336.689256 -165.724552 
L 333.614876 -163.435017 
L 330.540496 -160.917589 
L 327.466116 -158.16614 
L 324.391736 -155.177229 
L 321.317355 -151.95052 
L 318.242975 -148.489196 
L 315.168595 -144.800323 
L 312.094215 -140.89517 
L 309.019835 -136.789461 
L 305.945455 -132.503543 
L 302.871074 -128.062459 
L 299.796694 -123.495917 
L 296.722314 -118.838137 
L 293.647934 -114.127573 
L 290.573554 -109.406516 
L 287.499174 -104.72056 
L 284.424793 -100.117955 
L 281.350413 -95.648845 
L 278.276033 -91.364413 
L 275.201653 -87.315947 
L 272.127273 -83.553852 
L 269.052893 -80.12664 
L 265.978512 -77.079931 
L 262.904132 -74.455501 
L 259.829752 -72.290418 
L 256.755372 -70.616306 
L 253.680992 -69.458755 
L 250.606612 -68.836866 
L 247.532231 -68.762915 
L 244.457851 -69.242082 
L 241.383471 -70.272238 
L 238.309091 -71.843831 
L 235.234711 -73.939928 
L 232.160331 -76.536455 
L 229.08595 -79.602657 
L 226.01157 -83.10176 
L 222.93719 -86.991786 
L 219.86281 -91.22649 
L 216.78843 -95.756377 
L 213.71405 -100.529767 
L 210.639669 -105.493866 
L 207.565289 -110.595826 
L 204.490909 -115.783771 
L 201.416529 -121.007744 
L 198.342149 -126.220575 
L 195.267769 -131.378617 
L 192.193388 -136.442341 
L 189.119008 -141.376755 
L 186.044628 -146.151647 
L 182.970248 -150.741664 
L 179.895868 -155.12624 
L 176.821488 -159.28941 
L 173.747107 -163.219531 
L 170.672727 -166.908952 
L 167.598347 -170.353628 
L 164.523967 -173.552727 
L 161.449587 -176.508218 
L 158.375207 -179.224468 
L 155.300826 -181.70786 
L 152.226446 -183.966433 
L 149.152066 -186.009566 
L 146.077686 -187.847692 
L 143.003306 -189.492069 
L 139.928926 -190.954583 
L 136.854545 -192.247606 
L 133.780165 -193.383882 
L 130.705785 -194.376455 
L 127.631405 -195.238614 
L 124.557025 -195.98385 
L 121.482645 -196.625811 
L 118.408264 -197.178248 
L 115.333884 -197.654931 
L 112.259504 -198.069546 
L 109.185124 -198.435566 
L 106.110744 -198.766105 
L 103.036364 -199.073758 
L 99.961983 -199.370449 
L 96.887603 -199.667275 
L 93.813223 -199.974367 
L 90.738843 -200.300755 
L 87.664463 -200.654262 
L 84.590083 -201.041399 
L 81.515702 -201.467297 
L 78.441322 -201.935646 
L 75.366942 -202.448672 
L 72.292562 -203.007127 
L 69.218182 -203.610318 
L 69.218182 -205.56035 
L 69.218182 -205.56035 
L 72.292562 -204.913085 
L 75.366942 -204.310223 
L 78.441322 -203.752686 
L 81.515702 -203.239982 
L 84.590083 -202.770187 
L 87.664463 -202.339946 
L 90.738843 -201.944511 
L 93.813223 -201.577802 
L 96.887603 -201.232492 
L 99.961983 -200.900112 
L 103.036364 -200.571165 
L 106.110744 -200.235243 
L 109.185124 -199.881138 
L 112.259504 -199.496945 
L 115.333884 -199.070154 
L 118.408264 -198.587719 
L 121.482645 -198.03613 
L 124.557025 -197.401468 
L 127.631405 -196.669482 
L 130.705785 -195.825665 
L 133.780165 -194.85535 
L 136.854545 -193.743831 
L 139.928926 -192.476494 
L 143.003306 -191.038968 
L 146.077686 -189.417301 
L 149.152066 -187.598148 
L 152.226446 -185.569002 
L 155.300826 -183.318439 
L 158.375207 -180.836402 
L 161.449587 -178.114521 
L 164.523967 -175.14645 
L 167.598347 -171.92824 
L 170.672727 -168.458711 
L 173.747107 -164.739834 
L 176.821488 -160.777091 
L 179.895868 -156.579799 
L 182.970248 -152.161384 
L 186.044628 -147.539578 
L 189.119008 -142.736532 
L 192.193388 -137.778828 
L 195.267769 -132.697401 
L 198.342149 -127.527364 
L 201.416529 -122.30775 
L 204.490909 -117.081163 
L 207.565289 -111.893334 
L 210.639669 -106.792579 
L 213.71405 -101.829137 
L 216.78843 -97.054403 
L 219.86281 -92.520065 
L 222.93719 -88.277163 
L 226.01157 -84.375109 
L 229.08595 -80.86069 
L 232.160331 -77.777083 
L 235.234711 -75.162924 
L 238.309091 -73.051427 
L 241.383471 -71.469586 
L 244.457851 -70.437457 
L 247.532231 -69.967549 
L 250.606612 -70.064353 
L 253.680992 -70.724084 
L 256.755372 -71.934693 
L 259.829752 -73.676183 
L 262.904132 -75.921185 
L 265.978512 -78.635745 
L 269.052893 -81.780228 
L 272.127273 -85.310298 
L 275.201653 -89.17794 
L 278.276033 -93.3325 
L 281.350413 -97.72172 
L 284.424793 -102.292764 
L 287.499174 -106.993194 
L 290.573554 -111.771889 
L 293.647934 -116.579878 
L 296.722314 -121.371077 
L 299.796694 -126.102913 
L 302.871074 -130.736828 
L 305.945455 -135.238652 
L 309.019835 -139.578854 
L 312.094215 -143.73267 
L 315.168595 -147.68011 
L 318.242975 -151.405862 
L 321.317355 -154.899107 
L 324.391736 -158.153245 
L 327.466116 -161.165562 
L 330.540496 -163.936852 
L 333.614876 -166.470996 
L 336.689256 -168.774533 
L 339.763636 -170.856216 
L 342.838017 -172.726583 
L 345.912397 -174.397541 
L 348.986777 -175.881972 
L 352.061157 -177.193383 
L 355.135537 -178.345577 
L 358.209917 -179.352379 
L 361.284298 -180.22739 
L 364.358678 -180.983796 
L 367.433058 -181.634201 
L 370.507438 -182.190511 
L 373.581818 -182.663847 
z
" style="stroke: #ff0000; stroke-opacity: 0.3"/>
    </defs>
    <g clip-path="url(#p2e538fc243)">
     <use xlink:href="#m7d1067ffcc" x="0" y="288" style="fill: #ff0000; fill-opacity: 0.3; stroke: #ff0000; stroke-opacity: 0.3"/>
    </g>
   </g>
   <g id="matplotlib.axis_1">
    <g id="xtick_1">
     <g id="line2d_1">
      <defs>
       <path id="md6d602fe8c" d="M 0 0 
L 0 3.5 
" style="stroke: #000000; stroke-width: 0.8"/>
      </defs>
      <g>
       <use xlink:href="#md6d602fe8c" x="69.218182" y="252" style="stroke: #000000; stroke-width: 0.8"/>
      </g>
     </g>
     <g id="text_1">
      <!-- 0.0 -->
      <g transform="translate(61.266619 266.598437)scale(0.1 -0.1)">
       <defs>
        <path id="DejaVuSans-30" d="M 2034 4250 
Q 1547 4250 1301 3770 
Q 1056 3291 1056 2328 
Q 1056 1369 1301 889 
Q 1547 409 2034 409 
Q 2525 409 2770 889 
Q 3016 1369 3016 2328 
Q 3016 3291 2770 3770 
Q 2525 4250 2034 4250 
z
M 2034 4750 
Q 2819 4750 3233 4129 
Q 3647 3509 3647 2328 
Q 3647 1150 3233 529 
Q 2819 -91 2034 -91 
Q 1250 -91 836 529 
Q 422 1150 422 2328 
Q 422 3509 836 4129 
Q 1250 4750 2034 4750 
z
" transform="scale(0.015625)"/>
        <path id="DejaVuSans-2e" d="M 684 794 
L 1344 794 
L 1344 0 
L 684 0 
L 684 794 
z
" transform="scale(0.015625)"/>
       </defs>
       <use xlink:href="#DejaVuSans-30"/>
       <use xlink:href="#DejaVuSans-2e" x="63.623047"/>
       <use xlink:href="#DejaVuSans-30" x="95.410156"/>
      </g>
     </g>
    </g>
    <g id="xtick_2">
     <g id="line2d_2">
      <g>
       <use xlink:href="#md6d602fe8c" x="130.090909" y="252" style="stroke: #000000; stroke-width: 0.8"/>
      </g>
     </g>
     <g id="text_2">
      <!-- 0.2 -->
      <g transform="translate(122.139347 266.598437)scale(0.1 -0.1)">
       <defs>
        <path id="DejaVuSans-32" d="M 1228 531 
L 3431 531 
L 3431 0 
L 469 0 
L 469 531 
Q 828 903 1448 1529 
Q 2069 2156 2228 2338 
Q 2531 2678 2651 2914 
Q 2772 3150 2772 3378 
Q 2772 3750 2511 3984 
Q 2250 4219 1831 4219 
Q 1534 4219 1204 4116 
Q 875 4013 500 3803 
L 500 4441 
Q 881 4594 1212 4672 
Q 1544 4750 1819 4750 
Q 2544 4750 2975 4387 
Q 3406 4025 3406 3419 
Q 3406 3131 3298 2873 
Q 3191 2616 2906 2266 
Q 2828 2175 2409 1742 
Q 1991 1309 1228 531 
z
" transform="scale(0.015625)"/>
       </defs>
       <use xlink:href="#DejaVuSans-30"/>
       <use xlink:href="#DejaVuSans-2e" x="63.623047"/>
       <use xlink:href="#DejaVuSans-32" x="95.410156"/>
      </g>
     </g>
    </g>
    <g id="xtick_3">
     <g id="line2d_3">
      <g>
       <use xlink:href="#md6d602fe8c" x="190.963636" y="252" style="stroke: #000000; stroke-width: 0.8"/>
      </g>
     </g>
     <g id="text_3">
      <!-- 0.4 -->
      <g transform="translate(183.012074 266.598437)scale(0.1 -0.1)">
       <defs>
        <path id="DejaVuSans-34" d="M 2419 4116 
L 825 1625 
L 2419 1625 
L 2419 4116 
z
M 2253 4666 
L 3047 4666 
L 3047 1625 
L 3713 1625 
L 3713 1100 
L 3047 1100 
L 3047 0 
L 2419 0 
L 2419 1100 
L 313 1100 
L 313 1709 
L 2253 4666 
z
" transform="scale(0.015625)"/>
       </defs>
       <use xlink:href="#DejaVuSans-30"/>
       <use xlink:href="#DejaVuSans-2e" x="63.623047"/>
       <use xlink:href="#DejaVuSans-34" x="95.410156"/>
      </g>
     </g>
    </g>
    <g id="xtick_4">
     <g id="line2d_4">
      <g>
       <use xlink:href="#md6d602fe8c" x="251.836364" y="252" style="stroke: #000000; stroke-width: 0.8"/>
      </g>
     </g>
     <g id="text_4">
      <!-- 0.6 -->
      <g transform="translate(243.884801 266.598437)scale(0.1 -0.1)">
       <defs>
        <path id="DejaVuSans-36" d="M 2113 2584 
Q 1688 2584 1439 2293 
Q 1191 2003 1191 1497 
Q 1191 994 1439 701 
Q 1688 409 2113 409 
Q 2538 409 2786 701 
Q 3034 994 3034 1497 
Q 3034 2003 2786 2293 
Q 2538 2584 2113 2584 
z
M 3366 4563 
L 3366 3988 
Q 3128 4100 2886 4159 
Q 2644 4219 2406 4219 
Q 1781 4219 1451 3797 
Q 1122 3375 1075 2522 
Q 1259 2794 1537 2939 
Q 1816 3084 2150 3084 
Q 2853 3084 3261 2657 
Q 3669 2231 3669 1497 
Q 3669 778 3244 343 
Q 2819 -91 2113 -91 
Q 1303 -91 875 529 
Q 447 1150 447 2328 
Q 447 3434 972 4092 
Q 1497 4750 2381 4750 
Q 2619 4750 2861 4703 
Q 3103 4656 3366 4563 
z
" transform="scale(0.015625)"/>
       </defs>
       <use xlink:href="#DejaVuSans-30"/>
       <use xlink:href="#DejaVuSans-2e" x="63.623047"/>
       <use xlink:href="#DejaVuSans-36" x="95.410156"/>
      </g>
     </g>
    </g>
    <g id="xtick_5">
     <g id="line2d_5">
      <g>
       <use xlink:href="#md6d602fe8c" x="312.709091" y="252" style="stroke: #000000; stroke-width: 0.8"/>
      </g>
     </g>
     <g id="text_5">
      <!-- 0.8 -->
      <g transform="translate(304.757528 266.598437)scale(0.1 -0.1)">
       <defs>
        <path id="DejaVuSans-38" d="M 2034 2216 
Q 1584 2216 1326 1975 
Q 1069 1734 1069 1313 
Q 1069 891 1326 650 
Q 1584 409 2034 409 
Q 2484 409 2743 651 
Q 3003 894 3003 1313 
Q 3003 1734 2745 1975 
Q 2488 2216 2034 2216 
z
M 1403 2484 
Q 997 2584 770 2862 
Q 544 3141 544 3541 
Q 544 4100 942 4425 
Q 1341 4750 2034 4750 
Q 2731 4750 3128 4425 
Q 3525 4100 3525 3541 
Q 3525 3141 3298 2862 
Q 3072 2584 2669 2484 
Q 3125 2378 3379 2068 
Q 3634 1759 3634 1313 
Q 3634 634 3220 271 
Q 2806 -91 2034 -91 
Q 1263 -91 848 271 
Q 434 634 434 1313 
Q 434 1759 690 2068 
Q 947 2378 1403 2484 
z
M 1172 3481 
Q 1172 3119 1398 2916 
Q 1625 2713 2034 2713 
Q 2441 2713 2670 2916 
Q 2900 3119 2900 3481 
Q 2900 3844 2670 4047 
Q 2441 4250 2034 4250 
Q 1625 4250 1398 4047 
Q 1172 3844 1172 3481 
z
" transform="scale(0.015625)"/>
       </defs>
       <use xlink:href="#DejaVuSans-30"/>
       <use xlink:href="#DejaVuSans-2e" x="63.623047"/>
       <use xlink:href="#DejaVuSans-38" x="95.410156"/>
      </g>
     </g>
    </g>
    <g id="xtick_6">
     <g id="line2d_6">
      <g>
       <use xlink:href="#md6d602fe8c" x="373.581818" y="252" style="stroke: #000000; stroke-width: 0.8"/>
      </g>
     </g>
     <g id="text_6">
      <!-- 1.0 -->
      <g transform="translate(365.630256 266.598437)scale(0.1 -0.1)">
       <defs>
        <path id="DejaVuSans-31" d="M 794 531 
L 1825 531 
L 1825 4091 
L 703 3866 
L 703 4441 
L 1819 4666 
L 2450 4666 
L 2450 531 
L 3481 531 
L 3481 0 
L 794 0 
L 794 531 
z
" transform="scale(0.015625)"/>
       </defs>
       <use xlink:href="#DejaVuSans-31"/>
       <use xlink:href="#DejaVuSans-2e" x="63.623047"/>
       <use xlink:href="#DejaVuSans-30" x="95.410156"/>
      </g>
     </g>
    </g>
    <g id="text_7">
     <!-- Base Resin B -->
     <g transform="translate(189.127344 280.276563)scale(0.1 -0.1)">
      <defs>
       <path id="DejaVuSans-42" d="M 1259 2228 
L 1259 519 
L 2272 519 
Q 2781 519 3026 730 
Q 3272 941 3272 1375 
Q 3272 1813 3026 2020 
Q 2781 2228 2272 2228 
L 1259 2228 
z
M 1259 4147 
L 1259 2741 
L 2194 2741 
Q 2656 2741 2882 2914 
Q 3109 3088 3109 3444 
Q 3109 3797 2882 3972 
Q 2656 4147 2194 4147 
L 1259 4147 
z
M 628 4666 
L 2241 4666 
Q 2963 4666 3353 4366 
Q 3744 4066 3744 3513 
Q 3744 3084 3544 2831 
Q 3344 2578 2956 2516 
Q 3422 2416 3680 2098 
Q 3938 1781 3938 1306 
Q 3938 681 3513 340 
Q 3088 0 2303 0 
L 628 0 
L 628 4666 
z
" transform="scale(0.015625)"/>
       <path id="DejaVuSans-61" d="M 2194 1759 
Q 1497 1759 1228 1600 
Q 959 1441 959 1056 
Q 959 750 1161 570 
Q 1363 391 1709 391 
Q 2188 391 2477 730 
Q 2766 1069 2766 1631 
L 2766 1759 
L 2194 1759 
z
M 3341 1997 
L 3341 0 
L 2766 0 
L 2766 531 
Q 2569 213 2275 61 
Q 1981 -91 1556 -91 
Q 1019 -91 701 211 
Q 384 513 384 1019 
Q 384 1609 779 1909 
Q 1175 2209 1959 2209 
L 2766 2209 
L 2766 2266 
Q 2766 2663 2505 2880 
Q 2244 3097 1772 3097 
Q 1472 3097 1187 3025 
Q 903 2953 641 2809 
L 641 3341 
Q 956 3463 1253 3523 
Q 1550 3584 1831 3584 
Q 2591 3584 2966 3190 
Q 3341 2797 3341 1997 
z
" transform="scale(0.015625)"/>
       <path id="DejaVuSans-73" d="M 2834 3397 
L 2834 2853 
Q 2591 2978 2328 3040 
Q 2066 3103 1784 3103 
Q 1356 3103 1142 2972 
Q 928 2841 928 2578 
Q 928 2378 1081 2264 
Q 1234 2150 1697 2047 
L 1894 2003 
Q 2506 1872 2764 1633 
Q 3022 1394 3022 966 
Q 3022 478 2636 193 
Q 2250 -91 1575 -91 
Q 1294 -91 989 -36 
Q 684 19 347 128 
L 347 722 
Q 666 556 975 473 
Q 1284 391 1588 391 
Q 1994 391 2212 530 
Q 2431 669 2431 922 
Q 2431 1156 2273 1281 
Q 2116 1406 1581 1522 
L 1381 1569 
Q 847 1681 609 1914 
Q 372 2147 372 2553 
Q 372 3047 722 3315 
Q 1072 3584 1716 3584 
Q 2034 3584 2315 3537 
Q 2597 3491 2834 3397 
z
" transform="scale(0.015625)"/>
       <path id="DejaVuSans-65" d="M 3597 1894 
L 3597 1613 
L 953 1613 
Q 991 1019 1311 708 
Q 1631 397 2203 397 
Q 2534 397 2845 478 
Q 3156 559 3463 722 
L 3463 178 
Q 3153 47 2828 -22 
Q 2503 -91 2169 -91 
Q 1331 -91 842 396 
Q 353 884 353 1716 
Q 353 2575 817 3079 
Q 1281 3584 2069 3584 
Q 2775 3584 3186 3129 
Q 3597 2675 3597 1894 
z
M 3022 2063 
Q 3016 2534 2758 2815 
Q 2500 3097 2075 3097 
Q 1594 3097 1305 2825 
Q 1016 2553 972 2059 
L 3022 2063 
z
" transform="scale(0.015625)"/>
       <path id="DejaVuSans-20" transform="scale(0.015625)"/>
       <path id="DejaVuSans-52" d="M 2841 2188 
Q 3044 2119 3236 1894 
Q 3428 1669 3622 1275 
L 4263 0 
L 3584 0 
L 2988 1197 
Q 2756 1666 2539 1819 
Q 2322 1972 1947 1972 
L 1259 1972 
L 1259 0 
L 628 0 
L 628 4666 
L 2053 4666 
Q 2853 4666 3247 4331 
Q 3641 3997 3641 3322 
Q 3641 2881 3436 2590 
Q 3231 2300 2841 2188 
z
M 1259 4147 
L 1259 2491 
L 2053 2491 
Q 2509 2491 2742 2702 
Q 2975 2913 2975 3322 
Q 2975 3731 2742 3939 
Q 2509 4147 2053 4147 
L 1259 4147 
z
" transform="scale(0.015625)"/>
       <path id="DejaVuSans-69" d="M 603 3500 
L 1178 3500 
L 1178 0 
L 603 0 
L 603 3500 
z
M 603 4863 
L 1178 4863 
L 1178 4134 
L 603 4134 
L 603 4863 
z
" transform="scale(0.015625)"/>
       <path id="DejaVuSans-6e" d="M 3513 2113 
L 3513 0 
L 2938 0 
L 2938 2094 
Q 2938 2591 2744 2837 
Q 2550 3084 2163 3084 
Q 1697 3084 1428 2787 
Q 1159 2491 1159 1978 
L 1159 0 
L 581 0 
L 581 3500 
L 1159 3500 
L 1159 2956 
Q 1366 3272 1645 3428 
Q 1925 3584 2291 3584 
Q 2894 3584 3203 3211 
Q 3513 2838 3513 2113 
z
" transform="scale(0.015625)"/>
      </defs>
      <use xlink:href="#DejaVuSans-42"/>
      <use xlink:href="#DejaVuSans-61" x="68.603516"/>
      <use xlink:href="#DejaVuSans-73" x="129.882812"/>
      <use xlink:href="#DejaVuSans-65" x="181.982422"/>
      <use xlink:href="#DejaVuSans-20" x="243.505859"/>
      <use xlink:href="#DejaVuSans-52" x="275.292969"/>
      <use xlink:href="#DejaVuSans-65" x="340.275391"/>
      <use xlink:href="#DejaVuSans-73" x="401.798828"/>
      <use xlink:href="#DejaVuSans-69" x="453.898438"/>
      <use xlink:href="#DejaVuSans-6e" x="481.681641"/>
      <use xlink:href="#DejaVuSans-20" x="545.060547"/>
      <use xlink:href="#DejaVuSans-42" x="576.847656"/>
     </g>
    </g>
   </g>
   <g id="matplotlib.axis_2">
    <g id="ytick_1">
     <g id="line2d_7">
      <defs>
       <path id="m53747819c5" d="M 0 0 
L -3.5 0 
" style="stroke: #000000; stroke-width: 0.8"/>
      </defs>
      <g>
       <use xlink:href="#m53747819c5" x="54" y="252" style="stroke: #000000; stroke-width: 0.8"/>
      </g>
     </g>
     <g id="text_8">
      <!-- 400 -->
      <g transform="translate(27.9125 255.799219)scale(0.1 -0.1)">
       <use xlink:href="#DejaVuSans-34"/>
       <use xlink:href="#DejaVuSans-30" x="63.623047"/>
       <use xlink:href="#DejaVuSans-30" x="127.246094"/>
      </g>
     </g>
    </g>
    <g id="ytick_2">
     <g id="line2d_8">
      <g>
       <use xlink:href="#m53747819c5" x="54" y="215.76" style="stroke: #000000; stroke-width: 0.8"/>
      </g>
     </g>
     <g id="text_9">
      <!-- 450 -->
      <g transform="translate(27.9125 219.559219)scale(0.1 -0.1)">
       <defs>
        <path id="DejaVuSans-35" d="M 691 4666 
L 3169 4666 
L 3169 4134 
L 1269 4134 
L 1269 2991 
Q 1406 3038 1543 3061 
Q 1681 3084 1819 3084 
Q 2600 3084 3056 2656 
Q 3513 2228 3513 1497 
Q 3513 744 3044 326 
Q 2575 -91 1722 -91 
Q 1428 -91 1123 -41 
Q 819 9 494 109 
L 494 744 
Q 775 591 1075 516 
Q 1375 441 1709 441 
Q 2250 441 2565 725 
Q 2881 1009 2881 1497 
Q 2881 1984 2565 2268 
Q 2250 2553 1709 2553 
Q 1456 2553 1204 2497 
Q 953 2441 691 2322 
L 691 4666 
z
" transform="scale(0.015625)"/>
       </defs>
       <use xlink:href="#DejaVuSans-34"/>
       <use xlink:href="#DejaVuSans-35" x="63.623047"/>
       <use xlink:href="#DejaVuSans-30" x="127.246094"/>
      </g>
     </g>
    </g>
    <g id="ytick_3">
     <g id="line2d_9">
      <g>
       <use xlink:href="#m53747819c5" x="54" y="179.52" style="stroke: #000000; stroke-width: 0.8"/>
      </g>
     </g>
     <g id="text_10">
      <!-- 500 -->
      <g transform="translate(27.9125 183.319219)scale(0.1 -0.1)">
       <use xlink:href="#DejaVuSans-35"/>
       <use xlink:href="#DejaVuSans-30" x="63.623047"/>
       <use xlink:href="#DejaVuSans-30" x="127.246094"/>
      </g>
     </g>
    </g>
    <g id="ytick_4">
     <g id="line2d_10">
      <g>
       <use xlink:href="#m53747819c5" x="54" y="143.28" style="stroke: #000000; stroke-width: 0.8"/>
      </g>
     </g>
     <g id="text_11">
      <!-- 550 -->
      <g transform="translate(27.9125 147.079219)scale(0.1 -0.1)">
       <use xlink:href="#DejaVuSans-35"/>
       <use xlink:href="#DejaVuSans-35" x="63.623047"/>
       <use xlink:href="#DejaVuSans-30" x="127.246094"/>
      </g>
     </g>
    </g>
    <g id="ytick_5">
     <g id="line2d_11">
      <g>
       <use xlink:href="#m53747819c5" x="54" y="107.04" style="stroke: #000000; stroke-width: 0.8"/>
      </g>
     </g>
     <g id="text_12">
      <!-- 600 -->
      <g transform="translate(27.9125 110.839219)scale(0.1 -0.1)">
       <use xlink:href="#DejaVuSans-36"/>
       <use xlink:href="#DejaVuSans-30" x="63.623047"/>
       <use xlink:href="#DejaVuSans-30" x="127.246094"/>
      </g>
     </g>
    </g>
    <g id="ytick_6">
     <g id="line2d_12">
      <g>
       <use xlink:href="#m53747819c5" x="54" y="70.8" style="stroke: #000000; stroke-width: 0.8"/>
      </g>
     </g>
     <g id="text_13">
      <!-- 650 -->
      <g transform="translate(27.9125 74.599219)scale(0.1 -0.1)">
       <use xlink:href="#DejaVuSans-36"/>
       <use xlink:href="#DejaVuSans-35" x="63.623047"/>
       <use xlink:href="#DejaVuSans-30" x="127.246094"/>
      </g>
     </g>
    </g>
    <g id="ytick_7">
     <g id="line2d_13">
      <g>
       <use xlink:href="#m53747819c5" x="54" y="34.56" style="stroke: #000000; stroke-width: 0.8"/>
      </g>
     </g>
     <g id="text_14">
      <!-- 700 -->
      <g transform="translate(27.9125 38.359219)scale(0.1 -0.1)">
       <defs>
        <path id="DejaVuSans-37" d="M 525 4666 
L 3525 4666 
L 3525 4397 
L 1831 0 
L 1172 0 
L 2766 4134 
L 525 4134 
L 525 4666 
z
" transform="scale(0.015625)"/>
       </defs>
       <use xlink:href="#DejaVuSans-37"/>
       <use xlink:href="#DejaVuSans-30" x="63.623047"/>
       <use xlink:href="#DejaVuSans-30" x="127.246094"/>
      </g>
     </g>
    </g>
    <g id="text_15">
     <!-- Toughness (J/m2) -->
     <g style="fill: #ff0000" transform="translate(21.832812 186.21125)rotate(-90)scale(0.1 -0.1)">
      <defs>
       <path id="DejaVuSans-54" d="M -19 4666 
L 3928 4666 
L 3928 4134 
L 2272 4134 
L 2272 0 
L 1638 0 
L 1638 4134 
L -19 4134 
L -19 4666 
z
" transform="scale(0.015625)"/>
       <path id="DejaVuSans-6f" d="M 1959 3097 
Q 1497 3097 1228 2736 
Q 959 2375 959 1747 
Q 959 1119 1226 758 
Q 1494 397 1959 397 
Q 2419 397 2687 759 
Q 2956 1122 2956 1747 
Q 2956 2369 2687 2733 
Q 2419 3097 1959 3097 
z
M 1959 3584 
Q 2709 3584 3137 3096 
Q 3566 2609 3566 1747 
Q 3566 888 3137 398 
Q 2709 -91 1959 -91 
Q 1206 -91 779 398 
Q 353 888 353 1747 
Q 353 2609 779 3096 
Q 1206 3584 1959 3584 
z
" transform="scale(0.015625)"/>
       <path id="DejaVuSans-75" d="M 544 1381 
L 544 3500 
L 1119 3500 
L 1119 1403 
Q 1119 906 1312 657 
Q 1506 409 1894 409 
Q 2359 409 2629 706 
Q 2900 1003 2900 1516 
L 2900 3500 
L 3475 3500 
L 3475 0 
L 2900 0 
L 2900 538 
Q 2691 219 2414 64 
Q 2138 -91 1772 -91 
Q 1169 -91 856 284 
Q 544 659 544 1381 
z
M 1991 3584 
L 1991 3584 
z
" transform="scale(0.015625)"/>
       <path id="DejaVuSans-67" d="M 2906 1791 
Q 2906 2416 2648 2759 
Q 2391 3103 1925 3103 
Q 1463 3103 1205 2759 
Q 947 2416 947 1791 
Q 947 1169 1205 825 
Q 1463 481 1925 481 
Q 2391 481 2648 825 
Q 2906 1169 2906 1791 
z
M 3481 434 
Q 3481 -459 3084 -895 
Q 2688 -1331 1869 -1331 
Q 1566 -1331 1297 -1286 
Q 1028 -1241 775 -1147 
L 775 -588 
Q 1028 -725 1275 -790 
Q 1522 -856 1778 -856 
Q 2344 -856 2625 -561 
Q 2906 -266 2906 331 
L 2906 616 
Q 2728 306 2450 153 
Q 2172 0 1784 0 
Q 1141 0 747 490 
Q 353 981 353 1791 
Q 353 2603 747 3093 
Q 1141 3584 1784 3584 
Q 2172 3584 2450 3431 
Q 2728 3278 2906 2969 
L 2906 3500 
L 3481 3500 
L 3481 434 
z
" transform="scale(0.015625)"/>
       <path id="DejaVuSans-68" d="M 3513 2113 
L 3513 0 
L 2938 0 
L 2938 2094 
Q 2938 2591 2744 2837 
Q 2550 3084 2163 3084 
Q 1697 3084 1428 2787 
Q 1159 2491 1159 1978 
L 1159 0 
L 581 0 
L 581 4863 
L 1159 4863 
L 1159 2956 
Q 1366 3272 1645 3428 
Q 1925 3584 2291 3584 
Q 2894 3584 3203 3211 
Q 3513 2838 3513 2113 
z
" transform="scale(0.015625)"/>
       <path id="DejaVuSans-28" d="M 1984 4856 
Q 1566 4138 1362 3434 
Q 1159 2731 1159 2009 
Q 1159 1288 1364 580 
Q 1569 -128 1984 -844 
L 1484 -844 
Q 1016 -109 783 600 
Q 550 1309 550 2009 
Q 550 2706 781 3412 
Q 1013 4119 1484 4856 
L 1984 4856 
z
" transform="scale(0.015625)"/>
       <path id="DejaVuSans-4a" d="M 628 4666 
L 1259 4666 
L 1259 325 
Q 1259 -519 939 -900 
Q 619 -1281 -91 -1281 
L -331 -1281 
L -331 -750 
L -134 -750 
Q 284 -750 456 -515 
Q 628 -281 628 325 
L 628 4666 
z
" transform="scale(0.015625)"/>
       <path id="DejaVuSans-2f" d="M 1625 4666 
L 2156 4666 
L 531 -594 
L 0 -594 
L 1625 4666 
z
" transform="scale(0.015625)"/>
       <path id="DejaVuSans-6d" d="M 3328 2828 
Q 3544 3216 3844 3400 
Q 4144 3584 4550 3584 
Q 5097 3584 5394 3201 
Q 5691 2819 5691 2113 
L 5691 0 
L 5113 0 
L 5113 2094 
Q 5113 2597 4934 2840 
Q 4756 3084 4391 3084 
Q 3944 3084 3684 2787 
Q 3425 2491 3425 1978 
L 3425 0 
L 2847 0 
L 2847 2094 
Q 2847 2600 2669 2842 
Q 2491 3084 2119 3084 
Q 1678 3084 1418 2786 
Q 1159 2488 1159 1978 
L 1159 0 
L 581 0 
L 581 3500 
L 1159 3500 
L 1159 2956 
Q 1356 3278 1631 3431 
Q 1906 3584 2284 3584 
Q 2666 3584 2933 3390 
Q 3200 3197 3328 2828 
z
" transform="scale(0.015625)"/>
       <path id="DejaVuSans-29" d="M 513 4856 
L 1013 4856 
Q 1481 4119 1714 3412 
Q 1947 2706 1947 2009 
Q 1947 1309 1714 600 
Q 1481 -109 1013 -844 
L 513 -844 
Q 928 -128 1133 580 
Q 1338 1288 1338 2009 
Q 1338 2731 1133 3434 
Q 928 4138 513 4856 
z
" transform="scale(0.015625)"/>
      </defs>
      <use xlink:href="#DejaVuSans-54"/>
      <use xlink:href="#DejaVuSans-6f" x="44.083984"/>
      <use xlink:href="#DejaVuSans-75" x="105.265625"/>
      <use xlink:href="#DejaVuSans-67" x="168.644531"/>
      <use xlink:href="#DejaVuSans-68" x="232.121094"/>
      <use xlink:href="#DejaVuSans-6e" x="295.5"/>
      <use xlink:href="#DejaVuSans-65" x="358.878906"/>
      <use xlink:href="#DejaVuSans-73" x="420.402344"/>
      <use xlink:href="#DejaVuSans-73" x="472.501953"/>
      <use xlink:href="#DejaVuSans-20" x="524.601562"/>
      <use xlink:href="#DejaVuSans-28" x="556.388672"/>
      <use xlink:href="#DejaVuSans-4a" x="595.402344"/>
      <use xlink:href="#DejaVuSans-2f" x="624.894531"/>
      <use xlink:href="#DejaVuSans-6d" x="658.585938"/>
      <use xlink:href="#DejaVuSans-32" x="755.998047"/>
      <use xlink:href="#DejaVuSans-29" x="819.621094"/>
     </g>
    </g>
   </g>
   <g id="line2d_14">
    <path d="M 373.581818 106.890805 
L 370.507438 107.363507 
L 367.433058 107.919035 
L 364.358678 108.568476 
L 361.284298 109.323694 
L 358.209917 110.197244 
L 355.135537 111.202251 
L 352.061157 112.352245 
L 348.986777 113.660963 
L 345.912397 115.142111 
L 342.838017 116.809076 
L 339.763636 118.674607 
L 336.689256 120.750457 
L 333.614876 123.046993 
L 330.540496 125.57278 
L 327.466116 128.334149 
L 324.391736 131.334763 
L 321.317355 134.575186 
L 318.242975 138.052471 
L 315.168595 141.759784 
L 312.094215 145.68608 
L 309.019835 149.815842 
L 305.945455 154.128903 
L 302.871074 158.600356 
L 299.796694 163.200585 
L 296.722314 167.895393 
L 293.647934 172.646274 
L 290.573554 177.410797 
L 287.499174 182.143123 
L 284.424793 186.794641 
L 281.350413 191.314718 
L 278.276033 195.651544 
L 275.201653 199.753056 
L 272.127273 203.567925 
L 269.052893 207.046566 
L 265.978512 210.142162 
L 262.904132 212.811657 
L 259.829752 215.0167 
L 256.755372 216.7245 
L 253.680992 217.908581 
L 250.606612 218.549391 
L 247.532231 218.634768 
L 244.457851 218.160231 
L 241.383471 217.129088 
L 238.309091 215.552371 
L 235.234711 213.448574 
L 232.160331 210.843231 
L 229.08595 207.768327 
L 226.01157 204.261565 
L 222.93719 200.365526 
L 219.86281 196.126723 
L 216.78843 191.59461 
L 213.71405 186.820548 
L 210.639669 181.856778 
L 207.565289 176.75542 
L 204.490909 171.567533 
L 201.416529 166.342253 
L 198.342149 161.126031 
L 195.267769 155.961991 
L 192.193388 150.889415 
L 189.119008 145.943356 
L 186.044628 141.154387 
L 182.970248 136.548476 
L 179.895868 132.14698 
L 176.821488 127.96675 
L 173.747107 124.020317 
L 170.672727 120.316169 
L 167.598347 116.859066 
L 164.523967 113.650411 
L 161.449587 110.68863 
L 158.375207 107.969565 
L 155.300826 105.486851 
L 152.226446 103.232282 
L 149.152066 101.196143 
L 146.077686 99.367504 
L 143.003306 97.734481 
L 139.928926 96.284461 
L 136.854545 95.004281 
L 133.780165 93.880384 
L 130.705785 92.89894 
L 127.631405 92.045952 
L 124.557025 91.307341 
L 121.482645 90.66903 
L 118.408264 90.117016 
L 115.333884 89.637458 
L 112.259504 89.216754 
L 109.185124 88.841648 
L 106.110744 88.499326 
L 103.036364 88.177538 
L 99.961983 87.86472 
L 96.887603 87.550117 
L 93.813223 87.223916 
L 90.738843 86.877367 
L 87.664463 86.502896 
L 84.590083 86.094207 
L 81.515702 85.646361 
L 78.441322 85.155834 
L 75.366942 84.620553 
L 72.292562 84.039894 
L 69.218182 83.414666 
" clip-path="url(#p2e538fc243)" style="fill: none; stroke: #ff0000; stroke-width: 0.5; stroke-linecap: square"/>
   </g>
   <g id="line2d_15">
    <path d="M 84.436364 252 
L 84.436364 34.56 
" clip-path="url(#p2e538fc243)" style="fill: none; stroke-dasharray: 5.55,2.4; stroke-dashoffset: 0; stroke: #808080; stroke-opacity: 0.7; stroke-width: 1.5"/>
   </g>
   <g id="patch_3">
    <path d="M 54 252 
L 54 34.56 
" style="fill: none; stroke: #000000; stroke-width: 0.8; stroke-linejoin: miter; stroke-linecap: square"/>
   </g>
   <g id="patch_4">
    <path d="M 388.8 252 
L 388.8 34.56 
" style="fill: none; stroke: #000000; stroke-width: 0.8; stroke-linejoin: miter; stroke-linecap: square"/>
   </g>
   <g id="patch_5">
    <path d="M 54 252 
L 388.8 252 
" style="fill: none; stroke: #000000; stroke-width: 0.8; stroke-linejoin: miter; stroke-linecap: square"/>
   </g>
   <g id="patch_6">
    <path d="M 54 34.56 
L 388.8 34.56 
" style="fill: none; stroke: #000000; stroke-width: 0.8; stroke-linejoin: miter; stroke-linecap: square"/>
   </g>
  </g>
  <g id="axes_2">
   <g id="PolyCollection_3">
    <defs>
     <path id="m195d6a7159" d="M 373.581818 -161.144107 
L 373.581818 -83.589653 
L 370.507438 -83.226638 
L 367.433058 -82.864785 
L 364.358678 -82.507342 
L 361.284298 -82.157854 
L 358.209917 -81.820147 
L 355.135537 -81.498311 
L 352.061157 -81.196672 
L 348.986777 -80.919761 
L 345.912397 -80.672284 
L 342.838017 -80.459073 
L 339.763636 -80.285043 
L 336.689256 -80.155146 
L 333.614876 -80.074309 
L 330.540496 -80.047385 
L 327.466116 -80.079085 
L 324.391736 -80.173923 
L 321.317355 -80.336147 
L 318.242975 -80.569681 
L 315.168595 -80.878059 
L 312.094215 -81.264367 
L 309.019835 -81.73118 
L 305.945455 -82.280511 
L 302.871074 -82.913755 
L 299.796694 -83.631648 
L 296.722314 -84.434217 
L 293.647934 -85.320751 
L 290.573554 -86.289768 
L 287.499174 -87.338994 
L 284.424793 -88.465345 
L 281.350413 -89.664924 
L 278.276033 -90.933019 
L 275.201653 -92.264113 
L 272.127273 -93.651906 
L 269.052893 -95.089341 
L 265.978512 -96.568646 
L 262.904132 -98.081383 
L 259.829752 -99.618511 
L 256.755372 -101.170462 
L 253.680992 -102.727227 
L 250.606612 -104.278453 
L 247.532231 -105.813562 
L 244.457851 -107.321874 
L 241.383471 -108.79275 
L 238.309091 -110.21574 
L 235.234711 -111.580751 
L 232.160331 -112.87822 
L 229.08595 -114.099295 
L 226.01157 -115.236017 
L 222.93719 -116.281509 
L 219.86281 -117.230144 
L 216.78843 -118.077709 
L 213.71405 -118.821542 
L 210.639669 -119.460634 
L 207.565289 -119.995695 
L 204.490909 -120.429166 
L 201.416529 -120.765191 
L 198.342149 -121.009524 
L 195.267769 -121.169398 
L 192.193388 -121.253339 
L 189.119008 -121.270955 
L 186.044628 -121.232693 
L 182.970248 -121.149586 
L 179.895868 -121.032989 
L 176.821488 -120.894321 
L 173.747107 -120.744823 
L 170.672727 -120.595318 
L 167.598347 -120.456005 
L 164.523967 -120.336258 
L 161.449587 -120.24446 
L 158.375207 -120.187857 
L 155.300826 -120.172424 
L 152.226446 -120.202777 
L 149.152066 -120.282089 
L 146.077686 -120.41205 
L 143.003306 -120.592846 
L 139.928926 -120.823182 
L 136.854545 -121.100327 
L 133.780165 -121.420214 
L 130.705785 -121.777573 
L 127.631405 -122.1661 
L 124.557025 -122.578665 
L 121.482645 -123.007541 
L 118.408264 -123.44463 
L 115.333884 -123.881692 
L 112.259504 -124.310532 
L 109.185124 -124.723155 
L 106.110744 -125.111879 
L 103.036364 -125.469409 
L 99.961983 -125.788882 
L 96.887603 -126.0639 
L 93.813223 -126.288556 
L 90.738843 -126.457466 
L 87.664463 -126.565806 
L 84.590083 -126.609356 
L 81.515702 -126.584546 
L 78.441322 -126.488499 
L 75.366942 -126.319077 
L 72.292562 -126.074906 
L 69.218182 -125.755402 
L 69.218182 -163.370138 
L 69.218182 -163.370138 
L 72.292562 -162.006038 
L 75.366942 -160.611627 
L 78.441322 -159.196307 
L 81.515702 -157.770038 
L 84.590083 -156.343245 
L 87.664463 -154.926711 
L 90.738843 -153.531451 
L 93.813223 -152.168581 
L 96.887603 -150.849159 
L 99.961983 -149.584008 
L 103.036364 -148.383528 
L 106.110744 -147.257481 
L 109.185124 -146.214779 
L 112.259504 -145.263263 
L 115.333884 -144.409513 
L 118.408264 -143.658683 
L 121.482645 -143.014391 
L 124.557025 -142.478667 
L 127.631405 -142.051961 
L 130.705785 -141.733204 
L 133.780165 -141.519904 
L 136.854545 -141.408277 
L 139.928926 -141.39338 
L 143.003306 -141.469254 
L 146.077686 -141.62906 
L 149.152066 -141.865219 
L 152.226446 -142.169535 
L 155.300826 -142.533338 
L 158.375207 -142.947608 
L 161.449587 -143.403117 
L 164.523967 -143.890562 
L 167.598347 -144.400705 
L 170.672727 -144.924509 
L 173.747107 -145.453261 
L 176.821488 -145.978696 
L 179.895868 -146.493095 
L 182.970248 -146.989375 
L 186.044628 -147.461146 
L 189.119008 -147.902752 
L 192.193388 -148.309287 
L 195.267769 -148.676586 
L 198.342149 -149.001204 
L 201.416529 -149.280374 
L 204.490909 -149.51197 
L 207.565289 -149.694464 
L 210.639669 -149.826897 
L 213.71405 -149.908857 
L 216.78843 -149.940479 
L 219.86281 -149.922449 
L 222.93719 -149.85603 
L 226.01157 -149.74308 
L 229.08595 -149.586079 
L 232.160331 -149.388144 
L 235.234711 -149.153032 
L 238.309091 -148.885128 
L 241.383471 -148.589412 
L 244.457851 -148.271406 
L 247.532231 -147.937111 
L 250.606612 -147.592911 
L 253.680992 -147.245481 
L 256.755372 -146.901672 
L 259.829752 -146.568391 
L 262.904132 -146.252484 
L 265.978512 -145.960613 
L 269.052893 -145.699138 
L 272.127273 -145.47401 
L 275.201653 -145.290668 
L 278.276033 -145.153957 
L 281.350413 -145.068049 
L 284.424793 -145.03639 
L 287.499174 -145.061658 
L 290.573554 -145.145736 
L 293.647934 -145.289708 
L 296.722314 -145.493866 
L 299.796694 -145.757731 
L 302.871074 -146.080092 
L 305.945455 -146.459052 
L 309.019835 -146.892088 
L 312.094215 -147.376114 
L 315.168595 -147.907561 
L 318.242975 -148.482442 
L 321.317355 -149.096443 
L 324.391736 -149.744994 
L 327.466116 -150.423348 
L 330.540496 -151.126662 
L 333.614876 -151.85006 
L 336.689256 -152.588707 
L 339.763636 -153.337866 
L 342.838017 -154.092951 
L 345.912397 -154.849578 
L 348.986777 -155.603603 
L 352.061157 -156.351155 
L 355.135537 -157.088663 
L 358.209917 -157.812875 
L 361.284298 -158.52087 
L 364.358678 -159.210066 
L 367.433058 -159.878221 
L 370.507438 -160.523427 
L 373.581818 -161.144107 
z
" style="stroke: #0000ff; stroke-opacity: 0.5"/>
    </defs>
    <g clip-path="url(#p2e538fc243)">
     <use xlink:href="#m195d6a7159" x="0" y="288" style="fill: #0000ff; fill-opacity: 0.5; stroke: #0000ff; stroke-opacity: 0.5"/>
    </g>
   </g>
   <g id="PolyCollection_4">
    <defs>
     <path id="m6bb880d3d7" d="M 373.581818 -199.921334 
L 373.581818 -44.812426 
L 370.507438 -44.578244 
L 367.433058 -44.358067 
L 364.358678 -44.15598 
L 361.284298 -43.976346 
L 358.209917 -43.823783 
L 355.135537 -43.703135 
L 352.061157 -43.61943 
L 348.986777 -43.577841 
L 345.912397 -43.583637 
L 342.838017 -43.642133 
L 339.763636 -43.758632 
L 336.689256 -43.938365 
L 333.614876 -44.186434 
L 330.540496 -44.507747 
L 327.466116 -44.906954 
L 324.391736 -45.388387 
L 321.317355 -45.955999 
L 318.242975 -46.6133 
L 315.168595 -47.363309 
L 312.094215 -48.208493 
L 309.019835 -49.150726 
L 305.945455 -50.19124 
L 302.871074 -51.330587 
L 299.796694 -52.568606 
L 296.722314 -53.904393 
L 293.647934 -55.336273 
L 290.573554 -56.861785 
L 287.499174 -58.477662 
L 284.424793 -60.179823 
L 281.350413 -61.963362 
L 278.276033 -63.82255 
L 275.201653 -65.750836 
L 272.127273 -67.740855 
L 269.052893 -69.784443 
L 265.978512 -71.872663 
L 262.904132 -73.995832 
L 259.829752 -76.143571 
L 256.755372 -78.304858 
L 253.680992 -80.468099 
L 250.606612 -82.621223 
L 247.532231 -84.751787 
L 244.457851 -86.847108 
L 241.383471 -88.894419 
L 238.309091 -90.881045 
L 235.234711 -92.79461 
L 232.160331 -94.623258 
L 229.08595 -96.355903 
L 226.01157 -97.982486 
L 222.93719 -99.494249 
L 219.86281 -100.883991 
L 216.78843 -102.146324 
L 213.71405 -103.277885 
L 210.639669 -104.277503 
L 207.565289 -105.14631 
L 204.490909 -105.887764 
L 201.416529 -106.5076 
L 198.342149 -107.013685 
L 195.267769 -107.415804 
L 192.193388 -107.725365 
L 189.119008 -107.955056 
L 186.044628 -108.118467 
L 182.970248 -108.229692 
L 179.895868 -108.302936 
L 176.821488 -108.352134 
L 173.747107 -108.390604 
L 170.672727 -108.430723 
L 167.598347 -108.483654 
L 164.523967 -108.559105 
L 161.449587 -108.665132 
L 158.375207 -108.807981 
L 155.300826 -108.991967 
L 152.226446 -109.219397 
L 149.152066 -109.490524 
L 146.077686 -109.803544 
L 143.003306 -110.154643 
L 139.928926 -110.538082 
L 136.854545 -110.946351 
L 133.780165 -111.370369 
L 130.705785 -111.799757 
L 127.631405 -112.223169 
L 124.557025 -112.628664 
L 121.482645 -113.004115 
L 118.408264 -113.337603 
L 115.333884 -113.617781 
L 112.259504 -113.834166 
L 109.185124 -113.977343 
L 106.110744 -114.039078 
L 103.036364 -114.01235 
L 99.961983 -113.89132 
L 96.887603 -113.67127 
L 93.813223 -113.348543 
L 90.738843 -112.920473 
L 87.664463 -112.385354 
L 84.590083 -111.742412 
L 81.515702 -110.9918 
L 78.441322 -110.134595 
L 75.366942 -109.172801 
L 72.292562 -108.10934 
L 69.218182 -106.948034 
L 69.218182 -182.177506 
L 69.218182 -182.177506 
L 72.292562 -179.971603 
L 75.366942 -177.757902 
L 78.441322 -175.550211 
L 81.515702 -173.362784 
L 84.590083 -171.21019 
L 87.664463 -169.107163 
L 90.738843 -167.068444 
L 93.813223 -165.108594 
L 96.887603 -163.241788 
L 99.961983 -161.481571 
L 103.036364 -159.840587 
L 106.110744 -158.330282 
L 109.185124 -156.960591 
L 112.259504 -155.739629 
L 115.333884 -154.673424 
L 118.408264 -153.76571 
L 121.482645 -153.017816 
L 124.557025 -152.428668 
L 127.631405 -151.994892 
L 130.705785 -151.71102 
L 133.780165 -151.56975 
L 136.854545 -151.562252 
L 139.928926 -151.678479 
L 143.003306 -151.907457 
L 146.077686 -152.237566 
L 149.152066 -152.656784 
L 152.226446 -153.152915 
L 155.300826 -153.713795 
L 158.375207 -154.327484 
L 161.449587 -154.982445 
L 164.523967 -155.667714 
L 167.598347 -156.373056 
L 170.672727 -157.089104 
L 173.747107 -157.80748 
L 176.821488 -158.520883 
L 179.895868 -159.223148 
L 182.970248 -159.90927 
L 186.044628 -160.575372 
L 189.119008 -161.21865 
L 192.193388 -161.83726 
L 195.267769 -162.43018 
L 198.342149 -162.997043 
L 201.416529 -163.537965 
L 204.490909 -164.053371 
L 207.565289 -164.543848 
L 210.639669 -165.010028 
L 213.71405 -165.452514 
L 216.78843 -165.871864 
L 219.86281 -166.268602 
L 222.93719 -166.64329 
L 226.01157 -166.996611 
L 229.08595 -167.32947 
L 232.160331 -167.643105 
L 235.234711 -167.939173 
L 238.309091 -168.219822 
L 241.383471 -168.487742 
L 244.457851 -168.746172 
L 247.532231 -168.998885 
L 250.606612 -169.25014 
L 253.680992 -169.504609 
L 256.755372 -169.767277 
L 259.829752 -170.043331 
L 262.904132 -170.338035 
L 265.978512 -170.656597 
L 269.052893 -171.004036 
L 272.127273 -171.385061 
L 275.201653 -171.803946 
L 278.276033 -172.264426 
L 281.350413 -172.769612 
L 284.424793 -173.321913 
L 287.499174 -173.922989 
L 290.573554 -174.573719 
L 293.647934 -175.274186 
L 296.722314 -176.02369 
L 299.796694 -176.820773 
L 302.871074 -177.663261 
L 305.945455 -178.548323 
L 309.019835 -179.472541 
L 312.094215 -180.431988 
L 315.168595 -181.422311 
L 318.242975 -182.438823 
L 321.317355 -183.476592 
L 324.391736 -184.530529 
L 327.466116 -185.59548 
L 330.540496 -186.6663 
L 333.614876 -187.737935 
L 336.689256 -188.805488 
L 339.763636 -189.864277 
L 342.838017 -190.90989 
L 345.912397 -191.938225 
L 348.986777 -192.945524 
L 352.061157 -193.928397 
L 355.135537 -194.88384 
L 358.209917 -195.809239 
L 361.284298 -196.702379 
L 364.358678 -197.561428 
L 367.433058 -198.384938 
L 370.507438 -199.171821 
L 373.581818 -199.921334 
z
" style="stroke: #0000ff; stroke-opacity: 0.3"/>
    </defs>
    <g clip-path="url(#p2e538fc243)">
     <use xlink:href="#m6bb880d3d7" x="0" y="288" style="fill: #0000ff; fill-opacity: 0.3; stroke: #0000ff; stroke-opacity: 0.3"/>
    </g>
   </g>
   <g id="matplotlib.axis_3">
    <g id="ytick_8">
     <g id="line2d_16">
      <defs>
       <path id="m3e905112d0" d="M 0 0 
L 3.5 0 
" style="stroke: #000000; stroke-width: 0.8"/>
      </defs>
      <g>
       <use xlink:href="#m3e905112d0" x="388.8" y="233.88" style="stroke: #000000; stroke-width: 0.8"/>
      </g>
     </g>
     <g id="text_16">
      <!-- 3 -->
      <g transform="translate(395.8 237.679219)scale(0.1 -0.1)">
       <defs>
        <path id="DejaVuSans-33" d="M 2597 2516 
Q 3050 2419 3304 2112 
Q 3559 1806 3559 1356 
Q 3559 666 3084 287 
Q 2609 -91 1734 -91 
Q 1441 -91 1130 -33 
Q 819 25 488 141 
L 488 750 
Q 750 597 1062 519 
Q 1375 441 1716 441 
Q 2309 441 2620 675 
Q 2931 909 2931 1356 
Q 2931 1769 2642 2001 
Q 2353 2234 1838 2234 
L 1294 2234 
L 1294 2753 
L 1863 2753 
Q 2328 2753 2575 2939 
Q 2822 3125 2822 3475 
Q 2822 3834 2567 4026 
Q 2313 4219 1838 4219 
Q 1578 4219 1281 4162 
Q 984 4106 628 3988 
L 628 4550 
Q 988 4650 1302 4700 
Q 1616 4750 1894 4750 
Q 2613 4750 3031 4423 
Q 3450 4097 3450 3541 
Q 3450 3153 3228 2886 
Q 3006 2619 2597 2516 
z
" transform="scale(0.015625)"/>
       </defs>
       <use xlink:href="#DejaVuSans-33"/>
      </g>
     </g>
    </g>
    <g id="ytick_9">
     <g id="line2d_17">
      <g>
       <use xlink:href="#m3e905112d0" x="388.8" y="197.64" style="stroke: #000000; stroke-width: 0.8"/>
      </g>
     </g>
     <g id="text_17">
      <!-- 4 -->
      <g transform="translate(395.8 201.439219)scale(0.1 -0.1)">
       <use xlink:href="#DejaVuSans-34"/>
      </g>
     </g>
    </g>
    <g id="ytick_10">
     <g id="line2d_18">
      <g>
       <use xlink:href="#m3e905112d0" x="388.8" y="161.4" style="stroke: #000000; stroke-width: 0.8"/>
      </g>
     </g>
     <g id="text_18">
      <!-- 5 -->
      <g transform="translate(395.8 165.199219)scale(0.1 -0.1)">
       <use xlink:href="#DejaVuSans-35"/>
      </g>
     </g>
    </g>
    <g id="ytick_11">
     <g id="line2d_19">
      <g>
       <use xlink:href="#m3e905112d0" x="388.8" y="125.16" style="stroke: #000000; stroke-width: 0.8"/>
      </g>
     </g>
     <g id="text_19">
      <!-- 6 -->
      <g transform="translate(395.8 128.959219)scale(0.1 -0.1)">
       <use xlink:href="#DejaVuSans-36"/>
      </g>
     </g>
    </g>
    <g id="ytick_12">
     <g id="line2d_20">
      <g>
       <use xlink:href="#m3e905112d0" x="388.8" y="88.92" style="stroke: #000000; stroke-width: 0.8"/>
      </g>
     </g>
     <g id="text_20">
      <!-- 7 -->
      <g transform="translate(395.8 92.719219)scale(0.1 -0.1)">
       <use xlink:href="#DejaVuSans-37"/>
      </g>
     </g>
    </g>
    <g id="ytick_13">
     <g id="line2d_21">
      <g>
       <use xlink:href="#m3e905112d0" x="388.8" y="52.68" style="stroke: #000000; stroke-width: 0.8"/>
      </g>
     </g>
     <g id="text_21">
      <!-- 8 -->
      <g transform="translate(395.8 56.479219)scale(0.1 -0.1)">
       <use xlink:href="#DejaVuSans-38"/>
      </g>
     </g>
    </g>
    <g id="text_22">
     <!-- Modulus (GPa) -->
     <g style="fill: #0000ff" transform="translate(413.760938 179.377656)rotate(-90)scale(0.1 -0.1)">
      <defs>
       <path id="DejaVuSans-4d" d="M 628 4666 
L 1569 4666 
L 2759 1491 
L 3956 4666 
L 4897 4666 
L 4897 0 
L 4281 0 
L 4281 4097 
L 3078 897 
L 2444 897 
L 1241 4097 
L 1241 0 
L 628 0 
L 628 4666 
z
" transform="scale(0.015625)"/>
       <path id="DejaVuSans-64" d="M 2906 2969 
L 2906 4863 
L 3481 4863 
L 3481 0 
L 2906 0 
L 2906 525 
Q 2725 213 2448 61 
Q 2172 -91 1784 -91 
Q 1150 -91 751 415 
Q 353 922 353 1747 
Q 353 2572 751 3078 
Q 1150 3584 1784 3584 
Q 2172 3584 2448 3432 
Q 2725 3281 2906 2969 
z
M 947 1747 
Q 947 1113 1208 752 
Q 1469 391 1925 391 
Q 2381 391 2643 752 
Q 2906 1113 2906 1747 
Q 2906 2381 2643 2742 
Q 2381 3103 1925 3103 
Q 1469 3103 1208 2742 
Q 947 2381 947 1747 
z
" transform="scale(0.015625)"/>
       <path id="DejaVuSans-6c" d="M 603 4863 
L 1178 4863 
L 1178 0 
L 603 0 
L 603 4863 
z
" transform="scale(0.015625)"/>
       <path id="DejaVuSans-47" d="M 3809 666 
L 3809 1919 
L 2778 1919 
L 2778 2438 
L 4434 2438 
L 4434 434 
Q 4069 175 3628 42 
Q 3188 -91 2688 -91 
Q 1594 -91 976 548 
Q 359 1188 359 2328 
Q 359 3472 976 4111 
Q 1594 4750 2688 4750 
Q 3144 4750 3555 4637 
Q 3966 4525 4313 4306 
L 4313 3634 
Q 3963 3931 3569 4081 
Q 3175 4231 2741 4231 
Q 1884 4231 1454 3753 
Q 1025 3275 1025 2328 
Q 1025 1384 1454 906 
Q 1884 428 2741 428 
Q 3075 428 3337 486 
Q 3600 544 3809 666 
z
" transform="scale(0.015625)"/>
       <path id="DejaVuSans-50" d="M 1259 4147 
L 1259 2394 
L 2053 2394 
Q 2494 2394 2734 2622 
Q 2975 2850 2975 3272 
Q 2975 3691 2734 3919 
Q 2494 4147 2053 4147 
L 1259 4147 
z
M 628 4666 
L 2053 4666 
Q 2838 4666 3239 4311 
Q 3641 3956 3641 3272 
Q 3641 2581 3239 2228 
Q 2838 1875 2053 1875 
L 1259 1875 
L 1259 0 
L 628 0 
L 628 4666 
z
" transform="scale(0.015625)"/>
      </defs>
      <use xlink:href="#DejaVuSans-4d"/>
      <use xlink:href="#DejaVuSans-6f" x="86.279297"/>
      <use xlink:href="#DejaVuSans-64" x="147.460938"/>
      <use xlink:href="#DejaVuSans-75" x="210.9375"/>
      <use xlink:href="#DejaVuSans-6c" x="274.316406"/>
      <use xlink:href="#DejaVuSans-75" x="302.099609"/>
      <use xlink:href="#DejaVuSans-73" x="365.478516"/>
      <use xlink:href="#DejaVuSans-20" x="417.578125"/>
      <use xlink:href="#DejaVuSans-28" x="449.365234"/>
      <use xlink:href="#DejaVuSans-47" x="488.378906"/>
      <use xlink:href="#DejaVuSans-50" x="565.869141"/>
      <use xlink:href="#DejaVuSans-61" x="621.671875"/>
      <use xlink:href="#DejaVuSans-29" x="682.951172"/>
     </g>
    </g>
   </g>
   <g id="line2d_22">
    <path d="M 373.581818 165.63312 
L 370.507438 166.124967 
L 367.433058 166.628497 
L 364.358678 167.141296 
L 361.284298 167.660638 
L 358.209917 168.183489 
L 355.135537 168.706513 
L 352.061157 169.226087 
L 348.986777 169.738318 
L 345.912397 170.239069 
L 342.838017 170.723988 
L 339.763636 171.188546 
L 336.689256 171.628074 
L 333.614876 172.037815 
L 330.540496 172.412977 
L 327.466116 172.748783 
L 324.391736 173.040542 
L 321.317355 173.283705 
L 318.242975 173.473938 
L 315.168595 173.60719 
L 312.094215 173.679759 
L 309.019835 173.688366 
L 305.945455 173.630219 
L 302.871074 173.503076 
L 299.796694 173.30531 
L 296.722314 173.035958 
L 293.647934 172.69477 
L 290.573554 172.282248 
L 287.499174 171.799674 
L 284.424793 171.249132 
L 281.350413 170.633513 
L 278.276033 169.956512 
L 275.201653 169.222609 
L 272.127273 168.437042 
L 269.052893 167.60576 
L 265.978512 166.73537 
L 262.904132 165.833066 
L 259.829752 164.906549 
L 256.755372 163.963933 
L 253.680992 163.013646 
L 250.606612 162.064318 
L 247.532231 161.124664 
L 244.457851 160.20336 
L 241.383471 159.308919 
L 238.309091 158.449566 
L 235.234711 157.633109 
L 232.160331 156.866818 
L 229.08595 156.157313 
L 226.01157 155.510451 
L 222.93719 154.931231 
L 219.86281 154.423704 
L 216.78843 153.990906 
L 213.71405 153.6348 
L 210.639669 153.356235 
L 207.565289 153.154921 
L 204.490909 153.029432 
L 201.416529 152.977218 
L 198.342149 152.994636 
L 195.267769 153.077008 
L 192.193388 153.218687 
L 189.119008 153.413147 
L 186.044628 153.65308 
L 182.970248 153.930519 
L 179.895868 154.236958 
L 176.821488 154.563492 
L 173.747107 154.900958 
L 170.672727 155.240086 
L 167.598347 155.571645 
L 164.523967 155.88659 
L 161.449587 156.176211 
L 158.375207 156.432268 
L 155.300826 156.647119 
L 152.226446 156.813844 
L 149.152066 156.926346 
L 146.077686 156.979445 
L 143.003306 156.96895 
L 139.928926 156.891719 
L 136.854545 156.745698 
L 133.780165 156.529941 
L 130.705785 156.244612 
L 127.631405 155.890969 
L 124.557025 155.471334 
L 121.482645 154.989034 
L 118.408264 154.448343 
L 115.333884 153.854397 
L 112.259504 153.213102 
L 109.185124 152.531033 
L 106.110744 151.81532 
L 103.036364 151.073531 
L 99.961983 150.313555 
L 96.887603 149.543471 
L 93.813223 148.771431 
L 90.738843 148.005542 
L 87.664463 147.253742 
L 84.590083 146.523699 
L 81.515702 145.822708 
L 78.441322 145.157597 
L 75.366942 144.534648 
L 72.292562 143.959528 
L 69.218182 143.43723 
" clip-path="url(#p2e538fc243)" style="fill: none; stroke: #0000ff; stroke-width: 0.5; stroke-linecap: square"/>
   </g>
   <g id="patch_7">
    <path d="M 54 252 
L 54 34.56 
" style="fill: none; stroke: #000000; stroke-width: 0.8; stroke-linejoin: miter; stroke-linecap: square"/>
   </g>
   <g id="patch_8">
    <path d="M 388.8 252 
L 388.8 34.56 
" style="fill: none; stroke: #000000; stroke-width: 0.8; stroke-linejoin: miter; stroke-linecap: square"/>
   </g>
   <g id="patch_9">
    <path d="M 54 252 
L 388.8 252 
" style="fill: none; stroke: #000000; stroke-width: 0.8; stroke-linejoin: miter; stroke-linecap: square"/>
   </g>
   <g id="patch_10">
    <path d="M 54 34.56 
L 388.8 34.56 
" style="fill: none; stroke: #000000; stroke-width: 0.8; stroke-linejoin: miter; stroke-linecap: square"/>
   </g>
  </g>
 </g>
 <defs>
  <clipPath id="p2e538fc243">
   <rect x="54" y="34.56" width="334.8" height="217.44"/>
  </clipPath>
 </defs>
</svg>
