<?xml version="1.0" encoding="utf-8" standalone="no"?>
<!DOCTYPE svg PUBLIC "-//W3C//DTD SVG 1.1//EN"
  "http://www.w3.org/Graphics/SVG/1.1/DTD/svg11.dtd">
<svg xmlns:xlink="http://www.w3.org/1999/xlink" width="432pt" height="288pt" viewBox="0 0 432 288" xmlns="http://www.w3.org/2000/svg" version="1.1">
 <metadata>
  <rdf:RDF xmlns:dc="http://purl.org/dc/elements/1.1/" xmlns:cc="http://creativecommons.org/ns#" xmlns:rdf="http://www.w3.org/1999/02/22-rdf-syntax-ns#">
   <cc:Work>
    <dc:type rdf:resource="http://purl.org/dc/dcmitype/StillImage"/>
    <dc:date>2023-05-11T13:48:33.487142</dc:date>
    <dc:format>image/svg+xml</dc:format>
    <dc:creator>
     <cc:Agent>
      <dc:title>Matplotlib v3.5.1, https://matplotlib.org/</dc:title>
     </cc:Agent>
    </dc:creator>
   </cc:Work>
  </rdf:RDF>
 </metadata>
 <defs>
  <style type="text/css">*{stroke-linejoin: round; stroke-linecap: butt}</style>
 </defs>
 <g id="figure_1">
  <g id="patch_1">
   <path d="M 0 288 
L 432 288 
L 432 0 
L 0 0 
L 0 288 
z
" style="fill: none"/>
  </g>
  <g id="axes_1">
   <g id="patch_2">
    <path d="M 54 252 
L 388.8 252 
L 388.8 34.56 
L 54 34.56 
z
" style="fill: #ffffff"/>
   </g>
   <g id="PolyCollection_1">
    <defs>
     <path id="mdc02a7f5e5" d="M 69.218182 -191.064528 
L 69.218182 -189.906654 
L 72.292562 -190.548549 
L 75.366942 -191.212332 
L 78.441322 -191.897591 
L 81.515702 -192.603858 
L 84.590083 -193.33061 
L 87.664463 -194.077264 
L 90.738843 -194.843187 
L 93.813223 -195.627691 
L 96.887603 -196.430038 
L 99.961983 -197.249441 
L 103.036364 -198.085066 
L 106.110744 -198.936036 
L 109.185124 -199.801431 
L 112.259504 -200.680291 
L 115.333884 -201.571622 
L 118.408264 -202.474394 
L 121.482645 -203.387546 
L 124.557025 -204.309991 
L 127.631405 -205.240613 
L 130.705785 -206.178276 
L 133.780165 -207.121824 
L 136.854545 -208.070086 
L 139.928926 -209.021872 
L 143.003306 -209.975986 
L 146.077686 -210.931221 
L 149.152066 -211.886363 
L 152.226446 -212.840195 
L 155.300826 -213.7915 
L 158.375207 -214.73906 
L 161.449587 -215.681659 
L 164.523967 -216.618088 
L 167.598347 -217.547143 
L 170.672727 -218.467627 
L 173.747107 -219.378356 
L 176.821488 -220.278154 
L 179.895868 -221.165857 
L 182.970248 -222.040317 
L 186.044628 -222.900397 
L 189.119008 -223.744978 
L 192.193388 -224.572954 
L 195.267769 -225.38324 
L 198.342149 -226.174764 
L 201.416529 -226.946476 
L 204.490909 -227.69734 
L 207.565289 -228.426345 
L 210.639669 -229.132495 
L 213.71405 -229.814816 
L 216.78843 -230.472352 
L 219.86281 -231.09857 
L 222.93719 -231.677895 
L 226.01157 -232.229832 
L 229.08595 -232.753578 
L 232.160331 -233.248315 
L 235.234711 -233.713251 
L 238.309091 -234.147621 
L 241.383471 -234.550692 
L 244.457851 -234.921762 
L 247.532231 -235.260165 
L 250.606612 -235.565269 
L 253.680992 -235.836481 
L 256.755372 -236.073246 
L 259.829752 -236.275055 
L 262.904132 -236.44144 
L 265.978512 -236.571983 
L 269.052893 -236.666312 
L 272.127273 -236.724108 
L 275.201653 -236.745108 
L 278.276033 -236.729103 
L 281.350413 -236.675941 
L 284.424793 -236.585534 
L 287.499174 -236.457854 
L 290.573554 -236.292939 
L 293.647934 -236.090891 
L 296.722314 -235.851884 
L 299.796694 -235.576157 
L 302.871074 -235.264022 
L 305.945455 -234.915861 
L 309.019835 -234.532128 
L 312.094215 -234.113352 
L 315.168595 -233.660132 
L 318.242975 -233.173139 
L 321.317355 -232.653118 
L 324.391736 -232.100885 
L 327.466116 -231.517325 
L 330.540496 -230.903392 
L 333.614876 -230.260107 
L 336.689256 -229.588558 
L 339.763636 -228.889891 
L 342.838017 -228.165316 
L 345.912397 -227.416096 
L 348.986777 -226.643551 
L 352.061157 -225.849048 
L 355.135537 -225.034 
L 358.209917 -224.199862 
L 361.284298 -223.348124 
L 364.358678 -222.480312 
L 367.433058 -221.597975 
L 370.507438 -220.702686 
L 373.581818 -219.796034 
L 373.581818 -220.752524 
L 373.581818 -220.752524 
L 370.507438 -221.643819 
L 367.433058 -222.523947 
L 364.358678 -223.391313 
L 361.284298 -224.244334 
L 358.209917 -225.081443 
L 355.135537 -225.901097 
L 352.061157 -226.701779 
L 348.986777 -227.482006 
L 345.912397 -228.240333 
L 342.838017 -228.975359 
L 339.763636 -229.685727 
L 336.689256 -230.370135 
L 333.614876 -231.027335 
L 330.540496 -231.656141 
L 327.466116 -232.255427 
L 324.391736 -232.824135 
L 321.317355 -233.361274 
L 318.242975 -233.865925 
L 315.168595 -234.337243 
L 312.094215 -234.774454 
L 309.019835 -235.176862 
L 305.945455 -235.543845 
L 302.871074 -235.874858 
L 299.796694 -236.169434 
L 296.722314 -236.427177 
L 293.647934 -236.647771 
L 290.573554 -236.830971 
L 287.499174 -236.976604 
L 284.424793 -237.084569 
L 281.350413 -237.154834 
L 278.276033 -237.187432 
L 275.201653 -237.182465 
L 272.127273 -237.140092 
L 269.052893 -237.060535 
L 265.978512 -236.944073 
L 262.904132 -236.791039 
L 259.829752 -236.601819 
L 256.755372 -236.376849 
L 253.680992 -236.116609 
L 250.606612 -235.821627 
L 247.532231 -235.492472 
L 244.457851 -235.129752 
L 241.383471 -234.734114 
L 238.309091 -234.306239 
L 235.234711 -233.846843 
L 232.160331 -233.356672 
L 229.08595 -232.836505 
L 226.01157 -232.287147 
L 222.93719 -231.709433 
L 219.86281 -231.104264 
L 216.78843 -230.492901 
L 213.71405 -229.861569 
L 210.639669 -229.205584 
L 207.565289 -228.525881 
L 204.490909 -227.823416 
L 201.416529 -227.099171 
L 198.342149 -226.354144 
L 195.267769 -225.589353 
L 192.193388 -224.805835 
L 189.119008 -224.004643 
L 186.044628 -223.186847 
L 182.970248 -222.353534 
L 179.895868 -221.505808 
L 176.821488 -220.644785 
L 173.747107 -219.771596 
L 170.672727 -218.887388 
L 167.598347 -217.993316 
L 164.523967 -217.090549 
L 161.449587 -216.180264 
L 158.375207 -215.263649 
L 155.300826 -214.341896 
L 152.226446 -213.416204 
L 149.152066 -212.487776 
L 146.077686 -211.557815 
L 143.003306 -210.627524 
L 139.928926 -209.698104 
L 136.854545 -208.770749 
L 133.780165 -207.846648 
L 130.705785 -206.926977 
L 127.631405 -206.0129 
L 124.557025 -205.105566 
L 121.482645 -204.206103 
L 118.408264 -203.315619 
L 115.333884 -202.435198 
L 112.259504 -201.565894 
L 109.185124 -200.708733 
L 106.110744 -199.864706 
L 103.036364 -199.034767 
L 99.961983 -198.219834 
L 96.887603 -197.420781 
L 93.813223 -196.638437 
L 90.738843 -195.873586 
L 87.664463 -195.126963 
L 84.590083 -194.399252 
L 81.515702 -193.691084 
L 78.441322 -193.003035 
L 75.366942 -192.335627 
L 72.292562 -191.689322 
L 69.218182 -191.064528 
z
" style="stroke: #ff0000; stroke-opacity: 0.5"/>
    </defs>
    <g clip-path="url(#pf0e6325051)">
     <use xlink:href="#mdc02a7f5e5" x="0" y="288" style="fill: #ff0000; fill-opacity: 0.5; stroke: #ff0000; stroke-opacity: 0.5"/>
    </g>
   </g>
   <g id="PolyCollection_2">
    <defs>
     <path id="m06414cc88d" d="M 69.218182 -191.643465 
L 69.218182 -189.327717 
L 72.292562 -189.978163 
L 75.366942 -190.650684 
L 78.441322 -191.344868 
L 81.515702 -192.060245 
L 84.590083 -192.796288 
L 87.664463 -193.552415 
L 90.738843 -194.327988 
L 93.813223 -195.122318 
L 96.887603 -195.934667 
L 99.961983 -196.764244 
L 103.036364 -197.610216 
L 106.110744 -198.471701 
L 109.185124 -199.34778 
L 112.259504 -200.23749 
L 115.333884 -201.139834 
L 118.408264 -202.053781 
L 121.482645 -202.978268 
L 124.557025 -203.912203 
L 127.631405 -204.854469 
L 130.705785 -205.803925 
L 133.780165 -206.759413 
L 136.854545 -207.719754 
L 139.928926 -208.683757 
L 143.003306 -209.650218 
L 146.077686 -210.617924 
L 149.152066 -211.585656 
L 152.226446 -212.552191 
L 155.300826 -213.516302 
L 158.375207 -214.476765 
L 161.449587 -215.432356 
L 164.523967 -216.381857 
L 167.598347 -217.324056 
L 170.672727 -218.257747 
L 173.747107 -219.181736 
L 176.821488 -220.094838 
L 179.895868 -220.995882 
L 182.970248 -221.883708 
L 186.044628 -222.757172 
L 189.119008 -223.615145 
L 192.193388 -224.456514 
L 195.267769 -225.280183 
L 198.342149 -226.085075 
L 201.416529 -226.870128 
L 204.490909 -227.634303 
L 207.565289 -228.376577 
L 210.639669 -229.09595 
L 213.71405 -229.79144 
L 216.78843 -230.462077 
L 219.86281 -231.095723 
L 222.93719 -231.662125 
L 226.01157 -232.201175 
L 229.08595 -232.712115 
L 232.160331 -233.194137 
L 235.234711 -233.646455 
L 238.309091 -234.068311 
L 241.383471 -234.45898 
L 244.457851 -234.817767 
L 247.532231 -235.144012 
L 250.606612 -235.437091 
L 253.680992 -235.696417 
L 256.755372 -235.921445 
L 259.829752 -236.111673 
L 262.904132 -236.266641 
L 265.978512 -236.385937 
L 269.052893 -236.4692 
L 272.127273 -236.516117 
L 275.201653 -236.52643 
L 278.276033 -236.499938 
L 281.350413 -236.436495 
L 284.424793 -236.336017 
L 287.499174 -236.198479 
L 290.573554 -236.023922 
L 293.647934 -235.812451 
L 296.722314 -235.564237 
L 299.796694 -235.279519 
L 302.871074 -234.958603 
L 305.945455 -234.601869 
L 309.019835 -234.209762 
L 312.094215 -233.782801 
L 315.168595 -233.321576 
L 318.242975 -232.826745 
L 321.317355 -232.29904 
L 324.391736 -231.73926 
L 327.466116 -231.148273 
L 330.540496 -230.527017 
L 333.614876 -229.876493 
L 336.689256 -229.197769 
L 339.763636 -228.491973 
L 342.838017 -227.760294 
L 345.912397 -227.003978 
L 348.986777 -226.224324 
L 352.061157 -225.422683 
L 355.135537 -224.600452 
L 358.209917 -223.759071 
L 361.284298 -222.90002 
L 364.358678 -222.024811 
L 367.433058 -221.134989 
L 370.507438 -220.232119 
L 373.581818 -219.317789 
L 373.581818 -221.23077 
L 373.581818 -221.23077 
L 370.507438 -222.114386 
L 367.433058 -222.986933 
L 364.358678 -223.846814 
L 361.284298 -224.692439 
L 358.209917 -225.522234 
L 355.135537 -226.334645 
L 352.061157 -227.128144 
L 348.986777 -227.901233 
L 345.912397 -228.652452 
L 342.838017 -229.38038 
L 339.763636 -230.083644 
L 336.689256 -230.760923 
L 333.614876 -231.410949 
L 330.540496 -232.032516 
L 327.466116 -232.624478 
L 324.391736 -233.18576 
L 321.317355 -233.715352 
L 318.242975 -234.212319 
L 315.168595 -234.675798 
L 312.094215 -235.105005 
L 309.019835 -235.499228 
L 305.945455 -235.857837 
L 302.871074 -236.180277 
L 299.796694 -236.466072 
L 296.722314 -236.714824 
L 293.647934 -236.926211 
L 290.573554 -237.099987 
L 287.499174 -237.235979 
L 284.424793 -237.334086 
L 281.350413 -237.39428 
L 278.276033 -237.416597 
L 275.201653 -237.401143 
L 272.127273 -237.348083 
L 269.052893 -237.257647 
L 265.978512 -237.130118 
L 262.904132 -236.965839 
L 259.829752 -236.765202 
L 256.755372 -236.52865 
L 253.680992 -236.256673 
L 250.606612 -235.949806 
L 247.532231 -235.608625 
L 244.457851 -235.233747 
L 241.383471 -234.825825 
L 238.309091 -234.385548 
L 235.234711 -233.913639 
L 232.160331 -233.410851 
L 229.08595 -232.877968 
L 226.01157 -232.315804 
L 222.93719 -231.725202 
L 219.86281 -231.107111 
L 216.78843 -230.503176 
L 213.71405 -229.884946 
L 210.639669 -229.242129 
L 207.565289 -228.575648 
L 204.490909 -227.886454 
L 201.416529 -227.175519 
L 198.342149 -226.443834 
L 195.267769 -225.69241 
L 192.193388 -224.922275 
L 189.119008 -224.134475 
L 186.044628 -223.330071 
L 182.970248 -222.510143 
L 179.895868 -221.675783 
L 176.821488 -220.8281 
L 173.747107 -219.968216 
L 170.672727 -219.097268 
L 167.598347 -218.216403 
L 164.523967 -217.326779 
L 161.449587 -216.429567 
L 158.375207 -215.525944 
L 155.300826 -214.617094 
L 152.226446 -213.704209 
L 149.152066 -212.788482 
L 146.077686 -211.871112 
L 143.003306 -210.953293 
L 139.928926 -210.036219 
L 136.854545 -209.121081 
L 133.780165 -208.20906 
L 130.705785 -207.301328 
L 127.631405 -206.399044 
L 124.557025 -205.503353 
L 121.482645 -204.615381 
L 118.408264 -203.736232 
L 115.333884 -202.866986 
L 112.259504 -202.008696 
L 109.185124 -201.162384 
L 106.110744 -200.32904 
L 103.036364 -199.509618 
L 99.961983 -198.705031 
L 96.887603 -197.916152 
L 93.813223 -197.143809 
L 90.738843 -196.388786 
L 87.664463 -195.651813 
L 84.590083 -194.933574 
L 81.515702 -194.234697 
L 78.441322 -193.555758 
L 75.366942 -192.897274 
L 72.292562 -192.259709 
L 69.218182 -191.643465 
z
" style="stroke: #ff0000; stroke-opacity: 0.3"/>
    </defs>
    <g clip-path="url(#pf0e6325051)">
     <use xlink:href="#m06414cc88d" x="0" y="288" style="fill: #ff0000; fill-opacity: 0.3; stroke: #ff0000; stroke-opacity: 0.3"/>
    </g>
   </g>
   <g id="matplotlib.axis_1">
    <g id="xtick_1">
     <g id="line2d_1">
      <defs>
       <path id="mdbde9ea834" d="M 0 0 
L 0 3.5 
" style="stroke: #000000; stroke-width: 0.8"/>
      </defs>
      <g>
       <use xlink:href="#mdbde9ea834" x="96.135696" y="252" style="stroke: #000000; stroke-width: 0.8"/>
      </g>
     </g>
     <g id="text_1">
      <!-- 400 -->
      <g transform="translate(86.591946 266.598437)scale(0.1 -0.1)">
       <defs>
        <path id="DejaVuSans-34" d="M 2419 4116 
L 825 1625 
L 2419 1625 
L 2419 4116 
z
M 2253 4666 
L 3047 4666 
L 3047 1625 
L 3713 1625 
L 3713 1100 
L 3047 1100 
L 3047 0 
L 2419 0 
L 2419 1100 
L 313 1100 
L 313 1709 
L 2253 4666 
z
" transform="scale(0.015625)"/>
        <path id="DejaVuSans-30" d="M 2034 4250 
Q 1547 4250 1301 3770 
Q 1056 3291 1056 2328 
Q 1056 1369 1301 889 
Q 1547 409 2034 409 
Q 2525 409 2770 889 
Q 3016 1369 3016 2328 
Q 3016 3291 2770 3770 
Q 2525 4250 2034 4250 
z
M 2034 4750 
Q 2819 4750 3233 4129 
Q 3647 3509 3647 2328 
Q 3647 1150 3233 529 
Q 2819 -91 2034 -91 
Q 1250 -91 836 529 
Q 422 1150 422 2328 
Q 422 3509 836 4129 
Q 1250 4750 2034 4750 
z
" transform="scale(0.015625)"/>
       </defs>
       <use xlink:href="#DejaVuSans-34"/>
       <use xlink:href="#DejaVuSans-30" x="63.623047"/>
       <use xlink:href="#DejaVuSans-30" x="127.246094"/>
      </g>
     </g>
    </g>
    <g id="xtick_2">
     <g id="line2d_2">
      <g>
       <use xlink:href="#mdbde9ea834" x="159.248051" y="252" style="stroke: #000000; stroke-width: 0.8"/>
      </g>
     </g>
     <g id="text_2">
      <!-- 420 -->
      <g transform="translate(149.704301 266.598437)scale(0.1 -0.1)">
       <defs>
        <path id="DejaVuSans-32" d="M 1228 531 
L 3431 531 
L 3431 0 
L 469 0 
L 469 531 
Q 828 903 1448 1529 
Q 2069 2156 2228 2338 
Q 2531 2678 2651 2914 
Q 2772 3150 2772 3378 
Q 2772 3750 2511 3984 
Q 2250 4219 1831 4219 
Q 1534 4219 1204 4116 
Q 875 4013 500 3803 
L 500 4441 
Q 881 4594 1212 4672 
Q 1544 4750 1819 4750 
Q 2544 4750 2975 4387 
Q 3406 4025 3406 3419 
Q 3406 3131 3298 2873 
Q 3191 2616 2906 2266 
Q 2828 2175 2409 1742 
Q 1991 1309 1228 531 
z
" transform="scale(0.015625)"/>
       </defs>
       <use xlink:href="#DejaVuSans-34"/>
       <use xlink:href="#DejaVuSans-32" x="63.623047"/>
       <use xlink:href="#DejaVuSans-30" x="127.246094"/>
      </g>
     </g>
    </g>
    <g id="xtick_3">
     <g id="line2d_3">
      <g>
       <use xlink:href="#mdbde9ea834" x="222.360405" y="252" style="stroke: #000000; stroke-width: 0.8"/>
      </g>
     </g>
     <g id="text_3">
      <!-- 440 -->
      <g transform="translate(212.816655 266.598437)scale(0.1 -0.1)">
       <use xlink:href="#DejaVuSans-34"/>
       <use xlink:href="#DejaVuSans-34" x="63.623047"/>
       <use xlink:href="#DejaVuSans-30" x="127.246094"/>
      </g>
     </g>
    </g>
    <g id="xtick_4">
     <g id="line2d_4">
      <g>
       <use xlink:href="#mdbde9ea834" x="285.47276" y="252" style="stroke: #000000; stroke-width: 0.8"/>
      </g>
     </g>
     <g id="text_4">
      <!-- 460 -->
      <g transform="translate(275.92901 266.598437)scale(0.1 -0.1)">
       <defs>
        <path id="DejaVuSans-36" d="M 2113 2584 
Q 1688 2584 1439 2293 
Q 1191 2003 1191 1497 
Q 1191 994 1439 701 
Q 1688 409 2113 409 
Q 2538 409 2786 701 
Q 3034 994 3034 1497 
Q 3034 2003 2786 2293 
Q 2538 2584 2113 2584 
z
M 3366 4563 
L 3366 3988 
Q 3128 4100 2886 4159 
Q 2644 4219 2406 4219 
Q 1781 4219 1451 3797 
Q 1122 3375 1075 2522 
Q 1259 2794 1537 2939 
Q 1816 3084 2150 3084 
Q 2853 3084 3261 2657 
Q 3669 2231 3669 1497 
Q 3669 778 3244 343 
Q 2819 -91 2113 -91 
Q 1303 -91 875 529 
Q 447 1150 447 2328 
Q 447 3434 972 4092 
Q 1497 4750 2381 4750 
Q 2619 4750 2861 4703 
Q 3103 4656 3366 4563 
z
" transform="scale(0.015625)"/>
       </defs>
       <use xlink:href="#DejaVuSans-34"/>
       <use xlink:href="#DejaVuSans-36" x="63.623047"/>
       <use xlink:href="#DejaVuSans-30" x="127.246094"/>
      </g>
     </g>
    </g>
    <g id="xtick_5">
     <g id="line2d_5">
      <g>
       <use xlink:href="#mdbde9ea834" x="348.585114" y="252" style="stroke: #000000; stroke-width: 0.8"/>
      </g>
     </g>
     <g id="text_5">
      <!-- 480 -->
      <g transform="translate(339.041364 266.598437)scale(0.1 -0.1)">
       <defs>
        <path id="DejaVuSans-38" d="M 2034 2216 
Q 1584 2216 1326 1975 
Q 1069 1734 1069 1313 
Q 1069 891 1326 650 
Q 1584 409 2034 409 
Q 2484 409 2743 651 
Q 3003 894 3003 1313 
Q 3003 1734 2745 1975 
Q 2488 2216 2034 2216 
z
M 1403 2484 
Q 997 2584 770 2862 
Q 544 3141 544 3541 
Q 544 4100 942 4425 
Q 1341 4750 2034 4750 
Q 2731 4750 3128 4425 
Q 3525 4100 3525 3541 
Q 3525 3141 3298 2862 
Q 3072 2584 2669 2484 
Q 3125 2378 3379 2068 
Q 3634 1759 3634 1313 
Q 3634 634 3220 271 
Q 2806 -91 2034 -91 
Q 1263 -91 848 271 
Q 434 634 434 1313 
Q 434 1759 690 2068 
Q 947 2378 1403 2484 
z
M 1172 3481 
Q 1172 3119 1398 2916 
Q 1625 2713 2034 2713 
Q 2441 2713 2670 2916 
Q 2900 3119 2900 3481 
Q 2900 3844 2670 4047 
Q 2441 4250 2034 4250 
Q 1625 4250 1398 4047 
Q 1172 3844 1172 3481 
z
" transform="scale(0.015625)"/>
       </defs>
       <use xlink:href="#DejaVuSans-34"/>
       <use xlink:href="#DejaVuSans-38" x="63.623047"/>
       <use xlink:href="#DejaVuSans-30" x="127.246094"/>
      </g>
     </g>
    </g>
    <g id="text_6">
     <!-- Temperature -->
     <g transform="translate(189.730469 280.276563)scale(0.1 -0.1)">
      <defs>
       <path id="DejaVuSans-54" d="M -19 4666 
L 3928 4666 
L 3928 4134 
L 2272 4134 
L 2272 0 
L 1638 0 
L 1638 4134 
L -19 4134 
L -19 4666 
z
" transform="scale(0.015625)"/>
       <path id="DejaVuSans-65" d="M 3597 1894 
L 3597 1613 
L 953 1613 
Q 991 1019 1311 708 
Q 1631 397 2203 397 
Q 2534 397 2845 478 
Q 3156 559 3463 722 
L 3463 178 
Q 3153 47 2828 -22 
Q 2503 -91 2169 -91 
Q 1331 -91 842 396 
Q 353 884 353 1716 
Q 353 2575 817 3079 
Q 1281 3584 2069 3584 
Q 2775 3584 3186 3129 
Q 3597 2675 3597 1894 
z
M 3022 2063 
Q 3016 2534 2758 2815 
Q 2500 3097 2075 3097 
Q 1594 3097 1305 2825 
Q 1016 2553 972 2059 
L 3022 2063 
z
" transform="scale(0.015625)"/>
       <path id="DejaVuSans-6d" d="M 3328 2828 
Q 3544 3216 3844 3400 
Q 4144 3584 4550 3584 
Q 5097 3584 5394 3201 
Q 5691 2819 5691 2113 
L 5691 0 
L 5113 0 
L 5113 2094 
Q 5113 2597 4934 2840 
Q 4756 3084 4391 3084 
Q 3944 3084 3684 2787 
Q 3425 2491 3425 1978 
L 3425 0 
L 2847 0 
L 2847 2094 
Q 2847 2600 2669 2842 
Q 2491 3084 2119 3084 
Q 1678 3084 1418 2786 
Q 1159 2488 1159 1978 
L 1159 0 
L 581 0 
L 581 3500 
L 1159 3500 
L 1159 2956 
Q 1356 3278 1631 3431 
Q 1906 3584 2284 3584 
Q 2666 3584 2933 3390 
Q 3200 3197 3328 2828 
z
" transform="scale(0.015625)"/>
       <path id="DejaVuSans-70" d="M 1159 525 
L 1159 -1331 
L 581 -1331 
L 581 3500 
L 1159 3500 
L 1159 2969 
Q 1341 3281 1617 3432 
Q 1894 3584 2278 3584 
Q 2916 3584 3314 3078 
Q 3713 2572 3713 1747 
Q 3713 922 3314 415 
Q 2916 -91 2278 -91 
Q 1894 -91 1617 61 
Q 1341 213 1159 525 
z
M 3116 1747 
Q 3116 2381 2855 2742 
Q 2594 3103 2138 3103 
Q 1681 3103 1420 2742 
Q 1159 2381 1159 1747 
Q 1159 1113 1420 752 
Q 1681 391 2138 391 
Q 2594 391 2855 752 
Q 3116 1113 3116 1747 
z
" transform="scale(0.015625)"/>
       <path id="DejaVuSans-72" d="M 2631 2963 
Q 2534 3019 2420 3045 
Q 2306 3072 2169 3072 
Q 1681 3072 1420 2755 
Q 1159 2438 1159 1844 
L 1159 0 
L 581 0 
L 581 3500 
L 1159 3500 
L 1159 2956 
Q 1341 3275 1631 3429 
Q 1922 3584 2338 3584 
Q 2397 3584 2469 3576 
Q 2541 3569 2628 3553 
L 2631 2963 
z
" transform="scale(0.015625)"/>
       <path id="DejaVuSans-61" d="M 2194 1759 
Q 1497 1759 1228 1600 
Q 959 1441 959 1056 
Q 959 750 1161 570 
Q 1363 391 1709 391 
Q 2188 391 2477 730 
Q 2766 1069 2766 1631 
L 2766 1759 
L 2194 1759 
z
M 3341 1997 
L 3341 0 
L 2766 0 
L 2766 531 
Q 2569 213 2275 61 
Q 1981 -91 1556 -91 
Q 1019 -91 701 211 
Q 384 513 384 1019 
Q 384 1609 779 1909 
Q 1175 2209 1959 2209 
L 2766 2209 
L 2766 2266 
Q 2766 2663 2505 2880 
Q 2244 3097 1772 3097 
Q 1472 3097 1187 3025 
Q 903 2953 641 2809 
L 641 3341 
Q 956 3463 1253 3523 
Q 1550 3584 1831 3584 
Q 2591 3584 2966 3190 
Q 3341 2797 3341 1997 
z
" transform="scale(0.015625)"/>
       <path id="DejaVuSans-74" d="M 1172 4494 
L 1172 3500 
L 2356 3500 
L 2356 3053 
L 1172 3053 
L 1172 1153 
Q 1172 725 1289 603 
Q 1406 481 1766 481 
L 2356 481 
L 2356 0 
L 1766 0 
Q 1100 0 847 248 
Q 594 497 594 1153 
L 594 3053 
L 172 3053 
L 172 3500 
L 594 3500 
L 594 4494 
L 1172 4494 
z
" transform="scale(0.015625)"/>
       <path id="DejaVuSans-75" d="M 544 1381 
L 544 3500 
L 1119 3500 
L 1119 1403 
Q 1119 906 1312 657 
Q 1506 409 1894 409 
Q 2359 409 2629 706 
Q 2900 1003 2900 1516 
L 2900 3500 
L 3475 3500 
L 3475 0 
L 2900 0 
L 2900 538 
Q 2691 219 2414 64 
Q 2138 -91 1772 -91 
Q 1169 -91 856 284 
Q 544 659 544 1381 
z
M 1991 3584 
L 1991 3584 
z
" transform="scale(0.015625)"/>
      </defs>
      <use xlink:href="#DejaVuSans-54"/>
      <use xlink:href="#DejaVuSans-65" x="44.083984"/>
      <use xlink:href="#DejaVuSans-6d" x="105.607422"/>
      <use xlink:href="#DejaVuSans-70" x="203.019531"/>
      <use xlink:href="#DejaVuSans-65" x="266.496094"/>
      <use xlink:href="#DejaVuSans-72" x="328.019531"/>
      <use xlink:href="#DejaVuSans-61" x="369.132812"/>
      <use xlink:href="#DejaVuSans-74" x="430.412109"/>
      <use xlink:href="#DejaVuSans-75" x="469.621094"/>
      <use xlink:href="#DejaVuSans-72" x="533"/>
      <use xlink:href="#DejaVuSans-65" x="571.863281"/>
     </g>
    </g>
   </g>
   <g id="matplotlib.axis_2">
    <g id="ytick_1">
     <g id="line2d_6">
      <defs>
       <path id="mc50c73efdc" d="M 0 0 
L -3.5 0 
" style="stroke: #000000; stroke-width: 0.8"/>
      </defs>
      <g>
       <use xlink:href="#mc50c73efdc" x="54" y="252" style="stroke: #000000; stroke-width: 0.8"/>
      </g>
     </g>
     <g id="text_7">
      <!-- 400 -->
      <g transform="translate(27.9125 255.799219)scale(0.1 -0.1)">
       <use xlink:href="#DejaVuSans-34"/>
       <use xlink:href="#DejaVuSans-30" x="63.623047"/>
       <use xlink:href="#DejaVuSans-30" x="127.246094"/>
      </g>
     </g>
    </g>
    <g id="ytick_2">
     <g id="line2d_7">
      <g>
       <use xlink:href="#mc50c73efdc" x="54" y="215.76" style="stroke: #000000; stroke-width: 0.8"/>
      </g>
     </g>
     <g id="text_8">
      <!-- 450 -->
      <g transform="translate(27.9125 219.559219)scale(0.1 -0.1)">
       <defs>
        <path id="DejaVuSans-35" d="M 691 4666 
L 3169 4666 
L 3169 4134 
L 1269 4134 
L 1269 2991 
Q 1406 3038 1543 3061 
Q 1681 3084 1819 3084 
Q 2600 3084 3056 2656 
Q 3513 2228 3513 1497 
Q 3513 744 3044 326 
Q 2575 -91 1722 -91 
Q 1428 -91 1123 -41 
Q 819 9 494 109 
L 494 744 
Q 775 591 1075 516 
Q 1375 441 1709 441 
Q 2250 441 2565 725 
Q 2881 1009 2881 1497 
Q 2881 1984 2565 2268 
Q 2250 2553 1709 2553 
Q 1456 2553 1204 2497 
Q 953 2441 691 2322 
L 691 4666 
z
" transform="scale(0.015625)"/>
       </defs>
       <use xlink:href="#DejaVuSans-34"/>
       <use xlink:href="#DejaVuSans-35" x="63.623047"/>
       <use xlink:href="#DejaVuSans-30" x="127.246094"/>
      </g>
     </g>
    </g>
    <g id="ytick_3">
     <g id="line2d_8">
      <g>
       <use xlink:href="#mc50c73efdc" x="54" y="179.52" style="stroke: #000000; stroke-width: 0.8"/>
      </g>
     </g>
     <g id="text_9">
      <!-- 500 -->
      <g transform="translate(27.9125 183.319219)scale(0.1 -0.1)">
       <use xlink:href="#DejaVuSans-35"/>
       <use xlink:href="#DejaVuSans-30" x="63.623047"/>
       <use xlink:href="#DejaVuSans-30" x="127.246094"/>
      </g>
     </g>
    </g>
    <g id="ytick_4">
     <g id="line2d_9">
      <g>
       <use xlink:href="#mc50c73efdc" x="54" y="143.28" style="stroke: #000000; stroke-width: 0.8"/>
      </g>
     </g>
     <g id="text_10">
      <!-- 550 -->
      <g transform="translate(27.9125 147.079219)scale(0.1 -0.1)">
       <use xlink:href="#DejaVuSans-35"/>
       <use xlink:href="#DejaVuSans-35" x="63.623047"/>
       <use xlink:href="#DejaVuSans-30" x="127.246094"/>
      </g>
     </g>
    </g>
    <g id="ytick_5">
     <g id="line2d_10">
      <g>
       <use xlink:href="#mc50c73efdc" x="54" y="107.04" style="stroke: #000000; stroke-width: 0.8"/>
      </g>
     </g>
     <g id="text_11">
      <!-- 600 -->
      <g transform="translate(27.9125 110.839219)scale(0.1 -0.1)">
       <use xlink:href="#DejaVuSans-36"/>
       <use xlink:href="#DejaVuSans-30" x="63.623047"/>
       <use xlink:href="#DejaVuSans-30" x="127.246094"/>
      </g>
     </g>
    </g>
    <g id="ytick_6">
     <g id="line2d_11">
      <g>
       <use xlink:href="#mc50c73efdc" x="54" y="70.8" style="stroke: #000000; stroke-width: 0.8"/>
      </g>
     </g>
     <g id="text_12">
      <!-- 650 -->
      <g transform="translate(27.9125 74.599219)scale(0.1 -0.1)">
       <use xlink:href="#DejaVuSans-36"/>
       <use xlink:href="#DejaVuSans-35" x="63.623047"/>
       <use xlink:href="#DejaVuSans-30" x="127.246094"/>
      </g>
     </g>
    </g>
    <g id="ytick_7">
     <g id="line2d_12">
      <g>
       <use xlink:href="#mc50c73efdc" x="54" y="34.56" style="stroke: #000000; stroke-width: 0.8"/>
      </g>
     </g>
     <g id="text_13">
      <!-- 700 -->
      <g transform="translate(27.9125 38.359219)scale(0.1 -0.1)">
       <defs>
        <path id="DejaVuSans-37" d="M 525 4666 
L 3525 4666 
L 3525 4397 
L 1831 0 
L 1172 0 
L 2766 4134 
L 525 4134 
L 525 4666 
z
" transform="scale(0.015625)"/>
       </defs>
       <use xlink:href="#DejaVuSans-37"/>
       <use xlink:href="#DejaVuSans-30" x="63.623047"/>
       <use xlink:href="#DejaVuSans-30" x="127.246094"/>
      </g>
     </g>
    </g>
    <g id="text_14">
     <!-- Toughness (J/m2) -->
     <g style="fill: #ff0000" transform="translate(21.832812 186.21125)rotate(-90)scale(0.1 -0.1)">
      <defs>
       <path id="DejaVuSans-6f" d="M 1959 3097 
Q 1497 3097 1228 2736 
Q 959 2375 959 1747 
Q 959 1119 1226 758 
Q 1494 397 1959 397 
Q 2419 397 2687 759 
Q 2956 1122 2956 1747 
Q 2956 2369 2687 2733 
Q 2419 3097 1959 3097 
z
M 1959 3584 
Q 2709 3584 3137 3096 
Q 3566 2609 3566 1747 
Q 3566 888 3137 398 
Q 2709 -91 1959 -91 
Q 1206 -91 779 398 
Q 353 888 353 1747 
Q 353 2609 779 3096 
Q 1206 3584 1959 3584 
z
" transform="scale(0.015625)"/>
       <path id="DejaVuSans-67" d="M 2906 1791 
Q 2906 2416 2648 2759 
Q 2391 3103 1925 3103 
Q 1463 3103 1205 2759 
Q 947 2416 947 1791 
Q 947 1169 1205 825 
Q 1463 481 1925 481 
Q 2391 481 2648 825 
Q 2906 1169 2906 1791 
z
M 3481 434 
Q 3481 -459 3084 -895 
Q 2688 -1331 1869 -1331 
Q 1566 -1331 1297 -1286 
Q 1028 -1241 775 -1147 
L 775 -588 
Q 1028 -725 1275 -790 
Q 1522 -856 1778 -856 
Q 2344 -856 2625 -561 
Q 2906 -266 2906 331 
L 2906 616 
Q 2728 306 2450 153 
Q 2172 0 1784 0 
Q 1141 0 747 490 
Q 353 981 353 1791 
Q 353 2603 747 3093 
Q 1141 3584 1784 3584 
Q 2172 3584 2450 3431 
Q 2728 3278 2906 2969 
L 2906 3500 
L 3481 3500 
L 3481 434 
z
" transform="scale(0.015625)"/>
       <path id="DejaVuSans-68" d="M 3513 2113 
L 3513 0 
L 2938 0 
L 2938 2094 
Q 2938 2591 2744 2837 
Q 2550 3084 2163 3084 
Q 1697 3084 1428 2787 
Q 1159 2491 1159 1978 
L 1159 0 
L 581 0 
L 581 4863 
L 1159 4863 
L 1159 2956 
Q 1366 3272 1645 3428 
Q 1925 3584 2291 3584 
Q 2894 3584 3203 3211 
Q 3513 2838 3513 2113 
z
" transform="scale(0.015625)"/>
       <path id="DejaVuSans-6e" d="M 3513 2113 
L 3513 0 
L 2938 0 
L 2938 2094 
Q 2938 2591 2744 2837 
Q 2550 3084 2163 3084 
Q 1697 3084 1428 2787 
Q 1159 2491 1159 1978 
L 1159 0 
L 581 0 
L 581 3500 
L 1159 3500 
L 1159 2956 
Q 1366 3272 1645 3428 
Q 1925 3584 2291 3584 
Q 2894 3584 3203 3211 
Q 3513 2838 3513 2113 
z
" transform="scale(0.015625)"/>
       <path id="DejaVuSans-73" d="M 2834 3397 
L 2834 2853 
Q 2591 2978 2328 3040 
Q 2066 3103 1784 3103 
Q 1356 3103 1142 2972 
Q 928 2841 928 2578 
Q 928 2378 1081 2264 
Q 1234 2150 1697 2047 
L 1894 2003 
Q 2506 1872 2764 1633 
Q 3022 1394 3022 966 
Q 3022 478 2636 193 
Q 2250 -91 1575 -91 
Q 1294 -91 989 -36 
Q 684 19 347 128 
L 347 722 
Q 666 556 975 473 
Q 1284 391 1588 391 
Q 1994 391 2212 530 
Q 2431 669 2431 922 
Q 2431 1156 2273 1281 
Q 2116 1406 1581 1522 
L 1381 1569 
Q 847 1681 609 1914 
Q 372 2147 372 2553 
Q 372 3047 722 3315 
Q 1072 3584 1716 3584 
Q 2034 3584 2315 3537 
Q 2597 3491 2834 3397 
z
" transform="scale(0.015625)"/>
       <path id="DejaVuSans-20" transform="scale(0.015625)"/>
       <path id="DejaVuSans-28" d="M 1984 4856 
Q 1566 4138 1362 3434 
Q 1159 2731 1159 2009 
Q 1159 1288 1364 580 
Q 1569 -128 1984 -844 
L 1484 -844 
Q 1016 -109 783 600 
Q 550 1309 550 2009 
Q 550 2706 781 3412 
Q 1013 4119 1484 4856 
L 1984 4856 
z
" transform="scale(0.015625)"/>
       <path id="DejaVuSans-4a" d="M 628 4666 
L 1259 4666 
L 1259 325 
Q 1259 -519 939 -900 
Q 619 -1281 -91 -1281 
L -331 -1281 
L -331 -750 
L -134 -750 
Q 284 -750 456 -515 
Q 628 -281 628 325 
L 628 4666 
z
" transform="scale(0.015625)"/>
       <path id="DejaVuSans-2f" d="M 1625 4666 
L 2156 4666 
L 531 -594 
L 0 -594 
L 1625 4666 
z
" transform="scale(0.015625)"/>
       <path id="DejaVuSans-29" d="M 513 4856 
L 1013 4856 
Q 1481 4119 1714 3412 
Q 1947 2706 1947 2009 
Q 1947 1309 1714 600 
Q 1481 -109 1013 -844 
L 513 -844 
Q 928 -128 1133 580 
Q 1338 1288 1338 2009 
Q 1338 2731 1133 3434 
Q 928 4138 513 4856 
z
" transform="scale(0.015625)"/>
      </defs>
      <use xlink:href="#DejaVuSans-54"/>
      <use xlink:href="#DejaVuSans-6f" x="44.083984"/>
      <use xlink:href="#DejaVuSans-75" x="105.265625"/>
      <use xlink:href="#DejaVuSans-67" x="168.644531"/>
      <use xlink:href="#DejaVuSans-68" x="232.121094"/>
      <use xlink:href="#DejaVuSans-6e" x="295.5"/>
      <use xlink:href="#DejaVuSans-65" x="358.878906"/>
      <use xlink:href="#DejaVuSans-73" x="420.402344"/>
      <use xlink:href="#DejaVuSans-73" x="472.501953"/>
      <use xlink:href="#DejaVuSans-20" x="524.601562"/>
      <use xlink:href="#DejaVuSans-28" x="556.388672"/>
      <use xlink:href="#DejaVuSans-4a" x="595.402344"/>
      <use xlink:href="#DejaVuSans-2f" x="624.894531"/>
      <use xlink:href="#DejaVuSans-6d" x="658.585938"/>
      <use xlink:href="#DejaVuSans-32" x="755.998047"/>
      <use xlink:href="#DejaVuSans-29" x="819.621094"/>
     </g>
    </g>
   </g>
   <g id="line2d_13">
    <path d="M 69.218182 97.514409 
L 72.292562 96.881064 
L 75.366942 96.226021 
L 78.441322 95.549687 
L 81.515702 94.852529 
L 84.590083 94.135069 
L 87.664463 93.397886 
L 90.738843 92.641613 
L 93.813223 91.866936 
L 96.887603 91.074591 
L 99.961983 90.265362 
L 103.036364 89.440083 
L 106.110744 88.599629 
L 109.185124 87.744918 
L 112.259504 86.876907 
L 115.333884 85.99659 
L 118.408264 85.104993 
L 121.482645 84.203175 
L 124.557025 83.292222 
L 127.631405 82.373244 
L 130.705785 81.447374 
L 133.780165 80.515764 
L 136.854545 79.579583 
L 139.928926 78.640012 
L 143.003306 77.698245 
L 146.077686 76.755482 
L 149.152066 75.812931 
L 152.226446 74.8718 
L 155.300826 73.933302 
L 158.375207 72.998646 
L 161.449587 72.069038 
L 164.523967 71.145682 
L 167.598347 70.229771 
L 170.672727 69.322492 
L 173.747107 68.425024 
L 176.821488 67.538531 
L 179.895868 66.664168 
L 182.970248 65.803075 
L 186.044628 64.956378 
L 189.119008 64.12519 
L 192.193388 63.310605 
L 195.267769 62.513703 
L 198.342149 61.735546 
L 201.416529 60.977177 
L 204.490909 60.239622 
L 207.565289 59.523887 
L 210.639669 58.83096 
L 213.71405 58.161807 
L 216.78843 57.517374 
L 219.86281 56.898583 
L 222.93719 56.306336 
L 226.01157 55.74151 
L 229.08595 55.204958 
L 232.160331 54.697506 
L 235.234711 54.219953 
L 238.309091 53.77307 
L 241.383471 53.357597 
L 244.457851 52.974243 
L 247.532231 52.623681 
L 250.606612 52.306552 
L 253.680992 52.023455 
L 256.755372 51.774952 
L 259.829752 51.561563 
L 262.904132 51.38376 
L 265.978512 51.241972 
L 269.052893 51.136577 
L 272.127273 51.0679 
L 275.201653 51.036213 
L 278.276033 51.041732 
L 281.350413 51.084613 
L 284.424793 51.164949 
L 287.499174 51.282771 
L 290.573554 51.438045 
L 293.647934 51.630669 
L 296.722314 51.860469 
L 299.796694 52.127205 
L 302.871074 52.43056 
L 305.945455 52.770147 
L 309.019835 53.145505 
L 312.094215 53.556097 
L 315.168595 54.001313 
L 318.242975 54.480468 
L 321.317355 54.992804 
L 324.391736 55.53749 
L 327.466116 56.113624 
L 330.540496 56.720234 
L 333.614876 57.356279 
L 336.689256 58.020654 
L 339.763636 58.712191 
L 342.838017 59.429663 
L 345.912397 60.171785 
L 348.986777 60.937221 
L 352.061157 61.724587 
L 355.135537 62.532452 
L 358.209917 63.359348 
L 361.284298 64.203771 
L 364.358678 65.064187 
L 367.433058 65.939039 
L 370.507438 66.826748 
L 373.581818 67.725721 
" clip-path="url(#pf0e6325051)" style="fill: none; stroke: #ff0000; stroke-width: 0.5; stroke-linecap: square"/>
   </g>
   <g id="line2d_14">
    <path d="M 115.069403 252 
L 115.069403 34.56 
" clip-path="url(#pf0e6325051)" style="fill: none; stroke-dasharray: 5.55,2.4; stroke-dashoffset: 0; stroke: #808080; stroke-opacity: 0.7; stroke-width: 1.5"/>
   </g>
   <g id="patch_3">
    <path d="M 54 252 
L 54 34.56 
" style="fill: none; stroke: #000000; stroke-width: 0.8; stroke-linejoin: miter; stroke-linecap: square"/>
   </g>
   <g id="patch_4">
    <path d="M 388.8 252 
L 388.8 34.56 
" style="fill: none; stroke: #000000; stroke-width: 0.8; stroke-linejoin: miter; stroke-linecap: square"/>
   </g>
   <g id="patch_5">
    <path d="M 54 252 
L 388.8 252 
" style="fill: none; stroke: #000000; stroke-width: 0.8; stroke-linejoin: miter; stroke-linecap: square"/>
   </g>
   <g id="patch_6">
    <path d="M 54 34.56 
L 388.8 34.56 
" style="fill: none; stroke: #000000; stroke-width: 0.8; stroke-linejoin: miter; stroke-linecap: square"/>
   </g>
  </g>
  <g id="axes_2">
   <g id="PolyCollection_3">
    <defs>
     <path id="m39d8528cbd" d="M 69.218182 -156.414448 
L 69.218182 -126.609767 
L 72.292562 -126.609767 
L 75.366942 -126.609768 
L 78.441322 -126.609768 
L 81.515702 -126.609768 
L 84.590083 -126.609768 
L 87.664463 -126.609768 
L 90.738843 -126.609768 
L 93.813223 -126.609768 
L 96.887603 -126.609768 
L 99.961983 -126.609768 
L 103.036364 -126.609768 
L 106.110744 -126.609767 
L 109.185124 -126.609767 
L 112.259504 -126.609767 
L 115.333884 -126.609766 
L 118.408264 -126.609766 
L 121.482645 -126.609765 
L 124.557025 -126.609765 
L 127.631405 -126.609764 
L 130.705785 -126.609763 
L 133.780165 -126.609762 
L 136.854545 -126.609762 
L 139.928926 -126.609761 
L 143.003306 -126.60976 
L 146.077686 -126.609759 
L 149.152066 -126.609758 
L 152.226446 -126.609757 
L 155.300826 -126.609756 
L 158.375207 -126.609755 
L 161.449587 -126.609753 
L 164.523967 -126.609752 
L 167.598347 -126.609751 
L 170.672727 -126.609749 
L 173.747107 -126.609748 
L 176.821488 -126.609746 
L 179.895868 -126.609745 
L 182.970248 -126.609743 
L 186.044628 -126.609741 
L 189.119008 -126.60974 
L 192.193388 -126.609738 
L 195.267769 -126.609736 
L 198.342149 -126.609734 
L 201.416529 -126.609732 
L 204.490909 -126.60973 
L 207.565289 -126.609728 
L 210.639669 -126.609726 
L 213.71405 -126.609724 
L 216.78843 -126.609722 
L 219.86281 -126.609719 
L 222.93719 -126.609717 
L 226.01157 -126.609715 
L 229.08595 -126.609712 
L 232.160331 -126.60971 
L 235.234711 -126.609707 
L 238.309091 -126.609705 
L 241.383471 -126.609702 
L 244.457851 -126.609699 
L 247.532231 -126.609697 
L 250.606612 -126.609694 
L 253.680992 -126.609691 
L 256.755372 -126.609688 
L 259.829752 -126.609685 
L 262.904132 -126.609682 
L 265.978512 -126.609679 
L 269.052893 -126.609676 
L 272.127273 -126.609673 
L 275.201653 -126.60967 
L 278.276033 -126.609666 
L 281.350413 -126.609663 
L 284.424793 -126.609659 
L 287.499174 -126.609656 
L 290.573554 -126.609653 
L 293.647934 -126.609649 
L 296.722314 -126.609645 
L 299.796694 -126.609642 
L 302.871074 -126.609638 
L 305.945455 -126.609634 
L 309.019835 -126.60963 
L 312.094215 -126.609626 
L 315.168595 -126.609623 
L 318.242975 -126.609619 
L 321.317355 -126.609615 
L 324.391736 -126.60961 
L 327.466116 -126.609606 
L 330.540496 -126.609602 
L 333.614876 -126.609598 
L 336.689256 -126.609593 
L 339.763636 -126.609589 
L 342.838017 -126.609585 
L 345.912397 -126.60958 
L 348.986777 -126.609576 
L 352.061157 -126.609571 
L 355.135537 -126.609566 
L 358.209917 -126.609562 
L 361.284298 -126.609557 
L 364.358678 -126.609552 
L 367.433058 -126.609547 
L 370.507438 -126.609543 
L 373.581818 -126.609538 
L 373.581818 -156.414504 
L 373.581818 -156.414504 
L 370.507438 -156.414501 
L 367.433058 -156.414499 
L 364.358678 -156.414496 
L 361.284298 -156.414494 
L 358.209917 -156.414492 
L 355.135537 -156.41449 
L 352.061157 -156.414487 
L 348.986777 -156.414485 
L 345.912397 -156.414483 
L 342.838017 -156.414481 
L 339.763636 -156.414479 
L 336.689256 -156.414477 
L 333.614876 -156.414475 
L 330.540496 -156.414473 
L 327.466116 -156.414471 
L 324.391736 -156.414469 
L 321.317355 -156.414467 
L 318.242975 -156.414465 
L 315.168595 -156.414463 
L 312.094215 -156.414462 
L 309.019835 -156.41446 
L 305.945455 -156.414458 
L 302.871074 -156.414457 
L 299.796694 -156.414455 
L 296.722314 -156.414454 
L 293.647934 -156.414452 
L 290.573554 -156.414451 
L 287.499174 -156.414449 
L 284.424793 -156.414448 
L 281.350413 -156.414447 
L 278.276033 -156.414445 
L 275.201653 -156.414444 
L 272.127273 -156.414443 
L 269.052893 -156.414442 
L 265.978512 -156.41444 
L 262.904132 -156.414439 
L 259.829752 -156.414438 
L 256.755372 -156.414437 
L 253.680992 -156.414436 
L 250.606612 -156.414435 
L 247.532231 -156.414434 
L 244.457851 -156.414434 
L 241.383471 -156.414433 
L 238.309091 -156.414432 
L 235.234711 -156.414431 
L 232.160331 -156.41443 
L 229.08595 -156.41443 
L 226.01157 -156.414429 
L 222.93719 -156.414429 
L 219.86281 -156.414428 
L 216.78843 -156.414427 
L 213.71405 -156.414427 
L 210.639669 -156.414427 
L 207.565289 -156.414426 
L 204.490909 -156.414426 
L 201.416529 -156.414425 
L 198.342149 -156.414425 
L 195.267769 -156.414425 
L 192.193388 -156.414425 
L 189.119008 -156.414425 
L 186.044628 -156.414424 
L 182.970248 -156.414424 
L 179.895868 -156.414424 
L 176.821488 -156.414424 
L 173.747107 -156.414424 
L 170.672727 -156.414424 
L 167.598347 -156.414424 
L 164.523967 -156.414425 
L 161.449587 -156.414425 
L 158.375207 -156.414425 
L 155.300826 -156.414425 
L 152.226446 -156.414426 
L 149.152066 -156.414426 
L 146.077686 -156.414426 
L 143.003306 -156.414427 
L 139.928926 -156.414427 
L 136.854545 -156.414428 
L 133.780165 -156.414428 
L 130.705785 -156.414429 
L 127.631405 -156.414429 
L 124.557025 -156.41443 
L 121.482645 -156.414431 
L 118.408264 -156.414431 
L 115.333884 -156.414432 
L 112.259504 -156.414433 
L 109.185124 -156.414434 
L 106.110744 -156.414435 
L 103.036364 -156.414436 
L 99.961983 -156.414437 
L 96.887603 -156.414438 
L 93.813223 -156.414439 
L 90.738843 -156.41444 
L 87.664463 -156.414441 
L 84.590083 -156.414442 
L 81.515702 -156.414443 
L 78.441322 -156.414444 
L 75.366942 -156.414446 
L 72.292562 -156.414447 
L 69.218182 -156.414448 
z
" style="stroke: #0000ff; stroke-opacity: 0.5"/>
    </defs>
    <g clip-path="url(#pf0e6325051)">
     <use xlink:href="#m39d8528cbd" x="0" y="288" style="fill: #0000ff; fill-opacity: 0.5; stroke: #0000ff; stroke-opacity: 0.5"/>
    </g>
   </g>
   <g id="PolyCollection_4">
    <defs>
     <path id="mf8a03f7e02" d="M 69.218182 -171.316789 
L 69.218182 -111.707426 
L 72.292562 -111.707427 
L 75.366942 -111.707429 
L 78.441322 -111.707429 
L 81.515702 -111.70743 
L 84.590083 -111.707431 
L 87.664463 -111.707432 
L 90.738843 -111.707432 
L 93.813223 -111.707433 
L 96.887603 -111.707433 
L 99.961983 -111.707433 
L 103.036364 -111.707434 
L 106.110744 -111.707434 
L 109.185124 -111.707434 
L 112.259504 -111.707433 
L 115.333884 -111.707433 
L 118.408264 -111.707433 
L 121.482645 -111.707432 
L 124.557025 -111.707432 
L 127.631405 -111.707431 
L 130.705785 -111.70743 
L 133.780165 -111.70743 
L 136.854545 -111.707429 
L 139.928926 -111.707428 
L 143.003306 -111.707426 
L 146.077686 -111.707425 
L 149.152066 -111.707424 
L 152.226446 -111.707422 
L 155.300826 -111.707421 
L 158.375207 -111.707419 
L 161.449587 -111.707418 
L 164.523967 -111.707416 
L 167.598347 -111.707414 
L 170.672727 -111.707412 
L 173.747107 -111.70741 
L 176.821488 -111.707407 
L 179.895868 -111.707405 
L 182.970248 -111.707402 
L 186.044628 -111.7074 
L 189.119008 -111.707397 
L 192.193388 -111.707394 
L 195.267769 -111.707392 
L 198.342149 -111.707389 
L 201.416529 -111.707386 
L 204.490909 -111.707382 
L 207.565289 -111.707379 
L 210.639669 -111.707376 
L 213.71405 -111.707372 
L 216.78843 -111.707369 
L 219.86281 -111.707365 
L 222.93719 -111.707361 
L 226.01157 -111.707358 
L 229.08595 -111.707354 
L 232.160331 -111.70735 
L 235.234711 -111.707345 
L 238.309091 -111.707341 
L 241.383471 -111.707337 
L 244.457851 -111.707332 
L 247.532231 -111.707328 
L 250.606612 -111.707323 
L 253.680992 -111.707318 
L 256.755372 -111.707314 
L 259.829752 -111.707309 
L 262.904132 -111.707303 
L 265.978512 -111.707298 
L 269.052893 -111.707293 
L 272.127273 -111.707288 
L 275.201653 -111.707282 
L 278.276033 -111.707277 
L 281.350413 -111.707271 
L 284.424793 -111.707265 
L 287.499174 -111.707259 
L 290.573554 -111.707253 
L 293.647934 -111.707247 
L 296.722314 -111.707241 
L 299.796694 -111.707235 
L 302.871074 -111.707229 
L 305.945455 -111.707222 
L 309.019835 -111.707216 
L 312.094215 -111.707209 
L 315.168595 -111.707202 
L 318.242975 -111.707195 
L 321.317355 -111.707188 
L 324.391736 -111.707181 
L 327.466116 -111.707174 
L 330.540496 -111.707167 
L 333.614876 -111.707159 
L 336.689256 -111.707152 
L 339.763636 -111.707144 
L 342.838017 -111.707137 
L 345.912397 -111.707129 
L 348.986777 -111.707121 
L 352.061157 -111.707113 
L 355.135537 -111.707105 
L 358.209917 -111.707097 
L 361.284298 -111.707089 
L 364.358678 -111.70708 
L 367.433058 -111.707072 
L 370.507438 -111.707063 
L 373.581818 -111.707054 
L 373.581818 -171.316987 
L 373.581818 -171.316987 
L 370.507438 -171.316981 
L 367.433058 -171.316975 
L 364.358678 -171.316969 
L 361.284298 -171.316963 
L 358.209917 -171.316957 
L 355.135537 -171.316951 
L 352.061157 -171.316945 
L 348.986777 -171.31694 
L 345.912397 -171.316934 
L 342.838017 -171.316929 
L 339.763636 -171.316924 
L 336.689256 -171.316918 
L 333.614876 -171.316913 
L 330.540496 -171.316908 
L 327.466116 -171.316903 
L 324.391736 -171.316898 
L 321.317355 -171.316893 
L 318.242975 -171.316889 
L 315.168595 -171.316884 
L 312.094215 -171.316879 
L 309.019835 -171.316875 
L 305.945455 -171.316871 
L 302.871074 -171.316866 
L 299.796694 -171.316862 
L 296.722314 -171.316858 
L 293.647934 -171.316854 
L 290.573554 -171.31685 
L 287.499174 -171.316846 
L 284.424793 -171.316842 
L 281.350413 -171.316838 
L 278.276033 -171.316835 
L 275.201653 -171.316831 
L 272.127273 -171.316828 
L 269.052893 -171.316824 
L 265.978512 -171.316821 
L 262.904132 -171.316818 
L 259.829752 -171.316815 
L 256.755372 -171.316812 
L 253.680992 -171.316809 
L 250.606612 -171.316806 
L 247.532231 -171.316803 
L 244.457851 -171.316801 
L 241.383471 -171.316798 
L 238.309091 -171.316796 
L 235.234711 -171.316793 
L 232.160331 -171.316791 
L 229.08595 -171.316789 
L 226.01157 -171.316786 
L 222.93719 -171.316784 
L 219.86281 -171.316782 
L 216.78843 -171.31678 
L 213.71405 -171.316779 
L 210.639669 -171.316777 
L 207.565289 -171.316775 
L 204.490909 -171.316774 
L 201.416529 -171.316772 
L 198.342149 -171.316771 
L 195.267769 -171.316769 
L 192.193388 -171.316768 
L 189.119008 -171.316767 
L 186.044628 -171.316766 
L 182.970248 -171.316765 
L 179.895868 -171.316764 
L 176.821488 -171.316763 
L 173.747107 -171.316763 
L 170.672727 -171.316762 
L 167.598347 -171.316761 
L 164.523967 -171.316761 
L 161.449587 -171.316761 
L 158.375207 -171.31676 
L 155.300826 -171.31676 
L 152.226446 -171.31676 
L 149.152066 -171.31676 
L 146.077686 -171.31676 
L 143.003306 -171.31676 
L 139.928926 -171.31676 
L 136.854545 -171.316761 
L 133.780165 -171.316761 
L 130.705785 -171.316762 
L 127.631405 -171.316762 
L 124.557025 -171.316763 
L 121.482645 -171.316764 
L 118.408264 -171.316764 
L 115.333884 -171.316765 
L 112.259504 -171.316766 
L 109.185124 -171.316767 
L 106.110744 -171.316768 
L 103.036364 -171.31677 
L 99.961983 -171.316771 
L 96.887603 -171.316772 
L 93.813223 -171.316774 
L 90.738843 -171.316776 
L 87.664463 -171.316777 
L 84.590083 -171.316779 
L 81.515702 -171.316781 
L 78.441322 -171.316783 
L 75.366942 -171.316785 
L 72.292562 -171.316787 
L 69.218182 -171.316789 
z
" style="stroke: #0000ff; stroke-opacity: 0.3"/>
    </defs>
    <g clip-path="url(#pf0e6325051)">
     <use xlink:href="#mf8a03f7e02" x="0" y="288" style="fill: #0000ff; fill-opacity: 0.3; stroke: #0000ff; stroke-opacity: 0.3"/>
    </g>
   </g>
   <g id="matplotlib.axis_3">
    <g id="ytick_8">
     <g id="line2d_15">
      <defs>
       <path id="mb4a8c63089" d="M 0 0 
L 3.5 0 
" style="stroke: #000000; stroke-width: 0.8"/>
      </defs>
      <g>
       <use xlink:href="#mb4a8c63089" x="388.8" y="233.88" style="stroke: #000000; stroke-width: 0.8"/>
      </g>
     </g>
     <g id="text_15">
      <!-- 3 -->
      <g transform="translate(395.8 237.679219)scale(0.1 -0.1)">
       <defs>
        <path id="DejaVuSans-33" d="M 2597 2516 
Q 3050 2419 3304 2112 
Q 3559 1806 3559 1356 
Q 3559 666 3084 287 
Q 2609 -91 1734 -91 
Q 1441 -91 1130 -33 
Q 819 25 488 141 
L 488 750 
Q 750 597 1062 519 
Q 1375 441 1716 441 
Q 2309 441 2620 675 
Q 2931 909 2931 1356 
Q 2931 1769 2642 2001 
Q 2353 2234 1838 2234 
L 1294 2234 
L 1294 2753 
L 1863 2753 
Q 2328 2753 2575 2939 
Q 2822 3125 2822 3475 
Q 2822 3834 2567 4026 
Q 2313 4219 1838 4219 
Q 1578 4219 1281 4162 
Q 984 4106 628 3988 
L 628 4550 
Q 988 4650 1302 4700 
Q 1616 4750 1894 4750 
Q 2613 4750 3031 4423 
Q 3450 4097 3450 3541 
Q 3450 3153 3228 2886 
Q 3006 2619 2597 2516 
z
" transform="scale(0.015625)"/>
       </defs>
       <use xlink:href="#DejaVuSans-33"/>
      </g>
     </g>
    </g>
    <g id="ytick_9">
     <g id="line2d_16">
      <g>
       <use xlink:href="#mb4a8c63089" x="388.8" y="197.64" style="stroke: #000000; stroke-width: 0.8"/>
      </g>
     </g>
     <g id="text_16">
      <!-- 4 -->
      <g transform="translate(395.8 201.439219)scale(0.1 -0.1)">
       <use xlink:href="#DejaVuSans-34"/>
      </g>
     </g>
    </g>
    <g id="ytick_10">
     <g id="line2d_17">
      <g>
       <use xlink:href="#mb4a8c63089" x="388.8" y="161.4" style="stroke: #000000; stroke-width: 0.8"/>
      </g>
     </g>
     <g id="text_17">
      <!-- 5 -->
      <g transform="translate(395.8 165.199219)scale(0.1 -0.1)">
       <use xlink:href="#DejaVuSans-35"/>
      </g>
     </g>
    </g>
    <g id="ytick_11">
     <g id="line2d_18">
      <g>
       <use xlink:href="#mb4a8c63089" x="388.8" y="125.16" style="stroke: #000000; stroke-width: 0.8"/>
      </g>
     </g>
     <g id="text_18">
      <!-- 6 -->
      <g transform="translate(395.8 128.959219)scale(0.1 -0.1)">
       <use xlink:href="#DejaVuSans-36"/>
      </g>
     </g>
    </g>
    <g id="ytick_12">
     <g id="line2d_19">
      <g>
       <use xlink:href="#mb4a8c63089" x="388.8" y="88.92" style="stroke: #000000; stroke-width: 0.8"/>
      </g>
     </g>
     <g id="text_19">
      <!-- 7 -->
      <g transform="translate(395.8 92.719219)scale(0.1 -0.1)">
       <use xlink:href="#DejaVuSans-37"/>
      </g>
     </g>
    </g>
    <g id="ytick_13">
     <g id="line2d_20">
      <g>
       <use xlink:href="#mb4a8c63089" x="388.8" y="52.68" style="stroke: #000000; stroke-width: 0.8"/>
      </g>
     </g>
     <g id="text_20">
      <!-- 8 -->
      <g transform="translate(395.8 56.479219)scale(0.1 -0.1)">
       <use xlink:href="#DejaVuSans-38"/>
      </g>
     </g>
    </g>
    <g id="text_21">
     <!-- Modulus (GPa) -->
     <g style="fill: #0000ff" transform="translate(413.760938 179.377656)rotate(-90)scale(0.1 -0.1)">
      <defs>
       <path id="DejaVuSans-4d" d="M 628 4666 
L 1569 4666 
L 2759 1491 
L 3956 4666 
L 4897 4666 
L 4897 0 
L 4281 0 
L 4281 4097 
L 3078 897 
L 2444 897 
L 1241 4097 
L 1241 0 
L 628 0 
L 628 4666 
z
" transform="scale(0.015625)"/>
       <path id="DejaVuSans-64" d="M 2906 2969 
L 2906 4863 
L 3481 4863 
L 3481 0 
L 2906 0 
L 2906 525 
Q 2725 213 2448 61 
Q 2172 -91 1784 -91 
Q 1150 -91 751 415 
Q 353 922 353 1747 
Q 353 2572 751 3078 
Q 1150 3584 1784 3584 
Q 2172 3584 2448 3432 
Q 2725 3281 2906 2969 
z
M 947 1747 
Q 947 1113 1208 752 
Q 1469 391 1925 391 
Q 2381 391 2643 752 
Q 2906 1113 2906 1747 
Q 2906 2381 2643 2742 
Q 2381 3103 1925 3103 
Q 1469 3103 1208 2742 
Q 947 2381 947 1747 
z
" transform="scale(0.015625)"/>
       <path id="DejaVuSans-6c" d="M 603 4863 
L 1178 4863 
L 1178 0 
L 603 0 
L 603 4863 
z
" transform="scale(0.015625)"/>
       <path id="DejaVuSans-47" d="M 3809 666 
L 3809 1919 
L 2778 1919 
L 2778 2438 
L 4434 2438 
L 4434 434 
Q 4069 175 3628 42 
Q 3188 -91 2688 -91 
Q 1594 -91 976 548 
Q 359 1188 359 2328 
Q 359 3472 976 4111 
Q 1594 4750 2688 4750 
Q 3144 4750 3555 4637 
Q 3966 4525 4313 4306 
L 4313 3634 
Q 3963 3931 3569 4081 
Q 3175 4231 2741 4231 
Q 1884 4231 1454 3753 
Q 1025 3275 1025 2328 
Q 1025 1384 1454 906 
Q 1884 428 2741 428 
Q 3075 428 3337 486 
Q 3600 544 3809 666 
z
" transform="scale(0.015625)"/>
       <path id="DejaVuSans-50" d="M 1259 4147 
L 1259 2394 
L 2053 2394 
Q 2494 2394 2734 2622 
Q 2975 2850 2975 3272 
Q 2975 3691 2734 3919 
Q 2494 4147 2053 4147 
L 1259 4147 
z
M 628 4666 
L 2053 4666 
Q 2838 4666 3239 4311 
Q 3641 3956 3641 3272 
Q 3641 2581 3239 2228 
Q 2838 1875 2053 1875 
L 1259 1875 
L 1259 0 
L 628 0 
L 628 4666 
z
" transform="scale(0.015625)"/>
      </defs>
      <use xlink:href="#DejaVuSans-4d"/>
      <use xlink:href="#DejaVuSans-6f" x="86.279297"/>
      <use xlink:href="#DejaVuSans-64" x="147.460938"/>
      <use xlink:href="#DejaVuSans-75" x="210.9375"/>
      <use xlink:href="#DejaVuSans-6c" x="274.316406"/>
      <use xlink:href="#DejaVuSans-75" x="302.099609"/>
      <use xlink:href="#DejaVuSans-73" x="365.478516"/>
      <use xlink:href="#DejaVuSans-20" x="417.578125"/>
      <use xlink:href="#DejaVuSans-28" x="449.365234"/>
      <use xlink:href="#DejaVuSans-47" x="488.378906"/>
      <use xlink:href="#DejaVuSans-50" x="565.869141"/>
      <use xlink:href="#DejaVuSans-61" x="621.671875"/>
      <use xlink:href="#DejaVuSans-29" x="682.951172"/>
     </g>
    </g>
   </g>
   <g id="line2d_21">
    <path d="M 69.218182 146.487892 
L 72.292562 146.487893 
L 75.366942 146.487893 
L 78.441322 146.487894 
L 81.515702 146.487894 
L 84.590083 146.487895 
L 87.664463 146.487895 
L 90.738843 146.487896 
L 93.813223 146.487897 
L 96.887603 146.487897 
L 99.961983 146.487898 
L 103.036364 146.487898 
L 106.110744 146.487899 
L 109.185124 146.4879 
L 112.259504 146.4879 
L 115.333884 146.487901 
L 118.408264 146.487901 
L 121.482645 146.487902 
L 124.557025 146.487903 
L 127.631405 146.487903 
L 130.705785 146.487904 
L 133.780165 146.487905 
L 136.854545 146.487905 
L 139.928926 146.487906 
L 143.003306 146.487907 
L 146.077686 146.487907 
L 149.152066 146.487908 
L 152.226446 146.487909 
L 155.300826 146.48791 
L 158.375207 146.48791 
L 161.449587 146.487911 
L 164.523967 146.487912 
L 167.598347 146.487912 
L 170.672727 146.487913 
L 173.747107 146.487914 
L 176.821488 146.487915 
L 179.895868 146.487916 
L 182.970248 146.487916 
L 186.044628 146.487917 
L 189.119008 146.487918 
L 192.193388 146.487919 
L 195.267769 146.487919 
L 198.342149 146.48792 
L 201.416529 146.487921 
L 204.490909 146.487922 
L 207.565289 146.487923 
L 210.639669 146.487924 
L 213.71405 146.487925 
L 216.78843 146.487925 
L 219.86281 146.487926 
L 222.93719 146.487927 
L 226.01157 146.487928 
L 229.08595 146.487929 
L 232.160331 146.48793 
L 235.234711 146.487931 
L 238.309091 146.487932 
L 241.383471 146.487933 
L 244.457851 146.487934 
L 247.532231 146.487934 
L 250.606612 146.487935 
L 253.680992 146.487936 
L 256.755372 146.487937 
L 259.829752 146.487938 
L 262.904132 146.487939 
L 265.978512 146.48794 
L 269.052893 146.487941 
L 272.127273 146.487942 
L 275.201653 146.487943 
L 278.276033 146.487944 
L 281.350413 146.487945 
L 284.424793 146.487946 
L 287.499174 146.487947 
L 290.573554 146.487948 
L 293.647934 146.487949 
L 296.722314 146.48795 
L 299.796694 146.487952 
L 302.871074 146.487953 
L 305.945455 146.487954 
L 309.019835 146.487955 
L 312.094215 146.487956 
L 315.168595 146.487957 
L 318.242975 146.487958 
L 321.317355 146.487959 
L 324.391736 146.48796 
L 327.466116 146.487961 
L 330.540496 146.487963 
L 333.614876 146.487964 
L 336.689256 146.487965 
L 339.763636 146.487966 
L 342.838017 146.487967 
L 345.912397 146.487968 
L 348.986777 146.48797 
L 352.061157 146.487971 
L 355.135537 146.487972 
L 358.209917 146.487973 
L 361.284298 146.487974 
L 364.358678 146.487976 
L 367.433058 146.487977 
L 370.507438 146.487978 
L 373.581818 146.487979 
" clip-path="url(#pf0e6325051)" style="fill: none; stroke: #0000ff; stroke-width: 0.5; stroke-linecap: square"/>
   </g>
   <g id="patch_7">
    <path d="M 54 252 
L 54 34.56 
" style="fill: none; stroke: #000000; stroke-width: 0.8; stroke-linejoin: miter; stroke-linecap: square"/>
   </g>
   <g id="patch_8">
    <path d="M 388.8 252 
L 388.8 34.56 
" style="fill: none; stroke: #000000; stroke-width: 0.8; stroke-linejoin: miter; stroke-linecap: square"/>
   </g>
   <g id="patch_9">
    <path d="M 54 252 
L 388.8 252 
" style="fill: none; stroke: #000000; stroke-width: 0.8; stroke-linejoin: miter; stroke-linecap: square"/>
   </g>
   <g id="patch_10">
    <path d="M 54 34.56 
L 388.8 34.56 
" style="fill: none; stroke: #000000; stroke-width: 0.8; stroke-linejoin: miter; stroke-linecap: square"/>
   </g>
  </g>
 </g>
 <defs>
  <clipPath id="pf0e6325051">
   <rect x="54" y="34.56" width="334.8" height="217.44"/>
  </clipPath>
 </defs>
</svg>
